<?xml version="1.0" encoding="UTF-8"?>
<svg xmlns="http://www.w3.org/2000/svg" xmlns:xlink="http://www.w3.org/1999/xlink" version="1.2" >
<font id="Neuzeit Grotesk Bold">
<font-face  font-family="Neuzeit Grotesk" units-per-em="1000" ascent="667" descent="-333" font-style="normal" font-weight="700" font-stretch="normal" cap-height="667" x-height="463" underline-position="-60" underline-thickness="83" />
<missing-glyph  horiz-adv-x="300" d="" />
<glyph glyph-name="NULL" d="" />
<glyph glyph-name="CR" unicode="&#xd;" horiz-adv-x="250" d="" />
<glyph glyph-name="space" unicode="&#x20;" horiz-adv-x="300" d="" />
<glyph glyph-name="exclam" unicode="&#x21;" horiz-adv-x="287" d="M206 667 L81 667 L81 208 L206 208 L206 667 Z M145 135 C101 135 70 104 70 61 C70 18 101 -13 144 -13 C186 -13 218 18 218 60 C218 104 187 135 145 135 L145 135 Z " />
<glyph glyph-name="quotedbl" unicode="&#x22;" horiz-adv-x="412" d="M156 399 L181 667 L32 667 L57 399 L156 399 Z M355 399 L380 667 L231 667 L256 399 L355 399 Z " />
<glyph glyph-name="numbersign" unicode="&#x23;" horiz-adv-x="500" d="M447 294 L361 294 L373 382 L470 382 L470 450 L383 450 L410 637 L342 637 L315 450 L227 450 L253 637 L187 637 L159 450 L55 450 L55 382 L150 382 L136 294 L30 294 L30 227 L126 227 L97 27 L165 27 L194 227 L282 227 L253 27 L322 27 L351 227 L447 227 L447 294 Z M306 383 L292 293 L204 293 L216 383 L306 383 Z " />
<glyph glyph-name="dollar" unicode="&#x24;" horiz-adv-x="500" d="M269 557 C312 550 337 525 338 488 L451 488 C447 586 385 646 269 663 L269 734 L222 734 L222 663 C112 655 38 580 38 475 C38 379 88 326 222 280 L222 105 C176 114 151 144 153 186 L39 186 C37 84 115 6 222 0 L222 -88 L269 -88 L269 0 C315 6 339 12 366 27 C424 59 462 124 462 192 C462 253 432 307 380 338 C349 357 324 368 269 387 L269 557 Z M222 403 C198 413 190 417 180 424 C163 437 152 459 152 482 C152 523 178 550 222 557 L222 403 Z M269 262 C322 245 342 223 342 185 C342 141 315 111 269 105 L269 262 Z " />
<glyph glyph-name="percent" unicode="&#x25;" horiz-adv-x="679" d="M286 547 C286 598 277 623 251 647 C228 667 197 677 162 677 C124 677 89 664 68 642 C48 621 40 592 40 542 L40 456 C40 398 48 371 69 350 C90 329 125 317 164 317 C243 317 286 361 286 441 L286 547 Z M119 542 C119 592 129 606 165 606 C197 606 209 590 209 544 L209 453 C209 403 198 387 164 387 C146 387 132 394 125 405 C120 415 119 419 119 451 L119 542 Z M638 220 C638 271 629 297 603 320 C580 340 549 350 514 350 C476 350 441 337 420 315 C400 294 392 265 392 215 L392 129 C392 72 400 44 421 23 C442 2 477 -10 516 -10 C595 -10 638 34 638 114 L638 220 Z M471 215 C471 265 481 279 517 279 C549 279 561 263 561 217 L561 126 C561 76 550 60 516 60 C499 60 484 67 477 78 C472 88 471 93 471 124 L471 215 Z M579 654 L539 679 L99 14 L139 -12 L579 654 Z " />
<glyph glyph-name="ampersand" unicode="&#x26;" horiz-adv-x="638" d="M510 141 C561 189 569 197 622 255 L537 330 C495 282 488 275 439 231 L347 354 C385 379 401 393 418 413 C443 444 457 482 457 516 C457 598 388 657 294 657 C197 657 127 597 127 515 C127 471 140 440 182 379 C72 308 37 259 37 175 C37 64 120 -17 233 -17 C295 -17 353 8 424 65 L475 0 L622 0 L510 141 Z M282 439 C255 473 247 490 247 513 C247 539 269 560 296 560 C322 560 341 540 341 514 C341 486 326 466 282 439 L282 439 Z M350 155 C315 116 283 98 248 98 C202 98 163 137 163 184 C163 222 184 249 246 289 L350 155 Z " />
<glyph glyph-name="quotesingle" unicode="&#x27;" horiz-adv-x="218" d="M160 399 L186 667 L32 667 L57 399 L160 399 Z " />
<glyph glyph-name="parenleft" unicode="&#x28;" horiz-adv-x="327" d="M289 -155 C197 -37 151 90 151 226 C151 367 198 502 289 622 L208 698 C160 644 136 608 106 540 C60 437 37 334 37 231 C37 67 90 -80 202 -229 L289 -155 Z " />
<glyph glyph-name="parenright" unicode="&#x29;" horiz-adv-x="327" d="M38 625 C129 508 176 379 176 243 C176 102 129 -34 38 -153 L119 -229 C167 -175 191 -139 221 -71 C267 32 290 135 290 238 C290 402 237 550 125 698 L38 625 Z " />
<glyph glyph-name="asterisk" unicode="&#x2a;" horiz-adv-x="414" d="M206 459 L271 379 L326 422 L259 501 L360 538 L335 605 L241 571 L241 667 L170 667 L170 571 L80 598 L55 531 L146 501 L89 422 L150 379 L206 459 Z " />
<glyph glyph-name="plus" unicode="&#x2b;" horiz-adv-x="500" d="M13 388 L13 322 L216 322 L216 124 L284 124 L284 322 L488 322 L488 388 L284 388 L284 586 L216 586 L216 388 L13 388 Z " />
<glyph glyph-name="comma" unicode="&#x2c;" horiz-adv-x="261" d="M207 107 L90 136 L32 -112 L118 -132 L207 107 Z " />
<glyph glyph-name="hyphen" unicode="&#x2d;" horiz-adv-x="222" d="M222 300 L0 300 L0 188 L222 188 L222 300 Z " />
<glyph glyph-name="period" unicode="&#x2e;" horiz-adv-x="261" d="M132 135 C88 135 57 104 57 61 C57 18 88 -13 131 -13 C173 -13 205 18 205 60 C205 104 174 135 132 135 L132 135 Z " />
<glyph glyph-name="slash" unicode="&#x2f;" horiz-adv-x="393" d="M367 667 L279 667 L-53 -207 L35 -207 L367 667 Z " />
<glyph glyph-name="zero" unicode="0" horiz-adv-x="500" d="M458 461 C458 541 441 587 398 625 C360 659 308 677 247 677 C180 677 122 655 86 615 C54 580 41 531 41 445 L41 232 C41 128 54 80 91 43 C127 7 184 -13 251 -13 C315 -13 366 5 403 40 C442 77 458 125 458 202 L458 461 Z M170 445 C170 487 174 507 184 524 C196 545 221 557 251 557 C276 557 298 548 312 532 C327 515 332 496 332 451 L332 219 C332 176 328 156 318 139 C305 118 279 105 251 105 C224 105 197 117 184 137 C172 153 170 165 170 218 L170 445 Z " />
<glyph glyph-name="one" unicode="1" horiz-adv-x="500" d="M235 497 L235 0 L364 0 L364 681 L114 551 L114 432 L235 497 Z " />
<glyph glyph-name="two" unicode="2" horiz-adv-x="500" d="M244 113 L369 296 C428 383 451 439 451 500 C451 603 368 677 251 677 C119 677 39 591 40 450 L158 450 C159 484 161 496 168 514 C179 543 207 561 243 561 C289 561 322 530 322 487 C322 455 312 434 261 356 L28 0 L433 0 L433 113 L244 113 Z " />
<glyph glyph-name="three" unicode="3" horiz-adv-x="500" d="M250 553 L98 350 L170 289 C189 301 208 306 231 306 C291 306 334 263 334 204 C334 146 289 102 232 102 C183 102 148 133 140 185 L25 181 C31 131 39 105 59 75 C96 19 161 -13 235 -13 C363 -13 457 83 457 213 C457 326 387 405 279 414 L464 663 L58 663 L58 553 L250 553 Z " />
<glyph glyph-name="four" unicode="4" horiz-adv-x="500" d="M280 137 L280 0 L403 0 L403 137 L464 137 L464 247 L403 247 L403 669 L269 669 L35 244 L35 137 L280 137 Z M280 247 L140 247 L280 495 L280 247 Z " />
<glyph glyph-name="five" unicode="5" horiz-adv-x="500" d="M187 547 L410 547 L410 663 L70 663 L70 268 L154 268 C179 300 204 313 239 313 C295 313 338 268 338 210 C338 152 296 108 240 108 C195 108 166 131 147 181 L35 139 C54 92 66 72 90 47 C130 8 184 -13 244 -13 C372 -13 463 81 463 213 C463 332 380 422 270 422 C241 422 218 417 187 404 L187 547 Z " />
<glyph glyph-name="six" unicode="6" horiz-adv-x="500" d="M418 663 L272 663 L106 401 C53 317 33 262 33 201 C33 79 125 -13 245 -13 C368 -13 467 86 467 209 C467 318 385 406 282 406 C271 406 263 405 247 400 L418 663 Z M252 300 C305 300 346 258 346 203 C346 150 303 107 249 107 C195 107 154 148 154 203 C154 257 197 300 252 300 L252 300 Z " />
<glyph glyph-name="seven" unicode="7" horiz-adv-x="500" d="M285 547 L69 0 L202 0 L464 663 L70 663 L70 547 L285 547 Z " />
<glyph glyph-name="eight" unicode="8" horiz-adv-x="500" d="M370 349 C397 363 407 372 422 394 C441 423 450 455 450 491 C450 599 368 677 254 677 C137 677 54 598 54 487 C54 423 82 374 133 349 C67 321 34 267 34 186 C34 68 121 -13 248 -13 C376 -13 466 72 466 193 C466 269 434 321 370 349 L370 349 Z M253 567 C298 567 337 529 337 485 C337 441 297 403 252 403 C206 403 170 440 170 487 C170 533 205 567 253 567 L253 567 Z M251 288 C300 288 342 246 342 195 C342 144 301 103 250 103 C196 103 157 142 157 195 C157 248 198 288 251 288 L251 288 Z " />
<glyph glyph-name="nine" unicode="9" horiz-adv-x="500" d="M88 0 L232 0 L396 261 C447 342 468 400 468 461 C468 585 377 677 254 677 C129 677 33 582 33 457 C33 344 116 258 226 258 C235 258 242 259 256 262 L88 0 Z M253 558 C304 558 346 515 346 462 C346 408 304 367 250 367 C197 367 156 409 156 463 C156 516 199 558 253 558 L253 558 Z " />
<glyph glyph-name="colon" unicode="&#x3a;" horiz-adv-x="261" d="M132 135 C88 135 57 104 57 61 C57 18 88 -13 131 -13 C173 -13 205 18 205 60 C205 104 174 135 132 135 L132 135 Z M132 465 C88 465 57 434 57 391 C57 348 88 317 131 317 C173 317 205 348 205 390 C205 434 174 465 132 465 L132 465 Z " />
<glyph glyph-name="semicolon" unicode="&#x3b;" horiz-adv-x="261" d="M207 107 L90 136 L32 -112 L118 -132 L207 107 Z M144 449 C100 449 69 418 69 375 C69 332 100 301 143 301 C185 301 217 332 217 374 C217 418 186 449 144 449 L144 449 Z " />
<glyph glyph-name="less" unicode="&#x3c;" horiz-adv-x="500" d="M466 619 L33 395 L33 279 L466 55 L466 191 L179 336 L466 481 L466 619 Z " />
<glyph glyph-name="equal" unicode="&#x3d;" horiz-adv-x="500" d="M12 461 L12 397 L487 397 L487 461 L12 461 Z M12 313 L12 249 L487 249 L487 313 L12 313 Z " />
<glyph glyph-name="greater" unicode="&#x3e;" horiz-adv-x="500" d="M34 55 L467 279 L467 395 L34 619 L34 482 L321 337 L34 192 L34 55 Z " />
<glyph glyph-name="question" unicode="&#x3f;" horiz-adv-x="447" d="M264 217 C264 228 264 236 263 240 L263 252 C263 295 269 304 320 341 C383 388 409 433 409 498 C409 604 329 678 215 678 C98 678 27 607 25 487 L144 487 C144 535 169 563 212 563 C252 563 280 535 280 497 C280 467 267 447 226 416 C147 354 135 333 135 253 C135 247 135 233 136 217 L264 217 Z M202 135 C158 135 127 104 127 61 C127 18 158 -13 201 -13 C243 -13 275 18 275 60 C275 104 244 135 202 135 L202 135 Z " />
<glyph glyph-name="at" unicode="&#x40;" horiz-adv-x="771" d="M654 186 C626 148 611 130 589 112 C537 67 467 42 396 42 C240 42 112 171 112 328 C112 491 243 624 405 624 C545 624 661 518 661 389 C661 311 619 232 557 193 C537 180 515 172 499 172 C484 172 474 179 474 191 C474 199 479 220 486 239 L590 516 L504 516 L494 490 C463 523 443 533 406 533 C345 533 288 499 246 438 C209 384 187 316 187 258 C187 184 231 134 295 134 C333 134 359 146 409 186 C412 152 436 133 476 133 C522 133 577 157 621 194 C677 244 711 318 711 394 C711 545 573 672 409 672 C333 672 262 649 206 607 C115 540 62 438 62 331 C62 147 212 -6 393 -6 C461 -6 527 12 583 46 C637 78 668 115 703 186 L654 186 Z M415 286 C390 223 344 175 308 175 C282 175 267 191 267 220 C267 290 315 402 369 460 C387 479 409 491 426 491 C453 491 469 472 469 439 C469 430 468 421 465 414 L415 286 Z " />
<glyph glyph-name="A" unicode="A" horiz-adv-x="632" d="M443 115 L481 0 L631 0 L403 667 L232 667 L2 0 L147 0 L187 115 L443 115 Z M407 227 L222 227 L315 503 L407 227 Z " />
<glyph glyph-name="B" unicode="B" horiz-adv-x="572" d="M70 667 L70 0 L316 0 C389 0 430 9 465 32 C508 61 534 116 534 178 C534 229 517 270 486 298 C465 317 447 325 407 334 C443 346 458 355 477 374 C505 404 519 442 519 488 C519 547 496 598 455 629 C420 655 367 667 285 667 L70 667 Z M207 563 L255 563 C294 563 322 559 341 550 C365 538 381 509 381 475 C381 413 343 384 262 384 L207 384 L207 563 Z M207 282 L266 282 C316 282 337 278 358 266 C383 251 396 226 396 190 C396 158 385 134 363 119 C343 105 321 101 274 101 L207 101 L207 282 Z " />
<glyph glyph-name="C" unicode="C" horiz-adv-x="635" d="M531 182 C490 135 443 114 382 114 C262 114 176 207 176 335 C176 463 258 553 375 553 C431 553 477 533 531 484 L620 574 C541 651 471 680 368 680 C175 680 37 535 37 332 C37 240 70 150 127 87 C186 21 267 -13 366 -13 C465 -13 537 16 614 88 L531 182 Z " />
<glyph glyph-name="D" unicode="D" horiz-adv-x="641" d="M70 0 L267 0 C363 0 443 27 498 77 C566 138 604 234 604 341 C604 446 567 533 499 593 C440 645 367 667 259 667 L70 667 L70 0 Z M207 556 L257 556 C383 556 465 470 465 337 C465 263 438 200 390 159 C351 126 306 113 233 113 L207 113 L207 556 Z " />
<glyph glyph-name="E" unicode="E" horiz-adv-x="463" d="M184 555 L418 555 L418 667 L47 667 L47 0 L418 0 L418 112 L184 112 L184 279 L418 279 L418 391 L184 391 L184 555 Z " />
<glyph glyph-name="F" unicode="F" horiz-adv-x="467" d="M207 555 L441 555 L441 667 L70 667 L70 0 L207 0 L207 279 L441 279 L441 391 L207 391 L207 555 Z " />
<glyph glyph-name="G" unicode="G" horiz-adv-x="752" d="M389 374 L389 262 L575 262 C564 222 554 201 534 178 C499 136 442 111 385 111 C268 111 176 208 176 332 C176 458 265 554 382 554 C448 554 497 529 546 471 L649 552 C584 634 487 680 379 680 C183 680 37 531 37 332 C37 135 184 -13 380 -13 C474 -13 559 23 626 90 C693 158 723 235 723 338 L723 374 L389 374 Z " />
<glyph glyph-name="H" unicode="H" horiz-adv-x="667" d="M207 273 L460 273 L460 0 L597 0 L597 667 L460 667 L460 385 L207 385 L207 667 L70 667 L70 0 L207 0 L207 273 Z " />
<glyph glyph-name="I" unicode="I" horiz-adv-x="276" d="M207 667 L70 667 L70 0 L207 0 L207 667 Z " />
<glyph glyph-name="J" unicode="J" horiz-adv-x="384" d="M325 667 L31 667 L31 555 L188 555 L188 270 C188 189 179 158 151 135 C131 119 98 110 59 110 C50 110 45 110 31 111 L31 -10 C124 -10 171 -3 211 15 C293 53 325 116 325 237 L325 667 Z " />
<glyph glyph-name="K" unicode="K" horiz-adv-x="563" d="M207 297 L394 0 L555 0 L339 346 L555 667 L396 667 L207 377 L207 667 L70 667 L70 0 L207 0 L207 297 Z " />
<glyph glyph-name="L" unicode="L" horiz-adv-x="451" d="M207 113 L207 667 L70 667 L70 0 L430 0 L430 113 L207 113 Z " />
<glyph glyph-name="M" unicode="M" horiz-adv-x="848" d="M207 416 L424 -20 L642 416 L642 0 L779 0 L779 667 L624 667 L424 262 L225 667 L70 667 L70 0 L207 0 L207 416 Z " />
<glyph glyph-name="N" unicode="N" horiz-adv-x="690" d="M207 422 L487 0 L621 0 L621 667 L484 667 L484 251 L205 667 L70 667 L70 0 L207 0 L207 422 Z " />
<glyph glyph-name="O" unicode="O" horiz-adv-x="764" d="M387 680 C189 680 37 528 37 330 C37 138 190 -13 385 -13 C574 -13 726 140 726 330 C726 427 698 504 641 568 C575 640 485 680 387 680 L387 680 Z M383 553 C501 553 587 458 587 329 C587 208 497 113 382 113 C266 113 177 208 177 332 C177 459 265 553 383 553 L383 553 Z " />
<glyph glyph-name="P" unicode="P" horiz-adv-x="551" d="M207 229 L292 229 C439 229 530 315 530 454 C530 590 441 667 283 667 L70 667 L70 0 L207 0 L207 229 Z M207 342 L207 554 L269 554 C344 554 391 513 391 447 C391 380 345 342 266 342 L207 342 Z " />
<glyph glyph-name="Q" unicode="Q" horiz-adv-x="765" d="M713 44 L650 112 C701 176 727 253 727 339 C727 533 580 680 386 680 C189 680 38 528 38 330 C38 140 191 -13 381 -13 C446 -13 501 2 556 34 L616 -38 L713 44 Z M511 271 L415 189 L460 136 C436 120 412 114 378 114 C265 114 177 210 177 333 C177 459 265 553 383 553 C499 553 588 459 588 337 C588 294 579 254 559 216 L511 271 Z " />
<glyph glyph-name="R" unicode="R" horiz-adv-x="584" d="M207 265 L390 0 L556 0 L372 256 C475 282 530 352 530 457 C530 594 441 667 276 667 L70 667 L70 0 L207 0 L207 265 Z M207 345 L207 554 L281 554 C349 554 391 514 391 450 C391 383 347 345 269 345 L207 345 Z " />
<glyph glyph-name="S" unicode="S" horiz-adv-x="521" d="M30 195 C29 67 115 -13 255 -13 C393 -13 485 68 485 190 C485 241 467 286 432 319 C403 347 366 366 293 393 C244 411 233 416 215 426 C188 441 174 462 174 489 C174 531 207 559 256 559 C310 559 338 532 343 476 L481 476 C470 604 386 680 256 680 C125 680 36 599 36 478 C36 376 88 321 234 269 C286 250 298 245 315 232 C332 219 342 200 342 179 C342 139 304 108 254 108 C202 108 163 141 163 186 L163 195 L30 195 Z " />
<glyph glyph-name="T" unicode="T" horiz-adv-x="461" d="M299 555 L457 555 L457 667 L3 667 L3 555 L162 555 L162 0 L299 0 L299 555 Z " />
<glyph glyph-name="U" unicode="U" horiz-adv-x="639" d="M196 667 L59 667 L59 281 C59 178 76 118 119 70 C166 17 240 -13 321 -13 C399 -13 469 15 514 65 C559 115 580 183 580 281 L580 667 L442 667 L442 277 C442 215 436 186 416 159 C396 131 358 113 319 113 C282 113 246 129 226 154 C204 180 196 214 196 276 L196 667 Z " />
<glyph glyph-name="V" unicode="V" horiz-adv-x="562" d="M278 220 L143 667 L2 667 L204 0 L350 0 L560 667 L419 667 L278 220 Z " />
<glyph glyph-name="W" unicode="W" horiz-adv-x="857" d="M602 239 L498 667 L362 667 L254 246 L147 667 L2 667 L184 0 L322 0 L427 437 L532 0 L670 0 L856 667 L713 667 L602 239 Z " />
<glyph glyph-name="X" unicode="X" horiz-adv-x="581" d="M292 232 L421 0 L577 0 L370 352 L558 667 L402 667 L292 476 L185 667 L27 667 L214 352 L4 0 L162 0 L292 232 Z " />
<glyph glyph-name="Y" unicode="Y" horiz-adv-x="557" d="M349 294 L568 667 L408 667 L281 436 L152 667 L-11 667 L212 294 L212 0 L349 0 L349 294 Z " />
<glyph glyph-name="Z" unicode="Z" horiz-adv-x="551" d="M228 112 L539 667 L48 667 L48 555 L325 555 L13 0 L509 0 L509 112 L228 112 Z " />
<glyph glyph-name="bracketleft" unicode="&#x5b;" horiz-adv-x="327" d="M66 667 L66 -207 L280 -207 L280 -132 L173 -132 L173 592 L280 592 L280 667 L66 667 Z " />
<glyph glyph-name="backslash" unicode="&#x5c;" horiz-adv-x="393" d="M26 667 L357 -207 L446 -207 L114 667 L26 667 Z " />
<glyph glyph-name="bracketright" unicode="&#x5d;" horiz-adv-x="327" d="M261 667 L47 667 L47 592 L154 592 L154 -132 L47 -132 L47 -207 L261 -207 L261 667 Z " />
<glyph glyph-name="asciicircum" unicode="&#x5e;" horiz-adv-x="500" d="M141 354 L250 577 L359 354 L482 354 L327 670 L173 670 L18 354 L141 354 Z " />
<glyph glyph-name="underscore" unicode="&#x5f;" horiz-adv-x="500" d="M0 -59 L0 -142 L500 -142 L500 -59 L0 -59 Z " />
<glyph glyph-name="grave" unicode="&#x60;" horiz-adv-x="500" d="M226 672 L98 672 L231 533 L309 533 L226 672 Z " />
<glyph glyph-name="a" unicode="a" horiz-adv-x="607" d="M418 404 C373 457 330 479 267 479 C132 479 34 372 34 226 C34 85 127 -16 257 -16 C325 -16 375 9 418 64 L418 0 L545 0 L545 463 L418 463 L418 404 Z M293 372 C368 372 420 314 420 232 C420 152 363 86 292 86 C223 86 170 147 170 228 C170 313 221 372 293 372 L293 372 Z " />
<glyph glyph-name="b" unicode="b" horiz-adv-x="606" d="M190 60 C231 6 276 -16 346 -16 C481 -16 573 84 573 229 C573 375 476 479 340 479 C277 479 234 458 190 407 L190 667 L63 667 L63 0 L190 0 L190 60 Z M315 372 C385 372 438 310 438 228 C438 145 386 87 312 87 C239 87 188 145 188 228 C188 308 244 372 315 372 L315 372 Z " />
<glyph glyph-name="c" unicode="c" horiz-adv-x="468" d="M379 136 C346 107 322 97 289 97 C215 97 162 154 162 233 C162 309 214 366 284 366 C321 366 351 353 379 325 L464 402 C405 455 348 479 279 479 C135 479 33 375 33 229 C33 88 137 -16 278 -16 C348 -16 403 5 456 53 L379 136 Z " />
<glyph glyph-name="d" unicode="d" horiz-adv-x="607" d="M418 412 C373 459 328 479 265 479 C208 479 152 456 108 415 C60 370 34 305 34 227 C34 82 126 -16 263 -16 C334 -16 378 6 418 61 L418 0 L545 0 L545 667 L418 667 L418 412 Z M295 372 C366 372 418 311 418 227 C418 147 364 86 294 86 C222 86 169 146 169 226 C169 311 222 372 295 372 L295 372 Z " />
<glyph glyph-name="e" unicode="e" horiz-adv-x="556" d="M527 201 L528 226 C528 375 425 479 277 479 C134 479 33 377 33 232 C33 88 138 -16 285 -16 C383 -16 464 35 510 125 L393 157 C373 120 333 97 286 97 C223 97 176 137 165 201 L527 201 Z M165 274 C177 337 218 372 279 372 C342 372 386 335 397 274 L165 274 Z " />
<glyph glyph-name="f" unicode="f" horiz-adv-x="286" d="M199 356 L260 356 L260 463 L199 463 L199 489 C199 528 215 544 260 550 L260 667 C129 668 72 614 72 489 L72 463 L21 463 L21 356 L72 356 L72 0 L199 0 L199 356 Z " />
<glyph glyph-name="g" unicode="g" horiz-adv-x="589" d="M401 406 C361 457 316 479 251 479 C112 479 19 378 19 228 C19 87 111 -16 238 -16 C305 -16 359 10 401 63 L401 16 C401 -71 352 -121 267 -121 C209 -121 165 -101 124 -57 L45 -137 C108 -199 182 -229 272 -229 C351 -229 419 -204 464 -159 C508 -116 526 -61 526 34 L526 463 L401 463 L401 406 Z M278 366 C310 366 342 352 365 330 C388 306 399 272 399 222 C399 187 390 158 375 140 C352 113 316 97 279 97 C206 97 154 154 154 234 C154 311 205 366 278 366 L278 366 Z " />
<glyph glyph-name="h" unicode="h" horiz-adv-x="529" d="M190 667 L63 667 L63 0 L190 0 L190 276 C190 312 196 330 216 349 C231 364 251 372 273 372 C315 372 342 339 342 287 L342 0 L469 0 L469 305 C469 372 458 408 428 436 C401 462 357 479 317 479 C267 479 229 459 190 413 L190 667 Z " />
<glyph glyph-name="i" unicode="i" horiz-adv-x="253" d="M190 463 L63 463 L63 0 L190 0 L190 463 Z M127 666 C86 666 56 636 56 595 C56 555 86 525 127 525 C167 525 197 555 197 594 C197 636 168 666 127 666 L127 666 Z " />
<glyph glyph-name="j" unicode="j" horiz-adv-x="253" d="M190 463 L63 463 L63 -15 C63 -66 38 -96 -5 -96 L-24 -96 L-24 -212 C-10 -213 3 -213 10 -213 C69 -213 115 -196 146 -163 C176 -132 190 -85 190 -15 L190 463 Z M127 666 C86 666 56 636 56 595 C56 555 86 525 127 525 C167 525 197 555 197 594 C197 636 168 666 127 666 L127 666 Z " />
<glyph glyph-name="k" unicode="k" horiz-adv-x="473" d="M190 192 L319 0 L466 0 L309 241 L466 463 L319 463 L190 285 L190 667 L63 667 L63 0 L190 0 L190 192 Z " />
<glyph glyph-name="l" unicode="l" horiz-adv-x="253" d="M190 0 L190 667 L63 667 L63 0 L190 0 Z " />
<glyph glyph-name="m" unicode="m" horiz-adv-x="792" d="M63 463 L63 0 L190 0 L190 275 C190 339 215 372 263 372 C309 372 333 339 333 275 L333 0 L460 0 L460 279 C460 338 487 372 534 372 C582 372 605 342 605 279 L605 0 L732 0 L732 303 C732 373 723 405 695 436 C669 464 630 479 583 479 C517 479 474 455 443 402 C421 452 377 479 317 479 C258 479 219 456 190 405 L190 463 L63 463 Z " />
<glyph glyph-name="n" unicode="n" horiz-adv-x="531" d="M63 463 L63 0 L190 0 L190 281 C190 335 223 372 272 372 C297 372 321 360 333 341 C341 328 344 313 344 287 L344 0 L471 0 L471 293 C471 369 460 406 430 436 C402 463 360 479 316 479 C258 479 224 459 190 406 L190 463 L63 463 Z " />
<glyph glyph-name="o" unicode="o" horiz-adv-x="568" d="M286 479 C136 479 33 378 33 231 C33 87 138 -16 284 -16 C426 -16 537 91 537 227 C537 373 432 479 286 479 L286 479 Z M286 365 C362 365 409 313 409 229 C409 152 358 97 285 97 C211 97 161 151 161 231 C161 312 211 365 286 365 L286 365 Z " />
<glyph glyph-name="p" unicode="p" horiz-adv-x="609" d="M63 463 L63 -207 L190 -207 L190 50 C229 5 278 -16 345 -16 C484 -16 576 82 576 230 C576 323 541 393 471 441 C432 467 391 479 342 479 C273 479 228 457 190 406 L190 463 L63 463 Z M317 372 C389 372 440 312 440 227 C440 145 387 86 313 86 C239 86 190 142 190 226 C190 312 242 372 317 372 L317 372 Z " />
<glyph glyph-name="q" unicode="q" horiz-adv-x="607" d="M417 463 L417 410 C378 459 335 479 269 479 C130 479 33 376 33 228 C33 83 125 -16 260 -16 C328 -16 376 4 417 50 L417 -207 L544 -207 L544 463 L417 463 Z M294 372 C366 372 418 312 418 228 C418 147 364 86 292 86 C221 86 169 147 169 229 C169 312 221 372 294 372 L294 372 Z " />
<glyph glyph-name="r" unicode="r" horiz-adv-x="333" d="M63 463 L63 0 L190 0 L190 223 C190 267 194 287 209 308 C227 334 259 350 294 350 C301 350 311 349 321 348 L321 478 C314 479 309 479 306 479 C278 479 251 471 231 457 C212 443 203 429 190 395 L190 463 L63 463 Z " />
<glyph glyph-name="s" unicode="s" horiz-adv-x="419" d="M381 329 C378 423 314 479 208 479 C100 479 29 420 29 332 C29 259 74 214 174 184 C242 163 260 150 260 122 C260 96 239 78 209 78 C172 78 154 96 148 136 L26 136 C31 40 98 -16 208 -16 C316 -16 388 44 388 134 C388 209 347 250 243 282 C179 302 178 302 164 313 C156 319 151 331 151 343 C151 368 171 385 202 385 C236 385 261 365 261 337 L261 329 L381 329 Z " />
<glyph glyph-name="t" unicode="t" horiz-adv-x="283" d="M196 358 L254 358 L254 465 L196 465 L196 589 L69 589 L69 465 L16 465 L16 358 L69 358 L69 88 C69 26 93 0 153 0 L254 0 L254 106 L232 106 C206 106 196 114 196 136 L196 358 Z " />
<glyph glyph-name="u" unicode="u" horiz-adv-x="514" d="M333 463 L333 170 C333 121 305 91 258 91 C212 91 181 126 181 178 L181 463 L54 463 L54 170 C54 109 70 65 103 35 C139 2 194 -16 258 -16 C319 -16 371 1 408 32 C446 64 460 102 460 170 L460 463 L333 463 Z " />
<glyph glyph-name="v" unicode="v" horiz-adv-x="463" d="M335 463 L232 187 L130 463 L-2 463 L165 0 L296 0 L465 463 L335 463 Z " />
<glyph glyph-name="w" unicode="w" horiz-adv-x="728" d="M600 463 L506 181 L423 463 L301 463 L220 181 L127 463 L-2 463 L147 0 L282 0 L365 284 L446 0 L578 0 L729 463 L600 463 Z " />
<glyph glyph-name="x" unicode="x" horiz-adv-x="480" d="M244 126 L324 0 L478 0 L316 230 L481 463 L326 463 L244 340 L159 463 L-1 463 L170 230 L9 0 L159 0 L244 126 Z " />
<glyph glyph-name="y" unicode="y" horiz-adv-x="469" d="M227 188 L133 463 L-2 463 L160 11 L73 -211 L209 -211 L470 463 L335 463 L227 188 Z " />
<glyph glyph-name="z" unicode="z" horiz-adv-x="421" d="M215 107 L408 463 L33 463 L33 356 L210 356 L15 0 L394 0 L394 107 L215 107 Z " />
<glyph glyph-name="braceleft" unicode="&#x7b;" horiz-adv-x="500" d="M295 469 C295 537 312 551 393 550 L393 676 C374 677 366 677 340 677 C246 677 219 671 190 641 C169 619 159 587 159 538 L159 386 C159 336 143 311 103 301 L103 192 C144 182 159 157 159 101 L159 -44 C159 -92 167 -124 185 -147 C212 -182 240 -190 334 -190 C366 -190 369 -190 393 -189 L393 -70 C311 -70 295 -57 295 14 L295 123 C295 187 281 217 238 243 C281 270 295 298 295 363 L295 469 Z " />
<glyph glyph-name="bar" unicode="&#x7c;" horiz-adv-x="500" d="M181 667 L181 -167 L320 -167 L320 667 L181 667 Z " />
<glyph glyph-name="braceright" unicode="&#x7d;" horiz-adv-x="500" d="M205 18 C205 -50 189 -63 108 -63 L108 -189 C129 -190 136 -190 161 -190 C254 -190 281 -183 309 -154 C331 -132 341 -100 341 -51 L341 101 C341 152 358 176 398 186 L398 296 C356 306 341 330 341 387 L341 531 C341 579 333 611 315 634 C288 669 260 677 166 677 C144 677 127 677 108 676 L108 557 C191 557 205 544 205 474 L205 365 C205 301 219 270 262 244 C218 217 205 189 205 125 L205 18 Z " />
<glyph glyph-name="asciitilde" unicode="&#x7e;" horiz-adv-x="667" d="M161 557 C186 603 206 621 234 621 C251 621 273 614 309 598 C384 564 393 561 420 561 C493 561 536 598 576 692 L508 748 C483 702 462 684 432 684 C415 684 407 687 353 711 C295 737 265 746 240 746 C178 746 130 702 93 613 L161 557 Z " />
<glyph glyph-name="uni00A0" unicode="&#xa0;" horiz-adv-x="300" d="" />
<glyph glyph-name="exclamdown" unicode="&#xa1;" horiz-adv-x="287" d="M81 -203 L206 -203 L206 256 L81 256 L81 -203 Z M144 477 C102 477 70 446 70 404 C70 360 101 329 143 329 C187 329 218 360 218 403 C218 446 187 477 144 477 L144 477 Z " />
<glyph glyph-name="cent" unicode="&#xa2;" horiz-adv-x="500" d="M310 459 C341 454 360 444 383 420 L465 494 C417 540 369 563 310 568 L310 641 L263 641 L263 568 C211 561 184 552 152 532 C87 490 49 413 49 320 C49 229 80 165 148 119 C183 96 211 86 263 78 L263 -19 L310 -19 L310 78 C371 84 417 104 458 143 L383 220 C359 199 339 189 310 187 L310 459 Z M263 187 C201 205 170 251 170 324 C170 397 200 441 263 459 L263 187 Z " />
<glyph glyph-name="sterling" unicode="&#xa3;" horiz-adv-x="500" d="M256 371 C202 432 189 456 189 495 C189 540 225 576 269 576 C316 576 347 542 349 490 L464 490 C462 544 453 573 430 599 C390 647 329 674 264 674 C147 674 62 594 62 485 C62 440 72 413 105 371 L39 371 L39 310 L154 310 C183 285 195 262 195 231 C195 215 191 205 178 183 C174 177 168 168 163 160 C90 159 32 90 31 0 L130 0 C131 37 151 60 182 60 C199 60 214 55 243 39 C315 -1 336 -9 368 -9 C407 -9 439 7 470 41 L457 126 C435 102 421 95 399 95 C377 95 363 100 322 121 C309 127 296 133 293 134 L270 143 L263 145 C299 190 311 213 311 243 C311 264 306 278 288 310 L392 310 L392 371 L256 371 Z " />
<glyph glyph-name="currency" unicode="&#xa4;" horiz-adv-x="709" d="M48 109 L119 38 L217 136 C270 106 315 93 360 93 C406 93 448 107 493 136 L591 37 L662 109 L563 208 C593 263 603 295 603 339 C603 387 591 426 560 476 L659 575 L588 646 L486 546 C427 577 401 585 355 585 C308 585 279 576 221 545 L119 647 L47 575 L149 475 C117 420 106 385 106 341 C106 296 120 248 146 208 L48 109 Z M357 469 C426 469 483 411 483 341 C483 270 426 213 355 213 C285 213 227 271 227 341 C227 413 284 469 357 469 L357 469 Z " />
<glyph glyph-name="yen" unicode="&#xa5;" horiz-adv-x="500" d="M115 443 L29 443 L29 377 L147 377 L187 292 L187 285 L49 285 L49 219 L187 219 L187 0 L316 0 L316 219 L450 219 L450 285 L316 285 L316 292 L355 377 L470 377 L470 443 L386 443 L490 663 L359 663 L253 410 L145 663 L9 663 L115 443 Z " />
<glyph glyph-name="brokenbar" unicode="&#xa6;" horiz-adv-x="500" d="M181 667 L181 318 L320 318 L320 667 L181 667 Z M181 153 L181 -167 L320 -167 L320 153 L181 153 Z " />
<glyph glyph-name="section" unicode="&#xa7;" horiz-adv-x="500" d="M437 517 C435 558 428 582 413 606 C383 652 320 681 248 681 C144 681 72 619 72 530 C72 471 101 427 157 401 C83 380 42 322 42 241 C42 147 90 93 207 55 C264 37 273 33 291 20 C312 6 322 -13 322 -37 C322 -79 290 -111 247 -111 C197 -111 164 -76 163 -22 L52 -22 C54 -68 61 -93 81 -123 C115 -173 173 -201 244 -201 C353 -201 431 -132 431 -34 C431 22 406 62 351 94 C421 127 458 182 458 253 C458 338 412 389 293 435 C234 457 223 463 205 477 C190 490 181 508 181 526 C181 562 212 590 252 590 C295 590 323 563 327 517 L437 517 Z M250 340 C304 340 349 296 349 245 C349 190 306 149 249 149 C192 149 149 190 149 245 C149 298 194 340 250 340 L250 340 Z " />
<glyph glyph-name="dieresis" unicode="&#xa8;" horiz-adv-x="500" d="M144 673 C105 673 76 644 76 606 C76 568 105 539 143 539 C180 539 210 568 210 605 C210 644 182 673 144 673 L144 673 Z M357 673 C318 673 289 644 289 606 C289 568 318 539 356 539 C393 539 423 568 423 605 C423 644 394 673 357 673 L357 673 Z " />
<glyph glyph-name="copyright" unicode="&#xa9;" horiz-adv-x="772" d="M502 296 C494 239 452 205 390 205 C322 205 280 255 280 335 C280 416 323 467 391 467 C447 467 487 441 498 396 L562 396 C555 478 483 538 390 538 C276 538 197 455 197 336 C197 215 273 134 387 134 C488 134 558 197 566 296 L502 296 Z M391 680 C194 680 40 527 40 333 C40 142 196 -13 386 -13 C576 -13 731 142 731 333 C731 523 577 680 391 680 L391 680 Z M390 620 C541 620 666 490 666 333 C666 175 541 47 386 47 C231 47 105 176 105 333 C105 494 230 620 390 620 L390 620 Z " />
<glyph glyph-name="ordfeminine" unicode="&#xaa;" horiz-adv-x="394" d="M263 518 C239 543 210 555 173 555 C88 555 25 491 25 403 C25 319 85 258 167 258 C206 258 239 271 263 297 L263 267 L350 267 L350 546 L263 546 L263 518 Z M190 485 C233 485 264 453 264 407 C264 362 230 325 189 325 C148 325 117 359 117 404 C117 452 147 485 190 485 L190 485 Z " />
<glyph glyph-name="guillemotleft" unicode="&#xab;" horiz-adv-x="423" d="M119 238 L215 407 L132 407 L37 238 L132 75 L215 75 L119 238 Z M284 238 L380 407 L297 407 L202 238 L297 75 L380 75 L284 238 Z " />
<glyph glyph-name="logicalnot" unicode="&#xac;" horiz-adv-x="500" d="M332 0 L466 0 L466 288 L33 288 L33 167 L332 167 L332 0 Z " />
<glyph glyph-name="uni00AD" unicode="&#xad;" horiz-adv-x="222" d="M222 300 L0 300 L0 188 L222 188 L222 300 Z " />
<glyph glyph-name="registered" unicode="&#xae;" horiz-adv-x="772" d="M239 529 L239 142 L321 142 L321 301 L376 301 C400 301 421 296 433 286 C448 275 455 256 458 218 C461 165 463 153 468 142 L547 142 C542 153 539 169 537 201 C535 283 523 307 477 326 C520 344 543 377 543 421 C543 491 494 529 402 529 L239 529 Z M321 478 L389 478 C438 478 461 458 461 415 C461 371 436 350 383 350 L321 350 L321 478 Z M391 680 C194 680 40 527 40 333 C40 142 195 -13 386 -13 C576 -13 731 142 731 333 C731 523 577 680 391 680 L391 680 Z M390 620 C541 620 666 490 666 333 C666 175 540 47 386 47 C231 47 105 176 105 333 C105 494 230 620 390 620 L390 620 Z " />
<glyph glyph-name="macron" unicode="&#xaf;" horiz-adv-x="500" d="M159 574 L341 574 L341 630 L159 630 L159 574 Z " />
<glyph glyph-name="degree" unicode="&#xb0;" horiz-adv-x="500" d="M251 670 C165 670 96 601 96 516 C96 431 165 362 251 362 C335 362 404 431 404 514 C404 601 336 670 251 670 L251 670 Z M249 616 C304 616 348 571 348 514 C348 461 303 416 250 416 C196 416 152 461 152 516 C152 570 196 616 249 616 L249 616 Z " />
<glyph glyph-name="plusminus" unicode="&#xb1;" horiz-adv-x="500" d="M12 394 L12 328 L215 328 L215 136 L283 136 L283 328 L487 328 L487 394 L283 394 L283 592 L215 592 L215 394 L12 394 Z M12 95 L12 29 L487 29 L487 95 L12 95 Z " />
<glyph glyph-name="twosuperior" unicode="&#xb2;" horiz-adv-x="330" d="M169 339 L243 441 C281 492 295 526 295 563 C295 627 241 672 166 672 C83 672 30 619 30 539 L30 530 L111 530 C112 578 126 596 161 596 C188 596 207 579 207 555 C207 538 200 524 169 480 L19 265 L284 265 L284 339 L169 339 Z " />
<glyph glyph-name="threesuperior" unicode="&#xb3;" horiz-adv-x="330" d="M158 592 L65 475 L115 436 C128 444 138 447 154 447 C190 447 215 423 215 390 C215 358 188 333 154 333 C124 333 104 351 99 382 L20 379 C29 301 77 258 156 258 C239 258 299 316 299 395 C299 461 255 510 190 516 L306 664 L41 664 L41 592 L158 592 Z " />
<glyph glyph-name="acute" unicode="&#xb4;" horiz-adv-x="500" d="M274 672 L191 533 L269 533 L402 672 L274 672 Z " />
<glyph glyph-name="mu" unicode="&#xb5;" horiz-adv-x="500" d="M34 -169 L151 -169 L151 52 C176 8 204 -10 246 -10 C294 -10 326 16 348 72 L348 0 L465 0 L465 480 L348 480 L348 230 C348 143 310 88 248 88 C218 88 191 103 171 130 C155 153 151 172 151 225 L151 480 L34 480 L34 -169 Z " />
<glyph glyph-name="paragraph" unicode="&#xb6;" horiz-adv-x="500" d="M221 -105 L288 -105 L288 624 L368 624 L368 -105 L434 -105 L434 667 L234 667 C185 667 141 658 112 640 C61 611 30 552 30 487 C30 382 101 310 206 309 L221 309 L221 -105 Z " />
<glyph glyph-name="periodcentered" unicode="&#xb7;" horiz-adv-x="261" d="M132 321 C88 321 57 290 57 247 C57 204 88 173 131 173 C173 173 205 204 205 246 C205 290 174 321 132 321 L132 321 Z " />
<glyph glyph-name="cedilla" unicode="&#xb8;" horiz-adv-x="500" d="M210 -207 C271 -178 310 -145 342 -95 L254 -58 C230 -110 201 -141 159 -162 L210 -207 Z " />
<glyph glyph-name="onesuperior" unicode="&#xb9;" horiz-adv-x="330" d="M152 556 L152 265 L240 265 L240 676 L76 596 L76 518 L152 556 Z " />
<glyph glyph-name="ordmasculine" unicode="&#xba;" horiz-adv-x="370" d="M186 556 C91 556 25 495 25 407 C25 320 92 258 184 258 C274 258 345 323 345 405 C345 492 278 556 186 556 L186 556 Z M185 482 C229 482 257 453 257 406 C257 362 227 332 185 332 C141 332 112 362 112 407 C112 452 141 482 185 482 L185 482 Z " />
<glyph glyph-name="guillemotright" unicode="&#xbb;" horiz-adv-x="423" d="M304 246 L208 77 L291 77 L386 246 L291 409 L208 409 L304 246 Z M139 246 L43 77 L126 77 L221 246 L126 409 L43 409 L139 246 Z " />
<glyph glyph-name="onequarter" unicode="&#xbc;" horiz-adv-x="787" d="M152 556 L152 265 L240 265 L240 676 L76 596 L76 518 L152 556 Z M633 652 L593 677 L154 13 L193 -13 L633 652 Z M637 81 L637 0 L722 0 L722 81 L760 81 L760 153 L722 153 L722 398 L633 398 L484 148 L484 81 L637 81 Z M642 150 L557 150 L642 297 L642 150 Z " />
<glyph glyph-name="onehalf" unicode="&#xbd;" horiz-adv-x="787" d="M152 556 L152 265 L240 265 L240 676 L76 596 L76 518 L152 556 Z M633 652 L593 677 L154 13 L193 -13 L633 652 Z M625 74 L699 176 C737 227 751 261 751 298 C751 361 697 406 622 406 C539 406 486 354 486 273 L486 265 L567 265 C568 313 582 330 617 330 C644 330 663 314 663 290 C663 272 657 260 625 215 L475 0 L740 0 L740 74 L625 74 Z " />
<glyph glyph-name="threequarters" unicode="&#xbe;" horiz-adv-x="787" d="M158 592 L65 475 L115 436 C128 444 138 447 154 447 C190 447 215 423 215 390 C215 358 188 333 154 333 C124 333 104 351 99 382 L20 379 C29 301 77 258 156 258 C239 258 299 316 299 395 C299 461 255 510 190 516 L306 664 L41 664 L41 592 L158 592 Z M633 652 L593 677 L154 13 L193 -13 L633 652 Z M637 81 L637 0 L722 0 L722 81 L760 81 L760 153 L722 153 L722 398 L633 398 L484 148 L484 81 L637 81 Z M642 150 L557 150 L642 297 L642 150 Z " />
<glyph glyph-name="questiondown" unicode="&#xbf;" horiz-adv-x="447" d="M183 246 C183 235 183 227 184 223 L184 212 C184 168 178 159 127 122 C64 75 38 30 38 -35 C38 -140 118 -214 232 -214 C349 -214 419 -144 422 -24 L303 -24 C303 -72 278 -100 235 -100 C195 -100 167 -73 167 -34 C167 -4 180 15 221 47 C300 109 312 130 312 210 C312 216 312 230 311 246 L183 246 Z M246 477 C204 477 172 446 172 404 C172 360 203 329 245 329 C289 329 320 360 320 403 C320 446 289 477 246 477 L246 477 Z " />
<glyph glyph-name="Agrave" unicode="&#xc0;" horiz-adv-x="632" d="M443 115 L481 0 L631 0 L403 667 L232 667 L2 0 L147 0 L187 115 L443 115 Z M407 227 L222 227 L315 503 L407 227 Z M289 859 L157 859 L296 726 L383 726 L289 859 Z " />
<glyph glyph-name="Aacute" unicode="&#xc1;" horiz-adv-x="632" d="M443 115 L481 0 L631 0 L403 667 L232 667 L2 0 L147 0 L187 115 L443 115 Z M407 227 L222 227 L315 503 L407 227 Z M345 859 L251 726 L338 726 L476 859 L345 859 Z " />
<glyph glyph-name="Acircumflex" unicode="&#xc2;" horiz-adv-x="632" d="M443 115 L481 0 L631 0 L403 667 L232 667 L2 0 L147 0 L187 115 L443 115 Z M407 227 L222 227 L315 503 L407 227 Z M318 794 L395 726 L484 726 L378 860 L262 860 L149 726 L238 726 L318 794 Z " />
<glyph glyph-name="Atilde" unicode="&#xc3;" horiz-adv-x="632" d="M443 115 L481 0 L631 0 L403 667 L232 667 L2 0 L147 0 L187 115 L443 115 Z M407 227 L222 227 L315 503 L407 227 Z M414 852 C405 826 393 814 376 814 C370 814 363 816 355 819 C288 847 274 851 255 851 C233 851 209 841 191 824 C169 803 159 783 149 737 L233 732 C237 755 248 767 265 767 C273 767 288 762 317 751 C362 735 372 732 390 732 C441 732 477 770 497 845 L414 852 Z " />
<glyph glyph-name="Adieresis" unicode="&#xc4;" horiz-adv-x="632" d="M443 115 L481 0 L631 0 L403 667 L232 667 L2 0 L147 0 L187 115 L443 115 Z M407 227 L222 227 L315 503 L407 227 Z M209 870 C171 870 140 840 140 801 C140 763 171 732 209 732 C247 732 278 763 278 800 C278 839 248 870 209 870 L209 870 Z M422 870 C384 870 353 840 353 801 C353 763 384 732 422 732 C460 732 491 763 491 800 C491 839 461 870 422 870 L422 870 Z " />
<glyph glyph-name="Aring" unicode="&#xc5;" horiz-adv-x="632" d="M443 115 L481 0 L631 0 L403 667 L232 667 L2 0 L147 0 L187 115 L443 115 Z M407 227 L222 227 L315 503 L407 227 Z M317 889 C265 889 224 849 224 798 C224 747 265 707 317 707 C368 707 409 747 409 796 C409 849 369 889 317 889 L317 889 Z M317 843 C342 843 362 823 362 797 C362 773 341 753 317 753 C291 753 271 773 271 798 C271 823 291 843 317 843 L317 843 Z " />
<glyph glyph-name="AE" unicode="&#xc6;" horiz-adv-x="850" d="M577 279 L805 279 L805 391 L577 391 L577 555 L805 555 L805 667 L356 667 L-6 0 L140 0 L211 134 L440 134 L440 0 L805 0 L805 112 L577 112 L577 279 Z M440 242 L268 242 L440 563 L440 242 Z " />
<glyph glyph-name="Ccedilla" unicode="&#xc7;" horiz-adv-x="635" d="M531 182 C490 135 443 114 382 114 C262 114 176 207 176 335 C176 463 258 553 375 553 C431 553 477 533 531 484 L620 574 C541 651 471 680 368 680 C282 680 208 654 151 602 C79 538 37 438 37 332 C37 240 70 150 127 87 C187 21 267 -13 366 -13 C465 -13 537 16 614 88 L531 182 Z M280 -211 C353 -186 407 -146 438 -94 L317 -59 C307 -105 276 -138 219 -165 L280 -211 Z " />
<glyph glyph-name="Egrave" unicode="&#xc8;" horiz-adv-x="463" d="M184 555 L418 555 L418 667 L47 667 L47 0 L418 0 L418 112 L184 112 L184 279 L418 279 L418 391 L184 391 L184 555 Z M204 859 L72 859 L211 726 L298 726 L204 859 Z " />
<glyph glyph-name="Eacute" unicode="&#xc9;" horiz-adv-x="463" d="M184 555 L418 555 L418 667 L47 667 L47 0 L418 0 L418 112 L184 112 L184 279 L418 279 L418 391 L184 391 L184 555 Z M260 859 L166 726 L253 726 L391 859 L260 859 Z " />
<glyph glyph-name="Ecircumflex" unicode="&#xca;" horiz-adv-x="463" d="M184 555 L418 555 L418 667 L47 667 L47 0 L418 0 L418 112 L184 112 L184 279 L418 279 L418 391 L184 391 L184 555 Z M233 794 L310 726 L399 726 L293 860 L178 860 L65 726 L154 726 L233 794 Z " />
<glyph glyph-name="Edieresis" unicode="&#xcb;" horiz-adv-x="463" d="M184 555 L418 555 L418 667 L47 667 L47 0 L418 0 L418 112 L184 112 L184 279 L418 279 L418 391 L184 391 L184 555 Z M126 870 C87 870 56 839 56 801 C56 763 87 732 125 732 C163 732 194 763 194 800 C194 839 164 870 126 870 L126 870 Z M338 870 C299 870 268 839 268 801 C268 763 299 732 337 732 C375 732 406 763 406 800 C406 839 376 870 338 870 L338 870 Z " />
<glyph glyph-name="Igrave" unicode="&#xcc;" horiz-adv-x="276" d="M207 667 L70 667 L70 0 L207 0 L207 667 Z M110 859 L-21 859 L117 726 L204 726 L110 859 Z " />
<glyph glyph-name="Iacute" unicode="&#xcd;" horiz-adv-x="276" d="M207 667 L70 667 L70 0 L207 0 L207 667 Z M167 859 L72 726 L159 726 L298 859 L167 859 Z " />
<glyph glyph-name="Icircumflex" unicode="&#xce;" horiz-adv-x="276" d="M207 667 L70 667 L70 0 L207 0 L207 667 Z M139 794 L217 726 L305 726 L199 860 L84 860 L-29 726 L60 726 L139 794 Z " />
<glyph glyph-name="Idieresis" unicode="&#xcf;" horiz-adv-x="276" d="M207 667 L70 667 L70 0 L207 0 L207 667 Z M50 870 C11 870 -20 839 -20 801 C-20 763 11 732 49 732 C87 732 118 763 118 800 C118 839 88 870 50 870 L50 870 Z M226 870 C187 870 156 839 156 801 C156 763 187 732 225 732 C263 732 294 763 294 800 C294 839 264 870 226 870 L226 870 Z " />
<glyph glyph-name="Eth" unicode="&#xd0;" horiz-adv-x="641" d="M70 391 L5 391 L5 284 L70 284 L70 0 L267 0 C363 0 443 27 498 77 C566 138 604 234 604 341 C604 445 567 533 499 593 C440 645 367 667 259 667 L70 667 L70 391 Z M207 391 L207 556 L257 556 C383 556 465 470 465 337 C465 263 438 200 390 159 C351 126 306 113 233 113 L207 113 L207 284 L325 284 L325 391 L207 391 Z " />
<glyph glyph-name="Ntilde" unicode="&#xd1;" horiz-adv-x="690" d="M207 422 L487 0 L621 0 L621 667 L484 667 L484 251 L205 667 L70 667 L70 0 L207 0 L207 422 Z M442 852 C434 826 422 814 405 814 C399 814 392 816 384 819 C317 847 303 851 284 851 C262 851 238 841 220 824 C198 803 188 783 178 737 L262 732 C266 755 277 767 293 767 C302 767 317 762 346 751 C391 735 401 732 419 732 C470 732 506 770 526 845 L442 852 Z " />
<glyph glyph-name="Ograve" unicode="&#xd2;" horiz-adv-x="764" d="M387 680 C189 680 37 528 37 330 C37 138 190 -13 385 -13 C574 -13 726 140 726 330 C726 427 698 504 641 568 C575 640 485 680 387 680 L387 680 Z M383 553 C501 553 587 458 587 329 C587 208 497 113 382 113 C266 113 177 208 177 332 C177 459 265 553 383 553 L383 553 Z M354 859 L222 859 L361 726 L448 726 L354 859 Z " />
<glyph glyph-name="Oacute" unicode="&#xd3;" horiz-adv-x="764" d="M387 680 C189 680 37 528 37 330 C37 138 190 -13 385 -13 C574 -13 726 140 726 330 C726 427 698 504 641 568 C575 640 485 680 387 680 L387 680 Z M383 553 C501 553 587 458 587 329 C587 208 497 113 382 113 C266 113 177 208 177 332 C177 459 265 553 383 553 L383 553 Z M410 859 L316 726 L403 726 L541 859 L410 859 Z " />
<glyph glyph-name="Ocircumflex" unicode="&#xd4;" horiz-adv-x="764" d="M387 680 C189 680 37 528 37 330 C37 138 190 -13 385 -13 C574 -13 726 140 726 330 C726 427 698 504 641 568 C575 640 485 680 387 680 L387 680 Z M383 553 C501 553 587 458 587 329 C587 208 497 113 382 113 C266 113 177 208 177 332 C177 459 265 553 383 553 L383 553 Z M383 794 L460 726 L549 726 L443 860 L327 860 L214 726 L304 726 L383 794 Z " />
<glyph glyph-name="Otilde" unicode="&#xd5;" horiz-adv-x="764" d="M387 680 C189 680 37 528 37 330 C37 138 190 -13 385 -13 C574 -13 726 140 726 330 C726 427 698 504 641 568 C575 640 485 680 387 680 L387 680 Z M383 553 C501 553 587 458 587 329 C587 208 497 113 382 113 C266 113 177 208 177 332 C177 459 265 553 383 553 L383 553 Z M479 852 C470 826 458 814 441 814 C435 814 428 816 420 819 C353 847 339 851 320 851 C298 851 274 841 257 824 C234 803 224 783 214 737 L298 732 C302 755 313 767 330 767 C338 767 353 762 383 751 C427 735 437 732 456 732 C506 732 542 770 562 845 L479 852 Z " />
<glyph glyph-name="Odieresis" unicode="&#xd6;" horiz-adv-x="764" d="M387 680 C189 680 37 528 37 330 C37 138 190 -13 385 -13 C574 -13 726 140 726 330 C726 427 698 504 641 568 C575 640 485 680 387 680 L387 680 Z M383 553 C501 553 587 458 587 329 C587 208 497 113 382 113 C266 113 177 208 177 332 C177 459 265 553 383 553 L383 553 Z M275 870 C236 870 205 839 205 801 C205 763 236 732 274 732 C312 732 343 763 343 800 C343 839 313 870 275 870 L275 870 Z M488 870 C449 870 418 839 418 801 C418 763 449 732 487 732 C525 732 556 763 556 800 C556 839 526 870 488 870 L488 870 Z " />
<glyph glyph-name="multiply" unicode="&#xd7;" horiz-adv-x="500" d="M99 553 L53 506 L204 356 L51 204 L99 156 L251 309 L402 157 L449 204 L297 354 L450 506 L401 554 L250 402 L99 553 Z " />
<glyph glyph-name="Oslash" unicode="&#xd8;" horiz-adv-x="762" d="M149 75 C213 16 287 -13 373 -13 C571 -13 724 138 724 333 C724 415 703 476 647 556 L717 624 L683 661 L611 591 C549 649 467 680 378 680 C182 680 36 530 36 327 C36 242 57 183 114 111 L44 43 L77 7 L149 75 Z M547 462 C574 421 585 385 585 334 C585 209 495 114 376 114 C325 114 284 130 244 165 L547 462 Z M212 204 C187 240 175 281 175 333 C175 459 264 554 382 554 C429 554 474 536 513 500 L212 204 Z " />
<glyph glyph-name="Ugrave" unicode="&#xd9;" horiz-adv-x="639" d="M196 667 L59 667 L59 281 C59 178 76 118 119 70 C166 17 240 -13 321 -13 C399 -13 469 15 514 65 C559 115 580 183 580 281 L580 667 L442 667 L442 277 C442 215 436 186 416 159 C396 131 358 113 319 113 C282 113 246 129 226 154 C204 180 196 214 196 276 L196 667 Z M291 859 L160 859 L298 726 L385 726 L291 859 Z " />
<glyph glyph-name="Uacute" unicode="&#xda;" horiz-adv-x="639" d="M196 667 L59 667 L59 281 C59 178 76 118 119 70 C166 17 240 -13 321 -13 C399 -13 469 15 514 65 C559 115 580 183 580 281 L580 667 L442 667 L442 277 C442 215 436 186 416 159 C396 131 358 113 319 113 C282 113 246 129 226 154 C204 180 196 214 196 276 L196 667 Z M347 859 L253 726 L340 726 L479 859 L347 859 Z " />
<glyph glyph-name="Ucircumflex" unicode="&#xdb;" horiz-adv-x="639" d="M196 667 L59 667 L59 281 C59 178 76 118 119 70 C166 17 240 -13 321 -13 C399 -13 469 15 514 65 C559 115 580 183 580 281 L580 667 L442 667 L442 277 C442 215 436 186 416 159 C396 131 358 113 319 113 C282 113 246 129 226 154 C204 180 196 214 196 276 L196 667 Z M321 794 L398 726 L487 726 L381 860 L265 860 L152 726 L241 726 L321 794 Z " />
<glyph glyph-name="Udieresis" unicode="&#xdc;" horiz-adv-x="639" d="M196 667 L59 667 L59 281 C59 178 76 118 119 70 C166 17 240 -13 321 -13 C399 -13 469 15 514 65 C559 115 580 183 580 281 L580 667 L442 667 L442 277 C442 215 436 186 416 159 C396 131 358 113 319 113 C282 113 246 129 226 154 C204 180 196 214 196 276 L196 667 Z M213 870 C174 870 143 840 143 801 C143 763 174 732 212 732 C250 732 281 763 281 800 C281 839 251 870 213 870 L213 870 Z M426 870 C387 870 356 839 356 801 C356 763 387 732 425 732 C463 732 494 763 494 800 C494 839 464 870 426 870 L426 870 Z " />
<glyph glyph-name="Yacute" unicode="&#xdd;" horiz-adv-x="557" d="M349 294 L568 667 L408 667 L281 436 L152 667 L-11 667 L212 294 L212 0 L349 0 L349 294 Z M307 859 L213 726 L300 726 L438 859 L307 859 Z " />
<glyph glyph-name="Thorn" unicode="&#xde;" horiz-adv-x="555" d="M205 157 L290 157 C437 157 528 243 528 381 C528 517 439 594 281 594 L205 594 L205 667 L68 667 L68 0 L205 0 L205 157 Z M205 270 L205 481 L267 481 C342 481 389 440 389 375 C389 308 343 270 264 270 L205 270 Z " />
<glyph glyph-name="germandbls" unicode="&#xdf;" horiz-adv-x="532" d="M71 356 L71 0 L198 0 L198 477 C198 511 200 523 209 537 C221 554 242 565 266 565 C304 565 333 536 333 498 C333 477 323 456 308 445 C298 437 287 434 264 432 L264 316 C300 313 316 308 334 296 C360 279 375 248 375 210 C375 148 341 108 288 108 C277 108 270 109 255 114 L233 9 C264 -5 284 -9 317 -9 C376 -9 422 12 452 52 C482 92 499 148 499 206 C499 299 453 365 373 390 C429 415 457 457 457 518 C457 612 378 676 261 676 C147 676 71 611 71 514 L71 463 L26 463 L26 356 L71 356 Z " />
<glyph glyph-name="agrave" unicode="&#xe0;" horiz-adv-x="607" d="M418 404 C373 457 330 479 267 479 C132 479 34 372 34 226 C34 85 127 -16 257 -16 C325 -16 375 9 418 64 L418 0 L545 0 L545 463 L418 463 L418 404 Z M293 372 C368 372 420 314 420 232 C420 152 363 86 292 86 C223 86 170 147 170 228 C170 313 221 372 293 372 L293 372 Z M280 672 L152 672 L285 533 L363 533 L280 672 Z " />
<glyph glyph-name="aacute" unicode="&#xe1;" horiz-adv-x="607" d="M418 404 C373 457 330 479 267 479 C132 479 34 372 34 226 C34 85 127 -16 257 -16 C325 -16 375 9 418 64 L418 0 L545 0 L545 463 L418 463 L418 404 Z M293 372 C368 372 420 314 420 232 C420 152 363 86 292 86 C223 86 170 147 170 228 C170 313 221 372 293 372 L293 372 Z M328 672 L245 533 L324 533 L456 672 L328 672 Z " />
<glyph glyph-name="acircumflex" unicode="&#xe2;" horiz-adv-x="607" d="M418 404 C373 457 330 479 267 479 C132 479 34 372 34 226 C34 85 127 -16 257 -16 C325 -16 375 9 418 64 L418 0 L545 0 L545 463 L418 463 L418 404 Z M293 372 C368 372 420 314 420 232 C420 152 363 86 292 86 C223 86 170 147 170 228 C170 313 221 372 293 372 L293 372 Z M305 607 L373 533 L462 533 L366 672 L248 672 L146 533 L235 533 L305 607 Z " />
<glyph glyph-name="atilde" unicode="&#xe3;" horiz-adv-x="607" d="M418 404 C373 457 330 479 267 479 C132 479 34 372 34 226 C34 85 127 -16 257 -16 C325 -16 375 9 418 64 L418 0 L545 0 L545 463 L418 463 L418 404 Z M293 372 C368 372 420 314 420 232 C420 152 363 86 292 86 C223 86 170 147 170 228 C170 313 221 372 293 372 L293 372 Z M393 658 C389 635 379 623 365 623 C358 623 352 625 342 630 C297 651 274 659 251 659 C198 659 164 623 147 548 L229 541 C235 566 245 577 259 577 C265 577 269 576 282 569 C327 548 350 540 371 540 C422 540 457 578 475 652 L393 658 Z " />
<glyph glyph-name="adieresis" unicode="&#xe4;" horiz-adv-x="607" d="M418 404 C373 457 330 479 267 479 C132 479 34 372 34 226 C34 85 127 -16 257 -16 C325 -16 375 9 418 64 L418 0 L545 0 L545 463 L418 463 L418 404 Z M293 372 C368 372 420 314 420 232 C420 152 363 86 292 86 C223 86 170 147 170 228 C170 313 221 372 293 372 L293 372 Z M213 673 C175 673 146 644 146 606 C146 568 175 539 213 539 C250 539 280 568 280 605 C280 644 251 673 213 673 L213 673 Z M426 673 C388 673 359 644 359 606 C359 568 388 539 426 539 C463 539 493 568 493 605 C493 644 464 673 426 673 L426 673 Z " />
<glyph glyph-name="aring" unicode="&#xe5;" horiz-adv-x="607" d="M418 404 C373 457 330 479 267 479 C132 479 34 372 34 226 C34 85 127 -16 257 -16 C325 -16 375 9 418 64 L418 0 L545 0 L545 463 L418 463 L418 404 Z M293 372 C368 372 420 314 420 232 C420 152 363 86 292 86 C223 86 170 147 170 228 C170 313 221 372 293 372 L293 372 Z M298 697 C246 697 205 657 205 606 C205 555 246 515 298 515 C349 515 390 555 390 604 C390 657 350 697 298 697 L298 697 Z M298 651 C323 651 343 631 343 605 C343 581 322 561 298 561 C272 561 252 581 252 606 C252 631 272 651 298 651 L298 651 Z " />
<glyph glyph-name="ae" unicode="&#xe6;" horiz-adv-x="945" d="M785 158 C754 115 723 97 677 97 C611 97 563 136 550 200 L916 200 C917 213 917 220 917 230 C917 371 818 479 689 479 C627 479 589 460 550 410 L550 463 L428 463 L428 410 C385 456 329 479 262 479 C130 479 33 372 33 227 C33 81 127 -16 267 -16 C337 -16 387 6 428 57 L428 0 L550 0 L550 54 C587 4 626 -16 690 -16 C780 -16 852 32 900 123 L785 158 Z M550 273 C570 341 608 372 671 372 C734 372 773 338 786 273 L550 273 Z M298 372 C373 372 426 312 426 226 C426 147 372 87 300 87 C226 87 168 151 168 231 C168 312 223 372 298 372 L298 372 Z " />
<glyph glyph-name="ccedilla" unicode="&#xe7;" horiz-adv-x="468" d="M379 136 C346 107 322 97 288 97 C215 97 161 155 161 233 C161 309 213 366 283 366 C320 366 350 353 379 325 L464 402 C405 455 348 479 279 479 C135 479 33 375 33 229 C33 88 137 -16 278 -16 C348 -16 403 5 456 53 L379 136 Z M208 -207 C269 -178 308 -145 340 -95 L252 -58 C228 -110 199 -141 157 -162 L208 -207 Z " />
<glyph glyph-name="egrave" unicode="&#xe8;" horiz-adv-x="556" d="M527 201 L528 226 C528 375 425 479 277 479 C134 479 33 377 33 232 C33 88 138 -16 285 -16 C383 -16 464 35 510 125 L393 157 C373 120 333 97 286 97 C223 97 176 137 165 201 L527 201 Z M165 274 C177 337 218 372 279 372 C342 372 386 335 397 274 L165 274 Z M254 672 L126 672 L259 533 L337 533 L254 672 Z " />
<glyph glyph-name="eacute" unicode="&#xe9;" horiz-adv-x="556" d="M527 201 L528 226 C528 375 425 479 277 479 C134 479 33 377 33 232 C33 88 138 -16 285 -16 C383 -16 464 35 510 125 L393 157 C373 120 333 97 286 97 C223 97 176 137 165 201 L527 201 Z M165 274 C177 337 218 372 279 372 C342 372 386 335 397 274 L165 274 Z M303 672 L220 533 L298 533 L430 672 L303 672 Z " />
<glyph glyph-name="ecircumflex" unicode="&#xea;" horiz-adv-x="556" d="M527 201 L528 226 C528 375 425 479 277 479 C134 479 33 377 33 232 C33 88 138 -16 285 -16 C383 -16 464 35 510 125 L393 157 C373 120 333 97 286 97 C223 97 176 137 165 201 L527 201 Z M165 274 C177 337 218 372 279 372 C342 372 386 335 397 274 L165 274 Z M279 607 L347 533 L436 533 L340 672 L222 672 L120 533 L209 533 L279 607 Z " />
<glyph glyph-name="edieresis" unicode="&#xeb;" horiz-adv-x="556" d="M527 201 L528 226 C528 375 425 479 277 479 C134 479 33 377 33 232 C33 88 138 -16 285 -16 C383 -16 464 35 510 125 L393 157 C373 120 333 97 286 97 C223 97 176 137 165 201 L527 201 Z M165 274 C177 337 218 372 279 372 C342 372 386 335 397 274 L165 274 Z M172 673 C133 673 104 644 104 606 C104 568 133 539 171 539 C208 539 238 568 238 605 C238 644 210 673 172 673 L172 673 Z M385 673 C346 673 317 644 317 606 C317 568 346 539 384 539 C421 539 451 568 451 605 C451 644 422 673 385 673 L385 673 Z " />
<glyph glyph-name="igrave" unicode="&#xec;" horiz-adv-x="253" d="M190 463 L63 463 L63 0 L190 0 L190 463 Z M103 672 L-25 672 L108 533 L186 533 L103 672 Z " />
<glyph glyph-name="iacute" unicode="&#xed;" horiz-adv-x="253" d="M190 463 L63 463 L63 0 L190 0 L190 463 Z M151 672 L68 533 L146 533 L279 672 L151 672 Z " />
<glyph glyph-name="icircumflex" unicode="&#xee;" horiz-adv-x="253" d="M190 463 L63 463 L63 0 L190 0 L190 463 Z M128 607 L196 533 L285 533 L189 672 L71 672 L-31 533 L58 533 L128 607 Z " />
<glyph glyph-name="idieresis" unicode="&#xef;" horiz-adv-x="253" d="M190 463 L63 463 L63 0 L190 0 L190 463 Z M39 673 C0 673 -29 644 -29 606 C-29 568 0 539 38 539 C75 539 105 568 105 605 C105 644 77 673 39 673 L39 673 Z M214 673 C175 673 146 644 146 606 C146 568 175 539 213 539 C250 539 280 568 280 605 C280 644 251 673 214 673 L214 673 Z " />
<glyph glyph-name="eth" unicode="&#xf0;" horiz-adv-x="569" d="M174 577 L201 526 L298 579 C337 539 358 508 375 461 C338 474 315 478 283 478 C137 478 33 375 33 232 C33 87 137 -16 284 -16 C348 -16 410 6 456 46 C509 92 537 164 537 252 C537 398 475 535 370 618 L447 658 L418 708 L314 652 C276 677 209 706 172 713 L147 673 C172 666 232 634 250 618 L174 577 Z M285 364 C359 364 407 312 407 232 C407 150 359 97 284 97 C211 97 162 151 162 232 C162 311 211 364 285 364 L285 364 Z " />
<glyph glyph-name="ntilde" unicode="&#xf1;" horiz-adv-x="531" d="M63 463 L63 0 L190 0 L190 281 C190 335 223 372 272 372 C297 372 321 360 333 341 C341 328 344 313 344 287 L344 0 L471 0 L471 293 C471 369 460 406 430 436 C402 463 360 479 316 479 C258 479 224 459 190 406 L190 463 L63 463 Z M355 658 C350 635 340 623 326 623 C320 623 313 625 303 630 C259 651 235 659 213 659 C160 659 126 623 108 548 L190 541 C197 566 206 577 220 577 C226 577 230 576 243 569 C288 548 311 540 333 540 C383 540 419 578 436 652 L355 658 Z " />
<glyph glyph-name="ograve" unicode="&#xf2;" horiz-adv-x="568" d="M286 479 C136 479 33 378 33 231 C33 87 138 -16 284 -16 C426 -16 537 91 537 227 C537 373 432 479 286 479 L286 479 Z M286 365 C362 365 409 313 409 229 C409 152 358 97 285 97 C211 97 161 151 161 231 C161 312 211 365 286 365 L286 365 Z M261 672 L133 672 L265 533 L344 533 L261 672 Z " />
<glyph glyph-name="oacute" unicode="&#xf3;" horiz-adv-x="568" d="M286 479 C136 479 33 378 33 231 C33 87 138 -16 284 -16 C426 -16 537 91 537 227 C537 373 432 479 286 479 L286 479 Z M286 365 C362 365 409 313 409 229 C409 152 358 97 285 97 C211 97 161 151 161 231 C161 312 211 365 286 365 L286 365 Z M309 672 L226 533 L304 533 L437 672 L309 672 Z " />
<glyph glyph-name="ocircumflex" unicode="&#xf4;" horiz-adv-x="568" d="M286 479 C136 479 33 378 33 231 C33 87 138 -16 284 -16 C426 -16 537 91 537 227 C537 373 432 479 286 479 L286 479 Z M286 365 C362 365 409 313 409 229 C409 152 358 97 285 97 C211 97 161 151 161 231 C161 312 211 365 286 365 L286 365 Z M285 607 L354 533 L443 533 L346 672 L229 672 L127 533 L216 533 L285 607 Z " />
<glyph glyph-name="otilde" unicode="&#xf5;" horiz-adv-x="568" d="M286 479 C136 479 33 378 33 231 C33 87 138 -16 284 -16 C426 -16 537 91 537 227 C537 373 432 479 286 479 L286 479 Z M286 365 C362 365 409 313 409 229 C409 152 358 97 285 97 C211 97 161 151 161 231 C161 312 211 365 286 365 L286 365 Z M374 658 C369 635 359 623 345 623 C339 623 332 625 322 630 C278 651 254 659 232 659 C179 659 145 623 127 548 L209 541 C216 566 225 577 239 577 C245 577 249 576 262 569 C307 548 330 540 352 540 C402 540 438 578 455 652 L374 658 Z " />
<glyph glyph-name="odieresis" unicode="&#xf6;" horiz-adv-x="568" d="M286 479 C136 479 33 378 33 231 C33 87 138 -16 284 -16 C426 -16 537 91 537 227 C537 373 432 479 286 479 L286 479 Z M286 365 C362 365 409 313 409 229 C409 152 358 97 285 97 C211 97 161 151 161 231 C161 312 211 365 286 365 L286 365 Z M177 673 C139 673 110 644 110 606 C110 568 139 539 177 539 C214 539 244 568 244 605 C244 644 215 673 177 673 L177 673 Z M391 673 C353 673 324 644 324 606 C324 568 353 539 391 539 C428 539 458 568 458 605 C458 644 429 673 391 673 L391 673 Z " />
<glyph glyph-name="divide" unicode="&#xf7;" horiz-adv-x="500" d="M12 388 L12 322 L487 322 L487 388 L12 388 Z M250 583 C220 583 197 560 197 530 C197 502 221 478 250 478 C278 478 302 502 302 531 C302 559 279 583 250 583 L250 583 Z M250 232 C221 232 197 209 197 179 C197 151 221 127 249 127 C278 127 302 151 302 180 C302 208 278 232 250 232 L250 232 Z " />
<glyph glyph-name="oslash" unicode="&#xf8;" horiz-adv-x="569" d="M119 40 C168 2 222 -16 285 -16 C428 -16 537 90 537 229 C537 290 520 339 481 392 L534 444 L504 477 L449 424 C397 462 346 479 281 479 C137 479 33 375 33 231 C33 167 49 119 86 73 L34 22 L66 -11 L119 40 Z M392 308 C407 283 412 262 412 231 C412 152 360 97 286 97 C257 97 231 105 206 123 L392 308 Z M175 158 C162 183 157 201 157 229 C157 311 208 365 285 365 C315 365 337 358 362 341 L175 158 Z " />
<glyph glyph-name="ugrave" unicode="&#xf9;" horiz-adv-x="514" d="M333 463 L333 170 C333 121 305 91 258 91 C212 91 181 126 181 178 L181 463 L54 463 L54 170 C54 109 70 65 103 35 C139 2 194 -16 258 -16 C319 -16 371 1 408 32 C446 64 460 102 460 170 L460 463 L333 463 Z M233 672 L105 672 L237 533 L316 533 L233 672 Z " />
<glyph glyph-name="uacute" unicode="&#xfa;" horiz-adv-x="514" d="M333 463 L333 170 C333 121 305 91 258 91 C212 91 181 126 181 178 L181 463 L54 463 L54 170 C54 109 70 65 103 35 C139 2 194 -16 258 -16 C319 -16 371 1 408 32 C446 64 460 102 460 170 L460 463 L333 463 Z M281 672 L198 533 L277 533 L409 672 L281 672 Z " />
<glyph glyph-name="ucircumflex" unicode="&#xfb;" horiz-adv-x="514" d="M333 463 L333 170 C333 121 305 91 258 91 C212 91 181 126 181 178 L181 463 L54 463 L54 170 C54 109 70 65 103 35 C139 2 194 -16 258 -16 C319 -16 371 1 408 32 C446 64 460 102 460 170 L460 463 L333 463 Z M258 607 L326 533 L415 533 L319 672 L201 672 L99 533 L188 533 L258 607 Z " />
<glyph glyph-name="udieresis" unicode="&#xfc;" horiz-adv-x="514" d="M333 463 L333 170 C333 121 305 91 258 91 C212 91 181 126 181 178 L181 463 L54 463 L54 170 C54 109 70 65 103 35 C139 2 194 -16 258 -16 C319 -16 372 1 408 32 C446 64 460 102 460 170 L460 463 L333 463 Z M150 673 C112 673 83 644 83 606 C83 568 112 539 150 539 C187 539 217 568 217 605 C217 644 188 673 150 673 L150 673 Z M364 673 C325 673 296 644 296 606 C296 568 325 539 363 539 C400 539 430 568 430 605 C430 644 402 673 364 673 L364 673 Z " />
<glyph glyph-name="yacute" unicode="&#xfd;" horiz-adv-x="469" d="M227 188 L133 463 L-2 463 L160 11 L73 -211 L209 -211 L470 463 L335 463 L227 188 Z M258 672 L175 533 L254 533 L386 672 L258 672 Z " />
<glyph glyph-name="thorn" unicode="&#xfe;" horiz-adv-x="608" d="M62 667 L62 -207 L189 -207 L189 50 C228 5 277 -16 344 -16 C483 -16 575 82 575 230 C575 324 540 393 470 441 C431 467 390 479 341 479 C272 479 227 457 189 406 L189 667 L62 667 Z M316 372 C388 372 439 312 439 227 C439 145 386 86 312 86 C238 86 189 142 189 226 C189 312 241 372 316 372 L316 372 Z " />
<glyph glyph-name="ydieresis" unicode="&#xff;" horiz-adv-x="469" d="M227 188 L133 463 L-2 463 L160 11 L73 -211 L209 -211 L470 463 L335 463 L227 188 Z M128 673 C89 673 60 644 60 606 C60 568 89 539 127 539 C164 539 194 568 194 605 C194 644 166 673 128 673 L128 673 Z M341 673 C302 673 273 644 273 606 C273 568 302 539 340 539 C377 539 407 568 407 605 C407 644 378 673 341 673 L341 673 Z " />
<glyph glyph-name="Amacron" unicode="&#x100;" horiz-adv-x="632" d="M443 115 L481 0 L631 0 L403 667 L232 667 L2 0 L147 0 L187 115 L443 115 Z M407 227 L222 227 L315 503 L407 227 Z M218 768 L414 768 L414 823 L218 823 L218 768 Z " />
<glyph glyph-name="amacron" unicode="&#x101;" horiz-adv-x="607" d="M418 404 C373 457 330 479 267 479 C132 479 34 372 34 226 C34 85 127 -16 257 -16 C325 -16 375 9 418 64 L418 0 L545 0 L545 463 L418 463 L418 404 Z M293 372 C368 372 420 314 420 232 C420 152 363 86 292 86 C223 86 170 147 170 228 C170 313 221 372 293 372 L293 372 Z M213 574 L395 574 L395 630 L213 630 L213 574 Z " />
<glyph glyph-name="Abreve" unicode="&#x102;" horiz-adv-x="632" d="M443 115 L481 0 L631 0 L403 667 L232 667 L2 0 L147 0 L187 115 L443 115 Z M407 227 L222 227 L315 503 L407 227 Z M144 855 C168 774 229 730 317 730 C404 730 465 774 489 855 L400 855 C378 818 357 805 317 805 C276 805 255 818 233 855 L144 855 Z " />
<glyph glyph-name="abreve" unicode="&#x103;" horiz-adv-x="607" d="M418 404 C373 457 330 479 267 479 C132 479 34 372 34 226 C34 85 127 -16 257 -16 C325 -16 375 9 418 64 L418 0 L545 0 L545 463 L418 463 L418 404 Z M293 372 C368 372 420 314 420 232 C420 152 363 86 292 86 C223 86 170 147 170 228 C170 313 221 372 293 372 L293 372 Z M322 664 C318 647 318 643 318 628 C318 609 314 600 304 600 C295 600 290 609 290 628 C290 643 290 647 286 664 L198 664 C203 588 242 544 304 544 C366 544 405 588 410 664 L322 664 Z " />
<glyph glyph-name="Aogonek" unicode="&#x104;" horiz-adv-x="647" d="M394 667 L256 667 L0 0 L142 0 L195 139 L453 139 L505 0 L590 0 C539 -30 516 -59 516 -97 C516 -144 562 -181 621 -181 C644 -181 660 -178 692 -167 L692 -105 C669 -114 658 -116 644 -116 C614 -116 590 -95 590 -68 C590 -44 607 -23 647 0 L394 667 Z M422 238 L226 238 L290 405 C312 469 314 475 326 521 C332 487 340 460 357 407 L422 238 Z " />
<glyph glyph-name="aogonek" unicode="&#x105;" horiz-adv-x="543" d="M486 325 C486 393 476 421 441 449 C404 478 346 494 274 494 C133 494 58 440 53 334 L172 334 C180 391 209 415 271 415 C330 415 363 388 363 340 C363 304 346 293 276 285 C182 275 167 272 131 262 C64 243 28 197 28 130 C28 40 91 -13 198 -13 C276 -13 324 11 365 71 C366 23 366 20 374 8 C375 7 377 4 378 0 L451 0 C406 -31 387 -58 387 -92 C387 -142 428 -175 488 -175 C510 -175 526 -172 556 -162 L556 -105 C535 -114 525 -116 512 -116 C482 -116 458 -95 458 -68 C458 -45 476 -20 509 0 C488 29 484 47 484 112 C484 132 485 266 486 293 L486 325 Z M363 191 C363 113 316 63 241 63 C188 63 157 90 157 135 C157 179 187 204 247 211 C331 221 337 222 363 242 L363 191 Z " />
<glyph glyph-name="Cacute" unicode="&#x106;" horiz-adv-x="635" d="M531 182 C490 135 443 114 382 114 C262 114 176 207 176 335 C176 463 258 553 375 553 C431 553 477 533 531 484 L620 574 C541 651 471 680 368 680 C175 680 37 535 37 332 C37 240 70 150 127 87 C186 21 267 -13 366 -13 C465 -13 537 16 614 88 L531 182 Z M345 859 L251 726 L338 726 L476 859 L345 859 Z " />
<glyph glyph-name="cacute" unicode="&#x107;" horiz-adv-x="468" d="M379 136 C346 107 322 97 289 97 C215 97 162 154 162 233 C162 309 214 366 284 366 C321 366 351 353 379 325 L464 402 C405 455 348 479 279 479 C135 479 33 375 33 229 C33 88 137 -16 278 -16 C348 -16 403 5 456 53 L379 136 Z M259 672 L176 533 L254 533 L387 672 L259 672 Z " />
<glyph glyph-name="Ccircumflex" unicode="&#x108;" horiz-adv-x="635" d="M531 182 C490 135 443 114 382 114 C262 114 176 207 176 335 C176 463 258 553 375 553 C431 553 477 533 531 484 L620 574 C541 651 471 680 368 680 C175 680 37 535 37 332 C37 240 70 150 127 87 C186 21 267 -13 366 -13 C465 -13 537 16 614 88 L531 182 Z M318 794 L396 726 L484 726 L378 860 L263 860 L150 726 L239 726 L318 794 Z " />
<glyph glyph-name="Cdotaccent" unicode="&#x10a;" horiz-adv-x="635" d="M531 182 C490 135 443 114 382 114 C262 114 176 207 176 335 C176 463 258 553 375 553 C431 553 477 533 531 484 L620 574 C541 651 471 680 368 680 C175 680 37 535 37 332 C37 240 70 150 127 87 C186 21 267 -13 366 -13 C465 -13 537 16 614 88 L531 182 Z M317 870 C278 870 247 839 247 801 C247 763 278 732 316 732 C354 732 385 763 385 800 C385 839 355 870 317 870 L317 870 Z " />
<glyph glyph-name="cdotaccent" unicode="&#x10b;" horiz-adv-x="468" d="M379 136 C346 107 322 97 289 97 C215 97 162 154 162 233 C162 309 214 366 284 366 C321 366 351 353 379 325 L464 402 C405 455 348 479 279 479 C135 479 33 375 33 229 C33 88 137 -16 278 -16 C348 -16 403 5 456 53 L379 136 Z M235 673 C196 673 167 644 167 606 C167 568 196 539 234 539 C271 539 301 568 301 605 C301 644 273 673 235 673 L235 673 Z " />
<glyph glyph-name="Ccaron" unicode="&#x10c;" horiz-adv-x="635" d="M531 182 C490 135 443 114 382 114 C262 114 176 207 176 335 C176 463 258 553 375 553 C431 553 477 533 531 484 L620 574 C541 651 471 680 368 680 C175 680 37 535 37 332 C37 240 70 150 127 87 C186 21 267 -13 366 -13 C465 -13 537 16 614 88 L531 182 Z M316 792 L239 860 L150 860 L256 726 L371 726 L484 860 L395 860 L316 792 Z " />
<glyph glyph-name="ccaron" unicode="&#x10d;" horiz-adv-x="468" d="M379 136 C346 107 322 97 289 97 C215 97 162 154 162 233 C162 309 214 366 284 366 C321 366 351 353 379 325 L464 402 C405 455 348 479 279 479 C135 479 33 375 33 229 C33 88 137 -16 278 -16 C348 -16 403 5 456 53 L379 136 Z M234 598 L166 672 L77 672 L173 533 L290 533 L392 672 L304 672 L234 598 Z " />
<glyph glyph-name="Dcaron" unicode="&#x10e;" horiz-adv-x="641" d="M70 0 L267 0 C363 0 443 27 498 77 C566 138 604 234 604 341 C604 446 567 533 499 593 C440 645 367 667 259 667 L70 667 L70 0 Z M207 556 L257 556 C383 556 465 470 465 337 C465 263 438 200 390 159 C351 126 306 113 233 113 L207 113 L207 556 Z M320 792 L242 860 L153 860 L259 726 L375 726 L488 860 L399 860 L320 792 Z " />
<glyph glyph-name="dcaron" unicode="&#x10f;" horiz-adv-x="777" d="M418 412 C373 459 328 479 265 479 C208 479 152 456 108 415 C60 370 34 305 34 227 C34 82 126 -16 263 -16 C334 -16 378 6 418 61 L418 0 L545 0 L545 667 L418 667 L418 412 Z M295 372 C366 372 418 311 418 227 C418 147 364 86 294 86 C222 86 169 146 169 226 C169 311 222 372 295 372 L295 372 Z M743 651 L635 680 L579 466 L664 443 L743 651 Z " />
<glyph glyph-name="Dcroat" unicode="&#x110;" horiz-adv-x="641" d="M70 391 L5 391 L5 284 L70 284 L70 0 L267 0 C363 0 443 27 498 77 C566 138 604 234 604 341 C604 445 567 533 499 593 C440 645 367 667 259 667 L70 667 L70 391 Z M207 391 L207 556 L257 556 C383 556 465 470 465 337 C465 263 438 200 390 159 C351 126 306 113 233 113 L207 113 L207 284 L325 284 L325 391 L207 391 Z " />
<glyph glyph-name="dcroat" unicode="&#x111;" horiz-adv-x="607" d="M418 608 L310 608 L310 513 L418 513 L418 412 C373 459 328 479 264 479 C131 479 33 372 33 227 C33 82 126 -16 262 -16 C334 -16 378 6 418 61 L418 0 L545 0 L545 513 L604 513 L604 608 L545 608 L545 667 L418 667 L418 608 Z M294 372 C366 372 418 311 418 227 C418 147 364 86 293 86 C221 86 168 146 168 226 C168 311 221 372 294 372 L294 372 Z " />
<glyph glyph-name="Emacron" unicode="&#x112;" horiz-adv-x="463" d="M184 555 L418 555 L418 667 L47 667 L47 0 L418 0 L418 112 L184 112 L184 279 L418 279 L418 391 L184 391 L184 555 Z M134 768 L330 768 L330 823 L134 823 L134 768 Z " />
<glyph glyph-name="emacron" unicode="&#x113;" horiz-adv-x="556" d="M527 201 L528 226 C528 375 425 479 277 479 C134 479 33 377 33 232 C33 88 138 -16 285 -16 C383 -16 464 35 510 125 L393 157 C373 120 333 97 286 97 C223 97 176 137 165 201 L527 201 Z M165 274 C177 337 218 372 279 372 C342 372 386 335 397 274 L165 274 Z M187 574 L369 574 L369 630 L187 630 L187 574 Z " />
<glyph glyph-name="Ebreve" unicode="&#x114;" horiz-adv-x="463" d="M184 555 L418 555 L418 667 L47 667 L47 0 L418 0 L418 112 L184 112 L184 279 L418 279 L418 391 L184 391 L184 555 Z M59 855 C84 774 144 730 232 730 C319 730 380 774 404 855 L316 855 C294 818 272 805 232 805 C191 805 170 818 148 855 L59 855 Z " />
<glyph glyph-name="Edotaccent" unicode="&#x116;" horiz-adv-x="463" d="M184 555 L418 555 L418 667 L47 667 L47 0 L418 0 L418 112 L184 112 L184 279 L418 279 L418 391 L184 391 L184 555 Z M232 870 C193 870 162 839 162 801 C162 763 193 732 231 732 C269 732 300 763 300 800 C300 839 270 870 232 870 L232 870 Z " />
<glyph glyph-name="edotaccent" unicode="&#x117;" horiz-adv-x="556" d="M527 201 L528 226 C528 375 425 479 277 479 C134 479 33 377 33 232 C33 88 138 -16 285 -16 C383 -16 464 35 510 125 L393 157 C373 120 333 97 286 97 C223 97 176 137 165 201 L527 201 Z M165 274 C177 337 218 372 279 372 C342 372 386 335 397 274 L165 274 Z M279 673 C240 673 211 644 211 606 C211 568 240 539 278 539 C315 539 345 568 345 605 C345 644 317 673 279 673 L279 673 Z " />
<glyph glyph-name="Eogonek" unicode="&#x118;" horiz-adv-x="616" d="M583 116 L200 116 L200 292 L545 292 L545 399 L200 399 L200 556 L575 556 L575 667 L61 667 L61 0 L518 0 C468 -30 446 -59 446 -96 C446 -144 492 -181 550 -181 C574 -181 590 -178 621 -167 L628 -105 C605 -114 595 -116 580 -116 C549 -116 526 -95 526 -68 C526 -43 540 -26 583 0 L583 116 Z " />
<glyph glyph-name="eogonek" unicode="&#x119;" horiz-adv-x="552" d="M396 154 C373 95 339 70 282 70 C206 70 155 127 152 215 L523 215 C523 278 514 326 495 365 C455 447 376 494 278 494 C133 494 30 388 30 237 C30 102 112 7 243 -11 C205 -40 191 -62 191 -93 C191 -143 232 -176 293 -176 C315 -176 330 -173 361 -163 L361 -107 C339 -115 329 -117 316 -117 C287 -117 262 -95 262 -70 C262 -50 275 -30 297 -12 C403 -11 492 57 515 154 L396 154 Z M152 281 C163 366 207 411 279 411 C350 411 395 362 399 281 L152 281 Z " />
<glyph glyph-name="Ecaron" unicode="&#x11a;" horiz-adv-x="463" d="M184 555 L418 555 L418 667 L47 667 L47 0 L418 0 L418 112 L184 112 L184 279 L418 279 L418 391 L184 391 L184 555 Z M231 792 L153 860 L65 860 L170 726 L286 726 L399 860 L310 860 L231 792 Z " />
<glyph glyph-name="ecaron" unicode="&#x11b;" horiz-adv-x="556" d="M527 201 L528 226 C528 375 425 479 277 479 C134 479 33 377 33 232 C33 88 138 -16 285 -16 C383 -16 464 35 510 125 L393 157 C373 120 333 97 286 97 C223 97 176 137 165 201 L527 201 Z M165 274 C177 337 218 372 279 372 C342 372 386 335 397 274 L165 274 Z M278 598 L209 672 L120 672 L217 533 L334 533 L436 672 L347 672 L278 598 Z " />
<glyph glyph-name="Gcircumflex" unicode="&#x11c;" horiz-adv-x="752" d="M389 374 L389 262 L575 262 C564 222 554 201 534 178 C499 136 442 111 385 111 C268 111 176 208 176 332 C176 458 265 554 382 554 C448 554 497 529 546 471 L649 552 C584 634 487 680 379 680 C183 680 37 531 37 332 C37 135 184 -13 380 -13 C474 -13 559 23 626 90 C693 158 723 235 723 338 L723 374 L389 374 Z M377 794 L454 726 L543 726 L437 860 L322 860 L209 726 L298 726 L377 794 Z " />
<glyph glyph-name="gcircumflex" unicode="&#x11d;" horiz-adv-x="589" d="M401 406 C361 457 316 479 251 479 C112 479 19 378 19 228 C19 87 111 -16 238 -16 C305 -16 359 10 401 63 L401 16 C401 -71 352 -121 267 -121 C209 -121 165 -101 124 -57 L45 -137 C108 -199 182 -229 272 -229 C351 -229 419 -204 464 -159 C508 -116 526 -61 526 34 L526 463 L401 463 L401 406 Z M278 366 C310 366 342 352 365 330 C388 306 399 272 399 222 C399 187 390 158 375 140 C352 113 316 97 279 97 C206 97 154 154 154 234 C154 311 205 366 278 366 L278 366 Z M295 607 L364 533 L452 533 L356 672 L239 672 L137 533 L225 533 L295 607 Z " />
<glyph glyph-name="Gbreve" unicode="&#x11e;" horiz-adv-x="752" d="M389 374 L389 262 L575 262 C564 222 554 201 534 178 C499 136 442 111 385 111 C268 111 176 208 176 332 C176 458 265 554 382 554 C448 554 497 529 546 471 L649 552 C584 634 487 680 379 680 C183 680 37 531 37 332 C37 135 184 -13 380 -13 C474 -13 559 23 626 90 C693 158 723 235 723 338 L723 374 L389 374 Z M204 855 C228 774 288 730 376 730 C463 730 524 774 548 855 L460 855 C438 818 416 805 376 805 C335 805 314 818 292 855 L204 855 Z " />
<glyph glyph-name="gbreve" unicode="&#x11f;" horiz-adv-x="589" d="M401 406 C361 457 316 479 251 479 C112 479 19 378 19 228 C19 87 111 -16 238 -16 C305 -16 359 10 401 63 L401 16 C401 -71 352 -121 267 -121 C209 -121 165 -101 124 -57 L45 -137 C108 -199 182 -229 272 -229 C351 -229 419 -204 464 -159 C508 -116 526 -61 526 34 L526 463 L401 463 L401 406 Z M278 366 C310 366 342 352 365 330 C388 306 399 272 399 222 C399 187 390 158 375 140 C352 113 316 97 279 97 C206 97 154 154 154 234 C154 311 205 366 278 366 L278 366 Z M313 664 C309 647 308 643 308 628 C308 609 304 600 294 600 C285 600 281 609 281 628 C281 643 280 647 276 664 L189 664 C193 588 233 544 295 544 C357 544 396 588 401 664 L313 664 Z " />
<glyph glyph-name="Gdotaccent" unicode="&#x120;" horiz-adv-x="752" d="M389 374 L389 262 L575 262 C564 222 554 201 534 178 C499 136 442 111 385 111 C268 111 176 208 176 332 C176 458 265 554 382 554 C448 554 497 529 546 471 L649 552 C584 634 487 680 379 680 C183 680 37 531 37 332 C37 135 184 -13 380 -13 C474 -13 559 23 626 90 C693 158 723 235 723 338 L723 374 L389 374 Z M376 870 C337 870 306 839 306 801 C306 763 337 732 375 732 C413 732 444 763 444 800 C444 839 414 870 376 870 L376 870 Z " />
<glyph glyph-name="gdotaccent" unicode="&#x121;" horiz-adv-x="589" d="M401 406 C361 457 316 479 251 479 C112 479 19 378 19 228 C19 87 111 -16 238 -16 C305 -16 359 10 401 63 L401 16 C401 -71 352 -121 267 -121 C209 -121 165 -101 124 -57 L45 -137 C108 -199 182 -229 272 -229 C351 -229 419 -204 464 -159 C508 -116 526 -61 526 34 L526 463 L401 463 L401 406 Z M278 366 C310 366 342 352 365 330 C388 306 399 272 399 222 C399 187 390 158 375 140 C352 113 316 97 279 97 C206 97 154 154 154 234 C154 311 205 366 278 366 L278 366 Z M295 673 C256 673 227 644 227 606 C227 568 256 539 294 539 C331 539 361 568 361 605 C361 644 333 673 295 673 L295 673 Z " />
<glyph glyph-name="Gcommaaccent" unicode="&#x122;" horiz-adv-x="752" d="M389 374 L389 262 L575 262 C564 222 554 201 534 178 C499 136 442 111 385 111 C268 111 176 208 176 332 C176 458 265 554 382 554 C448 554 497 529 546 471 L649 552 C584 634 487 680 379 680 C183 680 37 531 37 332 C37 135 184 -13 380 -13 C474 -13 559 23 626 90 C693 158 723 235 723 338 L723 374 L389 374 Z M432 -42 L319 -42 L319 -130 L382 -130 C381 -166 364 -180 314 -185 L314 -226 C399 -221 432 -188 432 -108 L432 -42 Z " />
<glyph glyph-name="gcommaaccent" unicode="&#x123;" horiz-adv-x="589" d="M401 406 C361 457 316 479 251 479 C112 479 19 378 19 228 C19 87 111 -16 238 -16 C305 -16 359 10 401 63 L401 16 C401 -71 352 -121 267 -121 C209 -121 165 -101 124 -57 L45 -137 C108 -199 182 -229 272 -229 C351 -229 419 -204 464 -159 C508 -116 526 -61 526 34 L526 463 L401 463 L401 406 Z M278 366 C310 366 342 352 365 330 C388 306 399 272 399 222 C399 187 390 158 375 140 C352 113 316 97 279 97 C206 97 154 154 154 234 C154 311 205 366 278 366 L278 366 Z M224 569 L333 540 L389 755 L303 777 L224 569 Z " />
<glyph glyph-name="Hcircumflex" unicode="&#x124;" horiz-adv-x="667" d="M207 273 L460 273 L460 0 L597 0 L597 667 L460 667 L460 385 L207 385 L207 667 L70 667 L70 0 L207 0 L207 273 Z M335 794 L412 726 L501 726 L395 860 L279 860 L166 726 L255 726 L335 794 Z " />
<glyph glyph-name="Hbar" unicode="&#x126;" horiz-adv-x="688" d="M628 586 L628 667 L489 667 L489 586 L199 586 L199 667 L60 667 L60 586 L2 586 L2 507 L60 507 L60 0 L199 0 L199 290 L489 290 L489 0 L628 0 L628 507 L685 507 L685 586 L628 586 Z M199 507 L489 507 L489 395 L199 395 L199 507 Z " />
<glyph glyph-name="hbar" unicode="&#x127;" horiz-adv-x="575" d="M186 604 L186 667 L59 667 L59 604 L-10 604 L-10 528 L59 528 L59 0 L186 0 L186 248 C186 292 192 322 206 344 C226 376 257 393 294 393 C325 393 352 381 370 359 C385 340 390 320 390 279 L390 0 L517 0 L517 303 C517 364 508 398 485 430 C454 472 403 495 343 495 C271 495 221 464 186 397 L186 528 L294 528 L294 604 L186 604 Z " />
<glyph glyph-name="Imacron" unicode="&#x12a;" horiz-adv-x="276" d="M207 667 L70 667 L70 0 L207 0 L207 667 Z M40 768 L236 768 L236 823 L40 823 L40 768 Z " />
<glyph glyph-name="imacron" unicode="&#x12b;" horiz-adv-x="253" d="M190 463 L63 463 L63 0 L190 0 L190 463 Z M36 574 L218 574 L218 630 L36 630 L36 574 Z " />
<glyph glyph-name="ibreve" unicode="&#x12d;" horiz-adv-x="253" d="M190 463 L63 463 L63 0 L190 0 L190 463 Z M145 664 C141 647 141 643 141 628 C141 609 137 600 127 600 C118 600 113 609 113 628 C113 643 113 647 109 664 L21 664 C26 588 65 544 127 544 C189 544 228 588 233 664 L145 664 Z " />
<glyph glyph-name="Iogonek" unicode="&#x12e;" horiz-adv-x="276" d="M207 667 L70 667 L70 0 L121 0 C71 -32 45 -72 45 -115 C45 -165 94 -201 162 -201 C188 -201 204 -198 233 -189 L224 -117 C208 -122 199 -123 188 -123 C157 -123 137 -109 137 -89 C137 -61 152 -42 207 0 L207 667 Z " />
<glyph glyph-name="iogonek" unicode="&#x12f;" horiz-adv-x="253" d="M190 463 L63 463 L63 0 L126 0 C90 -25 69 -59 69 -91 C69 -137 108 -167 168 -167 C191 -167 203 -165 226 -159 L218 -99 C205 -103 198 -104 187 -104 C159 -104 143 -92 143 -71 C143 -49 152 -35 190 0 L190 463 Z M127 666 C86 666 56 636 56 595 C56 555 86 525 127 525 C167 525 197 555 197 594 C197 636 168 666 127 666 L127 666 Z " />
<glyph glyph-name="Idotaccent" unicode="&#x130;" horiz-adv-x="276" d="M206 667 L69 667 L69 0 L206 0 L206 667 Z M138 870 C99 870 68 839 68 801 C68 763 99 732 137 732 C175 732 206 763 206 800 C206 839 176 870 138 870 L138 870 Z " />
<glyph glyph-name="dotlessi" unicode="&#x131;" horiz-adv-x="253" d="M190 463 L63 463 L63 0 L190 0 L190 463 Z " />
<glyph glyph-name="IJ" unicode="&#x132;" horiz-adv-x="660" d="M207 667 L70 667 L70 0 L207 0 L207 667 Z M602 667 L308 667 L308 555 L465 555 L465 270 C465 189 456 158 428 135 C408 119 375 110 336 110 C327 110 322 110 308 111 L308 -10 C401 -10 448 -3 488 15 C570 53 602 116 602 237 L602 667 Z " />
<glyph glyph-name="ij" unicode="&#x133;" horiz-adv-x="507" d="M190 463 L63 463 L63 0 L190 0 L190 463 Z M127 666 C86 666 56 636 56 595 C56 555 86 525 127 525 C167 525 197 555 197 594 C197 636 168 666 127 666 L127 666 Z M443 463 L316 463 L316 -15 C316 -66 291 -96 248 -96 L229 -96 L229 -212 C243 -213 256 -213 263 -213 C322 -213 368 -196 399 -163 C429 -132 443 -85 443 -15 L443 463 Z M380 666 C339 666 309 636 309 595 C309 555 339 525 380 525 C420 525 450 555 450 594 C450 636 421 666 380 666 L380 666 Z " />
<glyph glyph-name="Kcommaaccent" unicode="&#x136;" horiz-adv-x="563" d="M207 297 L394 0 L555 0 L339 346 L555 667 L396 667 L207 377 L207 667 L70 667 L70 0 L207 0 L207 297 Z M338 -42 L225 -42 L225 -130 L288 -130 C287 -166 269 -180 219 -185 L219 -226 C304 -221 338 -188 338 -108 L338 -42 Z " />
<glyph glyph-name="kcommaaccent" unicode="&#x137;" horiz-adv-x="473" d="M190 192 L319 0 L466 0 L309 241 L466 463 L319 463 L190 285 L190 667 L63 667 L63 0 L190 0 L190 192 Z M290 -58 L181 -58 L181 -137 L239 -137 C238 -161 228 -176 212 -181 L182 -188 C181 -188 179 -189 175 -191 L175 -233 C218 -224 233 -220 247 -212 C278 -195 290 -167 290 -115 L290 -58 Z " />
<glyph glyph-name="kgreenlandic" unicode="&#x138;" horiz-adv-x="533" d="M518 482 L374 482 L185 286 L185 482 L58 482 L58 0 L185 0 L185 154 L243 209 L392 0 L543 0 L326 293 L518 482 Z " />
<glyph glyph-name="Lacute" unicode="&#x139;" horiz-adv-x="451" d="M207 113 L207 667 L70 667 L70 0 L430 0 L430 113 L207 113 Z M254 859 L160 726 L247 726 L385 859 L254 859 Z " />
<glyph glyph-name="lacute" unicode="&#x13a;" horiz-adv-x="253" d="M190 0 L190 667 L63 667 L63 0 L190 0 Z M155 859 L61 726 L148 726 L286 859 L155 859 Z " />
<glyph glyph-name="Lcommaaccent" unicode="&#x13b;" horiz-adv-x="451" d="M207 113 L207 667 L70 667 L70 0 L430 0 L430 113 L207 113 Z M282 -42 L169 -42 L169 -130 L232 -130 C231 -166 213 -180 163 -185 L163 -226 C248 -221 282 -188 282 -108 L282 -42 Z " />
<glyph glyph-name="lcommaaccent" unicode="&#x13c;" horiz-adv-x="253" d="M190 0 L190 667 L63 667 L63 0 L190 0 Z M180 -58 L71 -58 L71 -137 L129 -137 C128 -161 118 -176 102 -181 L72 -188 C71 -188 69 -189 65 -191 L65 -233 C108 -224 123 -220 137 -212 C168 -195 180 -167 180 -115 L180 -58 Z " />
<glyph glyph-name="Lcaron" unicode="&#x13d;" horiz-adv-x="451" d="M207 113 L207 667 L70 667 L70 0 L430 0 L430 113 L207 113 Z M443 651 L335 680 L279 466 L364 443 L443 651 Z " />
<glyph glyph-name="lcaron" unicode="&#x13e;" horiz-adv-x="489" d="M190 0 L190 667 L63 667 L63 0 L190 0 Z M456 651 L347 680 L291 466 L377 443 L456 651 Z " />
<glyph glyph-name="Ldot" unicode="&#x13f;" horiz-adv-x="451" d="M207 113 L207 667 L70 667 L70 0 L430 0 L430 113 L207 113 Z M360 422 C313 422 280 389 280 343 C280 297 313 264 359 264 C404 264 438 297 438 342 C438 388 405 422 360 422 L360 422 Z " />
<glyph glyph-name="ldot" unicode="&#x140;" horiz-adv-x="411" d="M190 0 L190 667 L63 667 L63 0 L190 0 Z M333 422 C286 422 253 389 253 343 C253 297 286 264 332 264 C377 264 411 297 411 342 C411 388 378 422 333 422 L333 422 Z " />
<glyph glyph-name="Lslash" unicode="&#x141;" horiz-adv-x="451" d="M70 357 L12 316 L12 198 L70 240 L70 0 L430 0 L430 113 L207 113 L207 307 L301 371 L301 490 L207 423 L207 667 L70 667 L70 357 Z " />
<glyph glyph-name="lslash" unicode="&#x142;" horiz-adv-x="264" d="M68 364 L13 326 L13 219 L68 259 L68 0 L195 0 L195 327 L251 365 L251 472 L195 432 L195 667 L68 667 L68 364 Z " />
<glyph glyph-name="Nacute" unicode="&#x143;" horiz-adv-x="690" d="M207 422 L487 0 L621 0 L621 667 L484 667 L484 251 L205 667 L70 667 L70 0 L207 0 L207 422 Z M373 859 L279 726 L366 726 L505 859 L373 859 Z " />
<glyph glyph-name="nacute" unicode="&#x144;" horiz-adv-x="531" d="M63 463 L63 0 L190 0 L190 281 C190 335 223 372 272 372 C297 372 321 360 333 341 C341 328 344 313 344 287 L344 0 L471 0 L471 293 C471 369 460 406 430 436 C402 463 360 479 316 479 C258 479 224 459 190 406 L190 463 L63 463 Z M290 672 L207 533 L285 533 L418 672 L290 672 Z " />
<glyph glyph-name="Ncommaaccent" unicode="&#x145;" horiz-adv-x="690" d="M207 422 L487 0 L621 0 L621 667 L484 667 L484 251 L205 667 L70 667 L70 0 L207 0 L207 422 Z M401 -42 L288 -42 L288 -130 L351 -130 C350 -166 333 -180 283 -185 L283 -226 C368 -221 401 -188 401 -108 L401 -42 Z " />
<glyph glyph-name="ncommaaccent" unicode="&#x146;" horiz-adv-x="531" d="M63 463 L63 0 L190 0 L190 281 C190 335 223 372 272 372 C297 372 321 360 333 341 C341 328 344 313 344 287 L344 0 L471 0 L471 293 C471 369 460 406 430 436 C402 463 360 479 316 479 C258 479 224 459 190 406 L190 463 L63 463 Z M319 -58 L210 -58 L210 -137 L268 -137 C267 -161 257 -176 241 -181 L211 -188 C210 -188 208 -189 204 -191 L204 -233 C247 -224 262 -220 276 -212 C307 -195 319 -167 319 -115 L319 -58 Z " />
<glyph glyph-name="Ncaron" unicode="&#x147;" horiz-adv-x="690" d="M207 422 L487 0 L621 0 L621 667 L484 667 L484 251 L205 667 L70 667 L70 0 L207 0 L207 422 Z M344 792 L267 860 L178 860 L284 726 L400 726 L513 860 L423 860 L344 792 Z " />
<glyph glyph-name="ncaron" unicode="&#x148;" horiz-adv-x="531" d="M63 463 L63 0 L190 0 L190 281 C190 335 223 372 272 372 C297 372 321 360 333 341 C341 328 344 313 344 287 L344 0 L471 0 L471 293 C471 369 460 406 430 436 C402 463 360 479 316 479 C258 479 224 459 190 406 L190 463 L63 463 Z M265 598 L197 672 L108 672 L204 533 L322 533 L423 672 L335 672 L265 598 Z " />
<glyph glyph-name="napostrophe" unicode="&#x149;" horiz-adv-x="767" d="M203 651 L94 680 L38 466 L124 443 L203 651 Z M299 463 L299 0 L426 0 L426 281 C426 335 459 372 508 372 C533 372 557 360 569 341 C577 328 580 313 580 287 L580 0 L707 0 L707 293 C707 369 696 406 666 436 C638 463 596 479 552 479 C494 479 460 459 426 406 L426 463 L299 463 Z " />
<glyph glyph-name="Eng" unicode="&#x14a;" horiz-adv-x="657" d="M61 661 L61 0 L200 0 L200 370 C200 425 207 463 222 491 C244 533 289 559 338 559 C375 559 410 544 430 519 C450 495 457 467 457 415 L457 28 C457 -47 456 -64 449 -79 C441 -97 423 -105 389 -105 L376 -105 L376 -182 L496 -182 C574 -182 596 -165 596 -103 L596 447 C596 531 582 577 545 616 C506 656 450 679 389 679 C331 679 279 659 243 624 C224 606 213 591 192 549 L192 661 L61 661 Z " />
<glyph glyph-name="eng" unicode="&#x14b;" horiz-adv-x="579" d="M58 479 L58 0 L183 0 L183 243 C183 287 188 314 201 338 C219 369 256 389 296 389 C332 389 363 374 379 348 C390 329 393 314 393 273 L393 -58 C393 -99 377 -112 328 -112 L316 -112 L316 -171 L426 -171 C465 -171 478 -169 490 -163 C512 -152 520 -133 520 -96 L520 299 C520 368 510 405 482 438 C451 475 401 495 342 495 C264 495 218 467 175 393 L175 479 L58 479 Z " />
<glyph glyph-name="Omacron" unicode="&#x14c;" horiz-adv-x="764" d="M387 680 C189 680 37 528 37 330 C37 138 190 -13 385 -13 C574 -13 726 140 726 330 C726 427 698 504 641 568 C575 640 485 680 387 680 L387 680 Z M383 553 C501 553 587 458 587 329 C587 208 497 113 382 113 C266 113 177 208 177 332 C177 459 265 553 383 553 L383 553 Z M283 768 L479 768 L479 823 L283 823 L283 768 Z " />
<glyph glyph-name="omacron" unicode="&#x14d;" horiz-adv-x="568" d="M286 479 C136 479 33 378 33 231 C33 87 138 -16 284 -16 C426 -16 537 91 537 227 C537 373 432 479 286 479 L286 479 Z M286 365 C362 365 409 313 409 229 C409 152 358 97 285 97 C211 97 161 151 161 231 C161 312 211 365 286 365 L286 365 Z M194 574 L376 574 L376 630 L194 630 L194 574 Z " />
<glyph glyph-name="Ohungarumlaut" unicode="&#x150;" horiz-adv-x="764" d="M387 680 C189 680 37 528 37 330 C37 138 190 -13 385 -13 C574 -13 726 140 726 330 C726 427 698 504 641 568 C575 640 485 680 387 680 L387 680 Z M383 553 C501 553 587 458 587 329 C587 208 497 113 382 113 C266 113 177 208 177 332 C177 459 265 553 383 553 L383 553 Z M322 858 L242 726 L317 726 L438 858 L322 858 Z M499 858 L418 726 L493 726 L614 858 L499 858 Z " />
<glyph glyph-name="ohungarumlaut" unicode="&#x151;" horiz-adv-x="568" d="M286 479 C136 479 33 378 33 231 C33 87 138 -16 284 -16 C426 -16 537 91 537 227 C537 373 432 479 286 479 L286 479 Z M286 365 C362 365 409 313 409 229 C409 152 358 97 285 97 C211 97 161 151 161 231 C161 312 211 365 286 365 L286 365 Z M224 669 L154 533 L223 533 L337 669 L224 669 Z M397 669 L328 533 L396 533 L510 669 L397 669 Z " />
<glyph glyph-name="OE" unicode="&#x152;" horiz-adv-x="1002" d="M728 279 L956 279 L956 391 L728 391 L728 555 L956 555 L956 667 L594 667 L594 592 C533 653 467 680 378 680 C184 680 39 533 39 335 C39 137 184 -13 375 -13 C426 -13 474 -2 519 19 C552 35 568 48 594 79 L594 0 L956 0 L956 112 L728 112 L728 279 Z M392 553 C512 553 598 461 598 334 C598 210 505 114 386 114 C267 114 178 207 178 332 C178 459 269 553 392 553 L392 553 Z " />
<glyph glyph-name="oe" unicode="&#x153;" horiz-adv-x="907" d="M773 156 C745 117 705 97 654 97 C618 97 585 111 561 135 C544 153 537 169 534 199 L893 199 C892 265 887 298 869 341 C833 426 750 479 650 479 C573 479 510 451 465 396 C423 451 362 479 281 479 C135 479 33 377 33 232 C33 87 135 -16 280 -16 C323 -16 360 -6 399 15 C433 34 444 43 465 71 C486 44 499 32 522 19 C561 -3 609 -16 655 -16 C713 -16 767 3 813 40 C842 63 856 81 877 121 L773 156 Z M529 272 C544 337 586 372 649 372 C715 372 757 336 769 272 L529 272 Z M285 366 C356 366 408 306 408 226 C408 153 355 97 286 97 C215 97 161 156 161 234 C161 310 214 366 285 366 L285 366 Z " />
<glyph glyph-name="Racute" unicode="&#x154;" horiz-adv-x="584" d="M207 265 L390 0 L556 0 L372 256 C475 282 530 352 530 457 C530 594 441 667 276 667 L70 667 L70 0 L207 0 L207 265 Z M207 345 L207 554 L281 554 C349 554 391 514 391 450 C391 383 347 345 269 345 L207 345 Z M320 859 L226 726 L313 726 L452 859 L320 859 Z " />
<glyph glyph-name="racute" unicode="&#x155;" horiz-adv-x="333" d="M63 463 L63 0 L190 0 L190 223 C190 267 194 287 209 308 C227 334 259 350 294 350 C301 350 311 349 321 348 L321 478 C314 479 309 479 306 479 C278 479 251 471 231 457 C212 443 203 429 190 395 L190 463 L63 463 Z M191 672 L108 533 L186 533 L319 672 L191 672 Z " />
<glyph glyph-name="Rcommaaccent" unicode="&#x156;" horiz-adv-x="584" d="M207 265 L390 0 L556 0 L372 256 C475 282 530 352 530 457 C530 594 441 667 276 667 L70 667 L70 0 L207 0 L207 265 Z M207 345 L207 554 L281 554 C349 554 391 514 391 450 C391 383 347 345 269 345 L207 345 Z M348 -42 L235 -42 L235 -130 L298 -130 C297 -166 280 -180 230 -185 L230 -226 C315 -221 348 -188 348 -108 L348 -42 Z " />
<glyph glyph-name="rcommaaccent" unicode="&#x157;" horiz-adv-x="333" d="M63 463 L63 0 L190 0 L190 223 C190 267 194 287 209 308 C227 334 259 350 294 350 C301 350 311 349 321 348 L321 478 C314 479 309 479 306 479 C278 479 251 471 231 457 C212 443 203 429 190 395 L190 463 L63 463 Z M182 -58 L73 -58 L73 -137 L131 -137 C130 -161 120 -176 104 -181 L74 -188 C73 -188 70 -189 66 -191 L66 -233 C161 -215 182 -194 182 -115 L182 -58 Z " />
<glyph glyph-name="Rcaron" unicode="&#x158;" horiz-adv-x="584" d="M207 265 L390 0 L556 0 L372 256 C475 282 530 352 530 457 C530 594 441 667 276 667 L70 667 L70 0 L207 0 L207 265 Z M207 345 L207 554 L281 554 C349 554 391 514 391 450 C391 383 347 345 269 345 L207 345 Z M291 792 L214 860 L125 860 L231 726 L347 726 L460 860 L370 860 L291 792 Z " />
<glyph glyph-name="rcaron" unicode="&#x159;" horiz-adv-x="333" d="M63 463 L63 0 L190 0 L190 223 C190 267 194 287 209 308 C227 334 259 350 294 350 C301 350 311 349 321 348 L321 478 C314 479 309 479 306 479 C278 479 251 471 231 457 C212 443 203 429 190 395 L190 463 L63 463 Z M166 598 L98 672 L9 672 L105 533 L223 533 L325 672 L236 672 L166 598 Z " />
<glyph glyph-name="Sacute" unicode="&#x15a;" horiz-adv-x="521" d="M30 195 C29 67 115 -13 255 -13 C393 -13 485 68 485 190 C485 241 467 286 432 319 C403 347 366 366 293 393 C244 411 233 416 215 426 C188 441 174 462 174 489 C174 531 207 559 256 559 C310 559 338 532 343 476 L481 476 C470 604 386 680 256 680 C125 680 36 599 36 478 C36 376 88 321 234 269 C286 250 298 245 315 232 C332 219 342 200 342 179 C342 139 304 108 254 108 C202 108 163 141 163 186 L163 195 L30 195 Z M288 859 L194 726 L281 726 L420 859 L288 859 Z " />
<glyph glyph-name="sacute" unicode="&#x15b;" horiz-adv-x="419" d="M381 329 C378 423 314 479 208 479 C100 479 29 420 29 332 C29 259 74 214 174 184 C242 163 260 150 260 122 C260 96 239 78 209 78 C172 78 154 96 148 136 L26 136 C31 40 98 -16 208 -16 C316 -16 388 44 388 134 C388 209 347 250 243 282 C179 302 178 302 164 313 C156 319 151 331 151 343 C151 368 171 385 202 385 C236 385 261 365 261 337 L261 329 L381 329 Z M234 672 L151 533 L229 533 L361 672 L234 672 Z " />
<glyph glyph-name="Scircumflex" unicode="&#x15c;" horiz-adv-x="521" d="M30 195 C29 67 115 -13 255 -13 C393 -13 485 68 485 190 C485 241 467 286 432 319 C403 347 366 366 293 393 C244 411 233 416 215 426 C188 441 174 462 174 489 C174 531 207 559 256 559 C310 559 338 532 343 476 L481 476 C470 604 386 680 256 680 C125 680 36 599 36 478 C36 376 88 321 234 269 C286 250 298 245 315 232 C332 219 342 200 342 179 C342 139 304 108 254 108 C202 108 163 141 163 186 L163 195 L30 195 Z M261 794 L339 726 L428 726 L322 860 L206 860 L93 726 L182 726 L261 794 Z " />
<glyph glyph-name="scircumflex" unicode="&#x15d;" horiz-adv-x="419" d="M381 329 C378 423 314 479 208 479 C100 479 29 420 29 332 C29 259 74 214 174 184 C242 163 260 150 260 122 C260 96 239 78 209 78 C172 78 154 96 148 136 L26 136 C31 40 98 -16 208 -16 C316 -16 388 44 388 134 C388 209 347 250 243 282 C179 302 178 302 164 313 C156 319 151 331 151 343 C151 368 171 385 202 385 C236 385 261 365 261 337 L261 329 L381 329 Z M210 607 L278 533 L367 533 L271 672 L153 672 L51 533 L140 533 L210 607 Z " />
<glyph glyph-name="Scedilla" unicode="&#x15e;" horiz-adv-x="612" d="M320 -14 C485 -9 583 70 583 198 C583 263 554 313 499 345 C468 362 427 376 338 400 C248 423 231 428 211 439 C192 450 181 470 181 495 C181 544 225 575 295 575 C379 575 426 539 429 470 L560 470 C556 606 463 681 299 681 C147 681 47 604 47 486 C47 433 67 388 102 361 C137 334 163 323 283 289 C370 265 400 254 417 243 C435 231 445 211 445 188 C445 129 394 92 312 92 C260 92 218 106 193 133 C172 156 165 176 162 224 L23 224 C23 85 113 -1 271 -12 L228 -79 L251 -99 C273 -92 284 -90 298 -90 C328 -90 347 -105 347 -128 C347 -153 325 -170 291 -170 C262 -170 234 -164 197 -149 L179 -188 C226 -208 261 -215 306 -215 C378 -215 427 -178 427 -124 C427 -80 391 -50 337 -50 C324 -50 322 -50 293 -55 L320 -14 Z " />
<glyph glyph-name="scedilla" unicode="&#x15f;" horiz-adv-x="491" d="M257 -13 C388 -7 464 50 464 144 C464 227 418 265 280 292 C175 313 155 324 155 361 C155 397 185 418 238 418 C301 418 329 396 335 341 L450 341 C448 386 439 411 417 435 C381 475 322 495 240 495 C106 495 31 443 31 352 C31 307 52 269 88 248 C117 232 150 221 223 206 C318 185 340 172 340 136 C340 94 303 68 245 68 C176 68 142 98 138 162 L18 162 C21 60 91 -3 213 -12 L171 -74 L194 -93 C213 -86 224 -83 237 -83 C265 -83 283 -98 283 -120 C283 -145 262 -161 231 -161 C203 -161 176 -155 141 -141 L125 -177 C166 -194 203 -202 244 -202 C311 -202 357 -167 357 -117 C357 -76 323 -48 273 -48 C260 -48 251 -49 231 -53 L257 -13 Z " />
<glyph glyph-name="Scaron" unicode="&#x160;" horiz-adv-x="521" d="M30 195 C29 67 115 -13 255 -13 C393 -13 485 68 485 190 C485 241 467 286 432 319 C403 347 366 366 293 393 C244 411 233 416 215 426 C188 441 174 462 174 489 C174 531 207 559 256 559 C310 559 338 532 343 476 L481 476 C470 604 386 680 256 680 C125 680 36 599 36 478 C36 376 88 321 234 269 C286 250 298 245 315 232 C332 219 342 200 342 179 C342 139 304 108 254 108 C202 108 163 141 163 186 L163 195 L30 195 Z M259 792 L182 860 L93 860 L199 726 L315 726 L428 860 L338 860 L259 792 Z " />
<glyph glyph-name="scaron" unicode="&#x161;" horiz-adv-x="419" d="M381 329 C378 423 314 479 208 479 C100 479 29 420 29 332 C29 259 74 214 174 184 C242 163 260 150 260 122 C260 96 239 78 209 78 C172 78 154 96 148 136 L26 136 C31 40 98 -16 208 -16 C316 -16 388 44 388 134 C388 209 347 250 243 282 C179 302 178 302 164 313 C156 319 151 331 151 343 C151 368 171 385 202 385 C236 385 261 365 261 337 L261 329 L381 329 Z M209 598 L140 672 L51 672 L148 533 L265 533 L367 672 L278 672 L209 598 Z " />
<glyph glyph-name="Tcommaaccent" unicode="&#x162;" horiz-adv-x="461" d="M299 555 L457 555 L457 667 L3 667 L3 555 L162 555 L162 0 L299 0 L299 555 Z M286 -42 L173 -42 L173 -130 L236 -130 C235 -166 218 -180 168 -185 L168 -226 C253 -221 286 -188 286 -108 L286 -42 Z " />
<glyph glyph-name="tcommaaccent" unicode="&#x163;" horiz-adv-x="283" d="M196 358 L254 358 L254 465 L196 465 L196 589 L69 589 L69 465 L16 465 L16 358 L69 358 L69 88 C69 26 93 0 153 0 L254 0 L254 106 L232 106 C206 106 196 114 196 136 L196 358 Z M195 -58 L86 -58 L86 -137 L144 -137 C143 -161 133 -176 117 -181 L87 -188 C86 -188 83 -189 79 -191 L79 -233 C174 -215 195 -194 195 -115 L195 -58 Z " />
<glyph glyph-name="Tcaron" unicode="&#x164;" horiz-adv-x="461" d="M299 555 L457 555 L457 667 L3 667 L3 555 L162 555 L162 0 L299 0 L299 555 Z M229 792 L152 860 L63 860 L169 726 L284 726 L397 860 L308 860 L229 792 Z " />
<glyph glyph-name="tcaron" unicode="&#x165;" horiz-adv-x="520" d="M196 358 L254 358 L254 465 L196 465 L196 589 L69 589 L69 465 L16 465 L16 358 L69 358 L69 88 C69 26 93 0 153 0 L254 0 L254 106 L232 106 C206 106 196 114 196 136 L196 358 Z M485 651 L377 680 L321 466 L406 443 L485 651 Z " />
<glyph glyph-name="Tbar" unicode="&#x166;" horiz-adv-x="561" d="M350 420 L350 550 L556 550 L556 667 L5 667 L5 550 L211 550 L211 420 L44 420 L44 324 L211 324 L211 0 L350 0 L350 324 L517 324 L517 420 L350 420 Z " />
<glyph glyph-name="tbar" unicode="&#x167;" horiz-adv-x="338" d="M221 335 L221 401 L322 401 L322 482 L221 482 L221 632 L94 632 L94 482 L10 482 L10 401 L94 401 L94 335 L30 335 L30 259 L94 259 L94 145 C94 86 99 62 118 39 C141 8 179 -5 246 -5 C271 -5 289 -4 322 -1 L322 92 C306 91 294 90 284 90 C232 90 221 103 221 167 L221 259 L296 259 L296 335 L221 335 Z " />
<glyph glyph-name="utilde" unicode="&#x169;" horiz-adv-x="514" d="M333 463 L333 170 C333 121 305 91 258 91 C212 91 181 126 181 178 L181 463 L54 463 L54 170 C54 109 70 65 103 35 C139 2 194 -16 258 -16 C319 -16 371 1 408 32 C446 64 460 102 460 170 L460 463 L333 463 Z M346 658 C342 635 331 623 317 623 C311 623 304 625 294 630 C250 651 227 659 204 659 C151 659 117 623 100 548 L182 541 C188 566 197 577 212 577 C217 577 221 576 234 569 C280 548 303 540 324 540 C375 540 410 578 428 652 L346 658 Z " />
<glyph glyph-name="Umacron" unicode="&#x16a;" horiz-adv-x="639" d="M196 667 L59 667 L59 281 C59 178 76 118 119 70 C166 17 240 -13 321 -13 C399 -13 469 15 514 65 C559 115 580 183 580 281 L580 667 L442 667 L442 277 C442 215 436 186 416 159 C396 131 358 113 319 113 C282 113 246 129 226 154 C204 180 196 214 196 276 L196 667 Z M221 768 L417 768 L417 823 L221 823 L221 768 Z " />
<glyph glyph-name="umacron" unicode="&#x16b;" horiz-adv-x="514" d="M333 463 L333 170 C333 121 305 91 258 91 C212 91 181 126 181 178 L181 463 L54 463 L54 170 C54 109 70 65 103 35 C139 2 194 -16 258 -16 C319 -16 371 1 408 32 C446 64 460 102 460 170 L460 463 L333 463 Z M166 574 L348 574 L348 630 L166 630 L166 574 Z " />
<glyph glyph-name="ubreve" unicode="&#x16d;" horiz-adv-x="514" d="M333 463 L333 170 C333 121 305 91 258 91 C212 91 181 126 181 178 L181 463 L54 463 L54 170 C54 109 70 65 103 35 C139 2 194 -16 258 -16 C319 -16 371 1 408 32 C446 64 460 102 460 170 L460 463 L333 463 Z M275 664 C271 647 271 643 271 628 C271 609 266 600 257 600 C247 600 243 609 243 628 C243 643 243 647 239 664 L151 664 C156 588 195 544 257 544 C319 544 358 588 363 664 L275 664 Z " />
<glyph glyph-name="Uring" unicode="&#x16e;" horiz-adv-x="639" d="M196 667 L59 667 L59 281 C59 178 76 118 119 70 C166 17 240 -13 321 -13 C399 -13 469 15 514 65 C559 115 580 183 580 281 L580 667 L442 667 L442 277 C442 215 436 186 416 159 C396 131 358 113 319 113 C282 113 246 129 226 154 C204 180 196 214 196 276 L196 667 Z M320 889 C267 889 227 849 227 798 C227 747 268 707 320 707 C371 707 412 747 412 796 C412 849 372 889 320 889 L320 889 Z M320 843 C345 843 365 823 365 797 C365 773 344 753 320 753 C294 753 274 773 274 798 C274 823 294 843 320 843 L320 843 Z " />
<glyph glyph-name="uring" unicode="&#x16f;" horiz-adv-x="514" d="M333 463 L333 170 C333 121 305 91 258 91 C212 91 181 126 181 178 L181 463 L54 463 L54 170 C54 109 70 65 103 35 C139 2 194 -16 258 -16 C319 -16 371 1 408 32 C446 64 460 102 460 170 L460 463 L333 463 Z M258 697 C205 697 164 657 164 606 C164 555 205 515 257 515 C308 515 350 555 350 604 C350 657 310 697 258 697 L258 697 Z M257 651 C283 651 303 631 303 605 C303 581 282 561 257 561 C232 561 211 581 211 606 C211 631 231 651 257 651 L257 651 Z " />
<glyph glyph-name="Uhungarumlaut" unicode="&#x170;" horiz-adv-x="639" d="M196 667 L59 667 L59 281 C59 178 76 118 119 70 C166 17 240 -13 321 -13 C399 -13 469 15 514 65 C559 115 580 183 580 281 L580 667 L442 667 L442 277 C442 215 436 186 416 159 C396 131 358 113 319 113 C282 113 246 129 226 154 C204 180 196 214 196 276 L196 667 Z M260 858 L179 726 L255 726 L376 858 L260 858 Z M436 858 L356 726 L431 726 L552 858 L436 858 Z " />
<glyph glyph-name="uhungarumlaut" unicode="&#x171;" horiz-adv-x="515" d="M333 463 L333 170 C333 121 305 91 258 91 C212 91 181 126 181 178 L181 463 L54 463 L54 170 C54 109 70 65 103 35 C139 2 194 -16 258 -16 C319 -16 371 1 408 32 C446 64 460 102 460 170 L460 463 L333 463 Z M196 669 L126 533 L195 533 L309 669 L196 669 Z M370 669 L300 533 L368 533 L483 669 L370 669 Z " />
<glyph glyph-name="Uogonek" unicode="&#x172;" horiz-adv-x="639" d="M580 667 L442 667 L442 277 C442 216 436 186 416 160 C396 132 358 114 319 114 C282 114 246 130 226 155 C204 180 196 215 196 276 L196 667 L59 667 L59 281 C59 158 85 90 151 41 C193 10 245 -9 301 -12 C264 -41 243 -78 243 -115 C243 -165 292 -201 360 -201 C385 -201 402 -198 430 -189 L421 -117 C405 -121 396 -123 385 -123 C355 -123 335 -109 335 -89 C335 -62 352 -40 402 -2 C524 34 580 124 580 281 L580 667 Z " />
<glyph glyph-name="uogonek" unicode="&#x173;" horiz-adv-x="514" d="M344 -3 C424 23 460 76 460 170 L460 463 L333 463 L333 171 C333 121 305 92 258 92 C212 92 181 127 181 179 L181 463 L54 463 L54 170 C54 109 70 65 103 35 C139 3 194 -15 255 -15 L260 -15 L263 -15 C236 -44 226 -64 226 -91 C226 -137 265 -167 326 -167 C348 -167 361 -165 383 -158 L375 -99 C362 -103 355 -104 344 -104 C317 -104 301 -92 301 -71 C301 -50 309 -37 340 -7 L344 -3 Z " />
<glyph glyph-name="Wcircumflex" unicode="&#x174;" horiz-adv-x="857" d="M602 239 L498 667 L362 667 L254 246 L147 667 L2 667 L184 0 L322 0 L427 437 L532 0 L670 0 L856 667 L713 667 L602 239 Z M430 794 L507 726 L596 726 L490 860 L375 860 L262 726 L351 726 L430 794 Z " />
<glyph glyph-name="Ycircumflex" unicode="&#x176;" horiz-adv-x="557" d="M349 294 L568 667 L408 667 L281 436 L152 667 L-11 667 L212 294 L212 0 L349 0 L349 294 Z M280 794 L357 726 L446 726 L340 860 L224 860 L111 726 L201 726 L280 794 Z " />
<glyph glyph-name="ycircumflex" unicode="&#x177;" horiz-adv-x="469" d="M227 188 L133 463 L-2 463 L160 11 L73 -211 L209 -211 L470 463 L335 463 L227 188 Z M235 607 L303 533 L392 533 L296 672 L178 672 L76 533 L165 533 L235 607 Z " />
<glyph glyph-name="Ydieresis" unicode="&#x178;" horiz-adv-x="557" d="M349 294 L568 667 L408 667 L281 436 L152 667 L-11 667 L212 294 L212 0 L349 0 L349 294 Z M172 870 C133 870 102 839 102 801 C102 763 133 732 171 732 C209 732 240 763 240 800 C240 839 210 870 172 870 L172 870 Z M385 870 C346 870 315 839 315 801 C315 763 346 732 384 732 C422 732 453 763 453 800 C453 839 423 870 385 870 L385 870 Z " />
<glyph glyph-name="Zacute" unicode="&#x179;" horiz-adv-x="551" d="M228 112 L539 667 L48 667 L48 555 L325 555 L13 0 L509 0 L509 112 L228 112 Z M303 859 L209 726 L296 726 L434 859 L303 859 Z " />
<glyph glyph-name="zacute" unicode="&#x17a;" horiz-adv-x="421" d="M215 107 L408 463 L33 463 L33 356 L210 356 L15 0 L394 0 L394 107 L215 107 Z M234 672 L151 533 L230 533 L362 672 L234 672 Z " />
<glyph glyph-name="Zdotaccent" unicode="&#x17b;" horiz-adv-x="551" d="M228 112 L539 667 L48 667 L48 555 L325 555 L13 0 L509 0 L509 112 L228 112 Z M275 870 C236 870 205 839 205 801 C205 763 236 732 274 732 C312 732 343 763 343 800 C343 839 313 870 275 870 L275 870 Z " />
<glyph glyph-name="zdotaccent" unicode="&#x17c;" horiz-adv-x="421" d="M215 107 L408 463 L33 463 L33 356 L210 356 L15 0 L394 0 L394 107 L215 107 Z M210 673 C171 673 142 644 142 606 C142 568 171 539 209 539 C246 539 276 568 276 605 C276 644 248 673 210 673 L210 673 Z " />
<glyph glyph-name="Zcaron" unicode="&#x17d;" horiz-adv-x="551" d="M228 112 L539 667 L48 667 L48 555 L325 555 L13 0 L509 0 L509 112 L228 112 Z M274 792 L197 860 L108 860 L214 726 L329 726 L442 860 L353 860 L274 792 Z " />
<glyph glyph-name="zcaron" unicode="&#x17e;" horiz-adv-x="421" d="M215 107 L408 463 L33 463 L33 356 L210 356 L15 0 L394 0 L394 107 L215 107 Z M210 598 L141 672 L52 672 L149 533 L266 533 L368 672 L279 672 L210 598 Z " />
<glyph glyph-name="florin" unicode="&#x192;" horiz-adv-x="500" d="M206 402 L145 56 C137 12 113 -11 72 -14 L51 -133 C178 -134 251 -72 273 56 L334 402 L394 402 L404 463 L344 463 L360 553 C368 593 387 609 431 614 L452 731 C325 734 255 677 233 553 L217 463 L166 463 L155 402 L206 402 Z " />
<glyph glyph-name="uni01CD" unicode="&#x1cd;" horiz-adv-x="632" d="M443 115 L481 0 L631 0 L403 667 L232 667 L2 0 L147 0 L187 115 L443 115 Z M407 227 L222 227 L315 503 L407 227 Z M315 792 L238 860 L149 860 L255 726 L371 726 L484 860 L395 860 L315 792 Z " />
<glyph glyph-name="uni01CE" unicode="&#x1ce;" horiz-adv-x="607" d="M418 404 C373 457 330 479 267 479 C132 479 34 372 34 226 C34 85 127 -16 257 -16 C325 -16 375 9 418 64 L418 0 L545 0 L545 463 L418 463 L418 404 Z M293 372 C368 372 420 314 420 232 C420 152 363 86 292 86 C223 86 170 147 170 228 C170 313 221 372 293 372 L293 372 Z M304 598 L235 672 L146 672 L243 533 L360 533 L462 672 L373 672 L304 598 Z " />
<glyph glyph-name="uni01D3" unicode="&#x1d3;" horiz-adv-x="639" d="M196 667 L59 667 L59 281 C59 178 76 118 119 70 C166 17 240 -13 321 -13 C399 -13 469 15 514 65 C559 115 580 183 580 281 L580 667 L442 667 L442 277 C442 215 436 186 416 159 C396 131 358 113 319 113 C282 113 246 129 226 154 C204 180 196 214 196 276 L196 667 Z M318 792 L241 860 L152 860 L258 726 L374 726 L487 860 L397 860 L318 792 Z " />
<glyph glyph-name="Gcaron" unicode="&#x1e6;" horiz-adv-x="752" d="M389 374 L389 262 L575 262 C564 222 554 201 534 178 C499 136 442 111 385 111 C268 111 176 208 176 332 C176 458 265 554 382 554 C448 554 497 529 546 471 L649 552 C584 634 487 680 379 680 C183 680 37 531 37 332 C37 135 184 -13 380 -13 C474 -13 559 23 626 90 C693 158 723 235 723 338 L723 374 L389 374 Z M375 792 L297 860 L209 860 L315 726 L430 726 L543 860 L454 860 L375 792 Z " />
<glyph glyph-name="gcaron" unicode="&#x1e7;" horiz-adv-x="589" d="M401 406 C361 457 316 479 251 479 C112 479 19 378 19 228 C19 87 111 -16 238 -16 C305 -16 359 10 401 63 L401 16 C401 -71 352 -121 267 -121 C209 -121 165 -101 124 -57 L45 -137 C108 -199 182 -229 272 -229 C351 -229 419 -204 464 -159 C508 -116 526 -61 526 34 L526 463 L401 463 L401 406 Z M278 366 C310 366 342 352 365 330 C388 306 399 272 399 222 C399 187 390 158 375 140 C352 113 316 97 279 97 C206 97 154 154 154 234 C154 311 205 366 278 366 L278 366 Z M294 598 L226 672 L137 672 L233 533 L351 533 L452 672 L364 672 L294 598 Z " />
<glyph glyph-name="uni01F4" unicode="&#x1f4;" horiz-adv-x="752" d="M389 374 L389 262 L575 262 C564 222 554 201 534 178 C499 136 442 111 385 111 C268 111 176 208 176 332 C176 458 265 554 382 554 C448 554 497 529 546 471 L649 552 C584 634 487 680 379 680 C183 680 37 531 37 332 C37 135 184 -13 380 -13 C474 -13 559 23 626 90 C693 158 723 235 723 338 L723 374 L389 374 Z M404 859 L310 726 L397 726 L535 859 L404 859 Z " />
<glyph glyph-name="scommaaccent" unicode="&#x219;" horiz-adv-x="419" d="M381 329 C378 423 314 479 208 479 C100 479 29 420 29 332 C29 259 74 214 174 184 C242 163 260 150 260 122 C260 96 239 78 209 78 C172 78 154 96 148 136 L26 136 C31 40 98 -16 208 -16 C316 -16 388 44 388 134 C388 209 347 250 243 282 C179 302 178 302 164 313 C156 319 151 331 151 343 C151 368 171 385 202 385 C236 385 261 365 261 337 L261 329 L381 329 Z M263 -58 L154 -58 L154 -137 L212 -137 C211 -161 201 -176 185 -181 L155 -188 C154 -188 151 -189 147 -191 L147 -233 C242 -215 263 -194 263 -115 L263 -58 Z " />
<glyph glyph-name="uni021A" unicode="&#x21a;" horiz-adv-x="461" d="M299 555 L457 555 L457 667 L3 667 L3 555 L162 555 L162 0 L299 0 L299 555 Z M286 -42 L173 -42 L173 -130 L236 -130 C235 -166 218 -180 168 -185 L168 -226 C253 -221 286 -188 286 -108 L286 -42 Z " />
<glyph glyph-name="uni021B" unicode="&#x21b;" horiz-adv-x="283" d="M196 358 L254 358 L254 465 L196 465 L196 589 L69 589 L69 465 L16 465 L16 358 L69 358 L69 88 C69 26 93 0 153 0 L254 0 L254 106 L232 106 C206 106 196 114 196 136 L196 358 Z M195 -58 L86 -58 L86 -137 L144 -137 C143 -161 133 -176 117 -181 L87 -188 C86 -188 83 -189 79 -191 L79 -233 C174 -215 195 -194 195 -115 L195 -58 Z " />
<glyph glyph-name="afii57929" unicode="&#x2bc;" horiz-adv-x="236" d="M203 651 L94 680 L38 466 L124 443 L203 651 Z " />
<glyph glyph-name="circumflex" unicode="&#x2c6;" horiz-adv-x="500" d="M251 607 L319 533 L408 533 L312 672 L194 672 L92 533 L181 533 L251 607 Z " />
<glyph glyph-name="caron" unicode="&#x2c7;" horiz-adv-x="500" d="M249 598 L181 672 L92 672 L188 533 L306 533 L408 672 L319 672 L249 598 Z " />
<glyph glyph-name="uni02C9" unicode="&#x2c9;" horiz-adv-x="500" d="M159 574 L341 574 L341 630 L159 630 L159 574 Z " />
<glyph glyph-name="breve" unicode="&#x2d8;" horiz-adv-x="500" d="M268 664 C264 647 264 643 264 628 C264 609 260 600 250 600 C241 600 236 609 236 628 C236 643 236 647 232 664 L144 664 C149 588 188 544 250 544 C312 544 351 588 356 664 L268 664 Z " />
<glyph glyph-name="dotaccent" unicode="&#x2d9;" horiz-adv-x="500" d="M250 673 C211 673 182 644 182 606 C182 568 211 539 249 539 C286 539 316 568 316 605 C316 644 288 673 250 673 L250 673 Z " />
<glyph glyph-name="ring" unicode="&#x2da;" horiz-adv-x="500" d="M251 697 C198 697 157 657 157 606 C157 555 198 515 250 515 C301 515 343 555 343 604 C343 657 303 697 251 697 L251 697 Z M250 651 C276 651 296 631 296 605 C296 581 275 561 250 561 C225 561 204 581 204 606 C204 631 224 651 250 651 L250 651 Z " />
<glyph glyph-name="ogonek" unicode="&#x2db;" horiz-adv-x="500" d="M229 0 C192 -26 172 -59 172 -91 C172 -137 211 -167 272 -167 C294 -167 306 -165 329 -159 L321 -99 C308 -103 301 -104 290 -104 C262 -104 246 -92 246 -71 C246 -55 255 -36 270 -22 C276 -17 282 -11 288 -5 L293 0 L229 0 Z " />
<glyph glyph-name="tilde" unicode="&#x2dc;" horiz-adv-x="500" d="M339 658 C335 635 325 623 311 623 C304 623 298 625 288 630 C243 651 220 659 197 659 C144 659 110 623 93 548 L175 541 C182 566 191 577 205 577 C211 577 215 576 228 569 C273 548 296 540 317 540 C368 540 403 578 421 652 L339 658 Z " />
<glyph glyph-name="hungarumlaut" unicode="&#x2dd;" horiz-adv-x="500" d="M189 669 L119 533 L187 533 L302 669 L189 669 Z M362 669 L292 533 L361 533 L475 669 L362 669 Z " />
<glyph glyph-name="uni0387" unicode="&#x387;" horiz-adv-x="261" d="M132 321 C88 321 57 290 57 247 C57 204 88 173 131 173 C173 173 205 204 205 246 C205 290 174 321 132 321 L132 321 Z " />
<glyph glyph-name="Wacute" unicode="&#x1e82;" horiz-adv-x="278" d="M250 300 L28 300 L28 188 L250 188 L250 300 Z " />
<glyph glyph-name="Wdieresis" unicode="&#x1e84;" horiz-adv-x="857" d="M602 239 L498 667 L362 667 L254 246 L147 667 L2 667 L184 0 L322 0 L427 437 L532 0 L670 0 L856 667 L713 667 L602 239 Z M323 870 C284 870 253 839 253 801 C253 763 284 732 322 732 C360 732 391 763 391 800 C391 839 361 870 323 870 L323 870 Z M535 870 C496 870 465 839 465 801 C465 763 496 732 534 732 C572 732 603 763 603 800 C603 839 573 870 535 870 L535 870 Z " />
<glyph glyph-name="uni2006" unicode="&#x2006;" horiz-adv-x="67" d="" />
<glyph glyph-name="uni2007" unicode="&#x2007;" horiz-adv-x="556" d="" />
<glyph glyph-name="uni2011" unicode="&#x2011;" horiz-adv-x="222" d="M222 300 L0 300 L0 188 L222 188 L222 300 Z " />
<glyph glyph-name="figuredash" unicode="&#x2012;" horiz-adv-x="500" d="M454 292 L47 292 L47 185 L454 185 L454 292 Z " />
<glyph glyph-name="endash" unicode="&#x2013;" horiz-adv-x="500" d="M454 292 L47 292 L47 185 L454 185 L454 292 Z " />
<glyph glyph-name="emdash" unicode="&#x2014;" horiz-adv-x="669" d="M669 292 L0 292 L0 195 L669 195 L669 292 Z " />
<glyph glyph-name="afii00208" unicode="&#x2015;" horiz-adv-x="669" d="M669 292 L0 292 L0 195 L669 195 L669 292 Z " />
<glyph glyph-name="underscoredbl" unicode="&#x2017;" horiz-adv-x="500" d="M0 -53 L0 -111 L500 -111 L500 -53 L0 -53 Z M0 -170 L0 -228 L500 -228 L500 -170 L0 -170 Z " />
<glyph glyph-name="quoteleft" unicode="&#x2018;" horiz-adv-x="236" d="M34 472 L143 443 L199 658 L113 680 L34 472 Z " />
<glyph glyph-name="quoteright" unicode="&#x2019;" horiz-adv-x="236" d="M203 651 L94 680 L38 466 L124 443 L203 651 Z " />
<glyph glyph-name="quotesinglbase" unicode="&#x201a;" horiz-adv-x="243" d="M210 105 L96 136 L38 -94 L127 -117 L210 105 Z " />
<glyph glyph-name="quotedblleft" unicode="&#x201c;" horiz-adv-x="434" d="M224 450 L338 419 L397 657 L309 680 L224 450 Z M34 450 L148 419 L208 657 L119 680 L34 450 Z " />
<glyph glyph-name="quotedblright" unicode="&#x201d;" horiz-adv-x="434" d="M211 649 L97 680 L37 442 L126 419 L211 649 Z M400 649 L286 680 L226 442 L315 419 L400 649 Z " />
<glyph glyph-name="quotedblbase" unicode="&#x201e;" horiz-adv-x="434" d="M211 105 L97 136 L37 -102 L126 -125 L211 105 Z M400 105 L286 136 L226 -102 L315 -125 L400 105 Z " />
<glyph glyph-name="dagger" unicode="&#x2020;" horiz-adv-x="500" d="M197 667 L197 497 L50 497 L50 406 L197 406 L197 -195 L304 -195 L304 406 L451 406 L451 497 L304 497 L304 667 L197 667 Z " />
<glyph glyph-name="daggerdbl" unicode="&#x2021;" horiz-adv-x="500" d="M197 667 L197 492 L50 492 L50 401 L197 401 L197 79 L50 79 L50 -12 L197 -12 L197 -195 L304 -195 L304 -12 L451 -12 L451 79 L304 79 L304 401 L451 401 L451 492 L304 492 L304 667 L197 667 Z " />
<glyph glyph-name="bullet" unicode="&#x2022;" horiz-adv-x="667" d="M337 478 C258 478 196 417 196 339 C196 263 259 201 335 201 C411 201 473 263 473 340 C473 415 411 478 337 478 L337 478 Z " />
<glyph glyph-name="ellipsis" unicode="&#x2026;" horiz-adv-x="782" d="M132 135 C88 135 57 104 57 61 C57 18 88 -13 131 -13 C173 -13 205 18 205 60 C205 104 174 135 132 135 L132 135 Z M393 135 C349 135 318 104 318 61 C318 18 349 -13 392 -13 C434 -13 466 18 466 60 C466 104 435 135 393 135 L393 135 Z M653 135 C609 135 578 104 578 61 C578 18 609 -13 652 -13 C694 -13 726 18 726 60 C726 104 695 135 653 135 L653 135 Z " />
<glyph glyph-name="perthousand" unicode="&#x2030;" horiz-adv-x="1014" d="M286 547 C286 598 277 623 251 647 C228 667 197 677 162 677 C124 677 89 664 68 642 C48 621 40 592 40 542 L40 456 C40 398 48 371 69 350 C90 329 125 317 164 317 C243 317 286 361 286 441 L286 547 Z M119 542 C119 592 129 606 165 606 C197 606 209 590 209 544 L209 453 C209 403 198 387 164 387 C146 387 132 394 125 405 C120 415 119 419 119 451 L119 542 Z M659 220 C659 271 650 297 624 320 C601 340 570 350 535 350 C497 350 462 337 441 315 C421 294 413 265 413 215 L413 129 C413 72 421 44 442 23 C463 2 498 -10 537 -10 C616 -10 659 34 659 114 L659 220 Z M492 215 C492 265 502 279 538 279 C570 279 582 263 582 217 L582 126 C582 76 571 60 537 60 C520 60 505 67 498 78 C493 88 492 93 492 124 L492 215 Z M589 654 L549 679 L110 14 L149 -12 L589 654 Z M973 220 C973 271 964 297 938 320 C915 340 884 350 849 350 C811 350 776 337 755 315 C735 294 727 266 727 215 L727 129 C727 72 735 44 756 23 C777 2 812 -10 851 -10 C930 -10 973 34 973 114 L973 220 Z M806 215 C806 265 816 279 852 279 C884 279 896 263 896 217 L896 126 C896 76 885 60 851 60 C834 60 819 67 812 78 C807 88 806 93 806 124 L806 215 Z " />
<glyph glyph-name="guilsinglleft" unicode="&#x2039;" horiz-adv-x="258" d="M119 238 L215 407 L132 407 L37 238 L132 75 L215 75 L119 238 Z " />
<glyph glyph-name="guilsinglright" unicode="&#x203a;" horiz-adv-x="258" d="M139 244 L43 75 L126 75 L221 244 L126 407 L43 407 L139 244 Z " />
<glyph glyph-name="exclamdbl" unicode="&#x203c;" horiz-adv-x="446" d="M176 667 L41 667 L41 488 L76 206 L140 206 L176 490 L176 667 Z M178 147 L38 147 L38 0 L178 0 L178 147 Z M406 667 L271 667 L271 488 L306 206 L370 206 L406 490 L406 667 Z M409 147 L269 147 L269 0 L409 0 L409 147 Z " />
<glyph glyph-name="uni203E" unicode="&#x203e;" horiz-adv-x="500" d="M0 872 L0 790 L500 790 L500 872 L0 872 Z " />
<glyph glyph-name="fraction" unicode="&#x2044;" horiz-adv-x="127" d="M303 652 L262 677 L-177 13 L-137 -13 L303 652 Z " />
<glyph glyph-name="zerosuperior" unicode="&#x2070;" horiz-adv-x="330" d="M300 541 C300 589 289 617 261 641 C237 661 204 672 164 672 C121 672 83 659 60 634 C40 613 31 583 31 532 L31 406 C31 344 39 315 63 292 C87 270 123 258 167 258 C254 258 300 303 300 388 L300 541 Z M119 531 C119 577 132 594 166 594 C200 594 214 577 214 535 L214 398 C214 353 200 335 167 335 C151 335 135 342 127 352 C120 361 119 367 119 397 L119 531 Z " />
<glyph glyph-name="foursuperior" unicode="&#x2074;" horiz-adv-x="330" d="M180 346 L180 265 L265 265 L265 346 L303 346 L303 418 L265 418 L265 664 L176 664 L27 413 L27 346 L180 346 Z M185 415 L100 415 L185 562 L185 415 Z " />
<glyph glyph-name="fivesuperior" unicode="&#x2075;" horiz-adv-x="330" d="M128 589 L269 589 L269 664 L48 664 L48 422 L104 422 C121 442 135 450 157 450 C190 450 216 425 216 393 C216 361 191 336 158 336 C130 336 114 349 102 380 L25 353 C52 287 94 257 160 257 C243 257 302 314 302 394 C302 467 249 522 177 522 C160 522 143 519 128 513 L128 589 Z " />
<glyph glyph-name="sixsuperior" unicode="&#x2076;" horiz-adv-x="330" d="M277 664 L177 664 L72 508 C38 458 25 424 25 388 C25 314 84 258 162 258 C240 258 304 318 304 393 C304 459 251 512 185 512 C181 512 178 512 171 511 L277 664 Z M166 443 C197 443 221 420 221 389 C221 360 196 336 164 336 C132 336 108 359 108 389 C108 419 133 443 166 443 L166 443 Z " />
<glyph glyph-name="sevensuperior" unicode="&#x2077;" horiz-adv-x="330" d="M182 589 L46 265 L138 265 L305 664 L49 664 L49 589 L182 589 Z " />
<glyph glyph-name="eightsuperior" unicode="&#x2078;" horiz-adv-x="330" d="M249 475 C277 491 294 522 294 558 C294 625 241 672 168 672 C93 672 39 624 39 556 C39 521 56 490 83 475 C46 458 26 424 26 379 C26 307 82 258 164 258 C246 258 304 310 304 383 C304 425 285 458 249 475 L249 475 Z M168 600 C193 600 216 579 216 555 C216 531 193 510 167 510 C140 510 119 530 119 556 C119 582 139 600 168 600 L168 600 Z M166 435 C195 435 219 412 219 384 C219 356 195 334 165 334 C134 334 111 355 111 384 C111 413 135 435 166 435 L166 435 Z " />
<glyph glyph-name="ninesuperior" unicode="&#x2079;" horiz-adv-x="330" d="M56 265 L155 265 L259 421 C292 470 305 504 305 541 C305 616 246 672 167 672 C87 672 25 614 25 539 C25 470 79 417 150 417 C154 417 156 417 161 419 L56 265 Z M167 595 C197 595 222 571 222 541 C222 511 197 488 165 488 C134 488 110 511 110 542 C110 571 135 595 167 595 L167 595 Z " />
<glyph glyph-name="zeroinferior" unicode="&#x2080;" horiz-adv-x="330" d="M300 275 C300 323 289 351 261 375 C237 395 203 406 164 406 C121 406 83 392 60 368 C40 347 31 317 31 266 L31 140 C31 78 39 49 63 26 C87 4 123 -8 167 -8 C254 -8 300 37 300 123 L300 275 Z M119 266 C119 311 132 328 166 328 C200 328 214 311 214 270 L214 132 C214 87 201 69 167 69 C150 69 135 76 127 86 C120 95 119 101 119 132 L119 266 Z " />
<glyph glyph-name="oneinferior" unicode="&#x2081;" horiz-adv-x="330" d="M152 290 L152 0 L240 0 L240 411 L76 330 L76 253 L152 290 Z " />
<glyph glyph-name="twoinferior" unicode="&#x2082;" horiz-adv-x="330" d="M169 74 L243 176 C281 227 295 261 295 298 C295 361 241 406 166 406 C83 406 30 354 30 273 L30 265 L111 265 C112 313 126 330 161 330 C188 330 207 314 207 290 C207 272 201 260 169 215 L19 0 L284 0 L284 74 L169 74 Z " />
<glyph glyph-name="threeinferior" unicode="&#x2083;" horiz-adv-x="330" d="M158 326 L65 209 L115 169 C128 178 138 181 153 181 C190 181 215 157 215 124 C215 92 188 67 154 67 C124 67 104 85 99 116 L20 113 C24 81 29 64 42 45 C66 12 108 -8 156 -8 C239 -8 299 50 299 129 C299 195 255 244 190 250 L306 398 L41 398 L41 326 L158 326 Z " />
<glyph glyph-name="fourinferior" unicode="&#x2084;" horiz-adv-x="330" d="M180 81 L180 0 L265 0 L265 81 L303 81 L303 153 L265 153 L265 398 L176 398 L27 148 L27 81 L180 81 Z M185 150 L100 150 L185 297 L185 150 Z " />
<glyph glyph-name="fiveinferior" unicode="&#x2085;" horiz-adv-x="330" d="M128 323 L269 323 L269 398 L48 398 L48 157 L104 157 C121 177 135 185 157 185 C191 185 216 160 216 127 C216 95 191 70 158 70 C130 70 114 83 102 115 L25 88 C52 22 94 -8 160 -8 C243 -8 302 49 302 129 C302 202 248 256 177 256 C159 256 144 253 128 247 L128 323 Z " />
<glyph glyph-name="sixinferior" unicode="&#x2086;" horiz-adv-x="330" d="M277 398 L177 398 L72 242 C38 192 25 159 25 122 C25 48 84 -8 162 -8 C240 -8 304 52 304 127 C304 193 251 246 185 246 C182 246 178 246 171 245 L277 398 Z M166 177 C197 177 221 154 221 124 C221 94 196 70 164 70 C132 70 108 93 108 123 C108 153 133 177 166 177 L166 177 Z " />
<glyph glyph-name="seveninferior" unicode="&#x2087;" horiz-adv-x="330" d="M182 323 L46 0 L138 0 L305 398 L49 398 L49 323 L182 323 Z " />
<glyph glyph-name="eightinferior" unicode="&#x2088;" horiz-adv-x="330" d="M249 210 C277 225 294 257 294 293 C294 359 241 406 168 406 C93 406 39 358 39 291 C39 255 56 224 83 210 C46 193 26 159 26 113 C26 41 82 -8 164 -8 C246 -8 304 44 304 117 C304 160 284 193 249 210 L249 210 Z M167 334 C194 334 216 314 216 290 C216 266 193 245 167 245 C140 245 119 265 119 291 C119 316 139 334 167 334 L167 334 Z M166 170 C195 170 219 147 219 119 C219 90 195 68 165 68 C134 68 111 90 111 119 C111 148 135 170 166 170 L166 170 Z " />
<glyph glyph-name="nineinferior" unicode="&#x2089;" horiz-adv-x="330" d="M56 0 L155 0 L259 156 C292 204 305 238 305 275 C305 350 246 406 167 406 C87 406 25 348 25 273 C25 204 79 152 150 152 C154 152 156 152 161 153 L56 0 Z M167 329 C197 329 222 305 222 276 C222 246 198 223 165 223 C134 223 110 246 110 276 C110 305 136 329 167 329 L167 329 Z " />
<glyph glyph-name="franc" unicode="&#x20a3;" horiz-adv-x="700" d="M431 391 L207 391 L207 555 L441 555 L441 667 L70 667 L70 0 L207 0 L207 279 L431 279 L431 0 L558 0 L558 223 C558 267 562 287 577 308 C595 334 626 350 662 350 C667 350 678 349 688 348 L688 478 C681 479 676 479 673 479 C645 479 618 471 598 457 C580 443 570 429 558 395 L558 463 L431 463 L431 391 Z " />
<glyph glyph-name="lira" unicode="&#x20a4;" horiz-adv-x="629" d="M389 381 L269 381 L263 390 C240 427 234 443 234 467 C234 523 283 562 353 562 C434 562 472 520 476 428 L604 428 C600 499 589 543 565 578 C523 641 450 673 347 673 C274 673 217 657 172 623 C121 586 89 527 89 471 C89 442 95 420 115 381 L74 381 L74 337 L142 337 C157 314 160 309 169 286 C170 282 171 278 173 274 L74 274 L74 230 L176 230 C169 175 138 128 86 96 L155 -6 C193 23 221 34 254 34 C275 34 297 28 339 13 C402 -10 427 -16 460 -16 C511 -16 563 7 610 51 L561 164 C530 127 495 107 460 107 C448 107 437 109 428 111 C342 139 338 140 312 140 C290 140 270 136 243 125 C240 124 234 121 226 118 C277 155 294 181 303 230 L391 230 L391 274 L313 274 C309 292 308 300 305 307 C304 309 301 317 296 328 C295 329 294 333 292 337 L389 337 L389 381 Z " />
<glyph glyph-name="peseta" unicode="&#x20a7;" horiz-adv-x="921" d="M510 354 C524 388 530 418 530 453 C530 590 441 667 283 667 L70 667 L70 0 L207 0 L207 229 L292 229 C389 229 458 263 499 331 L499 281 L466 281 L466 211 L499 211 L499 55 C499 17 516 0 555 0 L622 0 L622 69 L604 69 C591 69 586 72 586 83 L586 211 L622 211 L622 281 L586 281 L586 354 L510 354 Z M207 342 L207 554 L269 554 C344 554 391 513 391 447 C391 380 345 342 266 342 L207 342 Z M893 194 C892 254 852 289 782 289 C713 289 667 253 667 199 C667 155 696 127 760 109 C800 97 810 90 810 76 C810 62 799 53 782 53 C761 53 752 62 749 87 L665 87 C668 26 710 -9 781 -9 C851 -9 898 28 898 83 C898 110 885 134 863 149 C848 159 826 167 781 180 C760 186 751 194 751 205 C751 219 762 227 779 227 C798 227 811 217 811 202 L811 194 L893 194 Z " />
<glyph glyph-name="Euro" unicode="&#x20ac;" horiz-adv-x="500" d="M42 396 L0 268 L74 268 C97 103 207 -13 340 -13 C383 -13 425 -1 466 24 L466 190 C436 141 392 113 346 113 C284 113 234 172 215 268 L355 268 L397 396 L213 396 C229 494 275 553 334 553 C375 553 413 526 442 479 L498 609 C451 655 392 680 330 680 C200 680 97 567 73 396 L42 396 Z " />
<glyph glyph-name="uni2101" unicode="&#x2101;" horiz-adv-x="938" d="M295 334 L318 267 L420 267 L276 667 L164 667 L19 267 L117 267 L142 334 L295 334 Z M270 407 L166 407 L218 555 L270 407 Z M772 652 L732 677 L292 13 L332 -13 L772 652 Z M620 122 C620 40 673 -8 764 -8 C851 -8 910 42 910 115 C910 175 878 207 789 239 C729 259 718 268 718 292 C718 315 736 330 764 330 C797 330 812 316 814 281 L908 281 C901 361 848 408 765 408 C681 408 624 358 624 285 C624 223 657 190 750 159 C801 141 814 131 814 109 C814 87 792 70 764 70 C733 70 711 88 711 114 L711 122 L620 122 Z " />
<glyph glyph-name="afii61248" unicode="&#x2105;" horiz-adv-x="412" d="M206 422 C171 422 144 395 144 360 C144 327 172 299 206 299 C240 299 267 327 267 361 C267 394 240 422 206 422 L206 422 Z " />
<glyph glyph-name="afii61289" unicode="&#x2113;" horiz-adv-x="500" d="M254 260 C325 334 343 355 361 382 C405 447 433 521 433 575 C433 632 401 670 352 670 C259 670 191 537 142 254 C125 233 118 224 112 217 C72 173 72 173 72 160 C72 146 81 131 89 131 C96 131 114 147 134 170 C132 147 132 132 132 111 C132 69 135 50 143 30 C156 -2 184 -21 217 -21 C248 -21 277 -3 300 30 C316 53 326 79 326 97 C326 111 319 119 307 119 C297 119 291 114 284 98 C265 62 257 52 244 52 C235 52 230 60 230 77 C230 103 241 187 254 260 L254 260 Z M264 331 C297 536 320 603 354 603 C367 603 376 589 376 569 C376 545 362 496 344 455 C323 408 299 370 264 331 L264 331 Z " />
<glyph glyph-name="uni2117" unicode="&#x2117;" horiz-adv-x="174" d="M131 546 L44 546 L44 267 L131 267 L131 546 Z M87 670 C60 670 40 650 40 623 C40 597 60 577 86 577 C113 577 133 597 133 623 C133 650 113 670 87 670 L87 670 Z " />
<glyph glyph-name="trademark" unicode="&#x2122;" horiz-adv-x="852" d="M199 594 L298 594 L298 667 L8 667 L8 594 L106 594 L106 267 L199 267 L199 594 Z M448 499 L578 250 L709 499 L709 267 L802 267 L802 667 L699 667 L578 433 L458 667 L355 667 L355 267 L448 267 L448 499 Z " />
<glyph glyph-name="uni2126" unicode="&#x2126;" horiz-adv-x="666" d="M28 0 L295 0 L295 105 C204 154 158 234 158 345 C158 470 235 568 334 568 C433 568 509 470 509 344 C509 280 493 230 457 179 C434 145 412 127 372 105 L372 0 L639 0 L639 114 L491 114 C595 178 642 257 642 368 C642 544 506 683 333 683 C161 683 25 544 25 368 C25 257 72 178 175 114 L28 114 L28 0 Z " />
<glyph glyph-name="onethird" unicode="&#x2153;" horiz-adv-x="787" d="M152 556 L152 265 L240 265 L240 676 L76 596 L76 518 L152 556 Z M633 652 L593 677 L154 13 L193 -13 L633 652 Z M615 326 L522 209 L572 169 C585 178 595 181 610 181 C647 181 672 157 672 124 C672 92 645 67 611 67 C581 67 561 85 556 116 L477 113 C481 80 486 64 499 45 C523 12 565 -8 613 -8 C696 -8 756 50 756 129 C756 195 712 244 647 250 L763 398 L498 398 L498 326 L615 326 Z " />
<glyph glyph-name="twothirds" unicode="&#x2154;" horiz-adv-x="787" d="M169 339 L243 441 C281 492 295 526 295 563 C295 627 241 672 166 672 C83 672 30 619 30 539 L30 530 L111 530 C112 578 126 596 161 596 C188 596 207 579 207 555 C207 538 200 524 169 480 L19 265 L284 265 L284 339 L169 339 Z M634 652 L594 677 L154 13 L194 -13 L634 652 Z M616 326 L523 209 L573 169 C586 178 596 181 611 181 C648 181 673 157 673 124 C673 92 646 67 612 67 C582 67 562 85 557 116 L478 113 C482 80 487 64 500 45 C524 12 566 -8 614 -8 C697 -8 757 50 757 129 C757 195 713 244 648 250 L764 398 L499 398 L499 326 L616 326 Z " />
<glyph glyph-name="oneeighth" unicode="&#x215b;" horiz-adv-x="787" d="M152 556 L152 265 L240 265 L240 676 L76 596 L76 518 L152 556 Z M633 652 L593 677 L154 13 L193 -13 L633 652 Z M706 210 C734 225 751 257 751 293 C751 359 698 406 625 406 C550 406 496 358 496 291 C496 255 513 224 540 210 C503 193 483 159 483 113 C483 41 539 -8 621 -8 C703 -8 761 44 761 117 C761 160 742 193 706 210 L706 210 Z M624 334 C651 334 673 314 673 290 C673 266 650 245 624 245 C597 245 576 265 576 291 C576 316 596 334 624 334 L624 334 Z M623 170 C652 170 676 147 676 119 C676 90 652 68 622 68 C591 68 568 90 568 119 C568 148 592 170 623 170 L623 170 Z " />
<glyph glyph-name="threeeighths" unicode="&#x215c;" horiz-adv-x="787" d="M158 592 L65 475 L115 436 C128 444 138 447 154 447 C190 447 215 423 215 390 C215 358 188 333 154 333 C124 333 104 351 99 382 L20 379 C29 301 77 258 156 258 C239 258 299 316 299 395 C299 461 255 510 190 516 L306 664 L41 664 L41 592 L158 592 Z M633 652 L593 677 L154 13 L193 -13 L633 652 Z M706 210 C734 225 751 257 751 293 C751 359 698 406 625 406 C550 406 496 358 496 291 C496 255 513 224 540 210 C503 193 483 159 483 113 C483 41 539 -8 621 -8 C703 -8 761 44 761 117 C761 160 741 193 706 210 L706 210 Z M624 334 C651 334 673 314 673 290 C673 266 650 245 624 245 C597 245 576 265 576 291 C576 316 596 334 624 334 L624 334 Z M623 170 C652 170 676 147 676 119 C676 90 652 68 622 68 C591 68 568 90 568 119 C568 148 592 170 623 170 L623 170 Z " />
<glyph glyph-name="fiveeighths" unicode="&#x215d;" horiz-adv-x="787" d="M128 589 L269 589 L269 664 L48 664 L48 422 L104 422 C121 442 135 450 157 450 C190 450 216 425 216 393 C216 361 191 336 158 336 C130 336 114 349 102 380 L25 353 C52 287 94 257 160 257 C243 257 302 314 302 394 C302 467 249 522 177 522 C160 522 143 519 128 513 L128 589 Z M633 652 L593 677 L154 13 L193 -13 L633 652 Z M706 210 C734 225 751 257 751 293 C751 359 698 406 624 406 C549 406 495 358 495 291 C495 255 512 224 540 210 C503 193 483 159 483 113 C483 41 539 -8 621 -8 C703 -8 761 44 761 117 C761 160 741 193 706 210 L706 210 Z M624 334 C650 334 673 313 673 290 C673 266 650 245 623 245 C596 245 575 265 575 291 C575 316 595 334 624 334 L624 334 Z M623 170 C652 170 676 147 676 119 C676 90 652 68 622 68 C591 68 568 90 568 119 C568 148 592 170 623 170 L623 170 Z " />
<glyph glyph-name="seveneighths" unicode="&#x215e;" horiz-adv-x="787" d="M182 589 L46 265 L138 265 L305 664 L49 664 L49 589 L182 589 Z M633 652 L593 677 L154 13 L193 -13 L633 652 Z M706 210 C734 225 751 257 751 293 C751 359 698 406 625 406 C550 406 496 358 496 291 C496 255 513 224 540 210 C503 193 483 159 483 113 C483 41 539 -8 621 -8 C703 -8 761 44 761 117 C761 160 741 193 706 210 L706 210 Z M624 334 C651 334 673 314 673 290 C673 266 650 245 624 245 C597 245 576 265 576 291 C576 316 596 334 624 334 L624 334 Z M623 170 C652 170 676 147 676 119 C676 90 652 68 622 68 C591 68 568 90 568 119 C568 148 592 170 623 170 L623 170 Z " />
<glyph glyph-name="arrowleft" unicode="&#x2190;" horiz-adv-x="667" d="M653 363 L153 363 C181 402 205 449 205 465 C205 474 199 480 190 480 C184 480 181 478 174 471 C131 420 111 404 29 354 C15 346 13 343 13 335 C13 329 18 325 36 315 C99 278 134 251 168 211 C180 196 183 194 190 194 C199 194 205 200 205 208 C205 223 173 287 153 312 L653 312 L653 363 Z " />
<glyph glyph-name="arrowup" unicode="&#x2191;" horiz-adv-x="667" d="M360 13 L360 514 C398 486 445 462 461 462 C470 462 476 468 476 477 C476 483 474 487 467 493 C416 536 401 554 351 638 C343 652 340 654 332 654 C326 654 321 649 311 631 C276 568 248 533 208 499 C193 486 191 484 191 477 C191 468 197 462 205 462 C220 462 284 494 309 514 L309 13 L360 13 Z " />
<glyph glyph-name="arrowright" unicode="&#x2192;" horiz-adv-x="667" d="M13 310 L513 310 C485 271 461 225 461 209 C461 200 467 194 476 194 C482 194 485 196 492 203 C534 254 555 270 637 319 C651 327 653 330 653 338 C653 344 648 349 630 359 C568 394 532 423 498 463 C486 478 483 480 476 480 C467 480 461 474 461 466 C461 451 493 387 513 361 L13 361 L13 310 Z " />
<glyph glyph-name="arrowdown" unicode="&#x2193;" horiz-adv-x="667" d="M307 653 L307 153 C266 182 222 205 206 205 C197 205 191 199 191 190 C191 184 193 180 200 174 C251 131 266 113 316 29 C324 15 327 13 335 13 C341 13 346 18 356 36 C391 98 419 134 459 168 C474 180 476 183 476 190 C476 199 470 205 462 205 C447 205 384 174 358 153 L358 653 L307 653 Z " />
<glyph glyph-name="arrowboth" unicode="&#x2194;" horiz-adv-x="667" d="M513 310 C485 271 461 225 461 209 C461 200 467 194 476 194 C482 194 486 196 492 203 C535 254 555 270 637 319 C651 327 653 330 653 338 C653 344 648 349 630 358 C566 395 532 422 498 462 C486 477 483 479 476 479 C467 479 461 473 461 465 C461 450 493 386 513 361 L152 361 C173 388 205 450 205 465 C205 473 199 479 190 479 C183 479 180 477 168 462 C133 422 99 394 36 358 C18 349 13 344 13 338 C13 331 16 327 23 323 C104 275 129 256 166 213 C182 195 182 194 190 194 C199 194 205 200 205 209 C205 225 181 271 152 310 L513 310 Z " />
<glyph glyph-name="arrowupdn" unicode="&#x2195;" horiz-adv-x="667" d="M360 514 C398 486 445 462 461 462 C470 462 476 468 476 477 C476 483 474 487 467 493 C416 536 401 554 351 638 C343 652 340 654 332 654 C326 654 321 649 312 631 C276 569 248 533 208 499 C193 487 191 484 191 477 C191 468 197 462 205 462 C220 462 284 494 309 514 L309 152 C283 174 220 206 205 206 C197 206 191 200 191 191 C191 184 193 181 208 168 C248 135 277 97 312 36 C321 18 326 13 332 13 C338 13 343 16 347 23 C395 105 414 129 457 167 C475 183 476 183 476 191 C476 200 470 206 461 206 C445 206 399 182 360 152 L360 514 Z " />
<glyph glyph-name="arrowupdnbse" unicode="&#x21a8;" horiz-adv-x="667" d="M360 514 C398 486 445 462 461 462 C470 462 476 468 476 477 C476 483 474 487 467 493 C416 536 401 554 351 638 C343 652 340 654 332 654 C326 654 321 649 312 631 C276 569 248 533 208 499 C193 487 191 484 191 477 C191 468 197 462 205 462 C220 462 284 494 309 514 L309 152 C282 174 220 206 205 206 C197 206 191 200 191 191 C191 184 193 181 208 168 C248 135 277 98 311 36 C321 19 326 13 332 13 C338 13 343 16 347 23 C395 105 414 129 457 167 C475 183 476 183 476 191 C476 200 470 206 461 206 C445 206 399 182 360 152 L360 514 Z M201 -68 L201 -111 L465 -111 L465 -68 L201 -68 Z " />
<glyph glyph-name="partialdiff" unicode="&#x2202;" horiz-adv-x="500" d="M65 564 C132 557 158 550 224 520 C276 497 311 462 339 403 C341 400 346 391 351 381 C306 422 278 433 223 433 C109 433 21 339 21 218 C21 88 119 -9 249 -9 C327 -9 394 26 436 89 C466 133 479 185 479 256 C479 383 437 486 354 560 C286 621 207 651 80 666 L65 564 Z M253 336 C314 336 361 284 361 217 C361 148 312 94 249 94 C188 94 137 149 137 214 C137 283 188 336 253 336 L253 336 Z " />
<glyph glyph-name="emptyset" unicode="&#x2205;" horiz-adv-x="618" d="M439 667 L392 578 C362 588 340 592 311 592 C175 592 67 485 67 349 C67 267 103 200 175 147 L114 25 L162 0 L225 123 C248 112 271 107 304 107 C443 107 552 214 552 350 C552 432 514 501 439 554 L487 642 L439 667 Z M416 502 C465 472 496 412 496 349 C496 247 412 164 309 164 C290 164 275 166 251 172 L416 502 Z M200 198 C149 239 123 290 123 350 C123 452 208 535 312 535 C332 535 345 533 366 527 L200 198 Z " />
<glyph glyph-name="Delta" unicode="&#x2206;" horiz-adv-x="643" d="M8 0 L636 0 L389 667 L253 667 L8 0 Z M175 114 L322 529 L466 114 L175 114 Z " />
<glyph glyph-name="product" unicode="&#x220f;" horiz-adv-x="667" d="M20 750 L20 645 L93 645 L93 -145 L20 -145 L20 -250 L276 -250 L276 -145 L209 -145 L209 645 L457 645 L457 -145 L389 -145 L389 -250 L646 -250 L646 -145 L574 -145 L574 645 L646 645 L646 750 L20 750 Z " />
<glyph glyph-name="summation" unicode="&#x2211;" horiz-adv-x="667" d="M617 750 L34 750 L34 611 L269 266 L34 -112 L34 -250 L626 -250 L626 4 L502 4 L494 -130 L182 -130 L424 267 L180 629 L485 629 L499 500 L617 500 L617 750 Z " />
<glyph glyph-name="minus" unicode="&#x2212;" horiz-adv-x="500" d="M12 388 L12 322 L487 322 L487 388 L12 388 Z " />
<glyph glyph-name="uni2218" unicode="&#x2218;" horiz-adv-x="500" d="M253 480 C175 480 113 418 113 340 C113 264 175 201 251 201 C327 201 388 263 388 341 C388 417 327 480 253 480 L253 480 Z M252 432 C300 432 341 390 341 340 C341 290 301 249 251 249 C201 249 160 290 160 340 C160 392 201 432 252 432 L252 432 Z " />
<glyph glyph-name="radical" unicode="&#x221a;" horiz-adv-x="667" d="M667 827 L398 827 L296 443 C256 294 251 273 223 118 L216 118 C203 206 197 241 192 259 L162 372 L0 372 L0 264 L87 264 L152 0 L303 0 L494 719 L667 719 L667 827 Z " />
<glyph glyph-name="infinity" unicode="&#x221e;" horiz-adv-x="667" d="M336 280 C381 215 433 183 495 183 C585 183 649 248 649 339 C649 431 585 496 494 496 C431 496 377 464 332 400 C287 463 233 496 174 496 C83 496 18 431 18 341 C18 248 82 183 174 183 C235 183 288 215 336 280 L336 280 Z M379 340 C416 394 444 414 481 414 C523 414 555 382 555 340 C555 297 524 265 482 265 C445 265 414 287 379 340 L379 340 Z M288 339 C251 286 223 265 186 265 C144 265 112 297 112 339 C112 382 143 414 185 414 C222 414 253 392 288 339 L288 339 Z " />
<glyph glyph-name="orthogonal" unicode="&#x221f;" horiz-adv-x="338" d="M16 510 L16 423 L322 423 L322 510 L16 510 Z " />
<glyph glyph-name="intersection" unicode="&#x2229;" horiz-adv-x="608" d="M574 0 L574 304 C574 453 567 499 540 545 C493 623 408 667 304 667 C209 667 131 631 81 564 C41 511 34 470 34 304 L34 0 L165 0 L165 307 C165 401 170 448 182 475 C203 520 251 549 304 549 C352 549 397 524 420 485 C439 454 441 438 443 307 L443 0 L574 0 Z " />
<glyph glyph-name="union" unicode="&#x222a;" horiz-adv-x="608" d="M34 667 L34 363 C34 215 41 168 68 122 C115 44 201 0 304 0 C399 0 477 36 527 103 C567 156 574 197 574 363 L574 667 L443 667 L443 360 C443 266 438 219 426 192 C405 147 357 118 304 118 C256 118 211 143 188 182 C171 211 165 254 165 360 L165 667 L34 667 Z " />
<glyph glyph-name="integral" unicode="&#x222b;" horiz-adv-x="500" d="M56 -240 C74 -246 93 -248 125 -248 C225 -248 290 -209 309 -136 C320 -97 320 -96 320 40 L320 530 C320 565 321 582 325 592 C333 614 352 626 378 626 C393 626 403 624 421 616 L444 740 C406 748 388 750 362 750 C275 750 209 707 190 637 C181 601 181 601 180 464 L180 12 C180 -78 180 -79 175 -92 C167 -113 147 -126 121 -126 C107 -126 97 -124 79 -116 L56 -240 Z " />
<glyph glyph-name="uni222E" unicode="&#x222e;" horiz-adv-x="500" d="M55 -239 C81 -247 102 -250 132 -250 C208 -250 255 -229 285 -179 C307 -144 313 -113 313 -33 L313 63 C399 83 461 165 461 259 C461 321 433 381 387 419 C365 437 348 445 313 454 L313 538 C313 568 314 582 318 592 C325 614 343 626 369 626 C387 626 398 624 421 616 L444 740 C402 748 382 750 355 750 C291 750 245 727 216 681 C194 648 186 609 186 543 L186 454 C98 431 39 353 39 259 C39 167 103 81 186 64 L186 -26 C186 -61 185 -82 181 -92 C174 -113 154 -126 128 -126 C113 -126 101 -124 78 -116 L55 -239 Z M313 393 C365 377 401 322 401 259 C401 196 369 147 313 126 L313 393 Z M186 126 C135 143 99 199 99 260 C99 322 134 375 186 393 L186 126 Z " />
<glyph glyph-name="uni2236" unicode="&#x2236;" horiz-adv-x="412" d="M206 571 C176 571 153 548 153 518 C153 490 177 466 206 466 C234 466 258 490 258 519 C258 547 235 571 206 571 L206 571 Z M206 255 C177 255 153 232 153 202 C153 174 177 150 205 150 C234 150 258 174 258 203 C258 231 234 255 206 255 L206 255 Z " />
<glyph glyph-name="similar" unicode="&#x223c;" horiz-adv-x="500" d="M77 239 C102 285 122 303 150 303 C167 303 190 296 225 280 C299 247 313 242 340 242 C366 242 393 251 417 267 C449 289 467 315 492 374 L424 430 C399 384 378 366 348 366 C331 366 323 369 269 393 C211 419 181 428 156 428 C94 428 46 385 9 296 L77 239 Z " />
<glyph glyph-name="approxequal" unicode="&#x2248;" horiz-adv-x="500" d="M77 348 C105 390 123 403 150 403 C167 403 190 396 225 380 C297 348 309 344 336 344 C409 344 452 380 492 475 L424 522 C393 478 379 467 349 467 C331 467 323 470 269 493 C212 519 181 528 156 528 C94 528 45 485 9 396 L77 348 Z M77 139 C105 181 123 194 150 194 C167 194 190 187 225 171 C297 139 309 135 335 135 C409 135 452 171 492 266 L424 313 C394 269 379 258 348 258 C331 258 324 260 269 284 C211 310 181 319 156 319 C94 319 46 276 9 187 L77 139 Z " />
<glyph glyph-name="notequal" unicode="&#x2260;" horiz-adv-x="500" d="M260 471 L33 471 L33 356 L213 356 L170 275 L33 275 L33 160 L127 160 L90 90 L177 45 L237 160 L466 160 L466 275 L280 275 L323 356 L467 356 L467 471 L370 471 L414 554 L327 599 L260 471 Z " />
<glyph glyph-name="equivalence" unicode="&#x2261;" horiz-adv-x="500" d="M33 589 L33 468 L466 468 L466 589 L33 589 Z M33 394 L33 273 L466 273 L466 394 L33 394 Z M33 199 L33 78 L466 78 L466 199 L33 199 Z " />
<glyph glyph-name="lessequal" unicode="&#x2264;" horiz-adv-x="500" d="M466 636 L33 470 L33 354 L466 188 L466 317 L183 412 L466 507 L466 636 Z M466 161 L33 161 L33 40 L466 40 L466 161 Z " />
<glyph glyph-name="greaterequal" unicode="&#x2265;" horiz-adv-x="500" d="M33 188 L466 354 L466 470 L33 636 L33 507 L315 412 L33 317 L33 188 Z M33 40 L466 40 L466 161 L33 161 L33 40 Z " />
<glyph glyph-name="dotmath" unicode="&#x22c5;" horiz-adv-x="261" d="M132 321 C88 321 57 290 57 247 C57 204 88 173 131 173 C173 173 205 204 205 246 C205 290 174 321 132 321 L132 321 Z " />
<glyph glyph-name="house" unicode="&#x2302;" horiz-adv-x="751" d="M84 0 L667 0 L667 401 L375 729 L84 401 L84 0 Z M135 51 L135 379 L375 649 L616 379 L616 51 L135 51 Z " />
<glyph glyph-name="revlogicalnot" unicode="&#x2310;" horiz-adv-x="500" d="M167 0 L167 167 L466 167 L466 288 L33 288 L33 0 L167 0 Z " />
<glyph glyph-name="uni2319" unicode="&#x2319;" horiz-adv-x="500" d="M167 288 L33 288 L33 0 L466 0 L466 121 L167 121 L167 288 Z " />
<glyph glyph-name="integraltp" unicode="&#x2320;" horiz-adv-x="500" d="M320 -250 L320 530 C320 567 321 581 325 592 C333 614 352 626 378 626 C393 626 403 624 421 616 L444 740 C406 748 388 750 362 750 C275 750 209 707 190 637 C181 601 181 601 180 464 L180 -250 L320 -250 Z " />
<glyph glyph-name="integralbt" unicode="&#x2321;" horiz-adv-x="500" d="M180 750 L180 -30 C180 -67 179 -82 175 -92 C167 -114 148 -126 122 -126 C107 -126 97 -124 79 -116 L56 -240 C94 -248 112 -250 138 -250 C225 -250 291 -207 310 -137 C320 -101 320 -101 320 36 L320 750 L180 750 Z " />
<glyph glyph-name="filledbox" unicode="&#x25a0;" horiz-adv-x="667" d="M667 0 L667 667 L0 667 L0 0 L667 0 Z " />
<glyph glyph-name="uni25A1" unicode="&#x25a1;" horiz-adv-x="667" d="M667 0 L667 667 L0 667 L0 0 L667 0 Z M620 47 L47 47 L47 620 L620 620 L620 47 Z " />
<glyph glyph-name="H18551" unicode="&#x25ab;" horiz-adv-x="338" d="M16 510 L16 423 L123 423 L123 319 L216 319 L216 423 L322 423 L322 510 L216 510 L216 613 L123 613 L123 510 L16 510 Z " />
<glyph glyph-name="filledrect" unicode="&#x25ac;" horiz-adv-x="667" d="M667 333 L0 333 L0 0 L667 0 L667 333 Z " />
<glyph glyph-name="uni25AE" unicode="&#x25ae;" horiz-adv-x="667" d="M500 0 L500 667 L167 667 L167 0 L500 0 Z " />
<glyph glyph-name="uni25AF" unicode="&#x25af;" horiz-adv-x="667" d="M334 589 C191 589 73 475 73 337 C73 191 188 77 334 77 C477 77 594 192 594 334 C594 475 477 589 334 589 L334 589 Z " />
<glyph glyph-name="triagup" unicode="&#x25b2;" horiz-adv-x="667" d="M633 67 L333 628 L33 67 L633 67 Z " />
<glyph glyph-name="uni25B4" unicode="&#x25b4;" horiz-adv-x="500" d="M466 147 L250 552 L33 147 L466 147 Z " />
<glyph glyph-name="uni25B8" unicode="&#x25b8;" horiz-adv-x="500" d="M71 119 L476 335 L71 552 L71 119 Z " />
<glyph glyph-name="triagdn" unicode="&#x25bc;" horiz-adv-x="667" d="M33 600 L333 39 L633 600 L33 600 Z " />
<glyph glyph-name="uni25BE" unicode="&#x25be;" horiz-adv-x="500" d="M33 520 L250 115 L466 520 L33 520 Z " />
<glyph glyph-name="uni25C2" unicode="&#x25c2;" horiz-adv-x="500" d="M428 552 L23 335 L428 119 L428 552 Z " />
<glyph glyph-name="lozenge" unicode="&#x25ca;" horiz-adv-x="667" d="M334 693 L74 334 L334 -26 L593 334 L334 693 Z M334 604 L531 334 L334 63 L137 334 L334 604 Z " />
<glyph glyph-name="circle" unicode="&#x25cb;" horiz-adv-x="667" d="M334 589 C191 589 73 475 73 337 C73 191 188 77 334 77 C477 77 594 192 594 334 C594 475 477 589 334 589 L334 589 Z M334 543 C451 543 547 449 547 334 C547 218 451 123 334 123 C214 123 120 217 120 336 C120 449 217 543 334 543 L334 543 Z " />
<glyph glyph-name="invbullet" unicode="&#x25d8;" horiz-adv-x="667" d="M0 0 L667 0 L667 667 L0 667 L0 0 Z M336 473 C410 473 471 410 471 334 C471 257 410 194 334 194 C258 194 196 257 196 334 C196 412 257 473 336 473 L336 473 Z " />
<glyph glyph-name="invcircle" unicode="&#x25d9;" horiz-adv-x="667" d="M667 0 L667 667 L0 667 L0 0 L667 0 Z M334 590 C477 590 594 475 594 334 C594 193 477 77 334 77 C188 77 73 192 73 338 C73 476 191 590 334 590 L334 590 Z M334 543 C217 543 120 449 120 336 C120 217 214 123 334 123 C451 123 547 218 547 334 C547 449 451 543 334 543 L334 543 Z " />
<glyph glyph-name="openbullet" unicode="&#x25e6;" horiz-adv-x="500" d="M253 480 C175 480 113 418 113 340 C113 264 175 201 251 201 C327 201 388 263 388 341 C388 417 327 480 253 480 L253 480 Z M252 432 C300 432 341 390 341 340 C341 290 301 249 251 249 C201 249 160 290 160 340 C160 392 201 432 252 432 L252 432 Z " />
<glyph glyph-name="smileface" unicode="&#x263a;" horiz-adv-x="667" d="M339 650 C160 650 17 510 17 336 C17 159 158 17 334 17 C508 17 650 159 650 334 C650 506 508 650 339 650 L339 650 Z M338 608 C485 608 609 483 609 334 C609 182 486 59 334 59 C181 59 59 182 59 336 C59 401 85 467 130 517 C185 578 254 608 338 608 L338 608 Z M241 466 C216 466 196 447 196 422 C196 398 216 378 240 378 C264 378 284 398 284 422 C284 446 264 466 241 466 L241 466 Z M434 466 C409 466 389 447 389 422 C389 398 409 378 433 378 C457 378 477 398 477 422 C477 446 457 466 434 466 L434 466 Z M540 372 C530 328 521 310 499 283 C457 236 404 213 334 213 C264 213 211 236 170 283 C147 310 138 328 128 372 C134 297 143 262 170 223 C206 169 262 141 334 141 C400 141 453 165 490 211 C522 252 535 291 540 372 L540 372 Z " />
<glyph glyph-name="invsmileface" unicode="&#x263b;" horiz-adv-x="667" d="M339 650 C160 650 17 511 17 336 C17 159 158 17 334 17 C508 17 650 159 650 334 C650 506 508 650 339 650 L339 650 Z M240 466 C263 466 283 446 283 422 C283 398 264 378 240 378 C215 378 196 398 196 422 C196 447 216 466 240 466 L240 466 Z M434 466 C457 466 477 446 477 422 C477 397 457 377 433 377 C409 377 389 397 389 422 C389 447 409 466 434 466 L434 466 Z M540 372 C535 298 525 263 499 224 C463 169 406 141 334 141 C268 141 216 165 179 211 C146 252 134 291 128 372 C138 329 147 310 170 284 C211 236 264 213 334 213 C404 213 457 236 499 284 C521 310 530 329 540 372 L540 372 Z " />
<glyph glyph-name="sun" unicode="&#x263c;" horiz-adv-x="667" d="M159 472 C131 436 117 404 112 359 L7 359 L7 308 L112 308 C116 267 133 226 158 194 L84 120 L119 85 L194 159 C231 131 268 116 308 112 L308 7 L358 7 L358 112 C401 117 438 133 471 159 L546 85 L581 120 L507 194 C533 228 548 265 554 308 L659 308 L659 359 L554 359 C548 402 533 440 507 473 L581 547 L546 582 L471 508 C441 533 400 550 358 555 L358 660 L308 660 L308 555 C267 550 227 534 194 507 L119 582 L84 547 L159 472 Z M336 493 C421 493 492 420 492 334 C492 246 421 174 333 174 C244 174 173 246 173 335 C173 423 245 493 336 493 L336 493 Z " />
<glyph glyph-name="female" unicode="&#x2640;" horiz-adv-x="667" d="M308 209 L147 209 L147 166 L308 166 L308 0 L356 0 L356 166 L519 166 L519 209 L356 209 L356 314 C448 328 513 403 513 496 C513 597 432 679 332 679 C233 679 153 597 153 496 C153 404 217 328 308 314 L308 209 Z M335 632 C407 632 466 570 466 496 C466 422 407 361 333 361 C260 361 200 422 200 496 C200 572 259 632 335 632 L335 632 Z " />
<glyph glyph-name="male" unicode="&#x2642;" horiz-adv-x="667" d="M570 499 C577 465 595 421 613 395 C625 376 627 374 636 374 C643 374 648 380 648 387 C648 392 647 396 645 407 C638 439 636 458 636 491 C636 527 639 550 646 578 C651 597 651 597 651 601 C651 607 647 611 641 611 L631 610 C590 598 570 596 526 596 C496 596 475 598 443 605 C432 607 428 608 423 608 C416 608 410 603 410 596 C410 587 416 581 431 573 C460 558 511 539 537 533 L386 382 C352 408 316 421 274 421 C175 421 94 339 94 239 C94 138 175 56 274 56 C373 56 454 138 454 238 C454 279 442 315 418 348 L570 499 Z M276 374 C348 374 407 313 407 239 C407 164 348 104 274 104 C201 104 141 165 141 239 C141 315 200 374 276 374 L276 374 Z " />
<glyph glyph-name="spade" unicode="&#x2660;" horiz-adv-x="667" d="M108 0 L568 0 L568 18 C415 43 350 111 342 255 C381 185 424 154 482 154 C550 154 604 208 604 277 C604 339 581 375 483 464 C384 555 367 580 332 686 C317 602 264 525 168 447 C96 386 64 335 64 278 C64 210 119 153 184 153 C237 153 290 183 316 227 C319 234 322 240 329 255 C326 187 310 139 273 96 C232 50 201 36 108 18 L108 0 Z " />
<glyph glyph-name="club" unicode="&#x2663;" horiz-adv-x="667" d="M561 0 L561 18 C469 36 440 49 399 92 C357 139 342 188 340 274 C360 241 368 229 378 216 C413 175 469 147 518 147 C599 147 664 214 664 299 C664 381 606 446 532 446 C506 446 500 444 446 417 C471 455 481 483 481 517 C481 596 415 660 334 660 C252 660 186 596 186 517 C186 483 196 455 221 417 C216 420 211 423 206 425 C173 442 158 446 135 446 C61 446 3 381 3 299 C3 215 68 147 147 147 C200 147 257 176 293 222 C303 234 310 245 327 274 C326 121 256 39 106 18 L106 0 L561 0 Z " />
<glyph glyph-name="heart" unicode="&#x2665;" horiz-adv-x="667" d="M332 -11 C350 67 402 156 501 280 C583 384 611 442 611 509 C611 581 552 640 479 640 C407 640 356 595 332 509 C322 540 316 555 305 571 C277 614 233 639 185 639 C113 639 56 580 56 505 C56 447 74 408 146 310 C276 136 310 78 332 -11 L332 -11 Z " />
<glyph glyph-name="diamond" unicode="&#x2666;" horiz-adv-x="667" d="M333 693 C280 596 214 502 80 334 C190 198 291 54 333 -26 C389 75 492 221 587 334 C516 414 363 630 333 693 L333 693 Z " />
<glyph glyph-name="musicalnote" unicode="&#x266a;" horiz-adv-x="667" d="M306 156 C290 163 269 167 252 167 C188 167 131 112 131 52 C131 14 157 -9 200 -9 C289 -9 352 60 352 156 L352 460 C410 452 458 373 458 287 C458 235 449 194 425 138 L453 138 C490 184 510 240 510 300 C510 379 481 452 419 525 L367 588 C365 589 360 596 352 606 L352 667 L306 667 L306 156 Z " />
<glyph glyph-name="uni266C" unicode="&#x266c;" horiz-adv-x="667" d="M616 694 L195 587 L195 136 C178 142 159 146 141 146 C77 146 20 92 20 33 C20 -5 46 -27 89 -27 C178 -27 241 41 241 136 L241 372 L570 462 L570 192 C554 199 534 203 516 203 C453 203 396 149 396 88 C396 50 421 28 464 28 C521 28 574 60 599 111 C611 136 616 157 616 192 L616 694 Z M241 448 L241 518 L570 608 L570 538 L241 448 Z " />
<glyph glyph-name="dotlessj" unicode="&#xf6be;" horiz-adv-x="253" d="M190 463 L63 463 L63 -15 C63 -66 38 -96 -5 -96 L-24 -96 L-24 -212 C-10 -213 3 -213 10 -213 C69 -213 115 -196 146 -163 C176 -132 190 -85 190 -15 L190 463 Z " />
<glyph glyph-name="commaaccent" unicode="&#xf6c3;" horiz-adv-x="500" d="M304 -58 L195 -58 L195 -137 L253 -137 C252 -161 242 -176 226 -181 L196 -188 C195 -188 192 -189 188 -191 L188 -233 C283 -215 304 -194 304 -115 L304 -58 Z " />
<glyph glyph-name="Acute" unicode="&#xf6c9;" horiz-adv-x="500" d="M278 859 L184 726 L271 726 L409 859 L278 859 Z " />
<glyph glyph-name="Caron" unicode="&#xf6ca;" horiz-adv-x="500" d="M249 792 L172 860 L83 860 L189 726 L304 726 L417 860 L328 860 L249 792 Z " />
<glyph glyph-name="Dieresis" unicode="&#xf6cb;" horiz-adv-x="500" d="M144 870 C105 870 74 839 74 801 C74 763 105 732 143 732 C181 732 212 763 212 800 C212 839 182 870 144 870 L144 870 Z M357 870 C318 870 287 839 287 801 C287 763 318 732 356 732 C394 732 425 763 425 800 C425 839 395 870 357 870 L357 870 Z " />
<glyph glyph-name="Grave" unicode="&#xf6ce;" horiz-adv-x="500" d="M222 859 L91 859 L229 726 L316 726 L222 859 Z " />
<glyph glyph-name="Hungarumlaut" unicode="&#xf6cf;" horiz-adv-x="500" d="M191 858 L110 726 L185 726 L306 858 L191 858 Z M367 858 L286 726 L362 726 L483 858 L367 858 Z " />
<glyph glyph-name="Macron" unicode="&#xf6d0;" horiz-adv-x="500" d="M152 768 L348 768 L348 823 L152 823 L152 768 Z " />
<glyph glyph-name="commasuperior" unicode="&#xf6e2;" horiz-adv-x="170" d="M142 335 L66 353 L29 200 L86 187 L142 335 Z " />
<glyph glyph-name="periodsuperior" unicode="&#xf6e8;" horiz-adv-x="170" d="M85 355 C57 355 37 335 37 307 C37 279 57 259 85 259 C112 259 133 279 133 306 C133 335 113 355 85 355 L85 355 Z " />
<glyph glyph-name="ff" unicode="&#xfb00;" horiz-adv-x="568" d="M199 356 L260 356 L260 463 L199 463 L199 489 C199 528 215 544 260 550 L260 667 C129 668 72 614 72 489 L72 463 L21 463 L21 356 L72 356 L72 0 L199 0 L199 356 Z M482 356 L542 356 L542 463 L482 463 L482 489 C482 528 498 544 542 550 L542 667 C412 668 355 614 355 489 L355 463 L303 463 L303 356 L355 356 L355 0 L482 0 L482 356 Z " />
<glyph glyph-name="fi" unicode="&#xfb01;" horiz-adv-x="533" d="M199 356 L260 356 L260 463 L199 463 L199 489 C199 528 215 544 260 550 L260 667 C129 668 72 614 72 489 L72 463 L21 463 L21 356 L72 356 L72 0 L199 0 L199 356 Z M470 463 L343 463 L343 0 L470 0 L470 463 Z M407 666 C366 666 336 636 336 595 C336 555 366 525 407 525 C447 525 477 555 477 594 C477 636 448 666 407 666 L407 666 Z " />
<glyph glyph-name="fl" unicode="&#xfb02;" horiz-adv-x="533" d="M199 356 L260 356 L260 463 L199 463 L199 489 C199 528 215 544 260 550 L260 667 C129 668 72 614 72 489 L72 463 L21 463 L21 356 L72 356 L72 0 L199 0 L199 356 Z M470 0 L470 667 L343 667 L343 0 L470 0 Z " />
<glyph glyph-name="ffi" unicode="&#xfb03;" horiz-adv-x="825" d="M199 356 L260 356 L260 463 L199 463 L199 489 C199 528 215 544 260 550 L260 667 C129 668 72 614 72 489 L72 463 L21 463 L21 356 L72 356 L72 0 L199 0 L199 356 Z M482 356 L542 356 L542 463 L482 463 L482 489 C482 528 498 544 542 550 L542 667 C412 668 355 614 355 489 L355 463 L303 463 L303 356 L355 356 L355 0 L482 0 L482 356 Z M762 463 L635 463 L635 0 L762 0 L762 463 Z M699 666 C658 666 628 636 628 595 C628 555 658 525 699 525 C739 525 769 555 769 594 C769 636 740 666 699 666 L699 666 Z " />
<glyph glyph-name="ffl" unicode="&#xfb04;" horiz-adv-x="825" d="M199 356 L260 356 L260 463 L199 463 L199 489 C199 528 215 544 260 550 L260 667 C129 668 72 614 72 489 L72 463 L21 463 L21 356 L72 356 L72 0 L199 0 L199 356 Z M482 356 L542 356 L542 463 L482 463 L482 489 C482 528 498 544 542 550 L542 667 C412 668 355 614 355 489 L355 463 L303 463 L303 356 L355 356 L355 0 L482 0 L482 356 Z M762 0 L762 667 L635 667 L635 0 L762 0 Z " />
</font>
</svg>
