<?xml version="1.0" encoding="UTF-8"?>
<svg xmlns="http://www.w3.org/2000/svg" xmlns:xlink="http://www.w3.org/1999/xlink" version="1.2" >
<font id="Neuzeit Grotesk Light">
<font-face  font-family="Neuzeit Grotesk" units-per-em="1000" ascent="667" descent="-333" font-style="normal" font-weight="300" font-stretch="normal" cap-height="667" x-height="460" underline-position="-77" underline-thickness="38" />
<missing-glyph  horiz-adv-x="300" d="" />
<glyph glyph-name="NULL" d="" />
<glyph glyph-name="CR" unicode="&#xd;" horiz-adv-x="250" d="" />
<glyph glyph-name="space" unicode="&#x20;" horiz-adv-x="300" d="" />
<glyph glyph-name="exclam" unicode="&#x21;" horiz-adv-x="242" d="M147 667 L95 667 L95 137 L147 137 L147 667 Z M121 77 C98 77 80 60 80 36 C80 13 98 -5 121 -5 C144 -5 162 13 162 35 C162 59 145 77 121 77 L121 77 Z " />
<glyph glyph-name="quotedbl" unicode="&#x22;" horiz-adv-x="296" d="M105 400 L112 667 L56 667 L63 400 L105 400 Z M233 400 L241 667 L184 667 L191 400 L233 400 Z " />
<glyph glyph-name="numbersign" unicode="&#x23;" horiz-adv-x="500" d="M435 286 L335 286 L348 383 L456 383 L456 425 L354 425 L382 627 L341 627 L312 425 L224 425 L252 627 L208 627 L180 425 L66 425 L66 383 L174 383 L160 286 L43 286 L43 245 L155 245 L125 27 L168 27 L198 245 L287 245 L257 27 L299 27 L329 245 L435 245 L435 286 Z M309 385 L295 283 L201 283 L216 385 L309 385 Z " />
<glyph glyph-name="dollar" unicode="&#x24;" horiz-adv-x="500" d="M260 597 C328 586 365 548 371 486 L420 486 C422 572 357 638 260 649 L260 721 L222 721 L222 649 C180 642 160 635 135 621 C89 593 61 542 61 487 C61 438 87 388 126 362 C150 346 167 338 222 317 L222 48 C163 49 109 97 103 152 L103 164 C103 164 103 169 102 173 L57 173 C56 165 56 156 56 151 C56 104 79 62 123 32 C154 11 178 3 222 0 L222 -96 L260 -96 L260 0 C368 11 434 76 434 169 C434 225 405 279 360 309 C335 325 320 332 260 356 L260 597 Z M222 372 C147 395 111 433 111 489 C111 549 150 588 222 597 L222 372 Z M260 300 C345 268 383 227 383 166 C383 128 363 90 331 69 C310 55 293 50 260 48 L260 300 Z " />
<glyph glyph-name="percent" unicode="&#x25;" horiz-adv-x="576" d="M238 549 C238 611 236 620 215 640 C198 657 173 666 146 666 C118 666 91 656 74 638 C57 620 52 599 52 549 L52 440 C52 391 53 387 70 367 C86 347 113 336 144 336 C178 336 210 350 224 372 C234 388 238 409 238 439 L238 549 Z M85 548 C85 593 86 600 97 613 C107 625 126 632 147 632 C185 632 205 608 205 559 L205 450 C205 419 203 407 197 396 C187 380 167 370 145 370 C125 370 105 379 95 393 C86 405 85 410 85 455 L85 548 Z M524 213 C524 275 522 284 501 304 C484 321 459 330 432 330 C404 330 377 320 360 302 C343 284 338 262 338 213 L338 104 C338 55 339 51 356 31 C372 11 399 0 430 0 C464 0 496 14 510 36 C520 52 524 73 524 103 L524 213 Z M371 212 C371 257 372 264 383 277 C393 289 412 296 433 296 C472 296 491 272 491 223 L491 114 C491 82 489 71 483 60 C473 44 453 34 431 34 C411 34 391 43 381 57 C372 69 371 74 371 119 L371 212 Z M536 653 L506 673 L40 15 L69 -6 L536 653 Z " />
<glyph glyph-name="ampersand" unicode="&#x26;" horiz-adv-x="576" d="M447 137 C494 185 501 192 549 239 L515 272 C470 226 461 217 422 175 L280 372 L307 390 C367 431 390 466 390 515 C390 578 339 627 273 627 C205 627 151 576 151 512 C151 473 159 456 213 384 C86 307 47 259 47 178 C47 74 129 -10 232 -10 C296 -10 335 13 422 105 L497 0 L549 0 L447 137 Z M253 409 C245 420 239 428 235 434 C210 466 202 485 202 513 C202 553 230 579 272 579 C313 579 339 554 339 514 C339 472 324 454 253 409 L253 409 Z M392 143 C347 96 335 84 317 70 C292 50 259 38 228 38 C156 38 97 99 97 173 C97 202 106 227 123 253 C139 275 161 294 220 333 C226 337 233 342 240 347 L392 143 Z " />
<glyph glyph-name="quotesingle" unicode="&#x27;" horiz-adv-x="169" d="M106 400 L114 667 L56 667 L63 400 L106 400 Z " />
<glyph glyph-name="parenleft" unicode="&#x28;" horiz-adv-x="287" d="M254 -201 C155 -89 96 70 96 221 C96 377 150 521 254 646 L222 682 C108 551 47 390 47 216 C47 45 103 -99 222 -236 L254 -201 Z " />
<glyph glyph-name="parenright" unicode="&#x29;" horiz-adv-x="287" d="M33 647 C132 534 191 376 191 224 C191 69 137 -75 33 -200 L64 -236 C179 -105 240 56 240 230 C240 401 184 545 64 682 L33 647 Z " />
<glyph glyph-name="asterisk" unicode="&#x2a;" horiz-adv-x="427" d="M212 481 L289 378 L316 400 L242 502 L367 541 L356 577 L231 541 L231 665 L194 665 L194 541 L71 577 L60 541 L183 502 L106 400 L135 378 L212 481 Z " />
<glyph glyph-name="plus" unicode="&#x2b;" horiz-adv-x="500" d="M27 351 L27 319 L233 319 L233 128 L266 128 L266 319 L472 319 L472 351 L266 351 L266 541 L233 541 L233 351 L27 351 Z " />
<glyph glyph-name="comma" unicode="&#x2c;" horiz-adv-x="215" d="M149 63 L101 83 L3 -157 L42 -173 L149 63 Z " />
<glyph glyph-name="hyphen" unicode="&#x2d;" horiz-adv-x="200" d="M200 265 L0 265 L0 218 L200 218 L200 265 Z " />
<glyph glyph-name="period" unicode="&#x2e;" horiz-adv-x="215" d="M108 77 C85 77 67 60 67 36 C67 13 85 -5 108 -5 C131 -5 149 13 149 35 C149 59 132 77 108 77 L108 77 Z " />
<glyph glyph-name="slash" unicode="&#x2f;" horiz-adv-x="396" d="M352 667 L299 667 L-38 -220 L15 -220 L352 667 Z " />
<glyph glyph-name="zero" unicode="0" horiz-adv-x="500" d="M442 468 C442 546 430 582 394 616 C359 648 309 665 248 665 C180 665 126 643 95 603 C66 566 58 531 58 441 L58 218 C58 118 66 85 98 49 C132 11 185 -10 249 -10 C312 -10 365 11 399 48 C430 82 442 125 442 200 L442 468 Z M111 439 C111 505 116 530 135 558 C159 594 201 614 250 614 C288 614 322 602 348 579 C378 551 389 522 389 466 L389 200 C389 147 381 114 364 90 C341 60 298 41 251 41 C207 41 167 57 141 84 C115 113 111 129 111 218 L111 439 Z " />
<glyph glyph-name="one" unicode="1" horiz-adv-x="500" d="M271 571 L271 0 L324 0 L324 667 L110 510 L110 456 L271 571 Z " />
<glyph glyph-name="two" unicode="2" horiz-adv-x="500" d="M150 53 L357 336 C411 410 429 453 429 507 C429 601 356 666 252 666 C141 666 81 605 73 485 L127 485 C128 521 131 537 140 557 C157 594 197 617 248 617 C322 617 375 571 375 505 C375 461 355 420 283 320 L51 0 L409 0 L409 53 L150 53 Z " />
<glyph glyph-name="three" unicode="3" horiz-adv-x="500" d="M334 600 L121 339 L132 326 C167 347 187 353 222 353 C324 353 393 291 393 199 C393 111 319 41 225 41 C156 41 105 79 80 149 L30 132 C57 43 131 -10 230 -10 C357 -10 450 80 450 204 C450 315 365 404 260 404 C256 404 249 404 241 403 L444 653 L80 653 L80 600 L334 600 Z " />
<glyph glyph-name="four" unicode="4" horiz-adv-x="500" d="M319 157 L319 0 L372 0 L372 157 L459 157 L459 210 L372 210 L372 678 L41 196 L41 157 L319 157 Z M319 210 L102 210 L319 524 L319 210 Z " />
<glyph glyph-name="five" unicode="5" horiz-adv-x="500" d="M140 600 L349 600 L349 653 L87 653 L87 309 C136 359 172 376 230 376 C329 376 398 309 398 212 C398 115 325 41 231 41 C188 41 147 57 122 83 C111 95 103 107 88 138 L34 119 C51 78 64 60 93 37 C132 5 177 -10 230 -10 C362 -10 455 82 455 211 C455 336 366 427 244 427 C208 427 177 421 140 407 L140 600 Z " />
<glyph glyph-name="six" unicode="6" horiz-adv-x="500" d="M348 653 L282 653 L78 323 C49 276 39 246 39 205 C39 84 131 -11 249 -11 C366 -11 461 84 461 201 C461 315 373 401 257 401 C225 401 210 398 177 384 L348 653 Z M252 353 C337 353 405 284 405 198 C405 111 336 40 250 40 C165 40 96 112 96 202 C96 287 165 353 252 353 L252 353 Z " />
<glyph glyph-name="seven" unicode="7" horiz-adv-x="500" d="M368 600 L122 0 L183 0 L449 653 L91 653 L91 600 L368 600 Z " />
<glyph glyph-name="eight" unicode="8" horiz-adv-x="500" d="M311 368 C348 380 365 389 383 407 C410 434 425 472 425 512 C425 600 352 665 252 665 C150 665 76 600 76 511 C76 474 90 438 114 411 C133 391 150 381 190 368 C146 356 126 345 103 323 C67 288 47 237 47 182 C47 69 131 -11 249 -11 C368 -11 453 72 453 188 C453 243 434 289 398 324 C374 347 354 357 311 368 L311 368 Z M251 616 C316 616 370 567 370 510 C370 452 313 400 250 400 C183 400 131 449 131 512 C131 573 180 616 251 616 L251 616 Z M252 337 C331 337 396 270 396 189 C396 107 330 40 250 40 C170 40 104 107 104 189 C104 270 171 337 252 337 L252 337 Z " />
<glyph glyph-name="nine" unicode="9" horiz-adv-x="500" d="M155 0 L222 0 L427 341 C451 380 460 413 460 457 C460 575 370 665 253 665 C134 665 39 572 39 455 C39 340 128 252 242 252 C272 252 288 255 323 269 L155 0 Z M252 614 C337 614 403 545 403 456 C403 368 337 301 248 301 C163 301 95 370 95 457 C95 545 164 614 252 614 L252 614 Z " />
<glyph glyph-name="colon" unicode="&#x3a;" horiz-adv-x="215" d="M108 77 C85 77 67 60 67 36 C67 13 85 -5 108 -5 C131 -5 149 13 149 35 C149 59 132 77 108 77 L108 77 Z M108 344 C85 344 67 327 67 303 C67 280 85 262 108 262 C131 262 149 280 149 302 C149 326 132 344 108 344 L108 344 Z " />
<glyph glyph-name="semicolon" unicode="&#x3b;" horiz-adv-x="215" d="M149 63 L101 83 L3 -157 L42 -173 L149 63 Z M111 344 C88 344 70 327 70 303 C70 280 88 262 111 262 C134 262 152 280 152 302 C152 326 135 344 111 344 L111 344 Z " />
<glyph glyph-name="less" unicode="&#x3c;" horiz-adv-x="500" d="M466 555 L33 358 L33 311 L466 114 L466 167 L91 334 L466 501 L466 555 Z " />
<glyph glyph-name="equal" unicode="&#x3d;" horiz-adv-x="500" d="M27 419 L27 387 L472 387 L472 419 L27 419 Z M27 282 L27 250 L472 250 L472 282 L27 282 Z " />
<glyph glyph-name="greater" unicode="&#x3e;" horiz-adv-x="500" d="M34 114 L467 310 L467 358 L34 555 L34 501 L409 334 L34 167 L34 114 Z " />
<glyph glyph-name="question" unicode="&#x3f;" horiz-adv-x="415" d="M196 138 L196 191 C196 269 204 288 259 329 C335 387 364 435 364 502 C364 599 291 672 195 672 C99 672 38 608 38 506 L88 506 C87 514 87 520 87 523 C87 580 135 625 197 625 C263 625 312 572 312 500 C312 445 294 415 231 367 C163 314 150 288 150 207 L150 175 L150 138 L196 138 Z M176 77 C153 77 135 60 135 36 C135 13 153 -5 176 -5 C199 -5 217 13 217 35 C217 59 200 77 176 77 L176 77 Z " />
<glyph glyph-name="at" unicode="&#x40;" horiz-adv-x="781" d="M666 180 C609 81 515 26 405 26 C239 26 107 161 107 330 C107 498 239 633 405 633 C476 633 543 608 596 560 C648 512 674 456 674 388 C674 303 634 224 568 181 C546 167 522 158 502 158 C489 158 480 166 480 178 C480 188 488 220 499 252 L590 517 L513 517 L499 475 C487 510 454 530 407 530 C294 530 193 400 193 257 C193 183 239 128 301 128 C342 128 379 145 415 180 C422 148 451 128 491 128 C546 128 607 160 651 211 C692 260 714 321 714 389 C714 548 578 672 404 672 C218 672 67 519 67 329 C67 139 217 -13 405 -13 C538 -13 663 67 706 180 L666 180 Z M424 262 C401 196 360 154 317 154 C285 154 264 177 264 210 C264 271 293 365 332 431 C360 479 394 505 426 505 C458 505 481 477 481 439 C481 432 480 425 478 420 L424 262 Z " />
<glyph glyph-name="A" unicode="A" horiz-adv-x="592" d="M457 175 L522 0 L585 0 L331 667 L269 667 L7 0 L64 0 L135 175 L457 175 Z M437 227 L156 227 L298 591 L437 227 Z " />
<glyph glyph-name="B" unicode="B" horiz-adv-x="540" d="M90 667 L90 0 L249 0 C339 0 382 8 423 34 C470 64 497 117 497 180 C497 236 476 282 438 311 C417 327 400 333 363 340 C400 356 415 366 431 385 C454 411 467 450 467 491 C467 599 390 667 265 667 L90 667 Z M147 616 L227 616 C300 616 326 613 355 599 C391 582 414 541 414 492 C414 449 396 410 366 387 C339 367 304 359 248 359 L147 359 L147 616 Z M147 308 L275 308 C389 308 441 268 441 180 C441 130 422 95 385 74 C351 56 323 51 240 51 L147 51 L147 308 Z " />
<glyph glyph-name="C" unicode="C" horiz-adv-x="628" d="M559 144 C501 71 442 40 363 40 C215 40 106 163 106 332 C106 502 214 627 360 627 C407 627 456 612 494 586 C514 572 529 559 559 526 L601 560 C536 641 458 679 360 679 C180 679 47 532 47 333 C47 240 80 148 135 85 C191 22 270 -12 361 -12 C417 -12 473 2 518 29 C552 49 571 66 601 107 L559 144 Z " />
<glyph glyph-name="D" unicode="D" horiz-adv-x="618" d="M90 0 L234 0 C446 0 571 129 571 347 C571 543 451 667 261 667 L90 667 L90 0 Z M147 616 L258 616 C423 616 513 521 513 347 C513 234 481 153 415 103 C363 62 312 51 178 51 L147 51 L147 616 Z " />
<glyph glyph-name="E" unicode="E" horiz-adv-x="478" d="M147 616 L425 616 L425 667 L90 667 L90 0 L425 0 L425 51 L147 51 L147 312 L425 312 L425 363 L147 363 L147 616 Z " />
<glyph glyph-name="F" unicode="F" horiz-adv-x="451" d="M147 616 L421 616 L421 667 L90 667 L90 0 L147 0 L147 312 L421 312 L421 363 L147 363 L147 616 Z " />
<glyph glyph-name="G" unicode="G" horiz-adv-x="722" d="M365 354 L365 303 L620 303 C618 237 607 198 577 154 C531 86 445 40 363 40 C217 40 105 167 105 333 C105 500 219 627 368 627 C419 627 469 611 509 581 C527 569 539 556 567 526 L609 561 C547 639 466 679 370 679 C180 679 47 536 47 331 C47 132 182 -12 368 -12 C486 -12 586 49 640 153 C664 200 675 249 675 313 L675 354 L365 354 Z " />
<glyph glyph-name="H" unicode="H" horiz-adv-x="656" d="M147 306 L509 306 L509 0 L566 0 L566 667 L509 667 L509 357 L147 357 L147 667 L90 667 L90 0 L147 0 L147 306 Z " />
<glyph glyph-name="I" unicode="I" horiz-adv-x="237" d="M147 667 L90 667 L90 0 L147 0 L147 667 Z " />
<glyph glyph-name="J" unicode="J" horiz-adv-x="368" d="M291 667 L23 667 L23 616 L234 616 L234 244 C234 153 223 113 189 83 C163 59 124 47 72 47 C59 47 48 47 23 48 L23 0 C114 0 154 4 189 20 C255 49 291 110 291 191 L291 667 Z " />
<glyph glyph-name="K" unicode="K" horiz-adv-x="527" d="M147 313 L434 0 L513 0 L203 332 L513 667 L443 667 L147 351 L147 667 L90 667 L90 0 L147 0 L147 313 Z " />
<glyph glyph-name="L" unicode="L" horiz-adv-x="415" d="M147 57 L147 667 L90 667 L90 0 L388 0 L388 57 L147 57 Z " />
<glyph glyph-name="M" unicode="M" horiz-adv-x="818" d="M147 527 L408 0 L671 526 L671 0 L728 0 L728 667 L683 667 L408 117 L136 667 L90 667 L90 0 L147 0 L147 527 Z " />
<glyph glyph-name="N" unicode="N" horiz-adv-x="679" d="M147 555 L546 0 L589 0 L589 667 L532 667 L532 120 L137 667 L90 667 L90 0 L147 0 L147 555 Z " />
<glyph glyph-name="O" unicode="O" horiz-adv-x="731" d="M367 679 C286 679 205 645 145 586 C80 522 47 436 47 330 C47 246 70 170 111 116 C171 37 268 -12 365 -12 C438 -12 512 16 572 66 C644 126 683 218 683 325 C683 426 659 503 609 562 C546 636 457 679 367 679 L367 679 Z M366 627 C429 627 497 598 545 551 C600 497 625 427 625 329 C625 253 597 173 556 126 C507 72 436 40 364 40 C213 40 105 163 105 334 C105 503 216 627 366 627 L366 627 Z " />
<glyph glyph-name="P" unicode="P" horiz-adv-x="520" d="M147 268 L260 268 C336 268 384 280 421 309 C468 345 494 403 494 469 C494 531 471 584 428 619 C388 651 330 667 251 667 L90 667 L90 0 L147 0 L147 268 Z M147 319 L147 616 L230 616 C278 616 307 613 336 605 C399 587 438 534 438 468 C438 404 400 349 341 331 C316 322 288 319 249 319 L147 319 Z " />
<glyph glyph-name="Q" unicode="Q" horiz-adv-x="737" d="M698 27 L618 113 C668 180 688 243 688 334 C688 429 658 516 603 575 C543 640 456 679 369 679 C287 679 207 646 146 586 C82 523 50 437 50 331 C50 236 79 149 130 94 C193 28 281 -12 369 -12 C411 -12 456 -2 497 15 C527 29 545 41 583 73 L659 -11 L698 27 Z M532 203 L496 169 L546 113 C487 60 438 40 368 40 C215 40 108 161 108 334 C108 409 128 475 164 523 C213 588 290 627 369 627 C430 627 490 603 539 560 C597 508 628 427 628 330 C628 261 615 213 580 153 L532 203 Z " />
<glyph glyph-name="R" unicode="R" horiz-adv-x="548" d="M147 288 L445 0 L523 0 L224 288 C234 287 243 287 247 287 C297 287 333 292 360 303 C432 333 474 398 474 479 C474 594 391 667 261 667 L90 667 L90 0 L147 0 L147 288 Z M147 332 L147 616 L257 616 C362 616 416 569 416 476 C416 382 355 332 243 332 L147 332 Z " />
<glyph glyph-name="S" unicode="S" horiz-adv-x="474" d="M41 170 L41 154 C41 114 57 73 85 42 C117 5 165 -12 230 -12 C347 -12 429 65 429 175 C429 218 414 259 388 289 C362 318 330 335 260 360 C183 387 159 397 138 414 C114 433 101 464 101 499 C101 574 156 628 231 628 C280 628 322 607 343 573 C356 552 360 534 361 495 L416 495 C416 607 344 679 232 679 C121 679 44 604 44 496 C44 446 62 403 95 373 C123 347 144 337 225 310 C338 274 374 241 374 175 C374 94 314 39 225 39 C174 39 133 60 113 94 C101 115 96 134 94 170 L41 170 Z " />
<glyph glyph-name="T" unicode="T" horiz-adv-x="434" d="M245 616 L420 616 L420 667 L13 667 L13 616 L188 616 L188 0 L245 0 L245 616 Z " />
<glyph glyph-name="U" unicode="U" horiz-adv-x="635" d="M134 667 L77 667 L77 267 C77 162 88 120 128 72 C173 18 242 -12 318 -12 C393 -12 459 16 503 67 C545 116 559 165 559 267 L559 667 L499 667 L499 270 C499 166 488 130 445 90 C411 60 359 40 315 40 C271 40 217 60 186 88 C148 122 134 170 134 267 L134 667 Z " />
<glyph glyph-name="V" unicode="V" horiz-adv-x="542" d="M269 94 L68 667 L7 667 L245 0 L293 0 L535 667 L474 667 L269 94 Z " />
<glyph glyph-name="W" unicode="W" horiz-adv-x="862" d="M623 110 L460 667 L410 667 L243 110 L67 667 L7 667 L222 0 L264 0 L433 569 L603 0 L644 0 L856 667 L798 667 L623 110 Z " />
<glyph glyph-name="X" unicode="X" horiz-adv-x="537" d="M270 283 L463 0 L531 0 L304 333 L531 667 L463 667 L270 381 L79 667 L7 667 L237 333 L7 0 L79 0 L270 283 Z " />
<glyph glyph-name="Y" unicode="Y" horiz-adv-x="515" d="M288 293 L518 667 L451 667 L258 353 L64 667 L-3 667 L231 293 L231 0 L288 0 L288 293 Z " />
<glyph glyph-name="Z" unicode="Z" horiz-adv-x="532" d="M112 51 L525 667 L58 667 L58 616 L425 616 L13 0 L481 0 L481 51 L112 51 Z " />
<glyph glyph-name="bracketleft" unicode="&#x5b;" horiz-adv-x="287" d="M84 667 L84 -220 L217 -220 L217 -183 L131 -183 L131 630 L217 630 L217 667 L84 667 Z " />
<glyph glyph-name="backslash" unicode="&#x5c;" horiz-adv-x="396" d="M43 667 L380 -220 L433 -220 L96 667 L43 667 Z " />
<glyph glyph-name="bracketright" unicode="&#x5d;" horiz-adv-x="287" d="M203 667 L70 667 L70 630 L156 630 L156 -183 L70 -183 L70 -220 L203 -220 L203 667 Z " />
<glyph glyph-name="asciicircum" unicode="&#x5e;" horiz-adv-x="500" d="M90 382 L249 631 L409 382 L463 382 L281 668 L219 668 L37 382 L90 382 Z " />
<glyph glyph-name="underscore" unicode="&#x5f;" horiz-adv-x="500" d="M0 -77 L0 -115 L500 -115 L500 -77 L0 -77 Z " />
<glyph glyph-name="grave" unicode="&#x60;" horiz-adv-x="500" d="M197 653 L127 653 L237 525 L279 525 L197 653 Z " />
<glyph glyph-name="a" unicode="a" horiz-adv-x="561" d="M428 375 C384 438 328 468 255 468 C131 468 43 369 43 230 C43 91 132 -8 256 -8 C327 -8 382 27 428 102 L428 0 L478 0 L478 460 L428 460 L428 375 Z M259 421 C360 421 429 346 429 237 C429 128 352 39 256 39 C164 39 95 119 95 227 C95 277 110 326 136 362 C166 403 204 421 259 421 L259 421 Z " />
<glyph glyph-name="b" unicode="b" horiz-adv-x="557" d="M133 89 C180 22 232 -8 303 -8 C426 -8 514 90 514 228 C514 371 429 468 302 468 C233 468 180 437 133 369 L133 667 L83 667 L83 0 L133 0 L133 89 Z M300 421 C395 421 462 340 462 226 C462 114 396 39 297 39 C197 39 132 115 132 232 C132 343 201 421 300 421 L300 421 Z " />
<glyph glyph-name="c" unicode="c" horiz-adv-x="451" d="M393 96 C355 57 313 39 261 39 C162 39 95 117 95 232 C95 344 164 421 265 421 C312 421 355 404 393 369 L424 403 C380 447 329 468 265 468 C135 468 43 370 43 230 C43 90 132 -8 260 -8 C326 -8 375 12 424 60 L393 96 Z " />
<glyph glyph-name="d" unicode="d" horiz-adv-x="557" d="M424 381 C397 416 380 430 350 445 C320 460 285 468 252 468 C131 468 43 366 43 228 C43 90 131 -8 255 -8 C324 -8 374 21 424 89 L424 0 L474 0 L474 667 L424 667 L424 381 Z M262 421 C360 421 425 345 425 231 C425 120 354 39 256 39 C161 39 95 116 95 227 C95 343 162 421 262 421 L262 421 Z " />
<glyph glyph-name="e" unicode="e" horiz-adv-x="531" d="M493 209 C494 223 495 235 495 241 C495 369 397 468 269 468 C137 468 43 368 43 228 C43 90 137 -8 269 -8 C352 -8 430 38 464 107 L423 129 C392 75 331 39 268 39 C212 39 162 66 129 113 C109 142 101 165 97 209 L493 209 Z M99 256 C104 298 111 319 126 343 C155 392 209 421 268 421 C327 421 381 392 413 345 C430 318 437 296 440 256 L99 256 Z " />
<glyph glyph-name="f" unicode="f" horiz-adv-x="245" d="M140 413 L218 413 L218 460 L140 460 L140 541 C140 576 148 599 165 610 C175 617 186 620 218 625 L218 667 C210 668 204 668 200 668 C169 668 139 655 119 634 C99 612 90 583 90 541 L90 460 L21 460 L21 413 L90 413 L90 0 L140 0 L140 413 Z " />
<glyph glyph-name="g" unicode="g" horiz-adv-x="560" d="M427 370 C377 440 328 468 256 468 C198 468 151 451 116 416 C70 373 43 302 43 229 C43 94 134 -8 253 -8 C294 -8 337 6 368 29 C390 46 403 62 427 101 L427 -22 C427 -75 416 -111 392 -137 C363 -167 313 -186 261 -186 C220 -186 174 -174 149 -158 C136 -150 126 -141 105 -118 L67 -155 C110 -208 175 -235 258 -235 C395 -235 477 -155 477 -22 L477 460 L427 460 L427 370 Z M263 421 C310 421 358 398 389 362 C416 329 425 297 425 233 C425 181 410 128 388 101 C354 62 307 39 260 39 C165 39 95 121 95 232 C95 343 164 421 263 421 L263 421 Z " />
<glyph glyph-name="h" unicode="h" horiz-adv-x="497" d="M133 667 L83 667 L83 0 L133 0 L133 267 C133 315 141 341 166 371 C193 403 231 421 272 421 C334 421 367 384 367 316 L367 0 L417 0 L417 312 C417 368 407 403 384 427 C361 452 318 468 278 468 C221 468 176 443 133 389 L133 667 Z " />
<glyph glyph-name="i" unicode="i" horiz-adv-x="217" d="M133 460 L83 460 L83 0 L133 0 L133 460 Z M109 626 C88 626 71 609 71 588 C71 568 88 551 109 551 C129 551 146 568 146 588 C146 609 130 626 109 626 L109 626 Z " />
<glyph glyph-name="j" unicode="j" horiz-adv-x="217" d="M133 460 L83 460 L83 -65 C83 -136 42 -186 -16 -186 L-22 -186 L-22 -234 L-7 -234 C32 -234 71 -217 97 -187 C123 -157 133 -124 133 -65 L133 460 Z M109 626 C88 626 71 609 71 588 C71 568 88 551 109 551 C129 551 146 568 146 588 C146 609 130 626 109 626 L109 626 Z " />
<glyph glyph-name="k" unicode="k" horiz-adv-x="428" d="M133 213 L345 0 L414 0 L185 233 L414 460 L346 460 L133 245 L133 667 L83 667 L83 0 L133 0 L133 213 Z " />
<glyph glyph-name="l" unicode="l" horiz-adv-x="217" d="M133 0 L133 667 L83 667 L83 0 L133 0 Z " />
<glyph glyph-name="m" unicode="m" horiz-adv-x="761" d="M84 460 L84 0 L133 0 L133 276 C133 365 180 421 256 421 C290 421 315 411 333 390 C351 368 357 339 357 276 L357 0 L407 0 L407 276 C407 370 449 421 525 421 C568 421 602 405 617 378 C631 355 631 352 631 276 L631 0 L681 0 L681 291 C681 366 677 388 658 417 C635 450 593 468 538 468 C467 468 424 443 389 381 C377 413 368 427 352 440 C330 458 299 468 265 468 C210 468 171 446 133 393 L133 460 L84 460 Z " />
<glyph glyph-name="n" unicode="n" horiz-adv-x="497" d="M83 460 L83 0 L133 0 L133 282 C133 326 142 350 170 379 C197 407 231 421 270 421 C304 421 333 409 348 390 C362 372 367 346 367 298 L367 0 L417 0 L417 320 C417 376 407 406 378 432 C353 455 317 468 276 468 C220 468 177 445 133 391 L133 460 L83 460 Z " />
<glyph glyph-name="o" unicode="o" horiz-adv-x="537" d="M270 468 C210 468 152 446 110 406 C65 364 43 307 43 232 C43 168 61 110 93 72 C135 22 200 -8 267 -8 C395 -8 495 96 495 230 C495 295 479 344 444 387 C401 439 339 468 270 468 L270 468 Z M270 421 C314 421 360 402 391 372 C426 338 443 292 443 230 C443 119 370 39 269 39 C165 39 95 116 95 229 C95 344 165 421 270 421 L270 421 Z " />
<glyph glyph-name="p" unicode="p" horiz-adv-x="559" d="M83 460 L83 -220 L133 -220 L133 83 C161 46 176 32 207 16 C238 0 272 -8 307 -8 C433 -8 517 91 517 238 C517 377 434 468 309 468 C228 468 180 439 133 362 L133 460 L83 460 Z M303 421 C347 421 392 401 421 369 C451 336 464 294 464 233 C464 116 399 39 300 39 C200 39 133 113 133 222 C133 341 201 421 303 421 L303 421 Z " />
<glyph glyph-name="q" unicode="q" horiz-adv-x="556" d="M423 460 L423 368 C381 437 330 468 257 468 C127 468 43 377 43 234 C43 167 59 109 87 72 C126 22 187 -8 252 -8 C324 -8 376 22 423 91 L423 -220 L473 -220 L473 460 L423 460 Z M259 421 C300 421 343 402 373 372 C404 338 420 291 420 227 C420 114 355 39 257 39 C161 39 95 116 95 229 C95 343 162 421 259 421 L259 421 Z " />
<glyph glyph-name="r" unicode="r" horiz-adv-x="309" d="M83 460 L83 0 L133 0 L133 240 C133 306 145 343 178 379 C203 406 233 418 272 419 L289 419 L289 468 L269 468 C235 468 200 457 176 438 C158 423 148 410 133 377 L133 460 L83 460 Z " />
<glyph glyph-name="s" unicode="s" horiz-adv-x="407" d="M356 339 C352 420 295 468 202 468 C111 468 48 417 48 342 C48 309 63 276 87 255 C110 234 139 221 193 208 C277 188 308 163 308 117 C308 69 267 37 205 37 C136 37 93 71 89 128 L38 128 C48 37 103 -8 203 -8 C298 -8 360 42 360 117 C360 149 346 182 324 204 C301 228 271 242 209 257 C124 278 100 297 100 345 C100 392 139 422 201 422 C266 422 304 392 304 339 L356 339 Z " />
<glyph glyph-name="t" unicode="t" horiz-adv-x="247" d="M137 413 L212 413 L212 460 L137 460 L137 615 L87 615 L87 460 L17 460 L17 413 L87 413 L87 63 C87 18 108 0 158 0 L212 0 L212 45 L170 45 C143 45 137 50 137 72 L137 413 Z " />
<glyph glyph-name="u" unicode="u" horiz-adv-x="470" d="M352 460 L352 163 C352 120 345 97 327 77 C306 54 270 39 235 39 C165 39 118 89 118 163 L118 460 L68 460 L68 163 C68 60 135 -8 236 -8 C283 -8 327 10 359 41 C391 71 402 103 402 163 L402 460 L352 460 Z " />
<glyph glyph-name="v" unicode="v" horiz-adv-x="419" d="M358 460 L208 68 L62 460 L10 460 L180 0 L234 0 L409 460 L358 460 Z " />
<glyph glyph-name="w" unicode="w" horiz-adv-x="673" d="M612 460 L477 91 L362 460 L312 460 L192 91 L61 460 L10 460 L172 0 L212 0 L337 384 L456 0 L493 0 L663 460 L612 460 Z " />
<glyph glyph-name="x" unicode="x" horiz-adv-x="428" d="M213 189 L350 0 L411 0 L244 228 L422 460 L361 460 L213 267 L70 460 L7 460 L181 228 L7 0 L70 0 L213 189 Z " />
<glyph glyph-name="y" unicode="y" horiz-adv-x="422" d="M202 84 L63 460 L10 460 L175 17 L74 -228 L129 -228 L412 460 L356 460 L202 84 Z " />
<glyph glyph-name="z" unicode="z" horiz-adv-x="391" d="M116 47 L376 460 L55 460 L55 413 L288 413 L25 0 L345 0 L345 47 L116 47 Z " />
<glyph glyph-name="braceleft" unicode="&#x7b;" horiz-adv-x="500" d="M261 539 C261 609 284 632 355 636 L355 682 L345 682 C245 682 208 646 208 548 L208 364 C208 307 193 281 150 268 L150 229 C194 215 208 191 208 131 L208 -35 C208 -151 240 -185 347 -185 L355 -185 L355 -141 C283 -138 261 -115 261 -39 L261 134 C261 197 247 228 207 248 C248 268 261 295 261 358 L261 539 Z " />
<glyph glyph-name="bar" unicode="&#x7c;" horiz-adv-x="500" d="M223 667 L223 -167 L276 -167 L276 667 L223 667 Z " />
<glyph glyph-name="braceright" unicode="&#x7d;" horiz-adv-x="500" d="M239 -42 C239 -112 216 -135 145 -139 L145 -185 L155 -185 C255 -185 292 -149 292 -51 L292 133 C292 190 307 215 350 229 L350 268 C306 283 292 306 292 366 L292 532 C292 647 260 682 153 682 L145 682 L145 638 C216 636 239 611 239 535 L239 363 C239 300 253 269 293 249 C253 229 239 201 239 139 L239 -42 Z " />
<glyph glyph-name="asciitilde" unicode="&#x7e;" horiz-adv-x="667" d="M126 590 C159 647 186 670 224 670 C246 670 271 662 309 642 C392 598 408 592 437 592 C493 592 540 628 572 696 L541 720 C509 662 481 640 442 640 C417 640 400 646 343 676 C286 707 254 718 226 718 C173 718 130 684 95 614 L126 590 Z " />
<glyph glyph-name="uni00A0" unicode="&#xa0;" horiz-adv-x="300" d="" />
<glyph glyph-name="exclamdown" unicode="&#xa1;" horiz-adv-x="242" d="M95 -203 L147 -203 L147 327 L95 327 L95 -203 Z M121 469 C98 469 80 451 80 429 C80 405 97 387 121 387 C144 387 162 404 162 428 C162 451 144 469 121 469 L121 469 Z " />
<glyph glyph-name="cent" unicode="&#xa2;" horiz-adv-x="500" d="M292 523 C331 521 370 501 406 467 L437 500 C407 539 347 568 292 570 L292 651 L254 651 L254 570 C203 561 176 551 145 528 C89 485 56 411 56 325 C56 196 124 115 254 93 L254 16 L292 16 L292 93 C358 100 394 117 437 160 L406 195 C373 159 333 140 292 140 L292 523 Z M254 140 C162 152 106 225 106 332 C106 438 160 509 254 523 L254 140 Z " />
<glyph glyph-name="sterling" unicode="&#xa3;" horiz-adv-x="500" d="M201 357 C153 412 133 452 133 492 C133 560 191 616 260 616 C325 616 385 569 385 518 L385 505 L437 505 C436 548 429 572 410 597 C378 640 324 665 267 665 C160 665 78 588 78 487 C78 438 90 410 133 357 L61 357 L61 314 L171 314 C217 268 232 241 232 205 C232 167 215 138 171 105 C110 111 59 62 61 0 L115 0 C116 35 133 54 165 54 C185 54 199 49 249 26 C305 0 328 -8 351 -8 C384 -8 422 14 442 43 C455 61 459 77 462 105 L408 105 C406 68 386 47 354 47 C337 47 319 53 280 71 C246 87 245 88 228 93 C268 135 286 170 286 210 C286 248 272 277 236 314 L356 314 L356 357 L201 357 Z " />
<glyph glyph-name="currency" unicode="&#xa4;" horiz-adv-x="679" d="M77 109 L107 79 L197 170 C249 132 292 117 342 117 C394 117 441 134 485 170 L576 79 L605 109 L515 200 C552 251 566 290 566 341 C566 394 550 437 514 485 L605 575 L575 605 L483 514 C432 553 392 568 340 568 C287 568 248 553 195 514 L104 605 L74 575 L166 484 C128 432 114 394 114 343 C114 291 131 244 165 200 L77 109 Z M342 522 C438 522 517 440 517 342 C517 244 438 164 340 164 C242 164 163 244 163 342 C163 443 242 522 342 522 L342 522 Z " />
<glyph glyph-name="yen" unicode="&#xa5;" horiz-adv-x="500" d="M155 420 L51 420 L51 377 L178 377 L225 287 L225 280 L71 280 L71 237 L225 237 L225 0 L278 0 L278 237 L428 237 L428 280 L278 280 L278 287 L325 377 L448 377 L448 420 L347 420 L468 653 L404 653 L252 348 L94 653 L31 653 L155 420 Z " />
<glyph glyph-name="brokenbar" unicode="&#xa6;" horiz-adv-x="500" d="M223 667 L223 338 L276 338 L276 667 L223 667 Z M223 153 L223 -167 L276 -167 L276 153 L223 153 Z " />
<glyph glyph-name="section" unicode="&#xa7;" horiz-adv-x="500" d="M412 543 C407 625 342 681 254 681 C172 681 107 619 107 540 C107 485 135 437 183 412 C102 382 62 323 62 236 C62 149 114 89 210 65 C283 47 295 42 320 19 C344 -2 354 -24 354 -52 C354 -115 306 -160 241 -160 C164 -160 116 -111 112 -30 L61 -30 L61 -44 C61 -79 78 -120 106 -151 C139 -188 183 -207 239 -207 C336 -207 405 -141 405 -49 C405 4 386 37 329 79 C401 111 437 164 437 238 C437 327 386 392 292 422 C208 449 208 449 185 470 C167 488 156 513 156 538 C156 592 200 633 258 633 C314 633 355 597 360 543 L412 543 Z M251 376 C284 376 325 357 352 331 C375 308 387 277 387 243 C387 162 331 107 250 107 C169 107 113 162 113 243 C113 277 125 308 148 331 C177 359 216 376 251 376 L251 376 Z " />
<glyph glyph-name="dieresis" unicode="&#xa8;" horiz-adv-x="500" d="M154 623 C132 623 117 608 117 586 C117 565 132 550 154 550 C174 550 190 565 190 586 C190 608 175 623 154 623 L154 623 Z M347 623 C325 623 310 608 310 586 C310 565 325 550 347 550 C367 550 383 565 383 586 C383 608 368 623 347 623 L347 623 Z " />
<glyph glyph-name="copyright" unicode="&#xa9;" horiz-adv-x="787" d="M548 296 C538 212 481 162 398 162 C306 162 244 231 244 334 C244 437 307 507 400 507 C474 507 527 468 542 404 L573 404 C564 483 492 540 400 540 C285 540 206 456 206 334 C206 212 284 129 398 129 C499 129 572 196 580 296 L548 296 Z M398 678 C204 678 50 526 50 333 C50 143 205 -11 394 -11 C584 -11 738 143 738 333 C738 522 584 678 398 678 L398 678 Z M398 648 C566 648 705 505 705 334 C705 160 566 19 394 19 C223 19 83 160 83 333 C83 509 222 648 398 648 L398 648 Z " />
<glyph glyph-name="ordfeminine" unicode="&#xaa;" horiz-adv-x="365" d="M269 503 C244 534 208 550 166 550 C87 550 31 490 31 406 C31 322 87 262 167 262 C208 262 242 281 269 317 L269 267 L308 267 L308 545 L269 545 L269 503 Z M169 515 C229 515 270 473 270 410 C270 348 224 297 167 297 C112 297 71 343 71 404 C71 470 110 515 169 515 L169 515 Z " />
<glyph glyph-name="guillemotleft" unicode="&#xab;" horiz-adv-x="412" d="M95 234 L199 406 L151 406 L47 234 L151 69 L199 69 L95 234 Z M255 234 L359 406 L311 406 L207 234 L311 69 L359 69 L255 234 Z " />
<glyph glyph-name="logicalnot" unicode="&#xac;" horiz-adv-x="500" d="M414 0 L466 0 L466 273 L33 273 L33 226 L414 226 L414 0 Z " />
<glyph glyph-name="uni00AD" unicode="&#xad;" horiz-adv-x="200" d="M200 265 L0 265 L0 218 L200 218 L200 265 Z " />
<glyph glyph-name="registered" unicode="&#xae;" horiz-adv-x="787" d="M246 527 L246 131 L283 131 L283 308 L395 308 C436 308 461 303 479 292 C500 278 505 263 508 203 C510 152 512 140 518 131 L556 131 C548 146 547 151 544 197 C543 282 530 306 476 322 C524 339 550 373 550 419 C550 489 501 527 412 527 L246 527 Z M283 499 L405 499 C478 499 512 473 512 418 C512 362 473 335 395 335 L283 335 L283 499 Z M398 678 C203 678 50 526 50 333 C50 143 205 -11 394 -11 C584 -11 738 143 738 333 C738 522 584 678 398 678 L398 678 Z M398 648 C566 648 705 505 705 333 C705 160 566 19 394 19 C223 19 83 160 83 333 C83 509 221 648 398 648 L398 648 Z " />
<glyph glyph-name="macron" unicode="&#xaf;" horiz-adv-x="500" d="M384 609 L117 609 L117 568 L384 568 L384 609 Z " />
<glyph glyph-name="degree" unicode="&#xb0;" horiz-adv-x="500" d="M251 661 C175 661 114 601 114 525 C114 449 175 388 251 388 C325 388 386 449 386 524 C386 600 326 661 251 661 L251 661 Z M249 632 C309 632 356 584 356 522 C356 465 307 417 250 417 C192 417 144 466 144 525 C144 583 192 632 249 632 L249 632 Z " />
<glyph glyph-name="plusminus" unicode="&#xb1;" horiz-adv-x="500" d="M27 365 L27 333 L233 333 L233 144 L266 144 L266 333 L472 333 L472 365 L266 365 L266 556 L233 556 L233 365 L27 365 Z M27 99 L27 67 L472 67 L472 99 L27 99 Z " />
<glyph glyph-name="twosuperior" unicode="&#xb2;" horiz-adv-x="327" d="M110 300 L233 461 C268 506 279 531 279 564 C279 621 232 661 165 661 C92 661 54 624 50 547 L91 547 C92 601 113 624 162 624 C207 624 238 599 238 563 C238 537 228 518 180 456 L32 261 L266 261 L266 300 L110 300 Z " />
<glyph glyph-name="threesuperior" unicode="&#xb3;" horiz-adv-x="327" d="M207 614 L78 465 L89 452 C114 465 125 468 146 468 C208 468 249 433 249 382 C249 332 205 293 149 293 C106 293 76 315 60 358 L22 346 C40 288 86 255 151 255 C232 255 292 310 292 385 C292 454 238 507 167 507 L292 653 L54 653 L54 614 L207 614 Z " />
<glyph glyph-name="acute" unicode="&#xb4;" horiz-adv-x="500" d="M303 653 L221 525 L263 525 L373 653 L303 653 Z " />
<glyph glyph-name="mu" unicode="&#xb5;" horiz-adv-x="500" d="M58 -164 L105 -164 L105 65 C140 9 181 -14 242 -14 C315 -14 364 23 395 101 L395 0 L442 0 L442 480 L395 480 L395 212 C395 103 333 27 243 27 C205 27 169 42 143 68 C113 98 105 128 105 201 L105 480 L58 480 L58 -164 Z " />
<glyph glyph-name="paragraph" unicode="&#xb6;" horiz-adv-x="500" d="M239 -105 L286 -105 L286 634 L367 634 L367 -105 L414 -105 L414 667 L244 667 C195 667 152 658 122 640 C72 611 40 552 40 487 C40 382 114 310 223 309 L239 309 L239 -105 Z " />
<glyph glyph-name="periodcentered" unicode="&#xb7;" horiz-adv-x="215" d="M108 283 C85 283 67 266 67 242 C67 219 85 201 108 201 C131 201 149 219 149 241 C149 265 132 283 108 283 L108 283 Z " />
<glyph glyph-name="cedilla" unicode="&#xb8;" horiz-adv-x="500" d="M197 -216 C261 -178 290 -145 326 -67 L276 -49 C259 -114 231 -152 175 -187 L197 -216 Z " />
<glyph glyph-name="onesuperior" unicode="&#xb9;" horiz-adv-x="327" d="M173 594 L173 261 L214 261 L214 665 L73 567 L73 526 L173 594 Z " />
<glyph glyph-name="ordmasculine" unicode="&#xba;" horiz-adv-x="350" d="M176 550 C90 550 31 492 31 407 C31 321 90 262 174 262 C255 262 319 325 319 406 C319 490 260 550 176 550 L176 550 Z M176 515 C237 515 279 471 279 406 C279 342 236 297 175 297 C113 297 71 341 71 405 C71 471 113 515 176 515 L176 515 Z " />
<glyph glyph-name="guillemotright" unicode="&#xbb;" horiz-adv-x="412" d="M317 248 L213 76 L261 76 L365 248 L261 412 L213 412 L317 248 Z M157 248 L53 76 L101 76 L205 248 L101 412 L53 412 L157 248 Z " />
<glyph glyph-name="onequarter" unicode="&#xbc;" horiz-adv-x="776" d="M173 594 L173 261 L214 261 L214 665 L73 567 L73 526 L173 594 Z M636 646 L607 667 L140 8 L170 -13 L636 646 Z M651 93 L651 0 L692 0 L692 93 L746 93 L746 132 L692 132 L692 416 L479 121 L479 93 L651 93 Z M651 132 L529 132 L651 300 L651 132 Z " />
<glyph glyph-name="onehalf" unicode="&#xbd;" horiz-adv-x="776" d="M173 594 L173 261 L214 261 L214 665 L73 567 L73 526 L173 594 Z M636 646 L607 667 L140 8 L170 -13 L636 646 Z M559 39 L682 199 C717 244 728 270 728 302 C728 359 681 399 614 399 C541 399 503 362 499 285 L540 285 C541 339 562 362 611 362 C656 362 687 337 687 301 C687 275 677 257 629 194 L481 0 L715 0 L715 39 L559 39 Z " />
<glyph glyph-name="threequarters" unicode="&#xbe;" horiz-adv-x="776" d="M207 614 L78 465 L89 452 C114 465 125 468 146 468 C208 468 249 433 249 382 C249 332 205 293 149 293 C106 293 76 315 60 358 L22 346 C40 288 86 255 151 255 C232 255 292 310 292 385 C292 454 238 507 167 507 L292 653 L54 653 L54 614 L207 614 Z M636 646 L606 667 L140 8 L169 -13 L636 646 Z M651 93 L651 0 L692 0 L692 93 L746 93 L746 132 L692 132 L692 416 L479 121 L479 93 L651 93 Z M651 132 L529 132 L651 300 L651 132 Z " />
<glyph glyph-name="questiondown" unicode="&#xbf;" horiz-adv-x="415" d="M218 325 L218 272 C218 194 210 175 155 134 C79 76 50 28 50 -39 C50 -136 123 -209 220 -209 C315 -209 376 -144 376 -42 L326 -42 C327 -50 327 -56 327 -59 C327 -117 279 -162 217 -162 C151 -162 102 -109 102 -36 C102 18 120 48 183 96 C251 149 265 175 264 256 L264 288 L265 325 L218 325 Z M239 469 C216 469 198 451 198 429 C198 405 215 387 239 387 C262 387 280 404 280 428 C280 451 262 469 239 469 L239 469 Z " />
<glyph glyph-name="Agrave" unicode="&#xc0;" horiz-adv-x="592" d="M457 175 L522 0 L585 0 L331 667 L269 667 L7 0 L64 0 L135 175 L457 175 Z M437 227 L156 227 L298 591 L437 227 Z M242 845 L171 845 L282 715 L328 715 L242 845 Z " />
<glyph glyph-name="Aacute" unicode="&#xc1;" horiz-adv-x="592" d="M457 175 L522 0 L585 0 L331 667 L269 667 L7 0 L64 0 L135 175 L457 175 Z M437 227 L156 227 L298 591 L437 227 Z M350 845 L264 715 L310 715 L421 845 L350 845 Z " />
<glyph glyph-name="Acircumflex" unicode="&#xc2;" horiz-adv-x="592" d="M457 175 L522 0 L585 0 L331 667 L269 667 L7 0 L64 0 L135 175 L457 175 Z M437 227 L156 227 L298 591 L437 227 Z M296 805 L370 715 L424 715 L321 847 L275 847 L169 715 L223 715 L296 805 Z " />
<glyph glyph-name="Atilde" unicode="&#xc3;" horiz-adv-x="592" d="M457 175 L522 0 L585 0 L331 667 L269 667 L7 0 L64 0 L135 175 L457 175 Z M437 227 L156 227 L298 591 L437 227 Z M416 824 C401 794 382 777 363 777 C354 777 335 785 313 797 C274 819 259 825 240 825 C207 825 185 807 151 749 L190 727 C205 759 222 774 245 774 C255 774 273 767 292 756 C329 733 341 729 361 729 C394 729 421 749 455 797 L416 824 Z " />
<glyph glyph-name="Adieresis" unicode="&#xc4;" horiz-adv-x="592" d="M457 175 L522 0 L585 0 L331 667 L269 667 L7 0 L64 0 L135 175 L457 175 Z M437 227 L156 227 L298 591 L437 227 Z M197 821 C173 821 155 803 155 779 C155 756 173 738 197 738 C220 738 238 756 238 779 C238 803 220 821 197 821 L197 821 Z M397 821 C373 821 355 803 355 779 C355 756 373 738 397 738 C420 738 438 756 438 779 C438 803 420 821 397 821 L397 821 Z " />
<glyph glyph-name="Aring" unicode="&#xc5;" horiz-adv-x="592" d="M457 175 L522 0 L585 0 L331 667 L269 667 L7 0 L64 0 L135 175 L457 175 Z M437 227 L156 227 L298 591 L437 227 Z M297 857 C255 857 223 825 223 784 C223 742 255 710 297 710 C337 710 370 742 370 782 C370 825 338 857 297 857 L297 857 Z M297 832 C325 832 345 811 345 783 C345 756 324 735 297 735 C269 735 248 756 248 784 C248 812 269 832 297 832 L297 832 Z " />
<glyph glyph-name="AE" unicode="&#xc6;" horiz-adv-x="793" d="M466 312 L742 312 L742 363 L466 363 L466 616 L742 616 L742 667 L376 667 L-4 0 L56 0 L160 185 L409 185 L409 0 L742 0 L742 51 L466 51 L466 312 Z M409 236 L189 236 L409 629 L409 236 Z " />
<glyph glyph-name="Ccedilla" unicode="&#xc7;" horiz-adv-x="628" d="M559 144 C501 71 442 40 363 40 C215 40 106 163 106 332 C106 502 214 627 360 627 C407 627 456 612 494 586 C514 572 529 559 559 526 L601 560 C536 641 458 679 360 679 C180 679 47 532 47 333 C47 240 80 148 135 85 C191 22 270 -12 361 -12 C417 -12 473 2 518 29 C552 49 571 66 601 107 L559 144 Z M287 -207 C343 -169 378 -127 395 -77 L339 -56 C325 -110 304 -141 254 -180 L287 -207 Z " />
<glyph glyph-name="Egrave" unicode="&#xc8;" horiz-adv-x="478" d="M147 616 L425 616 L425 667 L90 667 L90 0 L425 0 L425 51 L147 51 L147 312 L425 312 L425 363 L147 363 L147 616 Z M185 845 L114 845 L225 715 L271 715 L185 845 Z " />
<glyph glyph-name="Eacute" unicode="&#xc9;" horiz-adv-x="478" d="M147 616 L425 616 L425 667 L90 667 L90 0 L425 0 L425 51 L147 51 L147 312 L425 312 L425 363 L147 363 L147 616 Z M293 845 L207 715 L253 715 L364 845 L293 845 Z " />
<glyph glyph-name="Ecircumflex" unicode="&#xca;" horiz-adv-x="478" d="M147 616 L425 616 L425 667 L90 667 L90 0 L425 0 L425 51 L147 51 L147 312 L425 312 L425 363 L147 363 L147 616 Z M239 805 L313 715 L367 715 L264 847 L218 847 L112 715 L166 715 L239 805 Z " />
<glyph glyph-name="Edieresis" unicode="&#xcb;" horiz-adv-x="478" d="M147 616 L425 616 L425 667 L90 667 L90 0 L425 0 L425 51 L147 51 L147 312 L425 312 L425 363 L147 363 L147 616 Z M140 821 C116 821 98 803 98 779 C98 756 116 738 139 738 C163 738 181 756 181 779 C181 803 163 821 140 821 L140 821 Z M340 821 C316 821 298 803 298 779 C298 756 316 738 340 738 C363 738 381 756 381 779 C381 803 363 821 340 821 L340 821 Z " />
<glyph glyph-name="Igrave" unicode="&#xcc;" horiz-adv-x="237" d="M146 667 L89 667 L89 0 L146 0 L146 667 Z M64 845 L-7 845 L104 715 L150 715 L64 845 Z " />
<glyph glyph-name="Iacute" unicode="&#xcd;" horiz-adv-x="237" d="M147 667 L90 667 L90 0 L147 0 L147 667 Z M173 845 L87 715 L133 715 L244 845 L173 845 Z " />
<glyph glyph-name="Icircumflex" unicode="&#xce;" horiz-adv-x="237" d="M147 667 L90 667 L90 0 L147 0 L147 667 Z M119 805 L193 715 L246 715 L143 847 L97 847 L-9 715 L46 715 L119 805 Z " />
<glyph glyph-name="Idieresis" unicode="&#xcf;" horiz-adv-x="237" d="M147 667 L90 667 L90 0 L147 0 L147 667 Z M52 821 C28 821 10 803 10 779 C10 756 28 738 51 738 C75 738 93 756 93 779 C93 803 75 821 52 821 L52 821 Z M185 821 C161 821 143 803 143 779 C143 756 161 738 185 738 C208 738 226 756 226 779 C226 803 208 821 185 821 L185 821 Z " />
<glyph glyph-name="Eth" unicode="&#xd0;" horiz-adv-x="618" d="M90 363 L10 363 L10 316 L90 316 L90 0 L234 0 C445 0 570 129 570 347 C570 543 450 667 261 667 L90 667 L90 363 Z M147 363 L147 616 L258 616 C422 616 512 521 512 347 C512 234 480 153 414 103 C362 62 311 51 178 51 L147 51 L147 316 L332 316 L332 363 L147 363 Z " />
<glyph glyph-name="Ntilde" unicode="&#xd1;" horiz-adv-x="679" d="M147 555 L546 0 L589 0 L589 667 L532 667 L532 120 L137 667 L90 667 L90 0 L147 0 L147 555 Z M459 824 C445 794 425 777 406 777 C398 777 378 785 356 797 C317 819 302 825 283 825 C250 825 229 807 194 749 L233 727 C248 759 265 774 288 774 C299 774 316 767 335 756 C372 733 384 729 404 729 C437 729 464 749 499 797 L459 824 Z " />
<glyph glyph-name="Ograve" unicode="&#xd2;" horiz-adv-x="731" d="M367 679 C286 679 205 645 145 586 C80 522 47 436 47 330 C47 246 70 170 111 116 C171 37 268 -12 365 -12 C438 -12 512 16 572 66 C644 126 683 218 683 325 C683 426 659 503 609 562 C546 636 457 679 367 679 L367 679 Z M366 627 C429 627 497 598 545 551 C600 497 625 427 625 329 C625 253 597 173 556 126 C507 72 436 40 364 40 C213 40 105 163 105 334 C105 503 216 627 366 627 L366 627 Z M311 845 L240 845 L351 715 L397 715 L311 845 Z " />
<glyph glyph-name="Oacute" unicode="&#xd3;" horiz-adv-x="731" d="M367 679 C286 679 205 645 145 586 C80 522 47 436 47 330 C47 246 70 170 111 116 C171 37 268 -12 365 -12 C438 -12 512 16 572 66 C644 126 683 218 683 325 C683 426 659 503 609 562 C546 636 457 679 367 679 L367 679 Z M366 627 C429 627 497 598 545 551 C600 497 625 427 625 329 C625 253 597 173 556 126 C507 72 436 40 364 40 C213 40 105 163 105 334 C105 503 216 627 366 627 L366 627 Z M419 845 L333 715 L379 715 L490 845 L419 845 Z " />
<glyph glyph-name="Ocircumflex" unicode="&#xd4;" horiz-adv-x="731" d="M367 679 C286 679 205 645 145 586 C80 522 47 436 47 330 C47 246 70 170 111 116 C171 37 268 -12 365 -12 C438 -12 512 16 572 66 C644 126 683 218 683 325 C683 426 659 503 609 562 C546 636 457 679 367 679 L367 679 Z M366 627 C429 627 497 598 545 551 C600 497 625 427 625 329 C625 253 597 173 556 126 C507 72 436 40 364 40 C213 40 105 163 105 334 C105 503 216 627 366 627 L366 627 Z M365 805 L439 715 L493 715 L390 847 L344 847 L238 715 L292 715 L365 805 Z " />
<glyph glyph-name="Otilde" unicode="&#xd5;" horiz-adv-x="731" d="M367 679 C286 679 205 645 145 586 C80 522 47 436 47 330 C47 246 70 170 111 116 C171 37 268 -12 365 -12 C438 -12 512 16 572 66 C644 126 683 218 683 325 C683 426 659 503 609 562 C546 636 457 679 367 679 L367 679 Z M366 627 C429 627 497 598 545 551 C600 497 625 427 625 329 C625 253 597 173 556 126 C507 72 436 40 364 40 C213 40 105 163 105 334 C105 503 216 627 366 627 L366 627 Z M485 824 C470 794 451 777 432 777 C423 777 404 785 382 797 C343 819 328 825 309 825 C276 825 254 807 219 749 L259 727 C274 759 291 774 314 774 C324 774 342 767 361 756 C398 733 409 729 430 729 C462 729 490 749 524 797 L485 824 Z " />
<glyph glyph-name="Odieresis" unicode="&#xd6;" horiz-adv-x="731" d="M367 679 C286 679 205 645 145 586 C80 522 47 436 47 330 C47 246 70 170 111 116 C171 37 268 -12 365 -12 C438 -12 512 16 572 66 C644 126 683 218 683 325 C683 426 659 503 609 562 C546 636 457 679 367 679 L367 679 Z M366 627 C429 627 497 598 545 551 C600 497 625 427 625 329 C625 253 597 173 556 126 C507 72 436 40 364 40 C213 40 105 163 105 334 C105 503 216 627 366 627 L366 627 Z M266 821 C242 821 224 803 224 779 C224 756 242 738 266 738 C289 738 307 756 307 779 C307 803 289 821 266 821 L266 821 Z M466 821 C442 821 424 803 424 779 C424 756 442 738 466 738 C489 738 507 756 507 779 C507 803 489 821 466 821 L466 821 Z " />
<glyph glyph-name="multiply" unicode="&#xd7;" horiz-adv-x="500" d="M88 519 L66 496 L227 335 L65 173 L88 150 L250 312 L411 151 L434 173 L272 335 L434 496 L411 519 L249 358 L88 519 Z " />
<glyph glyph-name="Oslash" unicode="&#xd8;" horiz-adv-x="728" d="M153 73 C228 10 281 -12 362 -12 C446 -12 526 21 586 81 C648 142 681 230 681 335 C681 431 660 492 601 571 L673 651 L648 672 L578 595 C512 651 441 679 365 679 C280 679 196 642 134 576 C76 514 47 433 47 330 C47 232 69 169 130 96 L53 10 L77 -12 L153 73 Z M564 529 C607 467 622 417 622 337 C622 161 516 40 361 40 C297 40 243 63 189 113 L564 529 Z M166 137 C123 197 105 254 105 334 C105 505 213 627 366 627 C428 627 486 603 542 554 L166 137 Z " />
<glyph glyph-name="Ugrave" unicode="&#xd9;" horiz-adv-x="635" d="M134 667 L77 667 L77 267 C77 162 88 120 128 72 C173 18 242 -12 318 -12 C393 -12 459 16 503 67 C545 116 559 165 559 267 L559 667 L499 667 L499 270 C499 166 488 130 445 90 C411 60 359 40 315 40 C271 40 217 60 186 88 C148 122 134 170 134 267 L134 667 Z M264 845 L193 845 L304 715 L350 715 L264 845 Z " />
<glyph glyph-name="Uacute" unicode="&#xda;" horiz-adv-x="635" d="M134 667 L77 667 L77 267 C77 162 88 120 128 72 C173 18 242 -12 318 -12 C393 -12 459 16 503 67 C545 116 559 165 559 267 L559 667 L499 667 L499 270 C499 166 488 130 445 90 C411 60 359 40 315 40 C271 40 217 60 186 88 C148 122 134 170 134 267 L134 667 Z M372 845 L286 715 L332 715 L443 845 L372 845 Z " />
<glyph glyph-name="Ucircumflex" unicode="&#xdb;" horiz-adv-x="635" d="M134 667 L77 667 L77 267 C77 162 88 120 128 72 C173 18 242 -12 318 -12 C393 -12 459 16 503 67 C545 116 559 165 559 267 L559 667 L499 667 L499 270 C499 166 488 130 445 90 C411 60 359 40 315 40 C271 40 217 60 186 88 C148 122 134 170 134 267 L134 667 Z M318 805 L392 715 L446 715 L343 847 L297 847 L191 715 L245 715 L318 805 Z " />
<glyph glyph-name="Udieresis" unicode="&#xdc;" horiz-adv-x="635" d="M134 667 L77 667 L77 267 C77 162 88 120 128 72 C173 18 242 -12 318 -12 C393 -12 459 16 503 67 C545 116 559 165 559 267 L559 667 L499 667 L499 270 C499 166 488 130 445 90 C411 60 359 40 315 40 C271 40 217 60 186 88 C148 122 134 170 134 267 L134 667 Z M219 821 C195 821 177 803 177 779 C177 756 195 738 219 738 C242 738 260 756 260 779 C260 803 242 821 219 821 L219 821 Z M419 821 C395 821 377 803 377 779 C377 756 395 738 419 738 C442 738 460 756 460 779 C460 803 442 821 419 821 L419 821 Z " />
<glyph glyph-name="Yacute" unicode="&#xdd;" horiz-adv-x="515" d="M288 293 L518 667 L451 667 L258 353 L64 667 L-3 667 L231 293 L231 0 L288 0 L288 293 Z M312 845 L226 715 L272 715 L383 845 L312 845 Z " />
<glyph glyph-name="Thorn" unicode="&#xde;" horiz-adv-x="519" d="M140 178 L253 178 C329 178 377 190 414 219 C461 255 487 313 487 379 C487 441 464 494 421 529 C381 561 323 577 244 577 L140 577 L140 667 L83 667 L83 0 L140 0 L140 178 Z M140 229 L140 526 L223 526 C271 526 300 523 329 515 C392 497 431 444 431 378 C431 314 393 259 334 241 C309 232 281 229 242 229 L140 229 Z " />
<glyph glyph-name="germandbls" unicode="&#xdf;" horiz-adv-x="476" d="M87 413 L87 0 L137 0 L137 520 C137 550 144 573 158 588 C175 608 209 621 242 621 C301 621 343 579 343 520 C343 484 327 448 301 429 C285 417 270 412 236 408 L236 356 C333 356 382 305 382 201 C382 105 333 38 261 38 C243 38 234 40 199 52 L181 11 C206 -3 223 -8 255 -8 C362 -8 434 78 434 205 C434 266 414 318 378 351 C358 370 340 378 301 387 C337 403 352 414 365 432 C383 455 395 494 395 524 C395 564 378 605 351 631 C326 656 290 668 243 668 C142 668 87 616 87 520 L87 460 L30 460 L30 413 L87 413 Z " />
<glyph glyph-name="agrave" unicode="&#xe0;" horiz-adv-x="561" d="M428 375 C384 438 328 468 255 468 C131 468 43 369 43 230 C43 91 132 -8 256 -8 C327 -8 382 27 428 102 L428 0 L478 0 L478 460 L428 460 L428 375 Z M259 421 C360 421 429 346 429 237 C429 128 352 39 256 39 C164 39 95 119 95 227 C95 277 110 326 136 362 C166 403 204 421 259 421 L259 421 Z M228 653 L158 653 L268 525 L310 525 L228 653 Z " />
<glyph glyph-name="aacute" unicode="&#xe1;" horiz-adv-x="561" d="M428 375 C384 438 328 468 255 468 C131 468 43 369 43 230 C43 91 132 -8 256 -8 C327 -8 382 27 428 102 L428 0 L478 0 L478 460 L428 460 L428 375 Z M259 421 C360 421 429 346 429 237 C429 128 352 39 256 39 C164 39 95 119 95 227 C95 277 110 326 136 362 C166 403 204 421 259 421 L259 421 Z M334 653 L251 525 L293 525 L403 653 L334 653 Z " />
<glyph glyph-name="acircumflex" unicode="&#xe2;" horiz-adv-x="561" d="M428 375 C384 438 328 468 255 468 C131 468 43 369 43 230 C43 91 132 -8 256 -8 C327 -8 382 27 428 102 L428 0 L478 0 L478 460 L428 460 L428 375 Z M259 421 C360 421 429 346 429 237 C429 128 352 39 256 39 C164 39 95 119 95 227 C95 277 110 326 136 362 C166 403 204 421 259 421 L259 421 Z M279 615 L355 525 L409 525 L305 655 L257 655 L152 525 L206 525 L279 615 Z " />
<glyph glyph-name="atilde" unicode="&#xe3;" horiz-adv-x="561" d="M428 375 C384 438 328 468 255 468 C131 468 43 369 43 230 C43 91 132 -8 256 -8 C327 -8 382 27 428 102 L428 0 L478 0 L478 460 L428 460 L428 375 Z M259 421 C360 421 429 346 429 237 C429 128 352 39 256 39 C164 39 95 119 95 227 C95 277 110 326 136 362 C166 403 204 421 259 421 L259 421 Z M404 631 C387 599 370 585 350 585 C339 585 334 587 320 596 C262 636 252 640 226 640 C197 640 166 619 136 579 L171 549 C188 578 204 591 226 591 C237 591 248 587 265 576 C320 541 329 537 349 537 C379 537 409 560 439 606 L404 631 Z " />
<glyph glyph-name="adieresis" unicode="&#xe4;" horiz-adv-x="561" d="M428 375 C384 438 328 468 255 468 C131 468 43 369 43 230 C43 91 132 -8 256 -8 C327 -8 382 27 428 102 L428 0 L478 0 L478 460 L428 460 L428 375 Z M259 421 C360 421 429 346 429 237 C429 128 352 39 256 39 C164 39 95 119 95 227 C95 277 110 326 136 362 C166 403 204 421 259 421 L259 421 Z M184 623 C162 623 147 608 147 586 C147 565 162 550 184 550 C204 550 220 565 220 586 C220 608 205 623 184 623 L184 623 Z M377 623 C355 623 340 608 340 586 C340 565 355 550 377 550 C397 550 413 565 413 586 C413 608 398 623 377 623 L377 623 Z " />
<glyph glyph-name="aring" unicode="&#xe5;" horiz-adv-x="561" d="M428 375 C384 438 328 468 255 468 C131 468 43 369 43 230 C43 91 132 -8 256 -8 C327 -8 382 27 428 102 L428 0 L478 0 L478 460 L428 460 L428 375 Z M259 421 C360 421 429 346 429 237 C429 128 352 39 256 39 C164 39 95 119 95 227 C95 277 110 326 136 362 C166 403 204 421 259 421 L259 421 Z M261 667 C219 667 187 635 187 594 C187 552 219 520 261 520 C301 520 334 552 334 592 C334 635 302 667 261 667 L261 667 Z M261 642 C289 642 309 621 309 593 C309 566 288 545 261 545 C233 545 212 566 212 594 C212 622 233 642 261 642 L261 642 Z " />
<glyph glyph-name="ae" unicode="&#xe6;" horiz-adv-x="917" d="M811 129 C793 103 783 92 765 78 C732 54 688 39 651 39 C603 39 554 63 522 100 C498 130 488 156 481 209 L880 209 C881 221 881 231 881 237 C881 283 868 326 843 367 C800 434 738 468 656 468 C617 468 582 460 551 443 C520 427 505 412 481 374 L481 460 L431 460 L431 374 C410 404 398 416 380 429 C346 453 299 468 255 468 C130 468 43 370 43 231 C43 90 131 -8 258 -8 C331 -8 388 28 431 100 L431 0 L481 0 L481 89 C517 23 571 -8 650 -8 C743 -8 811 31 851 107 L811 129 Z M481 256 C485 299 492 320 510 347 C541 393 596 421 655 421 C749 421 815 358 827 256 L481 256 Z M263 421 C363 421 432 345 432 235 C432 125 357 39 261 39 C165 39 95 119 95 226 C95 270 106 313 127 348 C156 398 199 421 263 421 L263 421 Z " />
<glyph glyph-name="ccedilla" unicode="&#xe7;" horiz-adv-x="451" d="M393 96 C355 57 313 39 261 39 C162 39 95 117 95 232 C95 344 164 421 265 421 C312 421 355 404 393 369 L424 403 C380 447 329 468 265 468 C135 468 43 370 43 230 C43 90 132 -8 260 -8 C326 -8 375 12 424 60 L393 96 Z M180 -216 C244 -178 274 -145 309 -67 L259 -49 C242 -114 214 -152 158 -187 L180 -216 Z " />
<glyph glyph-name="egrave" unicode="&#xe8;" horiz-adv-x="531" d="M493 209 C494 223 495 235 495 241 C495 369 397 468 269 468 C137 468 43 368 43 228 C43 90 137 -8 269 -8 C352 -8 430 38 464 107 L423 129 C392 75 331 39 268 39 C212 39 162 66 129 113 C109 142 101 165 97 209 L493 209 Z M99 256 C104 298 111 319 126 343 C155 392 209 421 268 421 C327 421 381 392 413 345 C430 318 437 296 440 256 L99 256 Z M213 653 L143 653 L253 525 L295 525 L213 653 Z " />
<glyph glyph-name="eacute" unicode="&#xe9;" horiz-adv-x="531" d="M493 209 C494 223 495 235 495 241 C495 369 397 468 269 468 C137 468 43 368 43 228 C43 90 137 -8 269 -8 C352 -8 430 38 464 107 L423 129 C392 75 331 39 268 39 C212 39 162 66 129 113 C109 142 101 165 97 209 L493 209 Z M99 256 C104 298 111 319 126 343 C155 392 209 421 268 421 C327 421 381 392 413 345 C430 318 437 296 440 256 L99 256 Z M319 653 L236 525 L279 525 L389 653 L319 653 Z " />
<glyph glyph-name="ecircumflex" unicode="&#xea;" horiz-adv-x="531" d="M493 209 C494 223 495 235 495 241 C495 369 397 468 269 468 C137 468 43 368 43 228 C43 90 137 -8 269 -8 C352 -8 430 38 464 107 L423 129 C392 75 331 39 268 39 C212 39 162 66 129 113 C109 142 101 165 97 209 L493 209 Z M99 256 C104 298 111 319 126 343 C155 392 209 421 268 421 C327 421 381 392 413 345 C430 318 437 296 440 256 L99 256 Z M265 615 L340 525 L394 525 L290 655 L242 655 L138 525 L191 525 L265 615 Z " />
<glyph glyph-name="edieresis" unicode="&#xeb;" horiz-adv-x="531" d="M493 209 C494 223 495 235 495 241 C495 369 397 468 269 468 C137 468 43 368 43 228 C43 90 137 -8 269 -8 C352 -8 430 38 464 107 L423 129 C392 75 331 39 268 39 C212 39 162 66 129 113 C109 142 101 165 97 209 L493 209 Z M99 256 C104 298 111 319 126 343 C155 392 209 421 268 421 C327 421 381 392 413 345 C430 318 437 296 440 256 L99 256 Z M170 623 C148 623 133 608 133 586 C133 565 148 550 170 550 C190 550 206 565 206 586 C206 608 191 623 170 623 L170 623 Z M363 623 C341 623 326 608 326 586 C326 565 341 550 363 550 C383 550 399 565 399 586 C399 608 384 623 363 623 L363 623 Z " />
<glyph glyph-name="igrave" unicode="&#xec;" horiz-adv-x="217" d="M134 460 L84 460 L84 0 L134 0 L134 460 Z M56 653 L-14 653 L96 525 L138 525 L56 653 Z " />
<glyph glyph-name="iacute" unicode="&#xed;" horiz-adv-x="217" d="M133 460 L83 460 L83 0 L133 0 L133 460 Z M161 653 L79 525 L121 525 L231 653 L161 653 Z " />
<glyph glyph-name="icircumflex" unicode="&#xee;" horiz-adv-x="217" d="M133 460 L83 460 L83 0 L133 0 L133 460 Z M107 615 L183 525 L237 525 L133 655 L84 655 L-20 525 L33 525 L107 615 Z " />
<glyph glyph-name="idieresis" unicode="&#xef;" horiz-adv-x="217" d="M133 460 L83 460 L83 0 L133 0 L133 460 Z M49 623 C27 623 12 608 12 586 C12 565 27 550 49 550 C69 550 85 565 85 586 C85 608 70 623 49 623 L49 623 Z M169 623 C147 623 132 608 132 586 C132 565 147 550 169 550 C189 550 205 565 205 586 C205 608 190 623 169 623 L169 623 Z " />
<glyph glyph-name="eth" unicode="&#xf0;" horiz-adv-x="538" d="M184 552 L202 519 L305 577 C345 537 387 473 403 426 C356 457 319 469 270 469 C209 469 150 445 106 403 C64 361 43 304 43 231 C43 91 136 -8 267 -8 C330 -8 389 17 431 61 C474 106 496 171 496 252 C496 374 441 501 347 599 L439 650 L420 682 L318 626 C276 664 241 689 203 707 L180 680 C204 667 252 630 279 605 L184 552 Z M267 422 C370 422 444 344 444 234 C444 119 372 39 268 39 C165 39 95 117 95 231 C95 343 166 422 267 422 L267 422 Z " />
<glyph glyph-name="ntilde" unicode="&#xf1;" horiz-adv-x="497" d="M83 460 L83 0 L133 0 L133 282 C133 326 142 350 170 379 C197 407 231 421 270 421 C304 421 333 409 348 390 C362 372 367 346 367 298 L367 0 L417 0 L417 320 C417 376 407 406 378 432 C353 455 317 468 276 468 C220 468 177 445 133 391 L133 460 L83 460 Z M372 631 C355 599 338 585 317 585 C307 585 301 587 288 596 C229 636 220 640 194 640 C164 640 133 619 104 579 L139 549 C155 578 172 591 194 591 C205 591 215 587 233 576 C288 541 297 537 317 537 C346 537 376 560 406 606 L372 631 Z " />
<glyph glyph-name="ograve" unicode="&#xf2;" horiz-adv-x="537" d="M270 468 C210 468 152 446 110 406 C65 364 43 307 43 232 C43 168 61 110 93 72 C135 22 200 -8 267 -8 C395 -8 495 96 495 230 C495 295 479 344 444 387 C401 439 339 468 270 468 L270 468 Z M270 421 C314 421 360 402 391 372 C426 338 443 292 443 230 C443 119 370 39 269 39 C165 39 95 116 95 229 C95 344 165 421 270 421 L270 421 Z M216 653 L146 653 L256 525 L298 525 L216 653 Z " />
<glyph glyph-name="oacute" unicode="&#xf3;" horiz-adv-x="537" d="M270 468 C210 468 152 446 110 406 C65 364 43 307 43 232 C43 168 61 110 93 72 C135 22 200 -8 267 -8 C395 -8 495 96 495 230 C495 295 479 344 444 387 C401 439 339 468 270 468 L270 468 Z M270 421 C314 421 360 402 391 372 C426 338 443 292 443 230 C443 119 370 39 269 39 C165 39 95 116 95 229 C95 344 165 421 270 421 L270 421 Z M322 653 L239 525 L282 525 L392 653 L322 653 Z " />
<glyph glyph-name="ocircumflex" unicode="&#xf4;" horiz-adv-x="537" d="M270 468 C210 468 152 446 110 406 C65 364 43 307 43 232 C43 168 61 110 93 72 C135 22 200 -8 267 -8 C395 -8 495 96 495 230 C495 295 479 344 444 387 C401 439 339 468 270 468 L270 468 Z M270 421 C314 421 360 402 391 372 C426 338 443 292 443 230 C443 119 370 39 269 39 C165 39 95 116 95 229 C95 344 165 421 270 421 L270 421 Z M268 615 L343 525 L397 525 L293 655 L245 655 L141 525 L194 525 L268 615 Z " />
<glyph glyph-name="otilde" unicode="&#xf5;" horiz-adv-x="537" d="M270 468 C210 468 152 446 110 406 C65 364 43 307 43 232 C43 168 61 110 93 72 C135 22 200 -8 267 -8 C395 -8 495 96 495 230 C495 295 479 344 444 387 C401 439 339 468 270 468 L270 468 Z M270 421 C314 421 360 402 391 372 C426 338 443 292 443 230 C443 119 370 39 269 39 C165 39 95 116 95 229 C95 344 165 421 270 421 L270 421 Z M393 631 C375 599 358 585 338 585 C327 585 322 587 308 596 C250 636 240 640 215 640 C185 640 154 619 124 579 L159 549 C176 578 193 591 215 591 C226 591 236 587 253 576 C309 541 318 537 337 537 C367 537 397 560 427 606 L393 631 Z " />
<glyph glyph-name="odieresis" unicode="&#xf6;" horiz-adv-x="537" d="M270 468 C210 468 152 446 110 406 C65 364 43 307 43 232 C43 168 61 110 93 72 C135 22 200 -8 267 -8 C395 -8 495 96 495 230 C495 295 479 344 444 387 C401 439 339 468 270 468 L270 468 Z M270 421 C314 421 360 402 391 372 C426 338 443 292 443 230 C443 119 370 39 269 39 C165 39 95 116 95 229 C95 344 165 421 270 421 L270 421 Z M173 623 C151 623 136 608 136 586 C136 565 151 550 173 550 C193 550 209 565 209 586 C209 608 194 623 173 623 L173 623 Z M366 623 C344 623 329 608 329 586 C329 565 344 550 366 550 C386 550 402 565 402 586 C402 608 387 623 366 623 L366 623 Z " />
<glyph glyph-name="divide" unicode="&#xf7;" horiz-adv-x="500" d="M27 351 L27 319 L472 319 L472 351 L27 351 Z M250 556 C231 556 216 541 216 522 C216 504 231 489 250 489 C268 489 283 504 283 523 C283 541 268 556 250 556 L250 556 Z M250 180 C231 180 216 165 216 146 C216 128 231 113 250 113 C268 113 283 128 283 147 C283 165 268 180 250 180 L250 180 Z " />
<glyph glyph-name="oslash" unicode="&#xf8;" horiz-adv-x="537" d="M119 45 C162 9 209 -8 262 -8 C399 -8 494 91 494 234 C494 298 479 341 438 394 L500 462 L476 487 L412 417 C370 452 321 469 266 469 C208 469 154 448 111 408 C65 366 42 306 42 231 C42 166 56 123 96 69 L40 9 L67 -14 L119 45 Z M403 356 C432 312 442 281 442 233 C442 120 369 39 269 39 C224 39 186 54 154 83 L403 356 Z M131 109 C104 149 94 180 94 230 C94 343 164 422 265 422 C310 422 345 409 378 380 L131 109 Z " />
<glyph glyph-name="ugrave" unicode="&#xf9;" horiz-adv-x="470" d="M352 460 L352 163 C352 120 345 97 327 77 C306 54 270 39 235 39 C165 39 118 89 118 163 L118 460 L68 460 L68 163 C68 60 135 -8 236 -8 C283 -8 327 10 359 41 C391 71 402 103 402 163 L402 460 L352 460 Z M182 653 L112 653 L222 525 L264 525 L182 653 Z " />
<glyph glyph-name="uacute" unicode="&#xfa;" horiz-adv-x="470" d="M352 460 L352 163 C352 120 345 97 327 77 C306 54 270 39 235 39 C165 39 118 89 118 163 L118 460 L68 460 L68 163 C68 60 135 -8 236 -8 C283 -8 327 10 359 41 C391 71 402 103 402 163 L402 460 L352 460 Z M288 653 L205 525 L248 525 L358 653 L288 653 Z " />
<glyph glyph-name="ucircumflex" unicode="&#xfb;" horiz-adv-x="470" d="M352 460 L352 163 C352 120 345 97 327 77 C306 54 270 39 235 39 C165 39 118 89 118 163 L118 460 L68 460 L68 163 C68 60 135 -8 236 -8 C283 -8 327 10 359 41 C391 71 402 103 402 163 L402 460 L352 460 Z M234 615 L309 525 L363 525 L259 655 L211 655 L107 525 L160 525 L234 615 Z " />
<glyph glyph-name="udieresis" unicode="&#xfc;" horiz-adv-x="470" d="M352 460 L352 163 C352 120 345 97 327 77 C306 54 270 39 235 39 C165 39 118 89 118 163 L118 460 L68 460 L68 163 C68 60 135 -8 236 -8 C283 -8 327 10 359 41 C391 71 402 103 402 163 L402 460 L352 460 Z M139 623 C117 623 102 608 102 586 C102 565 117 550 139 550 C159 550 175 565 175 586 C175 608 160 623 139 623 L139 623 Z M332 623 C310 623 295 608 295 586 C295 565 310 550 332 550 C352 550 368 565 368 586 C368 608 353 623 332 623 L332 623 Z " />
<glyph glyph-name="yacute" unicode="&#xfd;" horiz-adv-x="422" d="M202 84 L63 460 L10 460 L175 17 L74 -228 L129 -228 L412 460 L356 460 L202 84 Z M264 653 L181 525 L224 525 L334 653 L264 653 Z " />
<glyph glyph-name="thorn" unicode="&#xfe;" horiz-adv-x="557" d="M80 667 L80 -220 L130 -220 L130 83 C158 46 173 32 204 16 C235 0 269 -8 304 -8 C430 -8 514 91 514 238 C514 377 431 468 306 468 C225 468 177 439 130 362 L130 667 L80 667 Z M300 421 C344 421 389 401 418 369 C448 336 461 294 461 233 C461 116 396 39 297 39 C197 39 130 113 130 222 C130 341 198 421 300 421 L300 421 Z " />
<glyph glyph-name="ydieresis" unicode="&#xff;" horiz-adv-x="422" d="M202 84 L63 460 L10 460 L175 17 L74 -228 L129 -228 L412 460 L356 460 L202 84 Z M115 623 C93 623 78 608 78 586 C78 565 93 550 115 550 C135 550 151 565 151 586 C151 608 136 623 115 623 L115 623 Z M308 623 C286 623 271 608 271 586 C271 565 286 550 308 550 C328 550 344 565 344 586 C344 608 329 623 308 623 L308 623 Z " />
<glyph glyph-name="Amacron" unicode="&#x100;" horiz-adv-x="592" d="M457 175 L522 0 L585 0 L331 667 L269 667 L7 0 L64 0 L135 175 L457 175 Z M437 227 L156 227 L298 591 L437 227 Z M436 799 L156 799 L156 755 L436 755 L436 799 Z " />
<glyph glyph-name="amacron" unicode="&#x101;" horiz-adv-x="561" d="M428 375 C384 438 328 468 255 468 C131 468 43 369 43 230 C43 91 132 -8 256 -8 C327 -8 382 27 428 102 L428 0 L478 0 L478 460 L428 460 L428 375 Z M259 421 C360 421 429 346 429 237 C429 128 352 39 256 39 C164 39 95 119 95 227 C95 277 110 326 136 362 C166 403 204 421 259 421 L259 421 Z M414 609 L147 609 L147 568 L414 568 L414 609 Z " />
<glyph glyph-name="Abreve" unicode="&#x102;" horiz-adv-x="592" d="M457 175 L522 0 L585 0 L331 667 L269 667 L7 0 L64 0 L135 175 L457 175 Z M437 227 L156 227 L298 591 L437 227 Z M151 829 C164 768 220 730 296 730 C372 730 428 768 442 829 L390 829 C372 791 344 774 296 774 C249 774 220 791 203 829 L151 829 Z " />
<glyph glyph-name="abreve" unicode="&#x103;" horiz-adv-x="561" d="M428 375 C384 438 328 468 255 468 C131 468 43 369 43 230 C43 91 132 -8 256 -8 C327 -8 382 27 428 102 L428 0 L478 0 L478 460 L428 460 L428 375 Z M259 421 C360 421 429 346 429 237 C429 128 352 39 256 39 C164 39 95 119 95 227 C95 277 110 326 136 362 C166 403 204 421 259 421 L259 421 Z M141 632 C155 571 208 533 281 533 C354 533 407 571 420 632 L371 632 C354 591 326 574 281 574 C235 574 208 591 190 632 L141 632 Z " />
<glyph glyph-name="Aogonek" unicode="&#x104;" horiz-adv-x="603" d="M331 667 L278 667 L10 0 L66 0 L144 197 L461 197 L538 0 L562 0 C522 -27 503 -55 503 -89 C503 -134 542 -166 597 -166 C617 -166 630 -163 654 -154 L654 -123 C632 -132 621 -134 606 -134 C566 -134 538 -111 538 -79 C538 -52 556 -26 594 0 L331 667 Z M447 238 L158 238 L284 551 L299 595 C300 597 302 602 305 611 C309 593 315 573 323 549 L447 238 Z " />
<glyph glyph-name="aogonek" unicode="&#x105;" horiz-adv-x="494" d="M429 220 C429 360 429 360 428 373 C419 449 356 492 253 492 C135 492 69 437 62 333 L109 333 C118 417 163 457 250 457 C307 457 354 436 370 403 C377 388 381 365 381 341 C381 286 372 280 265 272 C191 267 150 260 120 248 C63 226 34 183 34 123 C34 37 94 -13 198 -13 C287 -13 343 23 382 105 L382 76 C382 22 382 21 403 0 L424 0 C389 -25 372 -53 372 -83 C372 -129 410 -161 466 -161 C485 -161 497 -159 522 -150 L522 -120 C500 -129 489 -131 474 -131 C435 -131 406 -108 406 -76 C406 -50 425 -22 457 0 C434 22 433 24 431 44 C429 56 429 67 429 142 L429 220 Z M381 191 C381 153 369 118 345 85 C313 42 269 21 210 21 C131 21 85 59 85 123 C85 193 130 229 227 237 C356 246 358 247 381 270 L381 191 Z " />
<glyph glyph-name="Cacute" unicode="&#x106;" horiz-adv-x="628" d="M559 144 C501 71 442 40 363 40 C215 40 106 163 106 332 C106 502 214 627 360 627 C407 627 456 612 494 586 C514 572 529 559 559 526 L601 560 C536 641 458 679 360 679 C180 679 47 532 47 333 C47 240 80 148 135 85 C191 22 270 -12 361 -12 C417 -12 473 2 518 29 C552 49 571 66 601 107 L559 144 Z M368 845 L282 715 L328 715 L439 845 L368 845 Z " />
<glyph glyph-name="cacute" unicode="&#x107;" horiz-adv-x="451" d="M393 96 C355 57 313 39 261 39 C162 39 95 117 95 232 C95 344 164 421 265 421 C312 421 355 404 393 369 L424 403 C380 447 329 468 265 468 C135 468 43 370 43 230 C43 90 132 -8 260 -8 C326 -8 375 12 424 60 L393 96 Z M279 653 L196 525 L238 525 L348 653 L279 653 Z " />
<glyph glyph-name="Ccircumflex" unicode="&#x108;" horiz-adv-x="628" d="M559 144 C501 71 442 40 363 40 C215 40 106 163 106 332 C106 502 214 627 360 627 C407 627 456 612 494 586 C514 572 529 559 559 526 L601 560 C536 641 458 679 360 679 C180 679 47 532 47 333 C47 240 80 148 135 85 C191 22 270 -12 361 -12 C417 -12 473 2 518 29 C552 49 571 66 601 107 L559 144 Z M314 805 L388 715 L441 715 L339 847 L293 847 L186 715 L241 715 L314 805 Z " />
<glyph glyph-name="Cdotaccent" unicode="&#x10a;" horiz-adv-x="628" d="M559 144 C501 71 442 40 363 40 C215 40 106 163 106 332 C106 502 214 627 360 627 C407 627 456 612 494 586 C514 572 529 559 559 526 L601 560 C536 641 458 679 360 679 C180 679 47 532 47 333 C47 240 80 148 135 85 C191 22 270 -12 361 -12 C417 -12 473 2 518 29 C552 49 571 66 601 107 L559 144 Z M314 821 C290 821 272 803 272 779 C272 756 290 738 314 738 C337 738 355 756 355 779 C355 803 337 821 314 821 L314 821 Z " />
<glyph glyph-name="cdotaccent" unicode="&#x10b;" horiz-adv-x="451" d="M393 96 C355 57 313 39 261 39 C162 39 95 117 95 232 C95 344 164 421 265 421 C312 421 355 404 393 369 L424 403 C380 447 329 468 265 468 C135 468 43 370 43 230 C43 90 132 -8 260 -8 C326 -8 375 12 424 60 L393 96 Z M226 623 C204 623 189 608 189 586 C189 565 204 550 226 550 C246 550 262 565 262 586 C262 608 247 623 226 623 L226 623 Z " />
<glyph glyph-name="Ccaron" unicode="&#x10c;" horiz-adv-x="628" d="M559 144 C501 71 442 40 363 40 C215 40 106 163 106 332 C106 502 214 627 360 627 C407 627 456 612 494 586 C514 572 529 559 559 526 L601 560 C536 641 458 679 360 679 C180 679 47 532 47 333 C47 240 80 148 135 85 C191 22 270 -12 361 -12 C417 -12 473 2 518 29 C552 49 571 66 601 107 L559 144 Z M314 757 L240 847 L186 847 L289 715 L335 715 L441 847 L387 847 L314 757 Z " />
<glyph glyph-name="ccaron" unicode="&#x10d;" horiz-adv-x="451" d="M393 96 C355 57 313 39 261 39 C162 39 95 117 95 232 C95 344 164 421 265 421 C312 421 355 404 393 369 L424 403 C380 447 329 468 265 468 C135 468 43 370 43 230 C43 90 132 -8 260 -8 C326 -8 375 12 424 60 L393 96 Z M227 565 L151 655 L97 655 L201 525 L250 525 L354 655 L301 655 L227 565 Z " />
<glyph glyph-name="Dcaron" unicode="&#x10e;" horiz-adv-x="618" d="M90 0 L234 0 C446 0 571 129 571 347 C571 543 451 667 261 667 L90 667 L90 0 Z M147 616 L258 616 C423 616 513 521 513 347 C513 234 481 153 415 103 C363 62 312 51 178 51 L147 51 L147 616 Z M309 757 L235 847 L181 847 L284 715 L330 715 L436 847 L382 847 L309 757 Z " />
<glyph glyph-name="dcaron" unicode="&#x10f;" horiz-adv-x="703" d="M424 381 C397 416 380 430 350 445 C320 460 285 468 252 468 C131 468 43 366 43 228 C43 90 131 -8 255 -8 C324 -8 374 21 424 89 L424 0 L474 0 L474 667 L424 667 L424 381 Z M262 421 C360 421 425 345 425 231 C425 120 354 39 256 39 C161 39 95 116 95 227 C95 343 162 421 262 421 L262 421 Z M662 658 L619 680 L525 474 L564 457 L662 658 Z " />
<glyph glyph-name="Dcroat" unicode="&#x110;" horiz-adv-x="618" d="M90 363 L10 363 L10 316 L90 316 L90 0 L234 0 C445 0 570 129 570 347 C570 543 450 667 261 667 L90 667 L90 363 Z M147 363 L147 616 L258 616 C422 616 512 521 512 347 C512 234 480 153 414 103 C362 62 311 51 178 51 L147 51 L147 316 L332 316 L332 363 L147 363 Z " />
<glyph glyph-name="dcroat" unicode="&#x111;" horiz-adv-x="557" d="M424 573 L271 573 L271 530 L424 530 L424 381 C397 417 380 431 349 446 C319 461 284 469 252 469 C131 469 43 367 43 228 C43 91 131 -8 254 -8 C324 -8 374 21 424 89 L424 0 L474 0 L474 530 L554 530 L554 573 L474 573 L474 667 L424 667 L424 573 Z M261 422 C359 422 425 346 425 231 C425 120 354 39 255 39 C161 39 95 116 95 227 C95 343 162 422 261 422 L261 422 Z " />
<glyph glyph-name="Emacron" unicode="&#x112;" horiz-adv-x="478" d="M147 616 L425 616 L425 667 L90 667 L90 0 L425 0 L425 51 L147 51 L147 312 L425 312 L425 363 L147 363 L147 616 Z M398 799 L118 799 L118 755 L398 755 L398 799 Z " />
<glyph glyph-name="emacron" unicode="&#x113;" horiz-adv-x="531" d="M493 209 C494 223 495 235 495 241 C495 369 397 468 269 468 C137 468 43 368 43 228 C43 90 137 -8 269 -8 C352 -8 430 38 464 107 L423 129 C392 75 331 39 268 39 C212 39 162 66 129 113 C109 142 101 165 97 209 L493 209 Z M99 256 C104 298 111 319 126 343 C155 392 209 421 268 421 C327 421 381 392 413 345 C430 318 437 296 440 256 L99 256 Z M399 609 L132 609 L132 568 L399 568 L399 609 Z " />
<glyph glyph-name="Ebreve" unicode="&#x114;" horiz-adv-x="478" d="M147 616 L425 616 L425 667 L90 667 L90 0 L425 0 L425 51 L147 51 L147 312 L425 312 L425 363 L147 363 L147 616 Z M94 829 C107 768 163 730 239 730 C315 730 371 768 385 829 L333 829 C315 791 287 774 239 774 C192 774 163 791 146 829 L94 829 Z " />
<glyph glyph-name="Edotaccent" unicode="&#x116;" horiz-adv-x="478" d="M147 616 L425 616 L425 667 L90 667 L90 0 L425 0 L425 51 L147 51 L147 312 L425 312 L425 363 L147 363 L147 616 Z M240 821 C216 821 198 803 198 779 C198 756 216 738 240 738 C263 738 281 756 281 779 C281 803 263 821 240 821 L240 821 Z " />
<glyph glyph-name="edotaccent" unicode="&#x117;" horiz-adv-x="531" d="M493 209 C494 223 495 235 495 241 C495 369 397 468 269 468 C137 468 43 368 43 228 C43 90 137 -8 269 -8 C352 -8 430 38 464 107 L423 129 C392 75 331 39 268 39 C212 39 162 66 129 113 C109 142 101 165 97 209 L493 209 Z M99 256 C104 298 111 319 126 343 C155 392 209 421 268 421 C327 421 381 392 413 345 C430 318 437 296 440 256 L99 256 Z M266 623 C244 623 229 608 229 586 C229 565 244 550 266 550 C286 550 302 565 302 586 C302 608 287 623 266 623 L266 623 Z " />
<glyph glyph-name="Eogonek" unicode="&#x118;" horiz-adv-x="563" d="M535 46 L119 46 L119 326 L504 326 L504 369 L119 369 L119 623 L530 623 L530 667 L66 667 L66 0 L500 0 C460 -28 442 -55 442 -88 C442 -134 481 -166 536 -166 C556 -166 569 -163 593 -154 L595 -123 C573 -132 562 -134 546 -134 C507 -134 479 -111 479 -79 C479 -51 493 -31 535 0 L535 46 Z " />
<glyph glyph-name="eogonek" unicode="&#x119;" horiz-adv-x="517" d="M426 165 C406 73 349 23 264 23 C157 23 89 105 88 233 L480 233 L480 244 C480 394 394 492 263 492 C130 492 39 388 39 237 C39 102 110 8 226 -10 C197 -36 184 -58 184 -87 C184 -133 222 -164 278 -164 C297 -164 309 -162 334 -153 L334 -124 C312 -132 301 -134 286 -134 C247 -134 218 -111 218 -80 C218 -57 232 -33 256 -12 C366 -18 457 56 474 165 L426 165 Z M88 265 C93 316 100 341 118 373 C147 424 202 456 264 456 C321 456 370 429 401 380 C422 346 429 318 430 265 L88 265 Z " />
<glyph glyph-name="Ecaron" unicode="&#x11a;" horiz-adv-x="478" d="M147 616 L425 616 L425 667 L90 667 L90 0 L425 0 L425 51 L147 51 L147 312 L425 312 L425 363 L147 363 L147 616 Z M239 757 L165 847 L112 847 L215 715 L260 715 L367 847 L312 847 L239 757 Z " />
<glyph glyph-name="ecaron" unicode="&#x11b;" horiz-adv-x="531" d="M493 209 C494 223 495 235 495 241 C495 369 397 468 269 468 C137 468 43 368 43 228 C43 90 137 -8 269 -8 C352 -8 430 38 464 107 L423 129 C392 75 331 39 268 39 C212 39 162 66 129 113 C109 142 101 165 97 209 L493 209 Z M99 256 C104 298 111 319 126 343 C155 392 209 421 268 421 C327 421 381 392 413 345 C430 318 437 296 440 256 L99 256 Z M267 565 L191 655 L138 655 L241 525 L290 525 L394 655 L341 655 L267 565 Z " />
<glyph glyph-name="Gcircumflex" unicode="&#x11c;" horiz-adv-x="722" d="M365 354 L365 303 L620 303 C618 237 607 198 577 154 C531 86 445 40 363 40 C217 40 105 167 105 333 C105 500 219 627 368 627 C419 627 469 611 509 581 C527 569 539 556 567 526 L609 561 C547 639 466 679 370 679 C180 679 47 536 47 331 C47 132 182 -12 368 -12 C486 -12 586 49 640 153 C664 200 675 249 675 313 L675 354 L365 354 Z M361 805 L435 715 L488 715 L385 847 L340 847 L233 715 L288 715 L361 805 Z " />
<glyph glyph-name="gcircumflex" unicode="&#x11d;" horiz-adv-x="560" d="M427 370 C377 440 328 468 256 468 C198 468 151 451 116 416 C70 373 43 302 43 229 C43 94 134 -8 253 -8 C294 -8 337 6 368 29 C390 46 403 62 427 101 L427 -22 C427 -75 416 -111 392 -137 C363 -167 313 -186 261 -186 C220 -186 174 -174 149 -158 C136 -150 126 -141 105 -118 L67 -155 C110 -208 175 -235 258 -235 C395 -235 477 -155 477 -22 L477 460 L427 460 L427 370 Z M263 421 C310 421 358 398 389 362 C416 329 425 297 425 233 C425 181 410 128 388 101 C354 62 307 39 260 39 C165 39 95 121 95 232 C95 343 164 421 263 421 L263 421 Z M279 615 L355 525 L409 525 L305 655 L256 655 L152 525 L205 525 L279 615 Z " />
<glyph glyph-name="Gbreve" unicode="&#x11e;" horiz-adv-x="722" d="M365 354 L365 303 L620 303 C618 237 607 198 577 154 C531 86 445 40 363 40 C217 40 105 167 105 333 C105 500 219 627 368 627 C419 627 469 611 509 581 C527 569 539 556 567 526 L609 561 C547 639 466 679 370 679 C180 679 47 536 47 331 C47 132 182 -12 368 -12 C486 -12 586 49 640 153 C664 200 675 249 675 313 L675 354 L365 354 Z M215 829 C229 768 284 730 361 730 C437 730 492 768 506 829 L454 829 C437 791 408 774 361 774 C313 774 285 791 267 829 L215 829 Z " />
<glyph glyph-name="gbreve" unicode="&#x11f;" horiz-adv-x="560" d="M427 370 C377 440 328 468 256 468 C198 468 151 451 116 416 C70 373 43 302 43 229 C43 94 134 -8 253 -8 C294 -8 337 6 368 29 C390 46 403 62 427 101 L427 -22 C427 -75 416 -111 392 -137 C363 -167 313 -186 261 -186 C220 -186 174 -174 149 -158 C136 -150 126 -141 105 -118 L67 -155 C110 -208 175 -235 258 -235 C395 -235 477 -155 477 -22 L477 460 L427 460 L427 370 Z M263 421 C310 421 358 398 389 362 C416 329 425 297 425 233 C425 181 410 128 388 101 C354 62 307 39 260 39 C165 39 95 121 95 232 C95 343 164 421 263 421 L263 421 Z M141 632 C154 571 207 533 280 533 C353 533 406 571 420 632 L371 632 C353 591 326 574 280 574 C234 574 207 591 190 632 L141 632 Z " />
<glyph glyph-name="Gdotaccent" unicode="&#x120;" horiz-adv-x="722" d="M365 354 L365 303 L620 303 C618 237 607 198 577 154 C531 86 445 40 363 40 C217 40 105 167 105 333 C105 500 219 627 368 627 C419 627 469 611 509 581 C527 569 539 556 567 526 L609 561 C547 639 466 679 370 679 C180 679 47 536 47 331 C47 132 182 -12 368 -12 C486 -12 586 49 640 153 C664 200 675 249 675 313 L675 354 L365 354 Z M361 821 C337 821 319 803 319 779 C319 756 337 738 361 738 C384 738 402 756 402 779 C402 803 384 821 361 821 L361 821 Z " />
<glyph glyph-name="gdotaccent" unicode="&#x121;" horiz-adv-x="560" d="M427 370 C377 440 328 468 256 468 C198 468 151 451 116 416 C70 373 43 302 43 229 C43 94 134 -8 253 -8 C294 -8 337 6 368 29 C390 46 403 62 427 101 L427 -22 C427 -75 416 -111 392 -137 C363 -167 313 -186 261 -186 C220 -186 174 -174 149 -158 C136 -150 126 -141 105 -118 L67 -155 C110 -208 175 -235 258 -235 C395 -235 477 -155 477 -22 L477 460 L427 460 L427 370 Z M263 421 C310 421 358 398 389 362 C416 329 425 297 425 233 C425 181 410 128 388 101 C354 62 307 39 260 39 C165 39 95 121 95 232 C95 343 164 421 263 421 L263 421 Z M281 623 C259 623 244 608 244 586 C244 565 259 550 281 550 C301 550 317 565 317 586 C317 608 302 623 281 623 L281 623 Z " />
<glyph glyph-name="Gcommaaccent" unicode="&#x122;" horiz-adv-x="722" d="M365 354 L365 303 L620 303 C618 237 607 198 577 154 C531 86 445 40 363 40 C217 40 105 167 105 333 C105 500 219 627 368 627 C419 627 469 611 509 581 C527 569 539 556 567 526 L609 561 C547 639 466 679 370 679 C180 679 47 536 47 331 C47 132 182 -12 368 -12 C486 -12 586 49 640 153 C664 200 675 249 675 313 L675 354 L365 354 Z M383 -41 L336 -41 L336 -123 L356 -123 C357 -159 347 -181 324 -194 L324 -221 C364 -209 383 -173 383 -114 L383 -41 Z " />
<glyph glyph-name="gcommaaccent" unicode="&#x123;" horiz-adv-x="560" d="M427 370 C377 440 328 468 256 468 C198 468 151 451 116 416 C70 373 43 302 43 229 C43 94 134 -8 253 -8 C294 -8 337 6 368 29 C390 46 403 62 427 101 L427 -22 C427 -75 416 -111 392 -137 C363 -167 313 -186 261 -186 C220 -186 174 -174 149 -158 C136 -150 126 -141 105 -118 L67 -155 C110 -208 175 -235 258 -235 C395 -235 477 -155 477 -22 L477 460 L427 460 L427 370 Z M263 421 C310 421 358 398 389 362 C416 329 425 297 425 233 C425 181 410 128 388 101 C354 62 307 39 260 39 C165 39 95 121 95 232 C95 343 164 421 263 421 L263 421 Z M224 570 L267 547 L361 753 L322 771 L224 570 Z " />
<glyph glyph-name="Hcircumflex" unicode="&#x124;" horiz-adv-x="656" d="M147 306 L509 306 L509 0 L566 0 L566 667 L509 667 L509 357 L147 357 L147 667 L90 667 L90 0 L147 0 L147 306 Z M328 805 L402 715 L455 715 L353 847 L307 847 L200 715 L255 715 L328 805 Z " />
<glyph glyph-name="Hbar" unicode="&#x126;" horiz-adv-x="655" d="M589 541 L589 667 L535 667 L535 541 L119 541 L119 667 L66 667 L66 541 L-6 541 L-6 506 L66 506 L66 0 L119 0 L119 325 L535 325 L535 0 L589 0 L589 506 L661 506 L661 541 L589 541 Z M119 506 L535 506 L535 368 L119 368 L119 506 Z " />
<glyph glyph-name="hbar" unicode="&#x127;" horiz-adv-x="524" d="M114 582 L114 667 L64 667 L64 582 L-13 582 L-13 548 L64 548 L64 0 L114 0 L114 250 C114 373 174 450 271 450 C315 450 355 432 381 399 C401 374 409 346 409 295 L409 0 L459 0 L459 304 C459 360 450 393 427 425 C394 468 344 492 285 492 C236 492 192 474 159 441 C140 422 129 403 114 365 L114 548 L269 548 L269 582 L114 582 Z " />
<glyph glyph-name="Imacron" unicode="&#x12a;" horiz-adv-x="237" d="M147 667 L90 667 L90 0 L147 0 L147 667 Z M258 799 L-22 799 L-22 755 L258 755 L258 799 Z " />
<glyph glyph-name="imacron" unicode="&#x12b;" horiz-adv-x="217" d="M133 460 L83 460 L83 0 L133 0 L133 460 Z M242 609 L-25 609 L-25 568 L242 568 L242 609 Z " />
<glyph glyph-name="ibreve" unicode="&#x12d;" horiz-adv-x="217" d="M134 460 L84 460 L84 0 L134 0 L134 460 Z M-31 632 C-17 571 36 533 109 533 C182 533 235 571 248 632 L199 632 C182 591 154 574 109 574 C63 574 36 591 18 632 L-31 632 Z " />
<glyph glyph-name="Iogonek" unicode="&#x12e;" horiz-adv-x="237" d="M147 667 L90 667 L90 0 L147 0 L147 667 Z M256 0 C210 -28 187 -62 187 -101 C187 -148 231 -182 290 -182 C310 -182 321 -180 343 -172 L333 -132 C315 -138 306 -139 295 -139 C258 -139 234 -119 234 -89 C234 -61 251 -39 303 0 L256 0 Z " />
<glyph glyph-name="iogonek" unicode="&#x12f;" horiz-adv-x="217" d="M134 460 L84 460 L84 0 L134 0 L134 460 Z M109 626 C88 626 71 609 71 588 C71 568 88 551 109 551 C129 551 146 568 146 588 C146 609 130 626 109 626 L109 626 Z M100 0 C54 -28 31 -62 31 -101 C31 -148 74 -182 134 -182 C154 -182 165 -180 187 -172 L177 -132 C159 -137 150 -139 139 -139 C102 -139 78 -119 78 -90 C78 -62 101 -31 147 0 L100 0 Z " />
<glyph glyph-name="Idotaccent" unicode="&#x130;" horiz-adv-x="237" d="M147 667 L90 667 L90 0 L147 0 L147 667 Z M119 821 C95 821 77 803 77 779 C77 756 95 738 118 738 C142 738 160 756 160 779 C160 803 142 821 119 821 L119 821 Z " />
<glyph glyph-name="dotlessi" unicode="&#x131;" horiz-adv-x="217" d="M133 460 L83 460 L83 0 L133 0 L133 460 Z " />
<glyph glyph-name="IJ" unicode="&#x132;" horiz-adv-x="605" d="M147 667 L90 667 L90 0 L147 0 L147 667 Z M528 667 L260 667 L260 616 L471 616 L471 244 C471 153 460 113 426 83 C400 59 361 47 309 47 C296 47 285 47 260 48 L260 0 C351 0 391 4 426 20 C492 49 528 110 528 191 L528 667 Z " />
<glyph glyph-name="ij" unicode="&#x133;" horiz-adv-x="433" d="M133 460 L83 460 L83 0 L133 0 L133 460 Z M109 626 C88 626 71 609 71 588 C71 568 88 551 109 551 C129 551 146 568 146 588 C146 609 130 626 109 626 L109 626 Z M350 460 L300 460 L300 -65 C300 -136 259 -186 201 -186 L195 -186 L195 -234 L210 -234 C249 -234 288 -217 314 -187 C340 -157 350 -124 350 -65 L350 460 Z M326 626 C305 626 288 609 288 588 C288 568 305 551 326 551 C346 551 363 568 363 588 C363 609 347 626 326 626 L326 626 Z " />
<glyph glyph-name="Kcommaaccent" unicode="&#x136;" horiz-adv-x="527" d="M147 313 L434 0 L513 0 L203 332 L513 667 L443 667 L147 351 L147 667 L90 667 L90 0 L147 0 L147 313 Z M286 -41 L239 -41 L239 -123 L259 -123 C260 -159 250 -181 227 -194 L227 -221 C267 -209 286 -173 286 -114 L286 -41 Z " />
<glyph glyph-name="kcommaaccent" unicode="&#x137;" horiz-adv-x="428" d="M133 213 L345 0 L414 0 L185 233 L414 460 L346 460 L133 245 L133 667 L83 667 L83 0 L133 0 L133 213 Z M235 -54 L188 -54 L188 -120 L208 -120 C206 -143 201 -160 193 -169 C188 -173 183 -177 179 -181 C178 -182 175 -184 173 -187 L173 -216 C219 -192 235 -165 235 -110 L235 -54 Z " />
<glyph glyph-name="kgreenlandic" unicode="&#x138;" horiz-adv-x="472" d="M460 481 L398 481 L114 221 L114 481 L64 481 L64 0 L114 0 L114 166 L207 249 L420 0 L480 0 L240 282 L460 481 Z " />
<glyph glyph-name="Lacute" unicode="&#x139;" horiz-adv-x="415" d="M147 57 L147 667 L90 667 L90 0 L388 0 L388 57 L147 57 Z M262 845 L176 715 L221 715 L333 845 L262 845 Z " />
<glyph glyph-name="lacute" unicode="&#x13a;" horiz-adv-x="217" d="M134 0 L134 667 L84 667 L84 0 L134 0 Z M163 845 L77 715 L123 715 L234 845 L163 845 Z " />
<glyph glyph-name="Lcommaaccent" unicode="&#x13b;" horiz-adv-x="415" d="M147 57 L147 667 L90 667 L90 0 L388 0 L388 57 L147 57 Z M230 -41 L183 -41 L183 -123 L203 -123 C204 -160 193 -182 170 -194 L170 -221 C210 -210 230 -174 230 -114 L230 -41 Z " />
<glyph glyph-name="lcommaaccent" unicode="&#x13c;" horiz-adv-x="217" d="M134 0 L134 667 L84 667 L84 0 L134 0 Z M130 -54 L83 -54 L83 -120 L103 -120 C101 -143 96 -160 88 -169 C83 -173 78 -177 74 -181 C73 -182 70 -184 68 -187 L68 -216 C114 -192 130 -165 130 -110 L130 -54 Z " />
<glyph glyph-name="Lcaron" unicode="&#x13d;" horiz-adv-x="415" d="M147 57 L147 667 L90 667 L90 0 L388 0 L388 57 L147 57 Z M406 658 L363 680 L269 474 L308 457 L406 658 Z " />
<glyph glyph-name="lcaron" unicode="&#x13e;" horiz-adv-x="430" d="M133 0 L133 667 L83 667 L83 0 L133 0 Z M388 658 L345 680 L251 474 L290 457 L388 658 Z " />
<glyph glyph-name="Ldot" unicode="&#x13f;" horiz-adv-x="415" d="M147 57 L147 667 L90 667 L90 0 L388 0 L388 57 L147 57 Z M341 384 C316 384 297 365 297 340 C297 315 316 296 341 296 C366 296 385 315 385 339 C385 365 366 384 341 384 L341 384 Z " />
<glyph glyph-name="ldot" unicode="&#x140;" horiz-adv-x="305" d="M133 0 L133 667 L83 667 L83 0 L133 0 Z M260 384 C235 384 216 365 216 340 C216 315 235 296 260 296 C285 296 304 315 304 339 C304 365 285 384 260 384 L260 384 Z " />
<glyph glyph-name="Lslash" unicode="&#x141;" horiz-adv-x="415" d="M90 339 L17 283 L17 226 L90 282 L90 0 L389 0 L389 57 L147 57 L147 315 L267 406 L267 463 L147 372 L147 667 L90 667 L90 339 Z " />
<glyph glyph-name="lslash" unicode="&#x142;" horiz-adv-x="217" d="M83 372 L10 316 L10 264 L83 320 L83 0 L133 0 L133 348 L207 404 L207 457 L133 400 L133 667 L83 667 L83 372 Z " />
<glyph glyph-name="Nacute" unicode="&#x143;" horiz-adv-x="679" d="M147 555 L546 0 L589 0 L589 667 L532 667 L532 120 L137 667 L90 667 L90 0 L147 0 L147 555 Z M394 845 L308 715 L353 715 L465 845 L394 845 Z " />
<glyph glyph-name="nacute" unicode="&#x144;" horiz-adv-x="497" d="M83 460 L83 0 L133 0 L133 282 C133 326 142 350 170 379 C197 407 231 421 270 421 C304 421 333 409 348 390 C362 372 367 346 367 298 L367 0 L417 0 L417 320 C417 376 407 406 378 432 C353 455 317 468 276 468 C220 468 177 445 133 391 L133 460 L83 460 Z M301 653 L219 525 L261 525 L371 653 L301 653 Z " />
<glyph glyph-name="Ncommaaccent" unicode="&#x145;" horiz-adv-x="679" d="M147 555 L546 0 L589 0 L589 667 L532 667 L532 120 L137 667 L90 667 L90 0 L147 0 L147 555 Z M362 -41 L315 -41 L315 -123 L335 -123 C336 -160 325 -182 302 -194 L302 -221 C342 -210 362 -174 362 -114 L362 -41 Z " />
<glyph glyph-name="ncommaaccent" unicode="&#x146;" horiz-adv-x="497" d="M83 460 L83 0 L133 0 L133 282 C133 326 142 350 170 379 C197 407 231 421 270 421 C304 421 333 409 348 390 C362 372 367 346 367 298 L367 0 L417 0 L417 320 C417 376 407 406 378 432 C353 455 317 468 276 468 C220 468 177 445 133 391 L133 460 L83 460 Z M270 -54 L223 -54 L223 -120 L243 -120 C240 -155 236 -164 213 -181 L207 -187 L207 -216 C253 -194 270 -166 270 -110 L270 -54 Z " />
<glyph glyph-name="Ncaron" unicode="&#x147;" horiz-adv-x="679" d="M147 555 L546 0 L589 0 L589 667 L532 667 L532 120 L137 667 L90 667 L90 0 L147 0 L147 555 Z M339 757 L265 847 L212 847 L315 715 L361 715 L467 847 L412 847 L339 757 Z " />
<glyph glyph-name="ncaron" unicode="&#x148;" horiz-adv-x="497" d="M83 460 L83 0 L133 0 L133 282 C133 326 142 350 170 379 C197 407 231 421 270 421 C304 421 333 409 348 390 C362 372 367 346 367 298 L367 0 L417 0 L417 320 C417 376 407 406 378 432 C353 455 317 468 276 468 C220 468 177 445 133 391 L133 460 L83 460 Z M249 565 L174 655 L120 655 L224 525 L272 525 L376 655 L323 655 L249 565 Z " />
<glyph glyph-name="napostrophe" unicode="&#x149;" horiz-adv-x="710" d="M172 658 L129 680 L35 474 L74 457 L172 658 Z M297 460 L297 0 L347 0 L347 282 C347 326 357 351 384 379 C412 407 444 421 484 421 C517 421 546 409 561 390 C575 372 580 346 580 298 L580 0 L630 0 L630 320 C630 376 620 406 591 432 C566 455 530 468 490 468 C433 468 391 445 347 391 L347 460 L297 460 Z " />
<glyph glyph-name="Eng" unicode="&#x14a;" horiz-adv-x="645" d="M66 654 L66 0 L119 0 L119 340 C119 426 129 476 156 522 C194 586 260 622 338 622 C394 622 443 603 477 569 C513 532 525 493 525 412 L525 -38 C525 -121 511 -136 435 -136 L431 -136 L431 -170 L465 -170 C555 -170 579 -151 579 -78 L579 423 C579 509 568 549 534 591 C492 641 427 670 353 670 C279 670 211 641 168 591 C145 564 131 537 117 494 L117 654 L66 654 Z " />
<glyph glyph-name="eng" unicode="&#x14b;" horiz-adv-x="525" d="M64 478 L64 0 L113 0 L113 252 C113 308 121 344 140 376 C166 422 217 449 274 449 C327 449 373 425 394 385 C407 362 411 340 411 293 L411 -67 C411 -124 392 -138 320 -138 L317 -138 L317 -167 L349 -167 C383 -167 392 -166 407 -164 C444 -156 461 -129 461 -76 L461 302 C461 371 452 403 424 435 C393 471 343 492 288 492 C202 492 141 449 111 369 L111 478 L64 478 Z " />
<glyph glyph-name="Omacron" unicode="&#x14c;" horiz-adv-x="731" d="M367 679 C286 679 205 645 145 586 C80 522 47 436 47 330 C47 246 70 170 111 116 C171 37 268 -12 365 -12 C438 -12 512 16 572 66 C644 126 683 218 683 325 C683 426 659 503 609 562 C546 636 457 679 367 679 L367 679 Z M366 627 C429 627 497 598 545 551 C600 497 625 427 625 329 C625 253 597 173 556 126 C507 72 436 40 364 40 C213 40 105 163 105 334 C105 503 216 627 366 627 L366 627 Z M505 799 L225 799 L225 755 L505 755 L505 799 Z " />
<glyph glyph-name="omacron" unicode="&#x14d;" horiz-adv-x="537" d="M270 468 C210 468 152 446 110 406 C65 364 43 307 43 232 C43 168 61 110 93 72 C135 22 200 -8 267 -8 C395 -8 495 96 495 230 C495 295 479 344 444 387 C401 439 339 468 270 468 L270 468 Z M270 421 C314 421 360 402 391 372 C426 338 443 292 443 230 C443 119 370 39 269 39 C165 39 95 116 95 229 C95 344 165 421 270 421 L270 421 Z M402 609 L135 609 L135 568 L402 568 L402 609 Z " />
<glyph glyph-name="Ohungarumlaut" unicode="&#x150;" horiz-adv-x="731" d="M367 679 C286 679 205 645 145 586 C80 522 47 436 47 330 C47 246 70 170 111 116 C171 37 268 -12 365 -12 C438 -12 512 16 572 66 C644 126 683 218 683 325 C683 426 659 503 609 562 C546 636 457 679 367 679 L367 679 Z M366 627 C429 627 497 598 545 551 C600 497 625 427 625 329 C625 253 597 173 556 126 C507 72 436 40 364 40 C213 40 105 163 105 334 C105 503 216 627 366 627 L366 627 Z M330 845 L264 715 L308 715 L399 845 L330 845 Z M477 845 L411 715 L455 715 L546 845 L477 845 Z " />
<glyph glyph-name="ohungarumlaut" unicode="&#x151;" horiz-adv-x="537" d="M270 468 C210 468 152 446 110 406 C65 364 43 307 43 232 C43 168 61 110 93 72 C135 22 200 -8 267 -8 C395 -8 495 96 495 230 C495 295 479 344 444 387 C401 439 339 468 270 468 L270 468 Z M270 421 C314 421 360 402 391 372 C426 338 443 292 443 230 C443 119 370 39 269 39 C165 39 95 116 95 229 C95 344 165 421 270 421 L270 421 Z M239 653 L177 525 L217 525 L307 653 L239 653 Z M373 653 L310 525 L351 525 L441 653 L373 653 Z " />
<glyph glyph-name="OE" unicode="&#x152;" horiz-adv-x="996" d="M667 312 L942 312 L942 363 L667 363 L667 616 L942 616 L942 667 L610 667 L610 543 C580 590 560 611 523 634 C476 664 424 679 365 679 C177 679 47 540 47 340 C47 238 79 144 134 85 C192 24 274 -12 357 -12 C417 -12 474 6 524 41 C559 65 578 85 610 135 L610 0 L942 0 L942 51 L667 51 L667 312 Z M362 627 C514 627 611 510 611 327 C611 251 585 172 544 126 C497 72 427 40 358 40 C212 40 105 166 105 338 C105 511 208 627 362 627 L362 627 Z " />
<glyph glyph-name="oe" unicode="&#x153;" horiz-adv-x="931" d="M831 130 C809 99 797 86 780 74 C751 53 706 39 670 39 C619 39 564 66 532 107 C509 135 501 160 496 209 L895 209 C895 253 894 264 889 287 C868 394 780 468 673 468 C626 468 578 453 540 426 C507 403 493 384 471 337 C453 379 440 397 409 421 C369 452 322 468 269 468 C136 468 43 369 43 228 C43 90 137 -8 268 -8 C322 -8 373 10 412 42 C439 65 452 84 471 130 C489 85 501 66 527 45 C566 12 620 -8 672 -8 C719 -8 769 9 808 37 C834 56 847 72 869 109 L831 130 Z M497 256 C501 304 510 327 535 358 C570 399 615 421 670 421 C730 421 785 393 816 348 C834 322 840 301 844 256 L497 256 Z M271 421 C374 421 447 342 447 230 C447 119 374 39 271 39 C167 39 95 117 95 231 C95 343 167 421 271 421 L271 421 Z " />
<glyph glyph-name="Racute" unicode="&#x154;" horiz-adv-x="548" d="M147 288 L445 0 L523 0 L224 288 C234 287 243 287 247 287 C297 287 333 292 360 303 C432 333 474 398 474 479 C474 594 391 667 261 667 L90 667 L90 0 L147 0 L147 288 Z M147 332 L147 616 L257 616 C362 616 416 569 416 476 C416 382 355 332 243 332 L147 332 Z M328 845 L242 715 L288 715 L399 845 L328 845 Z " />
<glyph glyph-name="racute" unicode="&#x155;" horiz-adv-x="309" d="M83 460 L83 0 L133 0 L133 240 C133 306 145 343 178 379 C203 406 233 418 272 419 L289 419 L289 468 L269 468 C235 468 200 457 176 438 C158 423 148 410 133 377 L133 460 L83 460 Z M207 653 L125 525 L167 525 L277 653 L207 653 Z " />
<glyph glyph-name="Rcommaaccent" unicode="&#x156;" horiz-adv-x="548" d="M147 288 L445 0 L523 0 L224 288 C234 287 243 287 247 287 C297 287 333 292 360 303 C432 333 474 398 474 479 C474 594 391 667 261 667 L90 667 L90 0 L147 0 L147 288 Z M147 332 L147 616 L257 616 C362 616 416 569 416 476 C416 382 355 332 243 332 L147 332 Z M296 -41 L249 -41 L249 -123 L269 -123 C270 -159 260 -181 237 -194 L237 -221 C277 -209 296 -173 296 -114 L296 -41 Z " />
<glyph glyph-name="rcommaaccent" unicode="&#x157;" horiz-adv-x="309" d="M83 460 L83 0 L133 0 L133 240 C133 306 145 343 178 379 C203 406 233 418 272 419 L289 419 L289 468 L269 468 C235 468 200 457 176 438 C158 423 148 410 133 377 L133 460 L83 460 Z M207 -54 L160 -54 L160 -120 L180 -120 C178 -143 173 -160 165 -169 C160 -173 155 -177 151 -181 C150 -182 147 -184 145 -187 L145 -216 C191 -192 207 -165 207 -110 L207 -54 Z " />
<glyph glyph-name="Rcaron" unicode="&#x158;" horiz-adv-x="548" d="M147 288 L445 0 L523 0 L224 288 C234 287 243 287 247 287 C297 287 333 292 360 303 C432 333 474 398 474 479 C474 594 391 667 261 667 L90 667 L90 0 L147 0 L147 288 Z M147 332 L147 616 L257 616 C362 616 416 569 416 476 C416 382 355 332 243 332 L147 332 Z M274 757 L200 847 L146 847 L249 715 L295 715 L401 847 L347 847 L274 757 Z " />
<glyph glyph-name="rcaron" unicode="&#x159;" horiz-adv-x="309" d="M83 460 L83 0 L133 0 L133 240 C133 306 145 343 178 379 C203 406 233 418 272 419 L289 419 L289 468 L269 468 C235 468 200 457 176 438 C158 423 148 410 133 377 L133 460 L83 460 Z M156 565 L80 655 L26 655 L130 525 L178 525 L283 655 L229 655 L156 565 Z " />
<glyph glyph-name="Sacute" unicode="&#x15a;" horiz-adv-x="474" d="M41 170 L41 154 C41 114 57 73 85 42 C117 5 165 -12 230 -12 C347 -12 429 65 429 175 C429 218 414 259 388 289 C362 318 330 335 260 360 C183 387 159 397 138 414 C114 433 101 464 101 499 C101 574 156 628 231 628 C280 628 322 607 343 573 C356 552 360 534 361 495 L416 495 C416 607 344 679 232 679 C121 679 44 604 44 496 C44 446 62 403 95 373 C123 347 144 337 225 310 C338 274 374 241 374 175 C374 94 314 39 225 39 C174 39 133 60 113 94 C101 115 96 134 94 170 L41 170 Z M291 845 L205 715 L251 715 L362 845 L291 845 Z " />
<glyph glyph-name="sacute" unicode="&#x15b;" horiz-adv-x="407" d="M356 339 C352 420 295 468 202 468 C111 468 48 417 48 342 C48 309 63 276 87 255 C110 234 139 221 193 208 C277 188 308 163 308 117 C308 69 267 37 205 37 C136 37 93 71 89 128 L38 128 C48 37 103 -8 203 -8 C298 -8 360 42 360 117 C360 149 346 182 324 204 C301 228 271 242 209 257 C124 278 100 297 100 345 C100 392 139 422 201 422 C266 422 304 392 304 339 L356 339 Z M256 653 L174 525 L216 525 L326 653 L256 653 Z " />
<glyph glyph-name="Scircumflex" unicode="&#x15c;" horiz-adv-x="474" d="M41 170 L41 154 C41 114 57 73 85 42 C117 5 165 -12 230 -12 C347 -12 429 65 429 175 C429 218 414 259 388 289 C362 318 330 335 260 360 C183 387 159 397 138 414 C114 433 101 464 101 499 C101 574 156 628 231 628 C280 628 322 607 343 573 C356 552 360 534 361 495 L416 495 C416 607 344 679 232 679 C121 679 44 604 44 496 C44 446 62 403 95 373 C123 347 144 337 225 310 C338 274 374 241 374 175 C374 94 314 39 225 39 C174 39 133 60 113 94 C101 115 96 134 94 170 L41 170 Z M237 805 L311 715 L364 715 L262 847 L216 847 L109 715 L164 715 L237 805 Z " />
<glyph glyph-name="scircumflex" unicode="&#x15d;" horiz-adv-x="407" d="M356 339 C352 420 295 468 202 468 C111 468 48 417 48 342 C48 309 63 276 87 255 C110 234 139 221 193 208 C277 188 308 163 308 117 C308 69 267 37 205 37 C136 37 93 71 89 128 L38 128 C48 37 103 -8 203 -8 C298 -8 360 42 360 117 C360 149 346 182 324 204 C301 228 271 242 209 257 C124 278 100 297 100 345 C100 392 139 422 201 422 C266 422 304 392 304 339 L356 339 Z M202 615 L278 525 L332 525 L228 655 L179 655 L75 525 L128 525 L202 615 Z " />
<glyph glyph-name="Scedilla" unicode="&#x15e;" horiz-adv-x="585" d="M301 -15 C455 -10 543 60 543 178 C543 235 518 282 475 308 C447 325 411 337 328 357 C210 386 196 390 167 403 C121 423 100 456 100 506 C100 588 166 638 276 638 C403 638 469 585 476 477 L527 477 C521 610 434 681 277 681 C136 681 48 613 48 504 C48 451 70 407 108 381 C144 357 169 349 290 318 C395 292 418 284 442 270 C472 251 490 216 490 175 C490 83 416 28 292 28 C217 28 154 51 121 92 C93 126 83 160 81 221 L28 221 L28 210 C28 137 61 69 113 33 C154 4 204 -11 271 -14 L229 -71 L245 -85 C265 -77 278 -74 293 -74 C324 -74 345 -90 345 -115 C345 -141 317 -161 280 -161 C253 -161 230 -155 199 -141 L189 -164 C223 -179 253 -186 285 -186 C342 -186 382 -155 382 -112 C382 -75 352 -50 309 -50 C298 -50 288 -51 271 -55 L301 -15 Z " />
<glyph glyph-name="scedilla" unicode="&#x15f;" horiz-adv-x="450" d="M239 -13 C350 -8 419 46 419 128 C419 173 397 210 359 230 C333 243 302 253 244 266 C154 286 130 295 110 318 C100 328 94 346 94 365 C94 423 141 458 220 458 C311 458 353 422 359 339 L406 339 C403 388 394 413 372 438 C340 474 290 492 222 492 C111 492 45 444 45 361 C45 321 65 287 98 268 C123 254 152 245 225 228 C336 203 370 180 370 127 C370 64 313 22 228 22 C169 22 123 43 99 79 C84 101 79 123 77 164 L29 164 C28 58 95 -6 211 -13 L169 -70 L185 -83 C204 -75 217 -72 231 -72 C262 -72 282 -88 282 -112 C282 -139 255 -158 219 -158 C192 -158 169 -152 140 -138 L130 -161 C162 -175 192 -182 222 -182 C278 -182 318 -152 318 -109 C318 -74 289 -49 247 -49 C234 -49 226 -50 209 -54 L239 -13 Z " />
<glyph glyph-name="Scaron" unicode="&#x160;" horiz-adv-x="474" d="M41 170 L41 154 C41 114 57 73 85 42 C117 5 165 -12 230 -12 C347 -12 429 65 429 175 C429 218 414 259 388 289 C362 318 330 335 260 360 C183 387 159 397 138 414 C114 433 101 464 101 499 C101 574 156 628 231 628 C280 628 322 607 343 573 C356 552 360 534 361 495 L416 495 C416 607 344 679 232 679 C121 679 44 604 44 496 C44 446 62 403 95 373 C123 347 144 337 225 310 C338 274 374 241 374 175 C374 94 314 39 225 39 C174 39 133 60 113 94 C101 115 96 134 94 170 L41 170 Z M237 757 L163 847 L109 847 L212 715 L258 715 L364 847 L310 847 L237 757 Z " />
<glyph glyph-name="scaron" unicode="&#x161;" horiz-adv-x="407" d="M356 339 C352 420 295 468 202 468 C111 468 48 417 48 342 C48 309 63 276 87 255 C110 234 139 221 193 208 C277 188 308 163 308 117 C308 69 267 37 205 37 C136 37 93 71 89 128 L38 128 C48 37 103 -8 203 -8 C298 -8 360 42 360 117 C360 149 346 182 324 204 C301 228 271 242 209 257 C124 278 100 297 100 345 C100 392 139 422 201 422 C266 422 304 392 304 339 L356 339 Z M205 565 L129 655 L75 655 L179 525 L227 525 L332 655 L279 655 L205 565 Z " />
<glyph glyph-name="Tcommaaccent" unicode="&#x162;" horiz-adv-x="434" d="M245 616 L420 616 L420 667 L13 667 L13 616 L188 616 L188 0 L245 0 L245 616 Z M239 -41 L192 -41 L192 -123 L212 -123 C213 -160 202 -182 179 -194 L179 -221 C219 -210 239 -174 239 -114 L239 -41 Z " />
<glyph glyph-name="tcommaaccent" unicode="&#x163;" horiz-adv-x="247" d="M137 413 L212 413 L212 460 L137 460 L137 615 L87 615 L87 460 L17 460 L17 413 L87 413 L87 63 C87 18 108 0 158 0 L212 0 L212 45 L170 45 C143 45 137 50 137 72 L137 413 Z M145 -54 L98 -54 L98 -120 L118 -120 C116 -143 111 -160 103 -169 C98 -173 93 -177 89 -181 C88 -182 85 -184 83 -187 L83 -216 C129 -192 145 -165 145 -110 L145 -54 Z " />
<glyph glyph-name="Tcaron" unicode="&#x164;" horiz-adv-x="434" d="M245 616 L420 616 L420 667 L13 667 L13 616 L188 616 L188 0 L245 0 L245 616 Z M216 757 L142 847 L89 847 L192 715 L238 715 L344 847 L289 847 L216 757 Z " />
<glyph glyph-name="tcaron" unicode="&#x165;" horiz-adv-x="460" d="M137 413 L212 413 L212 460 L137 460 L137 615 L87 615 L87 460 L17 460 L17 413 L87 413 L87 63 C87 18 108 0 158 0 L212 0 L212 45 L170 45 C143 45 137 50 137 72 L137 413 Z M418 658 L375 680 L281 474 L321 457 L418 658 Z " />
<glyph glyph-name="Tbar" unicode="&#x166;" horiz-adv-x="495" d="M274 403 L274 621 L506 621 L506 667 L-11 667 L-11 621 L221 621 L221 403 L28 403 L28 363 L221 363 L221 0 L274 0 L274 363 L467 363 L467 403 L274 403 Z " />
<glyph glyph-name="tbar" unicode="&#x167;" horiz-adv-x="258" d="M140 347 L140 444 L244 444 L244 481 L140 481 L140 631 L90 631 L90 481 L1 481 L1 444 L90 444 L90 347 L21 347 L21 313 L90 313 L90 126 C90 71 93 53 105 34 C121 9 150 -3 194 -3 C209 -3 221 -2 244 1 L244 41 C223 38 213 37 204 37 C176 37 157 46 148 64 C142 76 140 93 140 131 L140 313 L222 313 L222 347 L140 347 Z " />
<glyph glyph-name="utilde" unicode="&#x169;" horiz-adv-x="470" d="M352 460 L352 163 C352 120 345 97 327 77 C306 54 270 39 235 39 C165 39 118 89 118 163 L118 460 L68 460 L68 163 C68 60 135 -8 236 -8 C283 -8 327 10 359 41 C391 71 402 103 402 163 L402 460 L352 460 Z M359 631 C341 599 324 585 304 585 C293 585 288 587 274 596 C216 636 206 640 181 640 C151 640 120 619 90 579 L125 549 C142 578 159 591 181 591 C192 591 202 587 219 576 C275 541 284 537 303 537 C333 537 363 560 393 606 L359 631 Z " />
<glyph glyph-name="Umacron" unicode="&#x16a;" horiz-adv-x="635" d="M134 667 L77 667 L77 267 C77 162 88 120 128 72 C173 18 242 -12 318 -12 C393 -12 459 16 503 67 C545 116 559 165 559 267 L559 667 L499 667 L499 270 C499 166 488 130 445 90 C411 60 359 40 315 40 C271 40 217 60 186 88 C148 122 134 170 134 267 L134 667 Z M458 799 L178 799 L178 755 L458 755 L458 799 Z " />
<glyph glyph-name="umacron" unicode="&#x16b;" horiz-adv-x="470" d="M352 460 L352 163 C352 120 345 97 327 77 C306 54 270 39 235 39 C165 39 118 89 118 163 L118 460 L68 460 L68 163 C68 60 135 -8 236 -8 C283 -8 327 10 359 41 C391 71 402 103 402 163 L402 460 L352 460 Z M368 609 L101 609 L101 568 L368 568 L368 609 Z " />
<glyph glyph-name="ubreve" unicode="&#x16d;" horiz-adv-x="470" d="M352 460 L352 163 C352 120 345 97 327 77 C306 54 270 39 235 39 C165 39 118 89 118 163 L118 460 L68 460 L68 163 C68 60 135 -8 236 -8 C283 -8 327 10 359 41 C391 71 402 103 402 163 L402 460 L352 460 Z M95 632 C109 571 162 533 235 533 C308 533 361 571 374 632 L325 632 C308 591 281 574 235 574 C189 574 162 591 145 632 L95 632 Z " />
<glyph glyph-name="Uring" unicode="&#x16e;" horiz-adv-x="635" d="M134 667 L77 667 L77 267 C77 162 88 120 128 72 C173 18 242 -12 318 -12 C393 -12 459 16 503 67 C545 116 559 165 559 267 L559 667 L499 667 L499 270 C499 166 488 130 445 90 C411 60 359 40 315 40 C271 40 217 60 186 88 C148 122 134 170 134 267 L134 667 Z M319 857 C277 857 245 825 245 784 C245 742 277 710 319 710 C359 710 392 742 392 782 C392 825 360 857 319 857 L319 857 Z M319 832 C347 832 367 811 367 783 C367 756 346 735 319 735 C291 735 270 756 270 784 C270 812 291 832 319 832 L319 832 Z " />
<glyph glyph-name="uring" unicode="&#x16f;" horiz-adv-x="470" d="M352 460 L352 163 C352 120 345 97 327 77 C306 54 270 39 235 39 C165 39 118 89 118 163 L118 460 L68 460 L68 163 C68 60 135 -8 236 -8 C283 -8 327 10 359 41 C391 71 402 103 402 163 L402 460 L352 460 Z M235 667 C193 667 161 635 161 594 C161 552 193 520 235 520 C275 520 308 552 308 592 C308 635 276 667 235 667 L235 667 Z M235 642 C263 642 283 621 283 593 C283 566 262 545 235 545 C207 545 186 566 186 594 C186 622 207 642 235 642 L235 642 Z " />
<glyph glyph-name="Uhungarumlaut" unicode="&#x170;" horiz-adv-x="635" d="M134 667 L77 667 L77 267 C77 162 88 120 128 72 C173 18 242 -12 318 -12 C393 -12 459 16 503 67 C545 116 559 165 559 267 L559 667 L499 667 L499 270 C499 166 488 130 445 90 C411 60 359 40 315 40 C271 40 217 60 186 88 C148 122 134 170 134 267 L134 667 Z M283 845 L217 715 L261 715 L352 845 L283 845 Z M430 845 L364 715 L408 715 L499 845 L430 845 Z " />
<glyph glyph-name="uhungarumlaut" unicode="&#x171;" horiz-adv-x="470" d="M352 460 L352 163 C352 120 345 97 327 77 C306 54 270 39 235 39 C165 39 118 89 118 163 L118 460 L68 460 L68 163 C68 60 135 -8 236 -8 C283 -8 327 10 359 41 C391 71 402 103 402 163 L402 460 L352 460 Z M205 653 L143 525 L183 525 L273 653 L205 653 Z M339 653 L276 525 L317 525 L407 653 L339 653 Z " />
<glyph glyph-name="Uogonek" unicode="&#x172;" horiz-adv-x="635" d="M134 667 L77 667 L77 267 C77 162 88 120 128 72 C173 18 242 -12 318 -12 C393 -12 459 16 503 67 C545 116 559 165 559 267 L559 667 L499 667 L499 270 C499 166 488 130 445 90 C411 60 359 40 315 40 C271 40 217 60 186 88 C148 122 134 170 134 267 L134 667 Z M456 0 C410 -28 387 -62 387 -101 C387 -148 430 -182 490 -182 C509 -182 520 -180 542 -172 L533 -132 C514 -138 506 -139 494 -139 C458 -139 434 -119 434 -89 C434 -61 451 -39 503 0 L456 0 Z " />
<glyph glyph-name="uogonek" unicode="&#x173;" horiz-adv-x="470" d="M352 460 L352 163 C352 120 345 97 327 77 C306 54 270 39 235 39 C165 39 118 89 118 163 L118 460 L68 460 L68 163 C68 60 135 -8 236 -8 C283 -8 327 10 359 41 C391 71 402 103 402 163 L402 460 L352 460 Z M226 0 C180 -28 157 -62 157 -101 C157 -148 200 -182 260 -182 C280 -182 291 -180 313 -172 L303 -132 C285 -137 276 -139 265 -139 C228 -139 204 -119 204 -90 C204 -62 227 -31 273 0 L226 0 Z " />
<glyph glyph-name="Wcircumflex" unicode="&#x174;" horiz-adv-x="862" d="M623 110 L460 667 L410 667 L243 110 L67 667 L7 667 L222 0 L264 0 L433 569 L603 0 L644 0 L856 667 L798 667 L623 110 Z M432 805 L506 715 L559 715 L456 847 L411 847 L304 715 L359 715 L432 805 Z " />
<glyph glyph-name="Ycircumflex" unicode="&#x176;" horiz-adv-x="515" d="M288 293 L518 667 L451 667 L258 353 L64 667 L-3 667 L231 293 L231 0 L288 0 L288 293 Z M258 805 L332 715 L385 715 L282 847 L237 847 L130 715 L185 715 L258 805 Z " />
<glyph glyph-name="ycircumflex" unicode="&#x177;" horiz-adv-x="422" d="M202 84 L63 460 L10 460 L175 17 L74 -228 L129 -228 L412 460 L356 460 L202 84 Z M210 615 L285 525 L339 525 L235 655 L187 655 L83 525 L136 525 L210 615 Z " />
<glyph glyph-name="Ydieresis" unicode="&#x178;" horiz-adv-x="515" d="M288 293 L518 667 L451 667 L258 353 L64 667 L-3 667 L231 293 L231 0 L288 0 L288 293 Z M159 821 C135 821 117 803 117 779 C117 756 135 738 159 738 C182 738 200 756 200 779 C200 803 182 821 159 821 L159 821 Z M358 821 C334 821 316 803 316 779 C316 756 334 738 358 738 C381 738 399 756 399 779 C399 803 381 821 358 821 L358 821 Z " />
<glyph glyph-name="Zacute" unicode="&#x179;" horiz-adv-x="532" d="M112 51 L525 667 L58 667 L58 616 L425 616 L13 0 L481 0 L481 51 L112 51 Z M320 845 L234 715 L280 715 L391 845 L320 845 Z " />
<glyph glyph-name="zacute" unicode="&#x17a;" horiz-adv-x="391" d="M116 47 L376 460 L55 460 L55 413 L288 413 L25 0 L345 0 L345 47 L116 47 Z M248 653 L166 525 L208 525 L318 653 L248 653 Z " />
<glyph glyph-name="Zdotaccent" unicode="&#x17b;" horiz-adv-x="532" d="M112 51 L525 667 L58 667 L58 616 L425 616 L13 0 L481 0 L481 51 L112 51 Z M267 821 C243 821 225 803 225 779 C225 756 243 738 267 738 C290 738 308 756 308 779 C308 803 290 821 267 821 L267 821 Z " />
<glyph glyph-name="zdotaccent" unicode="&#x17c;" horiz-adv-x="391" d="M116 47 L376 460 L55 460 L55 413 L288 413 L25 0 L345 0 L345 47 L116 47 Z M196 623 C174 623 159 608 159 586 C159 565 174 550 196 550 C216 550 232 565 232 586 C232 608 217 623 196 623 L196 623 Z " />
<glyph glyph-name="Zcaron" unicode="&#x17d;" horiz-adv-x="532" d="M112 51 L525 667 L58 667 L58 616 L425 616 L13 0 L481 0 L481 51 L112 51 Z M266 757 L192 847 L138 847 L241 715 L287 715 L393 847 L339 847 L266 757 Z " />
<glyph glyph-name="zcaron" unicode="&#x17e;" horiz-adv-x="391" d="M116 47 L376 460 L55 460 L55 413 L288 413 L25 0 L345 0 L345 47 L116 47 Z M197 565 L121 655 L67 655 L171 525 L219 525 L324 655 L270 655 L197 565 Z " />
<glyph glyph-name="florin" unicode="&#x192;" horiz-adv-x="500" d="M246 417 L178 34 C164 -38 126 -83 74 -86 L66 -133 C152 -129 216 -63 229 36 L296 417 L374 417 L381 460 L304 460 L328 597 C340 657 359 674 420 680 L428 722 C420 723 415 723 410 723 C380 723 347 710 323 689 C299 667 285 639 278 597 L254 460 L184 460 L177 417 L246 417 Z " />
<glyph glyph-name="uni01CD" unicode="&#x1cd;" horiz-adv-x="592" d="M457 175 L522 0 L585 0 L331 667 L269 667 L7 0 L64 0 L135 175 L457 175 Z M437 227 L156 227 L298 591 L437 227 Z M296 757 L222 847 L169 847 L272 715 L317 715 L424 847 L369 847 L296 757 Z " />
<glyph glyph-name="uni01CE" unicode="&#x1ce;" horiz-adv-x="561" d="M428 375 C384 438 328 468 255 468 C131 468 43 369 43 230 C43 91 132 -8 256 -8 C327 -8 382 27 428 102 L428 0 L478 0 L478 460 L428 460 L428 375 Z M259 421 C360 421 429 346 429 237 C429 128 352 39 256 39 C164 39 95 119 95 227 C95 277 110 326 136 362 C166 403 204 421 259 421 L259 421 Z M282 565 L206 655 L152 655 L256 525 L305 525 L409 655 L356 655 L282 565 Z " />
<glyph glyph-name="uni01D3" unicode="&#x1d3;" horiz-adv-x="635" d="M134 667 L77 667 L77 267 C77 162 88 120 128 72 C173 18 242 -12 318 -12 C393 -12 459 16 503 67 C545 116 559 165 559 267 L559 667 L499 667 L499 270 C499 166 488 130 445 90 C411 60 359 40 315 40 C271 40 217 60 186 88 C148 122 134 170 134 267 L134 667 Z M318 757 L244 847 L191 847 L293 715 L339 715 L446 847 L391 847 L318 757 Z " />
<glyph glyph-name="Gcaron" unicode="&#x1e6;" horiz-adv-x="722" d="M365 354 L365 303 L620 303 C618 237 607 198 577 154 C531 86 445 40 363 40 C217 40 105 167 105 333 C105 500 219 627 368 627 C419 627 469 611 509 581 C527 569 539 556 567 526 L609 561 C547 639 466 679 370 679 C180 679 47 536 47 331 C47 132 182 -12 368 -12 C486 -12 586 49 640 153 C664 200 675 249 675 313 L675 354 L365 354 Z M360 757 L286 847 L233 847 L336 715 L382 715 L488 847 L434 847 L360 757 Z " />
<glyph glyph-name="gcaron" unicode="&#x1e7;" horiz-adv-x="560" d="M427 370 C377 440 328 468 256 468 C198 468 151 451 116 416 C70 373 43 302 43 229 C43 94 134 -8 253 -8 C294 -8 337 6 368 29 C390 46 403 62 427 101 L427 -22 C427 -75 416 -111 392 -137 C363 -167 313 -186 261 -186 C220 -186 174 -174 149 -158 C136 -150 126 -141 105 -118 L67 -155 C110 -208 175 -235 258 -235 C395 -235 477 -155 477 -22 L477 460 L427 460 L427 370 Z M263 421 C310 421 358 398 389 362 C416 329 425 297 425 233 C425 181 410 128 388 101 C354 62 307 39 260 39 C165 39 95 121 95 232 C95 343 164 421 263 421 L263 421 Z M282 565 L206 655 L152 655 L256 525 L304 525 L409 655 L355 655 L282 565 Z " />
<glyph glyph-name="uni01F4" unicode="&#x1f4;" horiz-adv-x="722" d="M365 354 L365 303 L620 303 C618 237 607 198 577 154 C531 86 445 40 363 40 C217 40 105 167 105 333 C105 500 219 627 368 627 C419 627 469 611 509 581 C527 569 539 556 567 526 L609 561 C547 639 466 679 370 679 C180 679 47 536 47 331 C47 132 182 -12 368 -12 C486 -12 586 49 640 153 C664 200 675 249 675 313 L675 354 L365 354 Z M415 845 L329 715 L375 715 L486 845 L415 845 Z " />
<glyph glyph-name="scommaaccent" unicode="&#x219;" horiz-adv-x="407" d="M356 339 C352 420 295 468 202 468 C111 468 48 417 48 342 C48 309 63 276 87 255 C110 234 139 221 193 208 C277 188 308 163 308 117 C308 69 267 37 205 37 C136 37 93 71 89 128 L38 128 C48 37 103 -8 203 -8 C298 -8 360 42 360 117 C360 149 346 182 324 204 C301 228 271 242 209 257 C124 278 100 297 100 345 C100 392 139 422 201 422 C266 422 304 392 304 339 L356 339 Z M225 -54 L178 -54 L178 -120 L198 -120 C196 -143 191 -160 183 -169 C178 -173 173 -177 169 -181 C168 -182 165 -184 163 -187 L163 -216 C209 -192 225 -165 225 -110 L225 -54 Z " />
<glyph glyph-name="uni021A" unicode="&#x21a;" horiz-adv-x="434" d="M245 616 L420 616 L420 667 L13 667 L13 616 L188 616 L188 0 L245 0 L245 616 Z M239 -41 L192 -41 L192 -123 L212 -123 C213 -160 202 -182 179 -194 L179 -221 C219 -210 239 -174 239 -114 L239 -41 Z " />
<glyph glyph-name="uni021B" unicode="&#x21b;" horiz-adv-x="247" d="M137 413 L212 413 L212 460 L137 460 L137 615 L87 615 L87 460 L17 460 L17 413 L87 413 L87 63 C87 18 108 0 158 0 L212 0 L212 45 L170 45 C143 45 137 50 137 72 L137 413 Z M145 -54 L98 -54 L98 -120 L118 -120 C116 -143 111 -160 103 -169 C98 -173 93 -177 89 -181 C88 -182 85 -184 83 -187 L83 -216 C129 -192 145 -165 145 -110 L145 -54 Z " />
<glyph glyph-name="afii57929" unicode="&#x2bc;" horiz-adv-x="213" d="M172 658 L129 680 L35 474 L74 457 L172 658 Z " />
<glyph glyph-name="circumflex" unicode="&#x2c6;" horiz-adv-x="500" d="M249 615 L325 525 L379 525 L275 655 L226 655 L122 525 L175 525 L249 615 Z " />
<glyph glyph-name="caron" unicode="&#x2c7;" horiz-adv-x="500" d="M252 565 L176 655 L122 655 L226 525 L274 525 L379 655 L325 655 L252 565 Z " />
<glyph glyph-name="uni02C9" unicode="&#x2c9;" horiz-adv-x="500" d="M384 609 L117 609 L117 568 L384 568 L384 609 Z " />
<glyph glyph-name="breve" unicode="&#x2d8;" horiz-adv-x="500" d="M110 632 C124 571 177 533 250 533 C323 533 376 571 389 632 L340 632 C323 591 295 574 250 574 C204 574 177 591 159 632 L110 632 Z " />
<glyph glyph-name="dotaccent" unicode="&#x2d9;" horiz-adv-x="500" d="M250 623 C228 623 213 608 213 586 C213 565 228 550 250 550 C270 550 286 565 286 586 C286 608 271 623 250 623 L250 623 Z " />
<glyph glyph-name="ring" unicode="&#x2da;" horiz-adv-x="500" d="M251 667 C209 667 177 635 177 594 C177 552 209 520 251 520 C291 520 324 552 324 592 C324 635 292 667 251 667 L251 667 Z M251 642 C279 642 299 621 299 593 C299 566 278 545 251 545 C223 545 202 566 202 594 C202 622 223 642 251 642 L251 642 Z " />
<glyph glyph-name="ogonek" unicode="&#x2db;" horiz-adv-x="500" d="M241 0 C195 -28 172 -62 172 -101 C172 -148 215 -182 275 -182 C295 -182 306 -180 328 -172 L318 -132 C300 -137 291 -139 280 -139 C243 -139 219 -119 219 -90 C219 -62 242 -31 288 0 L241 0 Z " />
<glyph glyph-name="tilde" unicode="&#x2dc;" horiz-adv-x="500" d="M373 631 C356 599 339 585 318 585 C308 585 303 587 289 596 C230 636 221 640 195 640 C166 640 135 619 105 579 L140 549 C157 578 173 591 195 591 C206 591 217 587 234 576 C289 541 298 537 318 537 C348 537 377 560 408 606 L373 631 Z " />
<glyph glyph-name="hungarumlaut" unicode="&#x2dd;" horiz-adv-x="500" d="M220 653 L158 525 L198 525 L288 653 L220 653 Z M354 653 L291 525 L331 525 L421 653 L354 653 Z " />
<glyph glyph-name="uni0387" unicode="&#x387;" horiz-adv-x="215" d="M108 283 C85 283 67 266 67 242 C67 219 85 201 108 201 C131 201 149 219 149 241 C149 265 132 283 108 283 L108 283 Z " />
<glyph glyph-name="Wacute" unicode="&#x1e82;" horiz-adv-x="267" d="M233 265 L33 265 L33 218 L233 218 L233 265 Z " />
<glyph glyph-name="Wdieresis" unicode="&#x1e84;" horiz-adv-x="862" d="M623 110 L460 667 L410 667 L243 110 L67 667 L7 667 L222 0 L264 0 L433 569 L603 0 L644 0 L856 667 L798 667 L623 110 Z M332 821 C308 821 290 803 290 779 C290 756 308 738 332 738 C355 738 373 756 373 779 C373 803 355 821 332 821 L332 821 Z M532 821 C508 821 490 803 490 779 C490 756 508 738 532 738 C555 738 573 756 573 779 C573 803 555 821 532 821 L532 821 Z " />
<glyph glyph-name="uni2006" unicode="&#x2006;" horiz-adv-x="67" d="" />
<glyph glyph-name="uni2007" unicode="&#x2007;" horiz-adv-x="556" d="" />
<glyph glyph-name="uni2011" unicode="&#x2011;" horiz-adv-x="200" d="M200 265 L0 265 L0 218 L200 218 L200 265 Z " />
<glyph glyph-name="figuredash" unicode="&#x2012;" horiz-adv-x="500" d="M416 265 L83 265 L83 218 L416 218 L416 265 Z " />
<glyph glyph-name="endash" unicode="&#x2013;" horiz-adv-x="500" d="M416 265 L83 265 L83 218 L416 218 L416 265 Z " />
<glyph glyph-name="emdash" unicode="&#x2014;" horiz-adv-x="598" d="M598 265 L0 265 L0 218 L598 218 L598 265 Z " />
<glyph glyph-name="afii00208" unicode="&#x2015;" horiz-adv-x="598" d="M598 265 L0 265 L0 218 L598 218 L598 265 Z " />
<glyph glyph-name="underscoredbl" unicode="&#x2017;" horiz-adv-x="500" d="M0 -62 L0 -91 L500 -91 L500 -62 L0 -62 Z M0 -178 L0 -208 L500 -208 L500 -178 L0 -178 Z " />
<glyph glyph-name="quoteleft" unicode="&#x2018;" horiz-adv-x="213" d="M41 479 L85 457 L178 662 L139 680 L41 479 Z " />
<glyph glyph-name="quoteright" unicode="&#x2019;" horiz-adv-x="213" d="M172 658 L129 680 L35 474 L74 457 L172 658 Z " />
<glyph glyph-name="quotesinglbase" unicode="&#x201a;" horiz-adv-x="213" d="M172 60 L129 83 L35 -123 L74 -141 L172 60 Z " />
<glyph glyph-name="quotedblleft" unicode="&#x201c;" horiz-adv-x="386" d="M208 444 L255 423 L355 662 L317 680 L208 444 Z M41 444 L87 422 L188 662 L149 680 L41 444 Z " />
<glyph glyph-name="quotedblright" unicode="&#x201d;" horiz-adv-x="386" d="M177 659 L131 679 L31 440 L69 422 L177 659 Z M345 659 L298 680 L197 440 L236 422 L345 659 Z " />
<glyph glyph-name="quotedblbase" unicode="&#x201e;" horiz-adv-x="386" d="M177 62 L131 82 L31 -157 L69 -175 L177 62 Z M345 62 L298 83 L197 -157 L236 -175 L345 62 Z " />
<glyph glyph-name="dagger" unicode="&#x2020;" horiz-adv-x="500" d="M227 667 L227 487 L80 487 L80 444 L227 444 L227 -220 L274 -220 L274 444 L420 444 L420 487 L274 487 L274 667 L227 667 Z " />
<glyph glyph-name="daggerdbl" unicode="&#x2021;" horiz-adv-x="500" d="M227 667 L227 487 L80 487 L80 444 L227 444 L227 3 L80 3 L80 -40 L227 -40 L227 -220 L274 -220 L274 -40 L420 -40 L420 3 L274 3 L274 444 L420 444 L420 487 L274 487 L274 667 L227 667 Z " />
<glyph glyph-name="bullet" unicode="&#x2022;" horiz-adv-x="667" d="M337 477 C258 477 196 416 196 338 C196 262 259 200 335 200 C411 200 473 262 473 339 C473 414 411 477 337 477 L337 477 Z " />
<glyph glyph-name="ellipsis" unicode="&#x2026;" horiz-adv-x="645" d="M108 77 C85 77 67 60 67 36 C67 13 85 -5 108 -5 C131 -5 149 13 149 35 C149 59 132 77 108 77 L108 77 Z M323 77 C300 77 282 60 282 36 C282 13 300 -5 323 -5 C346 -5 364 13 364 35 C364 59 347 77 323 77 L323 77 Z M538 77 C515 77 497 60 497 36 C497 13 515 -5 538 -5 C561 -5 579 13 579 35 C579 59 562 77 538 77 L538 77 Z " />
<glyph glyph-name="perthousand" unicode="&#x2030;" horiz-adv-x="836" d="M238 549 C238 611 236 620 215 640 C198 657 173 666 146 666 C118 666 91 656 74 638 C57 620 52 599 52 549 L52 440 C52 391 53 387 70 367 C86 347 113 336 144 336 C178 336 210 350 224 372 C234 388 238 409 238 439 L238 549 Z M85 548 C85 593 86 600 97 613 C107 625 126 632 147 632 C185 632 205 608 205 559 L205 450 C205 419 203 407 197 396 C187 380 167 370 145 370 C125 370 105 379 95 393 C86 405 85 410 85 455 L85 548 Z M524 213 C524 275 522 284 501 304 C484 321 459 330 432 330 C404 330 377 320 360 302 C343 284 338 262 338 213 L338 104 C338 55 339 51 356 31 C372 11 399 0 430 0 C464 0 496 14 510 36 C520 52 524 73 524 103 L524 213 Z M371 212 C371 257 372 264 383 277 C393 289 412 296 433 296 C472 296 491 272 491 223 L491 114 C491 82 489 71 483 60 C473 44 453 34 431 34 C411 34 391 43 381 57 C372 69 371 74 371 119 L371 212 Z M536 653 L506 673 L40 15 L69 -6 L536 653 Z M784 213 C784 275 782 284 761 304 C744 321 719 330 692 330 C664 330 637 320 620 302 C603 284 598 262 598 213 L598 104 C598 55 599 51 616 31 C632 11 659 0 690 0 C724 0 756 14 770 36 C780 52 784 73 784 103 L784 213 Z M631 212 C631 257 632 264 643 277 C653 289 672 296 693 296 C732 296 751 272 751 223 L751 114 C751 82 749 71 743 60 C733 44 713 34 691 34 C671 34 651 43 641 57 C632 69 631 74 631 119 L631 212 Z " />
<glyph glyph-name="guilsinglleft" unicode="&#x2039;" horiz-adv-x="252" d="M95 234 L199 406 L151 406 L47 234 L151 69 L199 69 L95 234 Z " />
<glyph glyph-name="guilsinglright" unicode="&#x203a;" horiz-adv-x="252" d="M157 241 L53 69 L101 69 L205 241 L101 406 L53 406 L157 241 Z " />
<glyph glyph-name="exclamdbl" unicode="&#x203c;" horiz-adv-x="375" d="M119 667 L67 667 L67 489 L77 180 L109 180 L119 489 L119 667 Z M120 106 L66 106 L66 0 L120 0 L120 106 Z M309 667 L257 667 L257 489 L267 180 L299 180 L309 489 L309 667 Z M309 106 L255 106 L255 0 L309 0 L309 106 Z " />
<glyph glyph-name="uni203E" unicode="&#x203e;" horiz-adv-x="500" d="M0 845 L0 809 L500 809 L500 845 L0 845 Z " />
<glyph glyph-name="fraction" unicode="&#x2044;" horiz-adv-x="122" d="M309 646 L279 667 L-187 8 L-158 -13 L309 646 Z " />
<glyph glyph-name="zerosuperior" unicode="&#x2070;" horiz-adv-x="327" d="M286 541 C286 587 278 610 255 630 C232 650 200 660 162 660 C118 660 84 647 64 622 C45 600 40 578 40 525 L40 394 C40 334 45 314 66 292 C88 269 122 256 162 256 C202 256 236 269 258 291 C278 312 286 338 286 383 L286 541 Z M81 523 C81 561 84 576 95 591 C110 611 134 622 163 622 C186 622 205 615 221 602 C239 587 245 571 245 539 L245 383 C245 322 219 294 163 294 C137 294 114 303 99 318 C83 334 81 342 81 394 L81 523 Z " />
<glyph glyph-name="foursuperior" unicode="&#x2074;" horiz-adv-x="327" d="M201 354 L201 261 L242 261 L242 354 L296 354 L296 393 L242 393 L242 677 L29 382 L29 354 L201 354 Z M201 393 L79 393 L201 561 L201 393 Z " />
<glyph glyph-name="fivesuperior" unicode="&#x2075;" horiz-adv-x="327" d="M99 614 L229 614 L229 653 L58 653 L58 437 C93 472 114 482 151 482 C211 482 252 444 252 390 C252 335 208 293 152 293 C126 293 101 302 87 317 C80 324 75 331 64 351 L24 337 C46 283 90 255 151 255 C235 255 295 311 295 389 C295 465 238 520 160 520 C139 520 120 517 99 510 L99 614 Z " />
<glyph glyph-name="sixsuperior" unicode="&#x2076;" horiz-adv-x="327" d="M231 653 L180 653 L53 458 C34 429 28 411 28 386 C28 312 87 255 163 255 C237 255 298 313 298 383 C298 453 242 505 167 505 C150 505 142 504 128 499 L231 653 Z M164 469 C214 469 255 430 255 382 C255 333 214 293 163 293 C112 293 71 334 71 384 C71 432 112 469 164 469 L164 469 Z " />
<glyph glyph-name="sevensuperior" unicode="&#x2077;" horiz-adv-x="327" d="M231 614 L78 261 L125 261 L293 653 L61 653 L61 614 L231 614 Z " />
<glyph glyph-name="eightsuperior" unicode="&#x2078;" horiz-adv-x="327" d="M215 482 C252 495 275 527 275 566 C275 620 228 660 164 660 C99 660 51 620 51 566 C51 527 74 495 112 482 C62 466 33 425 33 372 C33 304 87 255 162 255 C238 255 293 305 293 376 C293 427 264 467 215 482 L215 482 Z M164 623 C201 623 233 596 233 565 C233 534 200 505 163 505 C123 505 93 532 93 566 C93 600 122 623 164 623 L164 623 Z M164 460 C211 460 250 422 250 377 C250 330 211 293 163 293 C115 293 76 331 76 377 C76 423 116 460 164 460 L164 460 Z " />
<glyph glyph-name="ninesuperior" unicode="&#x2079;" horiz-adv-x="327" d="M98 261 L149 261 L277 464 C292 487 298 507 298 534 C298 605 241 660 166 660 C90 660 29 603 29 532 C29 463 86 409 159 409 C175 409 183 410 199 416 L98 261 Z M165 622 C216 622 255 583 255 533 C255 483 216 446 163 446 C112 446 72 485 72 534 C72 583 113 622 165 622 L165 622 Z " />
<glyph glyph-name="zeroinferior" unicode="&#x2080;" horiz-adv-x="327" d="M286 279 C286 326 278 348 255 369 C232 389 200 399 162 399 C118 399 84 386 64 361 C45 339 40 317 40 263 L40 132 C40 72 45 52 66 30 C88 7 122 -6 162 -6 C202 -6 236 6 258 29 C278 50 286 76 286 122 L286 279 Z M81 262 C81 300 84 315 95 330 C110 350 134 361 163 361 C186 361 205 354 221 341 C239 326 245 310 245 278 L245 122 C245 60 219 32 163 32 C137 32 114 41 99 56 C83 72 81 81 81 132 L81 262 Z " />
<glyph glyph-name="oneinferior" unicode="&#x2081;" horiz-adv-x="327" d="M173 332 L173 0 L214 0 L214 404 L73 306 L73 265 L173 332 Z " />
<glyph glyph-name="twoinferior" unicode="&#x2082;" horiz-adv-x="327" d="M110 39 L233 199 C268 244 279 270 279 302 C279 359 232 399 165 399 C92 399 54 362 50 285 L91 285 C92 339 113 362 162 362 C207 362 238 337 238 301 C238 275 228 257 180 194 L32 0 L266 0 L266 39 L110 39 Z " />
<glyph glyph-name="threeinferior" unicode="&#x2083;" horiz-adv-x="327" d="M207 353 L78 204 L89 191 C114 204 125 207 146 207 C208 207 249 172 249 121 C249 71 205 32 149 32 C106 32 76 54 60 97 L22 84 C40 27 86 -6 151 -6 C232 -6 292 49 292 124 C292 193 238 245 167 245 L292 392 L54 392 L54 353 L207 353 Z " />
<glyph glyph-name="fourinferior" unicode="&#x2084;" horiz-adv-x="327" d="M201 93 L201 0 L242 0 L242 93 L296 93 L296 132 L242 132 L242 416 L29 121 L29 93 L201 93 Z M201 132 L79 132 L201 300 L201 132 Z " />
<glyph glyph-name="fiveinferior" unicode="&#x2085;" horiz-adv-x="327" d="M99 353 L229 353 L229 392 L58 392 L58 176 C93 211 114 221 151 221 C211 221 252 183 252 129 C252 74 208 32 152 32 C109 32 87 46 64 90 L24 76 C46 22 90 -6 151 -6 C235 -6 295 50 295 128 C295 204 238 259 160 259 C139 259 119 256 99 249 L99 353 Z " />
<glyph glyph-name="sixinferior" unicode="&#x2086;" horiz-adv-x="327" d="M231 392 L180 392 L53 196 C34 167 28 149 28 124 C28 51 87 -7 163 -7 C237 -7 298 51 298 122 C298 192 242 244 167 244 C150 244 142 243 128 238 L231 392 Z M164 208 C214 208 255 169 255 120 C255 71 214 31 163 31 C112 31 71 72 71 123 C71 171 112 208 164 208 L164 208 Z " />
<glyph glyph-name="seveninferior" unicode="&#x2087;" horiz-adv-x="327" d="M231 353 L78 0 L125 0 L293 392 L61 392 L61 353 L231 353 Z " />
<glyph glyph-name="eightinferior" unicode="&#x2088;" horiz-adv-x="327" d="M215 221 C253 235 275 266 275 305 C275 359 228 399 164 399 C99 399 51 359 51 304 C51 266 74 234 112 221 C62 205 33 164 33 111 C33 43 87 -6 162 -6 C238 -6 293 44 293 115 C293 166 264 206 215 221 L215 221 Z M164 362 C201 362 233 335 233 304 C233 272 200 243 163 243 C123 243 93 270 93 305 C93 339 122 362 164 362 L164 362 Z M164 198 C211 198 250 161 250 115 C250 69 211 32 163 32 C115 32 76 70 76 115 C76 161 116 198 164 198 L164 198 Z " />
<glyph glyph-name="nineinferior" unicode="&#x2089;" horiz-adv-x="327" d="M98 0 L149 0 L277 202 C292 226 298 246 298 273 C298 344 241 399 166 399 C90 399 29 342 29 271 C29 202 86 148 159 148 C175 148 183 149 199 155 L98 0 Z M165 361 C216 361 255 322 255 272 C255 222 216 185 163 185 C112 185 72 224 72 273 C72 322 113 361 165 361 L165 361 Z " />
<glyph glyph-name="franc" unicode="&#x20a3;" horiz-adv-x="660" d="M147 616 L421 616 L421 667 L90 667 L90 0 L147 0 L147 312 L421 312 L421 363 L147 363 L147 616 Z M434 460 L434 0 L484 0 L484 240 C484 306 496 343 529 379 C554 406 584 418 623 419 L640 419 L640 468 L620 468 C586 468 551 457 527 438 C509 423 499 410 484 377 L484 460 L434 460 Z " />
<glyph glyph-name="lira" unicode="&#x20a4;" horiz-adv-x="583" d="M334 363 L196 363 C159 428 152 447 152 482 C152 562 221 615 324 615 C441 615 497 557 500 431 L548 431 C546 585 472 659 322 659 C187 659 96 588 96 484 C96 447 105 421 138 363 L73 363 L73 338 L152 338 C178 295 186 278 194 237 L73 237 L73 211 L196 211 C198 146 157 75 92 29 L123 -13 C164 16 197 29 232 29 C256 29 276 24 330 5 C373 -11 396 -16 422 -16 C473 -16 529 11 577 60 L554 101 C522 62 465 32 423 32 C399 32 394 33 327 56 C295 67 273 72 251 72 C224 72 205 67 173 52 C171 50 164 47 157 44 C219 100 245 148 245 211 L337 211 L337 237 L247 237 C240 277 234 294 210 338 L334 338 L334 363 Z " />
<glyph glyph-name="peseta" unicode="&#x20a7;" horiz-adv-x="860" d="M147 268 L260 268 C336 268 384 280 421 309 C468 345 494 403 494 469 C494 531 471 584 428 619 C388 651 330 667 251 667 L90 667 L90 0 L147 0 L147 268 Z M147 319 L147 616 L230 616 C278 616 307 613 336 605 C399 587 438 534 438 468 C438 404 400 349 341 331 C316 322 288 319 249 319 L147 319 Z M517 244 L564 244 L564 278 L517 278 L517 370 L478 370 L478 278 L435 278 L435 244 L478 244 L478 40 C478 12 493 0 526 0 L564 0 L564 33 L534 33 C519 33 517 35 517 46 L517 244 Z M824 200 C822 253 786 283 725 283 C666 283 625 251 625 205 C625 163 654 137 718 122 C768 111 786 97 786 72 C786 45 762 28 726 28 C684 28 660 47 658 82 L618 82 C624 23 659 -5 725 -5 C785 -5 826 26 826 72 C826 92 817 112 802 126 C787 141 768 149 729 158 C678 170 665 180 665 207 C665 233 688 249 723 249 C764 249 782 234 783 200 L824 200 Z " />
<glyph glyph-name="Euro" unicode="&#x20ac;" horiz-adv-x="500" d="M31 406 L11 359 L71 359 C70 348 70 335 70 327 C70 318 70 314 71 302 L31 302 L11 255 L75 255 C79 225 84 201 91 175 C122 67 211 -12 302 -12 C355 -12 413 15 459 61 L459 139 C422 77 364 40 302 40 C218 40 153 124 134 255 L345 255 L366 302 L130 302 C128 312 128 322 128 333 C128 344 128 350 129 359 L389 359 L410 406 L134 406 C153 538 220 627 301 627 C361 627 417 591 457 525 L483 580 C435 642 367 679 303 679 C213 679 127 601 94 491 C85 464 80 438 75 406 L31 406 Z " />
<glyph glyph-name="uni2101" unicode="&#x2101;" horiz-adv-x="880" d="M304 370 L344 267 L392 267 L231 667 L187 667 L22 267 L66 267 L110 370 L304 370 Z M288 407 L125 407 L208 608 L288 407 Z M753 646 L723 667 L257 8 L286 -13 L753 646 Z M598 107 C597 34 640 -7 718 -7 C794 -7 846 40 846 107 C846 162 817 193 739 219 C691 234 677 240 664 250 C651 260 643 278 643 297 C643 340 675 370 720 370 C748 370 774 358 786 339 C793 327 796 316 796 292 L838 292 C838 364 793 407 720 407 C649 407 600 361 600 296 C600 265 611 239 633 220 C651 204 664 198 715 183 C783 162 804 144 804 106 C804 60 769 29 716 29 C666 29 642 53 638 107 L598 107 Z " />
<glyph glyph-name="afii61248" unicode="&#x2105;" horiz-adv-x="296" d="M149 387 C127 387 110 370 110 348 C110 327 127 310 149 310 C170 310 187 327 187 349 C187 370 170 387 149 387 L149 387 Z " />
<glyph glyph-name="afii61289" unicode="&#x2113;" horiz-adv-x="500" d="M242 268 C298 326 335 373 360 416 C397 479 419 549 419 601 C419 647 397 677 362 677 C286 677 226 545 170 256 C149 231 128 211 115 200 C98 185 93 178 93 172 C93 167 99 160 104 160 C110 160 139 183 163 208 C150 102 149 94 149 60 C149 14 174 -16 213 -16 C245 -16 271 3 294 45 C305 63 311 80 311 90 C311 97 307 101 300 101 C293 101 288 96 282 84 C262 42 248 26 229 26 C215 26 209 34 209 52 C209 76 226 185 242 268 L242 268 Z M250 315 C293 567 319 645 361 645 C378 645 388 629 388 603 C388 576 379 532 366 496 C343 433 309 379 250 315 L250 315 Z " />
<glyph glyph-name="uni2117" unicode="&#x2117;" horiz-adv-x="152" d="M96 545 L57 545 L57 267 L96 267 L96 545 Z M76 645 C61 645 49 633 49 619 C49 604 61 592 76 592 C90 592 102 604 102 618 C102 633 90 645 76 645 L76 645 Z " />
<glyph glyph-name="trademark" unicode="&#x2122;" horiz-adv-x="816" d="M166 630 L274 630 L274 667 L14 667 L14 630 L123 630 L123 267 L166 267 L166 630 Z M393 565 L551 262 L711 565 L711 267 L754 267 L754 667 L720 667 L551 348 L385 667 L350 667 L350 267 L393 267 L393 565 Z " />
<glyph glyph-name="uni2126" unicode="&#x2126;" horiz-adv-x="666" d="M27 0 L284 0 L284 43 C238 69 214 85 187 110 C116 176 78 261 78 355 C78 514 189 637 333 637 C476 637 587 513 587 355 C587 271 557 196 497 131 C466 96 436 73 381 43 L381 0 L638 0 L638 45 L439 45 C570 119 639 229 639 361 C639 542 505 683 332 683 C160 683 26 542 26 361 C26 229 95 119 226 45 L27 45 L27 0 Z " />
<glyph glyph-name="onethird" unicode="&#x2153;" horiz-adv-x="776" d="M173 594 L173 261 L214 261 L214 665 L73 567 L73 526 L173 594 Z M636 646 L607 667 L140 8 L170 -13 L636 646 Z M656 353 L527 204 L538 191 C563 204 574 207 595 207 C657 207 698 172 698 121 C698 71 654 32 598 32 C555 32 525 54 509 97 L471 84 C489 27 535 -6 600 -6 C681 -6 741 49 741 124 C741 193 687 245 616 245 L741 392 L503 392 L503 353 L656 353 Z " />
<glyph glyph-name="twothirds" unicode="&#x2154;" horiz-adv-x="776" d="M110 300 L233 461 C268 506 279 531 279 564 C279 621 232 661 165 661 C92 661 54 624 50 547 L91 547 C92 601 113 624 162 624 C207 624 238 599 238 563 C238 537 228 518 180 456 L32 261 L266 261 L266 300 L110 300 Z M636 646 L607 667 L140 8 L169 -13 L636 646 Z M656 353 L527 204 L538 191 C563 204 574 207 595 207 C657 207 698 172 698 121 C698 71 654 32 598 32 C555 32 525 54 509 97 L471 84 C489 27 535 -6 600 -6 C681 -6 741 49 741 124 C741 193 687 245 616 245 L741 392 L503 392 L503 353 L656 353 Z " />
<glyph glyph-name="oneeighth" unicode="&#x215b;" horiz-adv-x="776" d="M173 594 L173 261 L214 261 L214 665 L73 567 L73 526 L173 594 Z M636 646 L607 667 L140 8 L170 -13 L636 646 Z M665 221 C702 234 725 266 725 305 C725 359 678 399 614 399 C549 399 501 359 501 304 C501 266 524 234 562 221 C512 205 483 165 483 111 C483 43 537 -6 612 -6 C688 -6 743 44 743 115 C743 166 714 206 665 221 L665 221 Z M614 362 C651 362 683 335 683 304 C683 272 650 243 613 243 C573 243 543 270 543 305 C543 339 572 362 614 362 L614 362 Z M614 198 C661 198 700 161 700 115 C700 69 661 32 613 32 C565 32 526 70 526 115 C526 161 566 198 614 198 L614 198 Z " />
<glyph glyph-name="threeeighths" unicode="&#x215c;" horiz-adv-x="776" d="M207 614 L78 465 L89 452 C114 465 125 468 146 468 C208 468 249 433 249 382 C249 332 205 293 149 293 C106 293 76 315 60 358 L22 346 C40 288 86 255 151 255 C232 255 292 310 292 385 C292 454 238 507 167 507 L292 653 L54 653 L54 614 L207 614 Z M636 646 L606 667 L140 8 L169 -13 L636 646 Z M664 221 C703 235 725 266 725 305 C725 359 678 399 614 399 C549 399 501 359 501 304 C501 265 524 234 561 221 C511 205 482 164 482 111 C482 43 536 -6 611 -6 C687 -6 742 44 742 115 C742 166 713 206 664 221 L664 221 Z M614 362 C651 362 683 335 683 304 C683 272 650 243 613 243 C573 243 543 270 543 305 C543 339 572 362 614 362 L614 362 Z M613 198 C660 198 699 161 699 115 C699 69 660 32 612 32 C564 32 525 70 525 115 C525 161 565 198 613 198 L613 198 Z " />
<glyph glyph-name="fiveeighths" unicode="&#x215d;" horiz-adv-x="776" d="M99 614 L229 614 L229 653 L58 653 L58 437 C93 472 114 482 151 482 C211 482 252 444 252 390 C252 335 208 293 152 293 C126 293 101 302 87 317 C80 324 75 331 64 351 L24 337 C46 283 90 255 151 255 C235 255 295 311 295 389 C295 465 238 520 160 520 C139 520 120 517 99 510 L99 614 Z M636 646 L606 667 L140 8 L169 -13 L636 646 Z M664 221 C702 234 725 266 725 305 C725 359 678 399 613 399 C548 399 500 359 500 304 C500 266 523 234 561 221 C511 205 482 164 482 111 C482 43 536 -6 611 -6 C687 -6 742 44 742 115 C742 166 713 206 664 221 L664 221 Z M613 362 C651 362 683 335 683 304 C683 272 649 243 612 243 C573 243 542 270 542 305 C542 339 571 362 613 362 L613 362 Z M613 198 C660 198 699 161 699 115 C699 69 660 32 612 32 C564 32 525 70 525 115 C525 161 565 198 613 198 L613 198 Z " />
<glyph glyph-name="seveneighths" unicode="&#x215e;" horiz-adv-x="776" d="M231 614 L78 261 L125 261 L293 653 L61 653 L61 614 L231 614 Z M636 646 L607 667 L140 8 L169 -13 L636 646 Z M664 221 C702 235 725 266 725 305 C725 359 678 399 614 399 C549 399 501 359 501 304 C501 266 524 234 562 221 C511 205 482 164 482 111 C482 43 536 -6 612 -6 C688 -6 743 44 743 115 C743 166 714 206 664 221 L664 221 Z M614 362 C651 362 683 335 683 304 C683 272 650 243 613 243 C573 243 543 270 543 305 C543 339 572 362 614 362 L614 362 Z M614 198 C661 198 700 161 700 115 C700 69 661 32 612 32 C564 32 525 70 525 115 C525 161 565 198 614 198 L614 198 Z " />
<glyph glyph-name="arrowleft" unicode="&#x2190;" horiz-adv-x="667" d="M653 363 L153 363 C181 402 205 448 205 464 C205 473 199 479 190 479 C184 479 180 477 174 470 C131 419 112 403 29 354 C15 346 13 343 13 335 C13 329 18 324 36 315 C99 278 134 251 168 211 C180 196 183 194 190 194 C199 194 205 200 205 208 C205 223 173 287 153 312 L653 312 L653 363 Z " />
<glyph glyph-name="arrowup" unicode="&#x2191;" horiz-adv-x="667" d="M360 13 L360 513 C401 484 445 461 461 461 C470 461 476 467 476 476 C476 482 474 486 467 492 C416 535 400 555 351 637 C343 652 340 654 332 654 C326 654 321 649 311 631 C276 569 248 532 208 499 C193 486 191 483 191 476 C191 467 197 461 205 461 C220 461 283 493 309 513 L309 13 L360 13 Z " />
<glyph glyph-name="arrowright" unicode="&#x2192;" horiz-adv-x="667" d="M13 310 L513 310 C485 271 461 225 461 209 C461 200 467 194 476 194 C482 194 486 196 492 203 C535 254 553 269 637 319 C651 327 653 330 653 338 C653 344 648 348 630 358 C567 394 532 422 498 462 C486 477 483 479 476 479 C467 479 461 473 461 465 C461 450 493 386 513 361 L13 361 L13 310 Z " />
<glyph glyph-name="arrowdown" unicode="&#x2193;" horiz-adv-x="667" d="M307 653 L307 153 C266 182 222 205 206 205 C197 205 191 199 191 190 C191 184 193 180 200 174 C251 131 266 113 316 29 C324 15 327 13 335 13 C341 13 346 18 356 36 C391 98 419 134 459 168 C474 180 476 183 476 190 C476 199 470 205 462 205 C447 205 384 174 358 153 L358 653 L307 653 Z " />
<glyph glyph-name="arrowboth" unicode="&#x2194;" horiz-adv-x="667" d="M513 310 C485 271 461 225 461 209 C461 200 467 194 476 194 C482 194 485 196 492 203 C535 254 554 269 637 319 C651 327 653 330 653 338 C653 344 648 349 630 359 C567 394 532 423 498 462 C486 477 483 479 476 479 C467 479 461 473 461 465 C461 450 493 386 513 361 L152 361 C174 388 205 450 205 465 C205 473 199 479 190 479 C183 479 180 477 168 462 C134 423 98 394 36 359 C18 349 13 344 13 338 C13 332 16 327 23 323 C104 275 129 255 166 213 C182 195 182 194 190 194 C199 194 205 200 205 209 C205 225 181 271 152 310 L513 310 Z " />
<glyph glyph-name="arrowupdn" unicode="&#x2195;" horiz-adv-x="667" d="M360 513 C401 484 445 461 461 461 C470 461 476 467 476 476 C476 482 474 486 467 492 C416 535 400 555 351 637 C343 652 340 654 332 654 C326 654 321 649 312 631 C277 569 248 532 208 499 C193 486 191 483 191 476 C191 467 197 461 205 461 C220 461 283 493 309 513 L309 152 C282 173 220 205 205 205 C197 205 191 199 191 190 C191 183 193 180 208 168 C248 134 277 97 312 36 C321 18 326 13 332 13 C338 13 343 16 347 23 C395 104 414 128 457 166 C475 182 476 182 476 190 C476 199 470 205 461 205 C445 205 400 182 360 152 L360 513 Z " />
<glyph glyph-name="arrowupdnbse" unicode="&#x21a8;" horiz-adv-x="667" d="M360 513 C401 484 445 461 461 461 C470 461 476 467 476 476 C476 482 474 486 467 492 C416 535 400 555 351 637 C343 652 340 654 332 654 C326 654 321 649 312 631 C277 569 248 532 208 499 C193 486 191 483 191 476 C191 467 197 461 205 461 C220 461 283 493 309 513 L309 152 C282 174 220 205 205 205 C197 205 191 199 191 190 C191 183 193 180 208 168 C248 134 276 98 311 36 C321 19 326 13 332 13 C338 13 343 16 347 23 C395 104 414 128 457 166 C475 182 476 182 476 190 C476 199 470 205 461 205 C445 205 400 182 360 152 L360 513 Z M201 -68 L201 -111 L465 -111 L465 -68 L201 -68 Z " />
<glyph glyph-name="partialdiff" unicode="&#x2202;" horiz-adv-x="500" d="M94 630 C221 613 323 541 372 433 C391 384 401 357 404 350 C384 377 373 390 360 400 C333 422 288 436 246 436 C130 436 37 337 37 212 C37 88 133 -12 251 -12 C321 -12 387 24 425 84 C452 125 463 169 463 233 C463 364 415 488 333 568 C271 627 205 657 101 673 L94 630 Z M258 396 C293 396 331 381 359 358 C395 327 415 277 415 218 C415 110 345 30 251 30 C160 30 84 112 84 212 C84 316 159 396 258 396 L258 396 Z " />
<glyph glyph-name="emptyset" unicode="&#x2205;" horiz-adv-x="618" d="M439 667 L392 578 C362 588 340 592 311 592 C175 592 67 485 67 349 C67 267 103 200 175 147 L114 25 L162 0 L225 123 C248 112 271 107 304 107 C443 107 552 214 552 350 C552 432 514 501 439 554 L487 642 L439 667 Z M416 502 C465 472 496 412 496 349 C496 247 412 164 309 164 C290 164 275 166 251 172 L416 502 Z M200 198 C149 239 123 290 123 350 C123 452 208 535 312 535 C332 535 345 533 366 527 L200 198 Z " />
<glyph glyph-name="Delta" unicode="&#x2206;" horiz-adv-x="612" d="M5 0 L606 0 L332 667 L279 667 L5 0 Z M73 45 L306 610 L538 45 L73 45 Z " />
<glyph glyph-name="product" unicode="&#x220f;" horiz-adv-x="667" d="M30 750 L30 707 L105 707 L105 -207 L30 -207 L30 -250 L231 -250 L231 -207 L152 -207 L152 707 L516 707 L516 -207 L435 -207 L435 -250 L637 -250 L637 -207 L563 -207 L563 707 L637 707 L637 750 L30 750 Z " />
<glyph glyph-name="summation" unicode="&#x2211;" horiz-adv-x="667" d="M589 750 L35 750 L35 697 L283 271 L35 -195 L35 -250 L598 -250 L598 -31 L549 -31 L547 -203 L92 -203 L343 271 L91 702 L537 702 L541 530 L589 530 L589 750 Z " />
<glyph glyph-name="minus" unicode="&#x2212;" horiz-adv-x="500" d="M27 351 L27 319 L472 319 L472 351 L27 351 Z " />
<glyph glyph-name="uni2218" unicode="&#x2218;" horiz-adv-x="500" d="M253 480 C175 480 113 418 113 340 C113 263 175 200 251 200 C327 200 388 263 388 340 C388 417 327 480 253 480 L253 480 Z M252 432 C301 432 341 390 341 340 C341 289 301 248 251 248 C201 248 160 289 160 340 C160 391 200 432 252 432 L252 432 Z " />
<glyph glyph-name="radical" unicode="&#x221a;" horiz-adv-x="667" d="M667 827 L427 827 L307 438 C273 326 238 210 202 89 C202 87 199 79 196 66 L194 66 C182 109 170 153 156 199 L109 351 L0 351 L0 307 L77 307 L171 0 L223 0 L465 783 L667 783 L667 827 Z " />
<glyph glyph-name="infinity" unicode="&#x221e;" horiz-adv-x="667" d="M334 312 C388 226 437 192 504 192 C588 192 647 252 647 339 C647 427 588 488 504 488 C437 488 389 455 332 369 C279 452 227 489 165 489 C79 489 19 428 19 342 C19 253 78 192 164 192 C228 192 277 227 334 312 L334 312 Z M354 341 C408 424 446 452 500 452 C562 452 606 405 606 340 C606 274 562 228 501 228 C446 228 405 260 354 341 L354 341 Z M312 340 C258 257 220 228 166 228 C104 228 60 275 60 341 C60 406 103 453 165 453 C220 453 261 421 312 340 L312 340 Z " />
<glyph glyph-name="orthogonal" unicode="&#x221f;" horiz-adv-x="344" d="M24 466 L24 428 L320 428 L320 466 L24 466 Z " />
<glyph glyph-name="intersection" unicode="&#x2229;" horiz-adv-x="531" d="M496 0 L496 320 C496 472 491 510 465 555 C425 625 351 667 265 667 C186 667 119 633 75 571 C40 521 34 486 34 320 L34 0 L85 0 L85 323 C85 448 91 495 111 532 C139 584 202 620 265 620 C324 620 383 589 414 540 C439 502 445 460 445 323 L445 0 L496 0 Z " />
<glyph glyph-name="union" unicode="&#x222a;" horiz-adv-x="531" d="M34 667 L34 347 C34 196 39 157 65 112 C105 42 179 0 265 0 C344 0 411 34 455 96 C490 146 496 182 496 347 L496 667 L445 667 L445 344 C445 219 439 172 419 135 C391 83 328 47 265 47 C206 47 147 78 116 127 C91 165 85 207 85 344 L85 667 L34 667 Z " />
<glyph glyph-name="integral" unicode="&#x222b;" horiz-adv-x="500" d="M116 -239 C134 -247 143 -249 160 -249 C204 -249 245 -230 262 -202 C275 -181 277 -162 277 -75 L277 596 C277 636 278 657 282 668 C289 690 307 702 333 702 C347 702 356 700 371 692 L384 739 C360 748 348 750 329 750 C281 750 243 726 231 688 C224 667 224 667 223 576 L223 -84 C223 -137 222 -156 218 -168 C212 -189 193 -202 167 -202 C154 -202 145 -200 129 -192 L116 -239 Z " />
<glyph glyph-name="uni222E" unicode="&#x222e;" horiz-adv-x="500" d="M115 -239 C135 -248 146 -250 167 -250 C213 -250 246 -232 262 -200 C273 -179 274 -166 274 -96 L274 100 C355 109 414 176 414 258 C414 341 358 404 274 416 L274 599 C274 639 275 657 279 668 C285 690 303 702 330 702 C344 702 353 700 370 692 L383 739 C358 748 345 750 326 750 C285 750 254 733 238 701 C227 681 224 656 224 599 L224 415 C144 404 87 338 87 258 C87 178 148 108 224 100 L224 -95 C224 -128 222 -158 219 -168 C212 -189 194 -202 167 -202 C154 -202 145 -200 127 -192 L115 -239 Z M274 385 C337 377 383 324 383 258 C383 191 339 139 274 130 L274 385 Z M224 130 C164 138 118 193 118 258 C118 323 163 377 224 385 L224 130 Z " />
<glyph glyph-name="uni2236" unicode="&#x2236;" horiz-adv-x="296" d="M149 529 C130 529 115 514 115 496 C115 477 130 462 149 462 C167 462 182 477 182 495 C182 514 167 529 149 529 L149 529 Z M149 234 C130 234 115 219 115 200 C115 182 130 167 149 167 C167 167 182 182 182 201 C182 219 167 234 149 234 L149 234 Z " />
<glyph glyph-name="similar" unicode="&#x223c;" horiz-adv-x="500" d="M42 269 C74 326 102 349 140 349 C162 349 187 341 225 321 C308 278 325 271 356 271 C409 271 456 308 488 375 L457 399 C425 341 397 319 358 319 C334 319 316 326 259 356 C202 386 170 397 142 397 C89 397 46 363 11 293 L42 269 Z " />
<glyph glyph-name="approxequal" unicode="&#x2248;" horiz-adv-x="500" d="M42 348 C77 404 103 425 140 425 C161 425 187 417 225 397 C308 354 324 348 353 348 C409 348 456 384 488 451 L457 472 C421 415 397 396 358 396 C334 396 315 403 259 432 C202 462 170 473 142 473 C89 473 46 439 11 369 L42 348 Z M42 193 C77 250 102 270 140 270 C162 270 187 262 225 242 C307 200 324 193 353 193 C409 193 456 229 488 297 L457 318 C422 260 397 241 358 241 C334 241 315 248 259 277 C202 307 170 318 142 318 C89 318 46 284 11 214 L42 193 Z " />
<glyph glyph-name="notequal" unicode="&#x2260;" horiz-adv-x="500" d="M275 426 L33 426 L33 381 L256 381 L205 275 L33 275 L33 230 L187 230 L133 116 L172 103 L233 230 L467 230 L467 275 L252 275 L302 381 L467 381 L467 426 L322 426 L373 533 L334 546 L275 426 Z " />
<glyph glyph-name="equivalence" unicode="&#x2261;" horiz-adv-x="500" d="M33 507 L33 460 L466 460 L466 507 L33 507 Z M33 357 L33 310 L466 310 L466 357 L33 357 Z M33 206 L33 159 L466 159 L466 206 L33 206 Z " />
<glyph glyph-name="lessequal" unicode="&#x2264;" horiz-adv-x="500" d="M466 577 L33 397 L33 349 L466 169 L466 220 L92 373 L466 526 L466 577 Z M466 139 L33 139 L33 92 L466 92 L466 139 Z " />
<glyph glyph-name="greaterequal" unicode="&#x2265;" horiz-adv-x="500" d="M33 169 L466 349 L466 397 L33 577 L33 526 L407 373 L33 220 L33 169 Z M33 92 L466 92 L466 139 L33 139 L33 92 Z " />
<glyph glyph-name="dotmath" unicode="&#x22c5;" horiz-adv-x="215" d="M108 283 C85 283 67 266 67 242 C67 219 85 201 108 201 C131 201 149 219 149 241 C149 265 132 283 108 283 L108 283 Z " />
<glyph glyph-name="house" unicode="&#x2302;" horiz-adv-x="751" d="M84 0 L667 0 L667 401 L375 729 L84 401 L84 0 Z M135 51 L135 379 L375 649 L616 379 L616 51 L135 51 Z " />
<glyph glyph-name="revlogicalnot" unicode="&#x2310;" horiz-adv-x="500" d="M85 0 L85 226 L466 226 L466 273 L33 273 L33 0 L85 0 Z " />
<glyph glyph-name="uni2319" unicode="&#x2319;" horiz-adv-x="500" d="M85 273 L33 273 L33 0 L466 0 L466 47 L85 47 L85 273 Z " />
<glyph glyph-name="integraltp" unicode="&#x2320;" horiz-adv-x="500" d="M277 -250 L277 596 C277 636 278 657 282 668 C289 690 307 702 333 702 C346 702 356 700 371 692 L384 739 C360 748 348 750 329 750 C281 750 243 726 231 688 C224 667 224 667 223 576 L223 -250 L277 -250 Z " />
<glyph glyph-name="integralbt" unicode="&#x2321;" horiz-adv-x="500" d="M223 750 L223 -96 C223 -137 222 -157 218 -168 C211 -190 193 -202 167 -202 C154 -202 145 -200 129 -192 L116 -239 C140 -248 152 -250 171 -250 C219 -250 257 -226 269 -188 C276 -168 277 -148 277 -76 L277 750 L223 750 Z " />
<glyph glyph-name="filledbox" unicode="&#x25a0;" horiz-adv-x="667" d="M667 0 L667 667 L0 667 L0 0 L667 0 Z " />
<glyph glyph-name="uni25A1" unicode="&#x25a1;" horiz-adv-x="667" d="M667 0 L667 667 L0 667 L0 0 L667 0 Z M620 47 L47 47 L47 620 L620 620 L620 47 Z " />
<glyph glyph-name="H18551" unicode="&#x25ab;" horiz-adv-x="344" d="M24 466 L24 428 L151 428 L151 303 L191 303 L191 428 L321 428 L321 466 L191 466 L191 591 L151 591 L151 466 L24 466 Z " />
<glyph glyph-name="filledrect" unicode="&#x25ac;" horiz-adv-x="667" d="M667 333 L0 333 L0 0 L667 0 L667 333 Z " />
<glyph glyph-name="uni25AE" unicode="&#x25ae;" horiz-adv-x="667" d="M500 0 L500 667 L167 667 L167 0 L500 0 Z " />
<glyph glyph-name="uni25AF" unicode="&#x25af;" horiz-adv-x="667" d="M334 589 C191 589 73 475 73 337 C73 191 188 77 334 77 C477 77 594 192 594 334 C594 475 477 589 334 589 L334 589 Z " />
<glyph glyph-name="triagup" unicode="&#x25b2;" horiz-adv-x="667" d="M633 67 L333 628 L33 67 L633 67 Z " />
<glyph glyph-name="uni25B4" unicode="&#x25b4;" horiz-adv-x="500" d="M466 147 L250 552 L33 147 L466 147 Z " />
<glyph glyph-name="uni25B8" unicode="&#x25b8;" horiz-adv-x="500" d="M71 119 L476 335 L71 552 L71 119 Z " />
<glyph glyph-name="triagdn" unicode="&#x25bc;" horiz-adv-x="667" d="M33 600 L333 39 L633 600 L33 600 Z " />
<glyph glyph-name="uni25BE" unicode="&#x25be;" horiz-adv-x="500" d="M33 520 L250 115 L466 520 L33 520 Z " />
<glyph glyph-name="uni25C2" unicode="&#x25c2;" horiz-adv-x="500" d="M428 552 L23 335 L428 119 L428 552 Z " />
<glyph glyph-name="lozenge" unicode="&#x25ca;" horiz-adv-x="667" d="M334 693 L74 334 L334 -26 L593 334 L334 693 Z M334 604 L531 334 L334 63 L137 334 L334 604 Z " />
<glyph glyph-name="circle" unicode="&#x25cb;" horiz-adv-x="667" d="M334 589 C191 589 73 475 73 337 C73 191 188 77 334 77 C477 77 594 192 594 334 C594 475 477 589 334 589 L334 589 Z M334 543 C451 543 547 449 547 334 C547 218 451 123 334 123 C214 123 120 217 120 336 C120 449 217 543 334 543 L334 543 Z " />
<glyph glyph-name="invbullet" unicode="&#x25d8;" horiz-adv-x="667" d="M0 0 L667 0 L667 667 L0 667 L0 0 Z M336 473 C410 473 471 410 471 334 C471 256 410 194 334 194 C258 194 196 257 196 333 C196 412 257 473 336 473 L336 473 Z " />
<glyph glyph-name="invcircle" unicode="&#x25d9;" horiz-adv-x="667" d="M667 0 L667 667 L0 667 L0 0 L667 0 Z M334 590 C477 590 594 475 594 334 C594 193 477 77 334 77 C188 77 73 192 73 338 C73 476 191 590 334 590 L334 590 Z M334 543 C217 543 120 449 120 336 C120 217 214 123 334 123 C451 123 547 218 547 334 C547 449 451 543 334 543 L334 543 Z " />
<glyph glyph-name="openbullet" unicode="&#x25e6;" horiz-adv-x="500" d="M253 480 C175 480 113 418 113 340 C113 263 175 200 251 200 C327 200 388 263 388 340 C388 417 327 480 253 480 L253 480 Z M252 432 C301 432 341 390 341 340 C341 289 301 248 251 248 C201 248 160 289 160 340 C160 391 200 432 252 432 L252 432 Z " />
<glyph glyph-name="smileface" unicode="&#x263a;" horiz-adv-x="667" d="M339 650 C160 650 17 510 17 336 C17 159 158 17 334 17 C508 17 650 159 650 334 C650 506 508 650 339 650 L339 650 Z M338 608 C485 608 609 483 609 334 C609 182 486 59 334 59 C181 59 59 182 59 336 C59 401 85 467 130 517 C185 578 254 608 338 608 L338 608 Z M241 466 C216 466 196 447 196 422 C196 398 216 378 240 378 C264 378 284 398 284 422 C284 446 264 466 241 466 L241 466 Z M434 465 C409 465 389 446 389 421 C389 397 409 377 433 377 C457 377 477 397 477 421 C477 445 457 465 434 465 L434 465 Z M540 372 C530 328 521 310 499 283 C457 236 404 213 334 213 C264 213 211 236 170 283 C147 310 138 328 128 372 C134 297 143 262 170 223 C206 169 262 141 334 141 C400 141 453 165 490 211 C522 252 535 291 540 372 L540 372 Z " />
<glyph glyph-name="invsmileface" unicode="&#x263b;" horiz-adv-x="667" d="M339 650 C160 650 17 510 17 336 C17 159 158 17 334 17 C508 17 650 159 650 334 C650 506 508 650 339 650 L339 650 Z M240 465 C264 465 283 445 283 422 C283 397 264 378 240 378 C215 378 196 397 196 422 C196 446 216 465 240 465 L240 465 Z M434 465 C457 465 477 445 477 421 C477 397 457 377 433 377 C409 377 389 397 389 421 C389 446 409 465 434 465 L434 465 Z M540 372 C535 298 525 263 499 223 C463 169 406 141 334 141 C268 141 216 165 179 211 C146 252 134 291 128 372 C138 328 147 310 170 283 C211 236 264 213 334 213 C404 213 457 236 499 283 C521 310 530 328 540 372 L540 372 Z " />
<glyph glyph-name="sun" unicode="&#x263c;" horiz-adv-x="667" d="M159 472 C131 436 117 404 112 359 L7 359 L7 308 L112 308 C116 267 133 226 158 194 L84 120 L119 85 L194 159 C231 131 268 116 308 112 L308 7 L358 7 L358 112 C401 117 438 133 471 159 L546 85 L581 120 L507 194 C533 228 548 265 554 308 L659 308 L659 359 L554 359 C548 402 533 440 507 473 L581 547 L546 582 L471 508 C441 533 400 550 358 555 L358 660 L308 660 L308 555 C267 550 227 534 194 507 L119 582 L84 547 L159 472 Z M336 493 C421 493 492 420 492 334 C492 246 421 174 333 174 C244 174 173 246 173 335 C173 423 245 493 336 493 L336 493 Z " />
<glyph glyph-name="female" unicode="&#x2640;" horiz-adv-x="667" d="M308 209 L147 209 L147 166 L308 166 L308 0 L356 0 L356 166 L519 166 L519 209 L356 209 L356 314 C448 328 513 403 513 496 C513 597 432 679 332 679 C233 679 153 597 153 496 C153 404 217 328 308 314 L308 209 Z M335 632 C407 632 466 570 466 496 C466 422 407 361 333 361 C260 361 200 422 200 496 C200 572 259 632 335 632 L335 632 Z " />
<glyph glyph-name="male" unicode="&#x2642;" horiz-adv-x="667" d="M570 499 C577 465 595 421 613 395 C625 376 627 374 636 374 C643 374 648 380 648 387 C648 392 647 396 645 407 C638 439 636 458 636 491 C636 527 639 550 646 578 C651 597 651 597 651 601 C651 607 647 611 641 611 L631 610 C590 598 570 596 526 596 C496 596 475 598 443 605 C432 607 428 608 423 608 C416 608 410 603 410 596 C410 587 416 581 431 573 C460 558 511 539 537 533 L386 382 C352 408 316 421 274 421 C175 421 94 339 94 239 C94 138 175 56 274 56 C373 56 454 138 454 238 C454 279 442 315 418 348 L570 499 Z M276 374 C348 374 407 313 407 239 C407 164 348 104 274 104 C201 104 141 165 141 239 C141 315 200 374 276 374 L276 374 Z " />
<glyph glyph-name="spade" unicode="&#x2660;" horiz-adv-x="667" d="M108 0 L568 0 L568 18 C415 43 350 111 342 255 C381 185 424 154 482 154 C550 154 604 208 604 277 C604 339 581 375 483 464 C384 555 367 580 332 686 C317 602 264 525 168 447 C96 386 64 335 64 278 C64 210 119 153 184 153 C237 153 290 183 316 227 C319 234 322 240 329 255 C326 187 310 139 273 96 C232 50 201 36 108 18 L108 0 Z " />
<glyph glyph-name="club" unicode="&#x2663;" horiz-adv-x="667" d="M561 0 L561 18 C469 36 441 49 399 92 C357 139 342 188 340 274 C360 240 368 229 378 216 C412 175 469 147 518 147 C599 147 664 214 664 299 C664 380 606 445 532 445 C506 445 499 443 446 417 C471 454 481 482 481 517 C481 596 415 660 334 660 C252 660 186 596 186 517 C186 483 196 455 221 417 L206 425 C172 441 159 445 135 445 C61 445 3 380 3 298 C3 215 68 147 147 147 C200 147 257 176 293 222 C303 234 310 245 327 274 C327 121 256 39 106 18 L106 0 L561 0 Z " />
<glyph glyph-name="heart" unicode="&#x2665;" horiz-adv-x="667" d="M332 -11 C350 67 402 156 501 280 C583 384 611 442 611 509 C611 581 552 640 479 640 C407 640 356 595 332 509 C322 540 316 555 305 571 C277 614 233 639 185 639 C113 639 56 580 56 505 C56 447 74 408 146 310 C276 136 310 78 332 -11 L332 -11 Z " />
<glyph glyph-name="diamond" unicode="&#x2666;" horiz-adv-x="667" d="M333 693 C280 596 214 502 80 334 C190 198 291 54 333 -26 C389 75 492 221 587 334 C516 414 363 630 333 693 L333 693 Z " />
<glyph glyph-name="musicalnote" unicode="&#x266a;" horiz-adv-x="667" d="M306 156 C290 163 269 167 252 167 C188 167 131 112 131 52 C131 14 157 -9 200 -9 C289 -9 352 60 352 156 L352 460 C410 452 458 373 458 287 C458 235 449 194 425 138 L453 138 C490 184 510 240 510 300 C510 379 481 452 419 525 L367 588 C365 589 360 596 352 606 L352 667 L306 667 L306 156 Z " />
<glyph glyph-name="uni266C" unicode="&#x266c;" horiz-adv-x="667" d="M616 694 L195 587 L195 136 C178 142 159 146 141 146 C77 146 20 92 20 33 C20 -5 46 -27 89 -27 C178 -27 241 41 241 136 L241 372 L570 462 L570 192 C554 199 534 203 516 203 C453 203 396 149 396 88 C396 50 421 28 464 28 C521 28 574 60 599 111 C611 136 616 157 616 192 L616 694 Z M241 448 L241 518 L570 608 L570 538 L241 448 Z " />
<glyph glyph-name="dotlessj" unicode="&#xf6be;" horiz-adv-x="217" d="M133 460 L83 460 L83 -65 C83 -136 42 -186 -16 -186 L-22 -186 L-22 -234 L-7 -234 C32 -234 71 -217 97 -187 C123 -157 133 -124 133 -65 L133 460 Z " />
<glyph glyph-name="commaaccent" unicode="&#xf6c3;" horiz-adv-x="500" d="M271 -54 L224 -54 L224 -120 L244 -120 C242 -143 237 -160 229 -169 C224 -173 219 -177 215 -181 C214 -182 211 -184 209 -187 L209 -216 C255 -192 271 -165 271 -110 L271 -54 Z " />
<glyph glyph-name="Acute" unicode="&#xf6c9;" horiz-adv-x="500" d="M304 845 L218 715 L264 715 L375 845 L304 845 Z " />
<glyph glyph-name="Caron" unicode="&#xf6ca;" horiz-adv-x="500" d="M250 757 L176 847 L123 847 L226 715 L272 715 L378 847 L323 847 L250 757 Z " />
<glyph glyph-name="Dieresis" unicode="&#xf6cb;" horiz-adv-x="500" d="M151 821 C127 821 109 803 109 779 C109 756 127 738 150 738 C174 738 192 756 192 779 C192 803 174 821 151 821 L151 821 Z M351 821 C327 821 309 803 309 779 C309 756 327 738 351 738 C374 738 392 756 392 779 C392 803 374 821 351 821 L351 821 Z " />
<glyph glyph-name="Grave" unicode="&#xf6ce;" horiz-adv-x="500" d="M196 845 L125 845 L236 715 L282 715 L196 845 Z " />
<glyph glyph-name="Hungarumlaut" unicode="&#xf6cf;" horiz-adv-x="500" d="M215 845 L149 715 L193 715 L284 845 L215 845 Z M362 845 L296 715 L340 715 L431 845 L362 845 Z " />
<glyph glyph-name="Macron" unicode="&#xf6d0;" horiz-adv-x="500" d="M390 799 L110 799 L110 755 L390 755 L390 799 Z " />
<glyph glyph-name="commasuperior" unicode="&#xf6e2;" horiz-adv-x="137" d="M109 311 L73 326 L10 171 L40 158 L109 311 Z " />
<glyph glyph-name="periodsuperior" unicode="&#xf6e8;" horiz-adv-x="137" d="M69 321 C53 321 40 308 40 293 C40 277 53 264 69 264 C84 264 97 277 97 292 C97 308 84 321 69 321 L69 321 Z " />
<glyph glyph-name="ff" unicode="&#xfb00;" horiz-adv-x="519" d="M140 413 L218 413 L218 460 L140 460 L140 541 C140 576 148 599 165 610 C175 617 186 620 218 625 L218 667 C210 668 204 668 200 668 C169 668 139 655 119 634 C99 612 90 583 90 541 L90 460 L21 460 L21 413 L90 413 L90 0 L140 0 L140 413 Z M414 413 L492 413 L492 460 L414 460 L414 541 C414 576 422 599 439 610 C449 617 460 620 492 625 L492 667 C484 668 478 668 474 668 C443 668 413 655 393 634 C373 612 364 583 364 541 L364 460 L295 460 L295 413 L364 413 L364 0 L414 0 L414 413 Z " />
<glyph glyph-name="fi" unicode="&#xfb01;" horiz-adv-x="491" d="M140 413 L218 413 L218 460 L140 460 L140 541 C140 576 148 599 165 610 C175 617 186 620 218 625 L218 667 C210 668 204 668 200 668 C169 668 139 655 119 634 C99 612 90 583 90 541 L90 460 L21 460 L21 413 L90 413 L90 0 L140 0 L140 413 Z M407 460 L357 460 L357 0 L407 0 L407 460 Z M383 626 C362 626 345 609 345 588 C345 568 362 551 383 551 C403 551 420 568 420 588 C420 609 404 626 383 626 L383 626 Z " />
<glyph glyph-name="fl" unicode="&#xfb02;" horiz-adv-x="491" d="M140 413 L218 413 L218 460 L140 460 L140 541 C140 576 148 599 165 610 C175 617 186 620 218 625 L218 667 C210 668 204 668 200 668 C169 668 139 655 119 634 C99 612 90 583 90 541 L90 460 L21 460 L21 413 L90 413 L90 0 L140 0 L140 413 Z M407 0 L407 667 L357 667 L357 0 L407 0 Z " />
<glyph glyph-name="ffi" unicode="&#xfb03;" horiz-adv-x="763" d="M139 413 L217 413 L217 460 L139 460 L139 541 C139 576 147 599 164 610 C174 617 185 620 217 625 L217 667 C209 668 203 668 199 668 C168 668 138 655 118 634 C98 612 89 583 89 541 L89 460 L20 460 L20 413 L89 413 L89 0 L139 0 L139 413 Z M413 413 L491 413 L491 460 L413 460 L413 541 C413 576 421 599 438 610 C448 617 459 620 491 625 L491 667 C483 668 477 668 473 668 C442 668 412 655 392 634 C372 612 363 583 363 541 L363 460 L294 460 L294 413 L363 413 L363 0 L413 0 L413 413 Z M680 460 L630 460 L630 0 L680 0 L680 460 Z M656 626 C635 626 618 609 618 588 C618 568 635 551 656 551 C676 551 693 568 693 588 C693 609 677 626 656 626 L656 626 Z " />
<glyph glyph-name="ffl" unicode="&#xfb04;" horiz-adv-x="765" d="M140 413 L218 413 L218 460 L140 460 L140 541 C140 576 148 599 165 610 C175 617 186 620 218 625 L218 667 C210 668 204 668 200 668 C169 668 139 655 119 634 C99 612 90 583 90 541 L90 460 L21 460 L21 413 L90 413 L90 0 L140 0 L140 413 Z M414 413 L492 413 L492 460 L414 460 L414 541 C414 576 422 599 439 610 C449 617 460 620 492 625 L492 667 C484 668 478 668 474 668 C443 668 413 655 393 634 C373 612 364 583 364 541 L364 460 L295 460 L295 413 L364 413 L364 0 L414 0 L414 413 Z M681 0 L681 667 L631 667 L631 0 L681 0 Z " />
</font>
</svg>
